<svg id="Layer_1" data-name="Layer 1" xmlns="http://www.w3.org/2000/svg" viewBox="0 0 98.48 100"><defs><style>.cls-1{fill:#3fa9f5;}.cls-2{fill:#7ac943;}.cls-3{fill:#f7931e;}</style></defs><title>NColour</title><path class="cls-1" d="M21,26.23H20.5l1,73.77h0C10.12,100,.89,91.8.89,81.69V13.52C.89,6.05,7.34,0,15.3,0h0A14.75,14.75,0,0,1,26.84,5.43L79.25,73.69h.51L78.75,0h0C90.14,0,99.37,8.2,99.37,18.31V86.48C99.37,93.95,92.92,100,85,100h0a14.75,14.75,0,0,1-11.54-5.42Z" transform="translate(-0.89)"/><path class="cls-2" d="M85,100h0a14.75,14.75,0,0,1-11.54-5.42L21,26.23H20.5L15.3,0h0A14.75,14.75,0,0,1,26.84,5.43L79.25,73.69h.51ZM99.37,86.48" transform="translate(-0.89)"/><path class="cls-3" d="M79.76,73.69,78.75,0h0C90.14,0,99.37,8.2,99.37,18.31V86.48C99.37,93.95,92.92,100,85,100h0" transform="translate(-0.89)"/></svg>