<svg id="Layer_1" data-name="Layer 1" xmlns="http://www.w3.org/2000/svg" viewBox="0 0 100 100"><defs><style>.cls-1{fill:#1a1a1a;}.cls-2{fill:#3fa9f5;}.cls-3{fill:#7ac943;}.cls-4{fill:#f7931e;}.cls-5{fill:#e6e6e6;}</style></defs><title>NanodeServer_Black</title><rect class="cls-1" y="28.1" width="100" height="43.81" rx="7.42" ry="7.42"/><circle class="cls-2" cx="54.76" cy="50" r="4.21"/><circle class="cls-3" cx="70.3" cy="50" r="4.21"/><circle class="cls-4" cx="85.84" cy="50" r="4.21"/><path class="cls-5" d="M16,43.54h-.14l.27,20h0c-3.09,0-5.6-2.23-5.6-5V40.09a3.8,3.8,0,0,1,3.91-3.67h0a4,4,0,0,1,3.14,1.47L31.79,56.44h.14l-.27-20h0c3.09,0,5.6,2.23,5.6,5V59.91a3.8,3.8,0,0,1-3.91,3.67h0a4,4,0,0,1-3.13-1.47Z"/><rect class="cls-1" y="-21.9" width="100" height="43.81" rx="7.42" ry="7.42"/><circle class="cls-2" cx="54.76" r="4.21"/><circle class="cls-3" cx="70.3" r="4.21"/><circle class="cls-4" cx="85.84" r="4.21"/><rect class="cls-1" y="78.1" width="100" height="43.81" rx="7.42" ry="7.42"/><circle class="cls-2" cx="54.76" cy="100" r="4.21"/><circle class="cls-3" cx="70.3" cy="100" r="4.21"/><circle class="cls-4" cx="85.84" cy="100" r="4.21"/></svg>