<svg id="Layer_1" data-name="Layer 1" xmlns="http://www.w3.org/2000/svg" viewBox="0 0 100 58.33"><defs><style>.cls-1{fill:#1a1a1a;}.cls-2{fill:#3fa9f5;}.cls-3{fill:#7ac943;}.cls-4{fill:#f7931e;}.cls-5{fill:#e6e6e6;}</style></defs><title>NServer_Black</title><rect class="cls-1" width="100" height="58.33" rx="7.42" ry="7.42"/><circle class="cls-2" cx="58.12" cy="29.17" r="5.35"/><circle class="cls-3" cx="75.3" cy="29.17" r="5.35"/><circle class="cls-4" cx="92.48" cy="29.17" r="5.35"/><path class="cls-5" d="M14.15,39.88h-.21l.43,31.4h0c-4.85,0-8.78-3.49-8.78-7.79v-29a6,6,0,0,1,6.13-5.75h0A6.28,6.28,0,0,1,16.63,31L38.94,60.08h.21l-.43-31.36h0c4.85,0,8.78,3.49,8.78,7.79v29a6,6,0,0,1-6.13,5.75h0A6.28,6.28,0,0,1,36.45,69Z" transform="translate(0 -20.83)"/></svg>