<svg xmlns="http://www.w3.org/2000/svg" xmlns:xlink="http://www.w3.org/1999/xlink" viewBox="0 0 370.93 250.55"><defs><style>.cls-1{fill:none;stroke-miterlimit:10;stroke:url(#linear-gradient);}.cls-2{fill:#3F444A;}.cls-3{fill:#282c32;}.cls-4{fill:#191b1e;}.cls-5{fill:#b3b3b3;}</style><linearGradient id="linear-gradient" x1="-30.07" y1="215.49" x2="155.93" y2="215.49" gradientTransform="matrix(0.97, 0.02, 0.02, 0.99, 37.49, -20.89)" gradientUnits="userSpaceOnUse"><stop offset="0" stop-color="#cce0f4"/><stop offset="0.16" stop-color="#c3dcf6"/><stop offset="0.42" stop-color="#a9d2fb"/><stop offset="0.56" stop-color="#9cf"/><stop offset="0.82" stop-color="#3d88c1" stop-opacity="0.9"/><stop offset="0.99" stop-color="#005b97" stop-opacity="0.1"/></linearGradient></defs><title>Blocks</title><g id="Layer_2" data-name="Layer 2"><g id="Blocks"><line class="cls-1" x1="13.72" y1="242.91" x2="191" y2="144.13"/><polygon class="cls-2" points="129.1 173.17 140.08 167.08 151.06 173.17 140.08 179.26 129.1 173.17"/><polygon class="cls-3" points="129.1 186.7 140.08 192.79 140.08 179.26 129.1 173.17 129.1 186.7"/><polygon class="cls-4" points="151.06 186.7 140.08 192.79 140.08 179.26 151.06 173.17 151.06 186.7"/><polygon class="cls-2" points="116.46 180.19 127.44 174.1 138.42 180.19 127.44 186.28 116.46 180.19"/><polygon class="cls-3" points="116.46 193.72 127.44 199.81 127.44 186.28 116.46 180.19 116.46 193.72"/><polygon class="cls-4" points="138.42 193.72 127.44 199.81 127.44 186.28 138.42 180.19 138.42 193.72"/><polygon class="cls-2" points="78.52 173.17 89.5 167.08 100.48 173.17 89.5 179.26 78.52 173.17"/><polygon class="cls-3" points="78.52 186.7 89.5 192.79 89.5 179.26 78.52 173.17 78.52 186.7"/><polygon class="cls-4" points="100.48 186.7 89.5 192.79 89.5 179.26 100.48 173.17 100.48 186.7"/><polygon class="cls-2" points="91.17 180.19 102.14 174.1 113.12 180.19 102.14 186.28 91.17 180.19"/><polygon class="cls-3" points="91.17 193.72 102.14 199.81 102.14 186.28 91.17 180.19 91.17 193.72"/><polygon class="cls-4" points="113.12 193.72 102.14 199.81 102.14 186.28 113.12 180.19 113.12 193.72"/><polygon class="cls-2" points="103.81 187.2 114.79 181.11 125.77 187.2 114.79 193.29 103.81 187.2"/><polygon class="cls-3" points="103.81 200.73 114.79 206.82 114.79 193.29 103.81 187.2 103.81 200.73"/><polygon class="cls-4" points="125.77 200.73 114.79 206.82 114.79 193.29 125.77 187.2 125.77 200.73"/><polygon class="cls-2" points="129.1 157.64 140.08 151.55 151.06 157.64 140.08 163.74 129.1 157.64"/><polygon class="cls-3" points="129.1 171.17 140.08 177.26 140.08 163.74 129.1 157.64 129.1 171.17"/><polygon class="cls-4" points="151.06 171.17 140.08 177.26 140.08 163.74 151.06 157.64 151.06 171.17"/><polygon class="cls-2" points="116.46 164.66 127.44 158.57 138.42 164.66 127.44 170.75 116.46 164.66"/><polygon class="cls-3" points="116.46 178.19 127.44 184.28 127.44 170.75 116.46 164.66 116.46 178.19"/><polygon class="cls-4" points="138.42 178.19 127.44 184.28 127.44 170.75 138.42 164.66 138.42 178.19"/><polygon class="cls-2" points="78.52 157.64 89.5 151.55 100.48 157.64 89.5 163.74 78.52 157.64"/><polygon class="cls-3" points="78.52 171.17 89.5 177.26 89.5 163.74 78.52 157.64 78.52 171.17"/><polygon class="cls-4" points="100.48 171.17 89.5 177.26 89.5 163.74 100.48 157.64 100.48 171.17"/><polygon class="cls-2" points="91.17 164.66 102.14 158.57 113.12 164.66 102.14 170.75 91.17 164.66"/><polygon class="cls-3" points="91.17 178.19 102.14 184.28 102.14 170.75 91.17 164.66 91.17 178.19"/><polygon class="cls-4" points="113.12 178.19 102.14 184.28 102.14 170.75 113.12 164.66 113.12 178.19"/><polygon class="cls-2" points="103.81 171.67 114.79 165.58 125.77 171.67 114.79 177.76 103.81 171.67"/><polygon class="cls-3" points="103.81 185.2 114.79 191.29 114.79 177.76 103.81 171.67 103.81 185.2"/><polygon class="cls-4" points="125.77 185.2 114.79 191.29 114.79 177.76 125.77 171.67 125.77 185.2"/><polygon class="cls-2" points="103.81 128.09 114.79 121.99 125.77 128.09 114.79 134.18 103.81 128.09"/><polygon class="cls-3" points="103.81 141.62 114.79 147.71 114.79 134.18 103.81 128.09 103.81 141.62"/><polygon class="cls-4" points="125.77 141.62 114.79 147.71 114.79 134.18 125.77 128.09 125.77 141.62"/><polygon class="cls-2" points="116.46 135.1 127.44 129.01 138.42 135.1 127.44 141.19 116.46 135.1"/><polygon class="cls-3" points="116.46 148.63 127.44 154.72 127.44 141.19 116.46 135.1 116.46 148.63"/><polygon class="cls-4" points="138.42 148.63 127.44 154.72 127.44 141.19 138.42 135.1 138.42 148.63"/><polygon class="cls-2" points="129.1 142.12 140.08 136.02 151.06 142.12 140.08 148.21 129.1 142.12"/><polygon class="cls-3" points="129.1 155.64 140.08 161.74 140.08 148.21 129.1 142.12 129.1 155.64"/><polygon class="cls-4" points="151.06 155.64 140.08 161.74 140.08 148.21 151.06 142.12 151.06 155.64"/><polygon class="cls-2" points="91.17 135.1 102.14 129.01 113.12 135.1 102.14 141.19 91.17 135.1"/><polygon class="cls-3" points="91.17 148.63 102.14 154.72 102.14 141.19 91.17 135.1 91.17 148.63"/><polygon class="cls-4" points="113.12 148.63 102.14 154.72 102.14 141.19 113.12 135.1 113.12 148.63"/><polygon class="cls-2" points="103.81 142.12 114.79 136.02 125.77 142.12 114.79 148.21 103.81 142.12"/><polygon class="cls-3" points="103.81 155.64 114.79 161.74 114.79 148.21 103.81 142.12 103.81 155.64"/><polygon class="cls-4" points="125.77 155.64 114.79 161.74 114.79 148.21 125.77 142.12 125.77 155.64"/><polygon class="cls-2" points="116.46 149.13 127.44 143.04 138.42 149.13 127.44 155.22 116.46 149.13"/><polygon class="cls-3" points="116.46 162.66 127.44 168.75 127.44 155.22 116.46 149.13 116.46 162.66"/><polygon class="cls-4" points="138.42 162.66 127.44 168.75 127.44 155.22 138.42 149.13 138.42 162.66"/><polygon class="cls-2" points="78.52 142.12 89.5 136.02 100.48 142.12 89.5 148.21 78.52 142.12"/><polygon class="cls-3" points="78.52 155.64 89.5 161.74 89.5 148.21 78.52 142.12 78.52 155.64"/><polygon class="cls-4" points="100.48 155.64 89.5 161.74 89.5 148.21 100.48 142.12 100.48 155.64"/><polygon class="cls-2" points="91.17 149.13 102.14 143.04 113.12 149.13 102.14 155.22 91.17 149.13"/><polygon class="cls-3" points="91.17 162.66 102.14 168.75 102.14 155.22 91.17 149.13 91.17 162.66"/><polygon class="cls-4" points="113.12 162.66 102.14 168.75 102.14 155.22 113.12 149.13 113.12 162.66"/><polygon class="cls-2" points="103.81 156.14 114.79 150.05 125.77 156.14 114.79 162.24 103.81 156.14"/><polygon class="cls-3" points="103.81 169.67 114.79 175.76 114.79 162.24 103.81 156.14 103.81 169.67"/><polygon class="cls-4" points="125.77 169.67 114.79 175.76 114.79 162.24 125.77 156.14 125.77 169.67"/><polygon class="cls-2" points="45.58 191.53 56.56 185.44 67.54 191.53 56.56 197.62 45.58 191.53"/><polygon class="cls-3" points="45.58 205.06 56.56 211.15 56.56 197.62 45.58 191.53 45.58 205.06"/><polygon class="cls-4" points="67.54 205.06 56.56 211.15 56.56 197.62 67.54 191.53 67.54 205.06"/><polygon class="cls-2" points="58.23 198.54 69.21 192.45 80.19 198.54 69.21 204.63 58.23 198.54"/><polygon class="cls-3" points="58.23 212.07 69.21 218.16 69.21 204.63 58.23 198.54 58.23 212.07"/><polygon class="cls-4" points="80.19 212.07 69.21 218.16 69.21 204.63 80.19 198.54 80.19 212.07"/><polygon class="cls-2" points="70.87 205.56 81.85 199.47 92.83 205.56 81.85 211.65 70.87 205.56"/><polygon class="cls-3" points="70.87 219.09 81.85 225.18 81.85 211.65 70.87 205.56 70.87 219.09"/><polygon class="cls-4" points="92.83 219.09 81.85 225.18 81.85 211.65 92.83 205.56 92.83 219.09"/><polygon class="cls-2" points="32.94 198.54 43.92 192.45 54.9 198.54 43.92 204.63 32.94 198.54"/><polygon class="cls-3" points="32.94 212.07 43.92 218.16 43.92 204.63 32.94 198.54 32.94 212.07"/><polygon class="cls-4" points="54.9 212.07 43.92 218.16 43.92 204.63 54.9 198.54 54.9 212.07"/><polygon class="cls-2" points="45.58 205.56 56.56 199.47 67.54 205.56 56.56 211.65 45.58 205.56"/><polygon class="cls-3" points="45.58 219.09 56.56 225.18 56.56 211.65 45.58 205.56 45.58 219.09"/><polygon class="cls-4" points="67.54 219.09 56.56 225.18 56.56 211.65 67.54 205.56 67.54 219.09"/><polygon class="cls-2" points="58.23 212.57 69.21 206.48 80.19 212.57 69.21 218.66 58.23 212.57"/><polygon class="cls-3" points="58.23 226.1 69.21 232.19 69.21 218.66 58.23 212.57 58.23 226.1"/><polygon class="cls-4" points="80.19 226.1 69.21 232.19 69.21 218.66 80.19 212.57 80.19 226.1"/><polygon class="cls-2" points="20.29 205.56 31.27 199.47 42.25 205.56 31.27 211.65 20.29 205.56"/><polygon class="cls-3" points="20.29 219.09 31.27 225.18 31.27 211.65 20.29 205.56 20.29 219.09"/><polygon class="cls-4" points="42.25 219.09 31.27 225.18 31.27 211.65 42.25 205.56 42.25 219.09"/><polygon class="cls-2" points="32.94 212.57 43.92 206.48 54.9 212.57 43.92 218.66 32.94 212.57"/><polygon class="cls-3" points="32.94 226.1 43.92 232.19 43.92 218.66 32.94 212.57 32.94 226.1"/><polygon class="cls-4" points="54.9 226.1 43.92 232.19 43.92 218.66 54.9 212.57 54.9 226.1"/><polygon class="cls-2" points="45.58 219.59 56.56 213.5 67.54 219.59 56.56 225.68 45.58 219.59"/><polygon class="cls-3" points="45.58 233.12 56.56 239.21 56.56 225.68 45.58 219.59 45.58 233.12"/><polygon class="cls-4" points="67.54 233.12 56.56 239.21 56.56 225.68 67.54 219.59 67.54 233.12"/><polygon class="cls-2" points="265.45 51.18 276.43 45.09 287.41 51.18 276.43 57.27 265.45 51.18"/><polygon class="cls-3" points="265.45 64.71 276.43 70.8 276.43 57.27 265.45 51.18 265.45 64.71"/><polygon class="cls-4" points="287.41 64.71 276.43 70.8 276.43 57.27 287.41 51.18 287.41 64.71"/><polygon class="cls-2" points="252.81 58.19 263.79 52.1 274.77 58.19 263.79 64.28 252.81 58.19"/><polygon class="cls-3" points="252.81 71.72 263.79 77.81 263.79 64.28 252.81 58.19 252.81 71.72"/><polygon class="cls-4" points="274.77 71.72 263.79 77.81 263.79 64.28 274.77 58.19 274.77 71.72"/><polygon class="cls-2" points="214.87 51.18 225.85 45.09 236.83 51.18 225.85 57.27 214.87 51.18"/><polygon class="cls-3" points="214.87 64.71 225.85 70.8 225.85 57.27 214.87 51.18 214.87 64.71"/><polygon class="cls-4" points="236.83 64.71 225.85 70.8 225.85 57.27 236.83 51.18 236.83 64.71"/><polygon class="cls-2" points="227.52 58.19 238.5 52.1 249.48 58.19 238.5 64.28 227.52 58.19"/><polygon class="cls-3" points="227.52 71.72 238.5 77.81 238.5 64.28 227.52 58.19 227.52 71.72"/><polygon class="cls-4" points="249.48 71.72 238.5 77.81 238.5 64.28 249.48 58.19 249.48 71.72"/><polygon class="cls-2" points="240.16 65.21 251.14 59.12 262.12 65.21 251.14 71.3 240.16 65.21"/><polygon class="cls-3" points="240.16 78.74 251.14 84.83 251.14 71.3 240.16 65.21 240.16 78.74"/><polygon class="cls-4" points="262.12 78.74 251.14 84.83 251.14 71.3 262.12 65.21 262.12 78.74"/><polygon class="cls-2" points="265.45 35.65 276.43 29.56 287.41 35.65 276.43 41.74 265.45 35.65"/><polygon class="cls-3" points="265.45 49.18 276.43 55.27 276.43 41.74 265.45 35.65 265.45 49.18"/><polygon class="cls-4" points="287.41 49.18 276.43 55.27 276.43 41.74 287.41 35.65 287.41 49.18"/><polygon class="cls-2" points="252.81 42.66 263.79 36.57 274.77 42.66 263.79 48.76 252.81 42.66"/><polygon class="cls-3" points="252.81 56.19 263.79 62.28 263.79 48.76 252.81 42.66 252.81 56.19"/><polygon class="cls-4" points="274.77 56.19 263.79 62.28 263.79 48.76 274.77 42.66 274.77 56.19"/><polygon class="cls-2" points="214.87 35.65 225.85 29.56 236.83 35.65 225.85 41.74 214.87 35.65"/><polygon class="cls-3" points="214.87 49.18 225.85 55.27 225.85 41.74 214.87 35.65 214.87 49.18"/><polygon class="cls-4" points="236.83 49.18 225.85 55.27 225.85 41.74 236.83 35.65 236.83 49.18"/><polygon class="cls-2" points="227.52 42.66 238.5 36.57 249.48 42.66 238.5 48.76 227.52 42.66"/><polygon class="cls-3" points="227.52 56.19 238.5 62.28 238.5 48.76 227.52 42.66 227.52 56.19"/><polygon class="cls-4" points="249.48 56.19 238.5 62.28 238.5 48.76 249.48 42.66 249.48 56.19"/><polygon class="cls-2" points="240.16 49.68 251.14 43.59 262.12 49.68 251.14 55.77 240.16 49.68"/><polygon class="cls-3" points="240.16 63.21 251.14 69.3 251.14 55.77 240.16 49.68 240.16 63.21"/><polygon class="cls-4" points="262.12 63.21 251.14 69.3 251.14 55.77 262.12 49.68 262.12 63.21"/><polygon class="cls-2" points="240.16 6.09 251.14 0 262.12 6.09 251.14 12.18 240.16 6.09"/><polygon class="cls-3" points="240.16 19.62 251.14 25.71 251.14 12.18 240.16 6.09 240.16 19.62"/><polygon class="cls-4" points="262.12 19.62 251.14 25.71 251.14 12.18 262.12 6.09 262.12 19.62"/><polygon class="cls-2" points="252.81 13.11 263.79 7.01 274.77 13.11 263.79 19.2 252.81 13.11"/><polygon class="cls-3" points="252.81 26.64 263.79 32.73 263.79 19.2 252.81 13.11 252.81 26.64"/><polygon class="cls-4" points="274.77 26.64 263.79 32.73 263.79 19.2 274.77 13.11 274.77 26.64"/><polygon class="cls-2" points="265.45 20.12 276.43 14.03 287.41 20.12 276.43 26.21 265.45 20.12"/><polygon class="cls-3" points="265.45 33.65 276.43 39.74 276.43 26.21 265.45 20.12 265.45 33.65"/><polygon class="cls-4" points="287.41 33.65 276.43 39.74 276.43 26.21 287.41 20.12 287.41 33.65"/><polygon class="cls-2" points="227.52 13.11 238.5 7.01 249.48 13.11 238.5 19.2 227.52 13.11"/><polygon class="cls-3" points="227.52 26.64 238.5 32.73 238.5 19.2 227.52 13.11 227.52 26.64"/><polygon class="cls-4" points="249.48 26.64 238.5 32.73 238.5 19.2 249.48 13.11 249.48 26.64"/><polygon class="cls-2" points="240.16 20.12 251.14 14.03 262.12 20.12 251.14 26.21 240.16 20.12"/><polygon class="cls-3" points="240.16 33.65 251.14 39.74 251.14 26.21 240.16 20.12 240.16 33.65"/><polygon class="cls-4" points="262.12 33.65 251.14 39.74 251.14 26.21 262.12 20.12 262.12 33.65"/><polygon class="cls-2" points="252.81 27.14 263.79 21.04 274.77 27.14 263.79 33.23 252.81 27.14"/><polygon class="cls-3" points="252.81 40.66 263.79 46.76 263.79 33.23 252.81 27.14 252.81 40.66"/><polygon class="cls-4" points="274.77 40.66 263.79 46.76 263.79 33.23 274.77 27.14 274.77 40.66"/><polygon class="cls-2" points="214.87 20.12 225.85 14.03 236.83 20.12 225.85 26.21 214.87 20.12"/><polygon class="cls-3" points="214.87 33.65 225.85 39.74 225.85 26.21 214.87 20.12 214.87 33.65"/><polygon class="cls-4" points="236.83 33.65 225.85 39.74 225.85 26.21 236.83 20.12 236.83 33.65"/><polygon class="cls-2" points="227.52 27.14 238.5 21.04 249.48 27.14 238.5 33.23 227.52 27.14"/><polygon class="cls-3" points="227.52 40.66 238.5 46.76 238.5 33.23 227.52 27.14 227.52 40.66"/><polygon class="cls-4" points="249.48 40.66 238.5 46.76 238.5 33.23 249.48 27.14 249.48 40.66"/><polygon class="cls-2" points="240.16 34.15 251.14 28.06 262.12 34.15 251.14 40.24 240.16 34.15"/><polygon class="cls-3" points="240.16 47.68 251.14 53.77 251.14 40.24 240.16 34.15 240.16 47.68"/><polygon class="cls-4" points="262.12 47.68 251.14 53.77 251.14 40.24 262.12 34.15 262.12 47.68"/><polygon class="cls-2" points="307.21 74.34 318.19 68.25 329.17 74.34 318.19 80.44 307.21 74.34"/><polygon class="cls-3" points="307.21 87.87 318.19 93.97 318.19 80.44 307.21 74.34 307.21 87.87"/><polygon class="cls-4" points="329.17 87.87 318.19 93.97 318.19 80.44 329.17 74.34 329.17 87.87"/><polygon class="cls-2" points="294.57 81.36 305.55 75.27 316.53 81.36 305.55 87.45 294.57 81.36"/><polygon class="cls-3" points="294.57 94.89 305.55 100.98 305.55 87.45 294.57 81.36 294.57 94.89"/><polygon class="cls-4" points="316.53 94.89 305.55 100.98 305.55 87.45 316.53 81.36 316.53 94.89"/><polygon class="cls-2" points="256.63 74.34 267.61 68.25 278.59 74.34 267.61 80.44 256.63 74.34"/><polygon class="cls-3" points="256.63 87.87 267.61 93.97 267.61 80.44 256.63 74.34 256.63 87.87"/><polygon class="cls-4" points="278.59 87.87 267.61 93.97 267.61 80.44 278.59 74.34 278.59 87.87"/><polygon class="cls-2" points="269.28 81.36 280.26 75.27 291.24 81.36 280.26 87.45 269.28 81.36"/><polygon class="cls-3" points="269.28 94.89 280.26 100.98 280.26 87.45 269.28 81.36 269.28 94.89"/><polygon class="cls-4" points="291.24 94.89 280.26 100.98 280.26 87.45 291.24 81.36 291.24 94.89"/><polygon class="cls-2" points="281.92 88.37 292.9 82.28 303.88 88.37 292.9 94.47 281.92 88.37"/><polygon class="cls-3" points="281.92 101.9 292.9 107.99 292.9 94.47 281.92 88.37 281.92 101.9"/><polygon class="cls-4" points="303.88 101.9 292.9 107.99 292.9 94.47 303.88 88.37 303.88 101.9"/><polygon class="cls-2" points="307.21 58.81 318.19 52.72 329.17 58.81 318.19 64.91 307.21 58.81"/><polygon class="cls-3" points="307.21 72.34 318.19 78.44 318.19 64.91 307.21 58.81 307.21 72.34"/><polygon class="cls-4" points="329.17 72.34 318.19 78.44 318.19 64.91 329.17 58.81 329.17 72.34"/><polygon class="cls-2" points="294.57 65.83 305.55 59.74 316.53 65.83 305.55 71.92 294.57 65.83"/><polygon class="cls-3" points="294.57 79.36 305.55 85.45 305.55 71.92 294.57 65.83 294.57 79.36"/><polygon class="cls-4" points="316.53 79.36 305.55 85.45 305.55 71.92 316.53 65.83 316.53 79.36"/><polygon class="cls-2" points="256.63 58.81 267.61 52.72 278.59 58.81 267.61 64.91 256.63 58.81"/><polygon class="cls-3" points="256.63 72.34 267.61 78.44 267.61 64.91 256.63 58.81 256.63 72.34"/><polygon class="cls-4" points="278.59 72.34 267.61 78.44 267.61 64.91 278.59 58.81 278.59 72.34"/><polygon class="cls-2" points="269.28 65.83 280.26 59.74 291.24 65.83 280.26 71.92 269.28 65.83"/><polygon class="cls-3" points="269.28 79.36 280.26 85.45 280.26 71.92 269.28 65.83 269.28 79.36"/><polygon class="cls-4" points="291.24 79.36 280.26 85.45 280.26 71.92 291.24 65.83 291.24 79.36"/><polygon class="cls-2" points="281.92 72.84 292.9 66.75 303.88 72.84 292.9 78.94 281.92 72.84"/><polygon class="cls-3" points="281.92 86.37 292.9 92.47 292.9 78.94 281.92 72.84 281.92 86.37"/><polygon class="cls-4" points="303.88 86.37 292.9 92.47 292.9 78.94 303.88 72.84 303.88 86.37"/><polygon class="cls-2" points="281.92 29.26 292.9 23.17 303.88 29.26 292.9 35.35 281.92 29.26"/><polygon class="cls-3" points="281.92 42.79 292.9 48.88 292.9 35.35 281.92 29.26 281.92 42.79"/><polygon class="cls-4" points="303.88 42.79 292.9 48.88 292.9 35.35 303.88 29.26 303.88 42.79"/><polygon class="cls-2" points="294.57 36.27 305.55 30.18 316.53 36.27 305.55 42.36 294.57 36.27"/><polygon class="cls-3" points="294.57 49.8 305.55 55.89 305.55 42.36 294.57 36.27 294.57 49.8"/><polygon class="cls-4" points="316.53 49.8 305.55 55.89 305.55 42.36 316.53 36.27 316.53 49.8"/><polygon class="cls-2" points="307.21 43.29 318.19 37.19 329.17 43.29 318.19 49.38 307.21 43.29"/><polygon class="cls-3" points="307.21 56.81 318.19 62.91 318.19 49.38 307.21 43.29 307.21 56.81"/><polygon class="cls-4" points="329.17 56.81 318.19 62.91 318.19 49.38 329.17 43.29 329.17 56.81"/><polygon class="cls-2" points="269.28 36.27 280.26 30.18 291.24 36.27 280.26 42.36 269.28 36.27"/><polygon class="cls-3" points="269.28 49.8 280.26 55.89 280.26 42.36 269.28 36.27 269.28 49.8"/><polygon class="cls-4" points="291.24 49.8 280.26 55.89 280.26 42.36 291.24 36.27 291.24 49.8"/><polygon class="cls-2" points="281.92 43.29 292.9 37.19 303.88 43.29 292.9 49.38 281.92 43.29"/><polygon class="cls-3" points="281.92 56.81 292.9 62.91 292.9 49.38 281.92 43.29 281.92 56.81"/><polygon class="cls-4" points="303.88 56.81 292.9 62.91 292.9 49.38 303.88 43.29 303.88 56.81"/><polygon class="cls-2" points="294.57 50.3 305.55 44.21 316.53 50.3 305.55 56.39 294.57 50.3"/><polygon class="cls-3" points="294.57 63.83 305.55 69.92 305.55 56.39 294.57 50.3 294.57 63.83"/><polygon class="cls-4" points="316.53 63.83 305.55 69.92 305.55 56.39 316.53 50.3 316.53 63.83"/><polygon class="cls-2" points="256.63 43.29 267.61 37.19 278.59 43.29 267.61 49.38 256.63 43.29"/><polygon class="cls-3" points="256.63 56.81 267.61 62.91 267.61 49.38 256.63 43.29 256.63 56.81"/><polygon class="cls-4" points="278.59 56.81 267.61 62.91 267.61 49.38 278.59 43.29 278.59 56.81"/><polygon class="cls-2" points="269.28 50.3 280.26 44.21 291.24 50.3 280.26 56.39 269.28 50.3"/><polygon class="cls-3" points="269.28 63.83 280.26 69.92 280.26 56.39 269.28 50.3 269.28 63.83"/><polygon class="cls-4" points="291.24 63.83 280.26 69.92 280.26 56.39 291.24 50.3 291.24 63.83"/><polygon class="cls-2" points="281.92 57.31 292.9 51.22 303.88 57.31 292.9 63.41 281.92 57.31"/><polygon class="cls-3" points="281.92 70.84 292.9 76.94 292.9 63.41 281.92 57.31 281.92 70.84"/><polygon class="cls-4" points="303.88 70.84 292.9 76.94 292.9 63.41 303.88 57.31 303.88 70.84"/><polygon class="cls-2" points="348.98 97.51 359.95 91.42 370.93 97.51 359.95 103.6 348.98 97.51"/><polygon class="cls-3" points="348.98 111.04 359.95 117.13 359.95 103.6 348.98 97.51 348.98 111.04"/><polygon class="cls-4" points="370.93 111.04 359.95 117.13 359.95 103.6 370.93 97.51 370.93 111.04"/><polygon class="cls-2" points="336.33 104.52 347.31 98.43 358.29 104.52 347.31 110.62 336.33 104.52"/><polygon class="cls-3" points="336.33 118.05 347.31 124.14 347.31 110.62 336.33 104.52 336.33 118.05"/><polygon class="cls-4" points="358.29 118.05 347.31 124.14 347.31 110.62 358.29 104.52 358.29 118.05"/><polygon class="cls-2" points="298.39 97.51 309.37 91.42 320.35 97.51 309.37 103.6 298.39 97.51"/><polygon class="cls-3" points="298.39 111.04 309.37 117.13 309.37 103.6 298.39 97.51 298.39 111.04"/><polygon class="cls-4" points="320.35 111.04 309.37 117.13 309.37 103.6 320.35 97.51 320.35 111.04"/><polygon class="cls-2" points="311.04 104.52 322.02 98.43 333 104.52 322.02 110.62 311.04 104.52"/><polygon class="cls-3" points="311.04 118.05 322.02 124.14 322.02 110.62 311.04 104.52 311.04 118.05"/><polygon class="cls-4" points="333 118.05 322.02 124.14 322.02 110.62 333 104.52 333 118.05"/><polygon class="cls-2" points="323.68 111.54 334.66 105.45 345.64 111.54 334.66 117.63 323.68 111.54"/><polygon class="cls-3" points="323.68 125.07 334.66 131.16 334.66 117.63 323.68 111.54 323.68 125.07"/><polygon class="cls-4" points="345.64 125.07 334.66 131.16 334.66 117.63 345.64 111.54 345.64 125.07"/><polygon class="cls-2" points="348.98 81.98 359.95 75.89 370.93 81.98 359.95 88.07 348.98 81.98"/><polygon class="cls-3" points="348.98 95.51 359.95 101.6 359.95 88.07 348.98 81.98 348.98 95.51"/><polygon class="cls-4" points="370.93 95.51 359.95 101.6 359.95 88.07 370.93 81.98 370.93 95.51"/><polygon class="cls-2" points="336.33 89 347.31 82.9 358.29 89 347.31 95.09 336.33 89"/><polygon class="cls-3" points="336.33 102.52 347.31 108.62 347.31 95.09 336.33 89 336.33 102.52"/><polygon class="cls-4" points="358.29 102.52 347.31 108.62 347.31 95.09 358.29 89 358.29 102.52"/><polygon class="cls-2" points="298.39 81.98 309.37 75.89 320.35 81.98 309.37 88.07 298.39 81.98"/><polygon class="cls-3" points="298.39 95.51 309.37 101.6 309.37 88.07 298.39 81.98 298.39 95.51"/><polygon class="cls-4" points="320.35 95.51 309.37 101.6 309.37 88.07 320.35 81.98 320.35 95.51"/><polygon class="cls-2" points="311.04 89 322.02 82.9 333 89 322.02 95.09 311.04 89"/><polygon class="cls-3" points="311.04 102.52 322.02 108.62 322.02 95.09 311.04 89 311.04 102.52"/><polygon class="cls-4" points="333 102.52 322.02 108.62 322.02 95.09 333 89 333 102.52"/><polygon class="cls-2" points="323.68 96.01 334.66 89.92 345.64 96.01 334.66 102.1 323.68 96.01"/><polygon class="cls-3" points="323.68 109.54 334.66 115.63 334.66 102.1 323.68 96.01 323.68 109.54"/><polygon class="cls-4" points="345.64 109.54 334.66 115.63 334.66 102.1 345.64 96.01 345.64 109.54"/><polygon class="cls-2" points="323.68 52.42 334.66 46.33 345.64 52.42 334.66 58.52 323.68 52.42"/><polygon class="cls-3" points="323.68 65.95 334.66 72.04 334.66 58.52 323.68 52.42 323.68 65.95"/><polygon class="cls-4" points="345.64 65.95 334.66 72.04 334.66 58.52 345.64 52.42 345.64 65.95"/><polygon class="cls-2" points="336.33 59.44 347.31 53.35 358.29 59.44 347.31 65.53 336.33 59.44"/><polygon class="cls-3" points="336.33 72.97 347.31 79.06 347.31 65.53 336.33 59.44 336.33 72.97"/><polygon class="cls-4" points="358.29 72.97 347.31 79.06 347.31 65.53 358.29 59.44 358.29 72.97"/><polygon class="cls-2" points="348.98 66.45 359.95 60.36 370.93 66.45 359.95 72.54 348.98 66.45"/><polygon class="cls-3" points="348.98 79.98 359.95 86.07 359.95 72.54 348.98 66.45 348.98 79.98"/><polygon class="cls-4" points="370.93 79.98 359.95 86.07 359.95 72.54 370.93 66.45 370.93 79.98"/><polygon class="cls-2" points="311.04 59.44 322.02 53.35 333 59.44 322.02 65.53 311.04 59.44"/><polygon class="cls-3" points="311.04 72.97 322.02 79.06 322.02 65.53 311.04 59.44 311.04 72.97"/><polygon class="cls-4" points="333 72.97 322.02 79.06 322.02 65.53 333 59.44 333 72.97"/><polygon class="cls-2" points="323.68 66.45 334.66 60.36 345.64 66.45 334.66 72.54 323.68 66.45"/><polygon class="cls-3" points="323.68 79.98 334.66 86.07 334.66 72.54 323.68 66.45 323.68 79.98"/><polygon class="cls-4" points="345.64 79.98 334.66 86.07 334.66 72.54 345.64 66.45 345.64 79.98"/><polygon class="cls-2" points="336.33 73.47 347.31 67.37 358.29 73.47 347.31 79.56 336.33 73.47"/><polygon class="cls-3" points="336.33 87 347.31 93.09 347.31 79.56 336.33 73.47 336.33 87"/><polygon class="cls-4" points="358.29 87 347.31 93.09 347.31 79.56 358.29 73.47 358.29 87"/><polygon class="cls-2" points="298.39 66.45 309.37 60.36 320.35 66.45 309.37 72.54 298.39 66.45"/><polygon class="cls-3" points="298.39 79.98 309.37 86.07 309.37 72.54 298.39 66.45 298.39 79.98"/><polygon class="cls-4" points="320.35 79.98 309.37 86.07 309.37 72.54 320.35 66.45 320.35 79.98"/><polygon class="cls-2" points="311.04 73.47 322.02 67.37 333 73.47 322.02 79.56 311.04 73.47"/><polygon class="cls-3" points="311.04 87 322.02 93.09 322.02 79.56 311.04 73.47 311.04 87"/><polygon class="cls-4" points="333 87 322.02 93.09 322.02 79.56 333 73.47 333 87"/><polygon class="cls-2" points="323.68 80.48 334.66 74.39 345.64 80.48 334.66 86.57 323.68 80.48"/><polygon class="cls-3" points="323.68 94.01 334.66 100.1 334.66 86.57 323.68 80.48 323.68 94.01"/><polygon class="cls-4" points="345.64 94.01 334.66 100.1 334.66 86.57 345.64 80.48 345.64 94.01"/><polygon class="cls-2" points="223.69 74.34 234.67 68.25 245.65 74.34 234.67 80.44 223.69 74.34"/><polygon class="cls-3" points="223.69 87.87 234.67 93.97 234.67 80.44 223.69 74.34 223.69 87.87"/><polygon class="cls-4" points="245.65 87.87 234.67 93.97 234.67 80.44 245.65 74.34 245.65 87.87"/><polygon class="cls-2" points="211.05 81.36 222.03 75.27 233.01 81.36 222.03 87.45 211.05 81.36"/><polygon class="cls-3" points="211.05 94.89 222.03 100.98 222.03 87.45 211.05 81.36 211.05 94.89"/><polygon class="cls-4" points="233.01 94.89 222.03 100.98 222.03 87.45 233.01 81.36 233.01 94.89"/><polygon class="cls-2" points="173.11 74.34 184.09 68.25 195.07 74.34 184.09 80.44 173.11 74.34"/><polygon class="cls-3" points="173.11 87.87 184.09 93.97 184.09 80.44 173.11 74.34 173.11 87.87"/><polygon class="cls-4" points="195.07 87.87 184.09 93.97 184.09 80.44 195.07 74.34 195.07 87.87"/><polygon class="cls-2" points="185.76 81.36 196.74 75.27 207.72 81.36 196.74 87.45 185.76 81.36"/><polygon class="cls-3" points="185.76 94.89 196.74 100.98 196.74 87.45 185.76 81.36 185.76 94.89"/><polygon class="cls-4" points="207.72 94.89 196.74 100.98 196.74 87.45 207.72 81.36 207.72 94.89"/><polygon class="cls-2" points="198.4 88.37 209.38 82.28 220.36 88.37 209.38 94.47 198.4 88.37"/><polygon class="cls-3" points="198.4 101.9 209.38 108 209.38 94.47 198.4 88.37 198.4 101.9"/><polygon class="cls-4" points="220.36 101.9 209.38 108 209.38 94.47 220.36 88.37 220.36 101.9"/><polygon class="cls-2" points="223.69 58.82 234.67 52.72 245.65 58.82 234.67 64.91 223.69 58.82"/><polygon class="cls-3" points="223.69 72.34 234.67 78.44 234.67 64.91 223.69 58.82 223.69 72.34"/><polygon class="cls-4" points="245.65 72.34 234.67 78.44 234.67 64.91 245.65 58.82 245.65 72.34"/><polygon class="cls-2" points="211.05 65.83 222.03 59.74 233.01 65.83 222.03 71.92 211.05 65.83"/><polygon class="cls-3" points="211.05 79.36 222.03 85.45 222.03 71.92 211.05 65.83 211.05 79.36"/><polygon class="cls-4" points="233.01 79.36 222.03 85.45 222.03 71.92 233.01 65.83 233.01 79.36"/><polygon class="cls-2" points="173.11 58.82 184.09 52.72 195.07 58.82 184.09 64.91 173.11 58.82"/><polygon class="cls-3" points="173.11 72.34 184.09 78.44 184.09 64.91 173.11 58.82 173.11 72.34"/><polygon class="cls-4" points="195.07 72.34 184.09 78.44 184.09 64.91 195.07 58.82 195.07 72.34"/><polygon class="cls-2" points="185.76 65.83 196.74 59.74 207.72 65.83 196.74 71.92 185.76 65.83"/><polygon class="cls-3" points="185.76 79.36 196.74 85.45 196.74 71.92 185.76 65.83 185.76 79.36"/><polygon class="cls-4" points="207.72 79.36 196.74 85.45 196.74 71.92 207.72 65.83 207.72 79.36"/><polygon class="cls-2" points="198.4 72.84 209.38 66.75 220.36 72.84 209.38 78.94 198.4 72.84"/><polygon class="cls-3" points="198.4 86.37 209.38 92.47 209.38 78.94 198.4 72.84 198.4 86.37"/><polygon class="cls-4" points="220.36 86.37 209.38 92.47 209.38 78.94 220.36 72.84 220.36 86.37"/><polygon class="cls-2" points="198.4 29.26 209.38 23.17 220.36 29.26 209.38 35.35 198.4 29.26"/><polygon class="cls-3" points="198.4 42.79 209.38 48.88 209.38 35.35 198.4 29.26 198.4 42.79"/><polygon class="cls-4" points="220.36 42.79 209.38 48.88 209.38 35.35 220.36 29.26 220.36 42.79"/><polygon class="cls-2" points="211.05 36.27 222.03 30.18 233.01 36.27 222.03 42.36 211.05 36.27"/><polygon class="cls-3" points="211.05 49.8 222.03 55.89 222.03 42.36 211.05 36.27 211.05 49.8"/><polygon class="cls-4" points="233.01 49.8 222.03 55.89 222.03 42.36 233.01 36.27 233.01 49.8"/><polygon class="cls-2" points="223.69 43.29 234.67 37.2 245.65 43.29 234.67 49.38 223.69 43.29"/><polygon class="cls-3" points="223.69 56.82 234.67 62.91 234.67 49.38 223.69 43.29 223.69 56.82"/><polygon class="cls-4" points="245.65 56.82 234.67 62.91 234.67 49.38 245.65 43.29 245.65 56.82"/><polygon class="cls-2" points="185.76 36.27 196.74 30.18 207.72 36.27 196.74 42.36 185.76 36.27"/><polygon class="cls-3" points="185.76 49.8 196.74 55.89 196.74 42.36 185.76 36.27 185.76 49.8"/><polygon class="cls-4" points="207.72 49.8 196.74 55.89 196.74 42.36 207.72 36.27 207.72 49.8"/><polygon class="cls-2" points="198.4 43.29 209.38 37.2 220.36 43.29 209.38 49.38 198.4 43.29"/><polygon class="cls-3" points="198.4 56.82 209.38 62.91 209.38 49.38 198.4 43.29 198.4 56.82"/><polygon class="cls-4" points="220.36 56.82 209.38 62.91 209.38 49.38 220.36 43.29 220.36 56.82"/><polygon class="cls-2" points="211.05 50.3 222.03 44.21 233.01 50.3 222.03 56.39 211.05 50.3"/><polygon class="cls-3" points="211.05 63.83 222.03 69.92 222.03 56.39 211.05 50.3 211.05 63.83"/><polygon class="cls-4" points="233.01 63.83 222.03 69.92 222.03 56.39 233.01 50.3 233.01 63.83"/><polygon class="cls-2" points="173.11 43.29 184.09 37.2 195.07 43.29 184.09 49.38 173.11 43.29"/><polygon class="cls-3" points="173.11 56.82 184.09 62.91 184.09 49.38 173.11 43.29 173.11 56.82"/><polygon class="cls-4" points="195.07 56.82 184.09 62.91 184.09 49.38 195.07 43.29 195.07 56.82"/><polygon class="cls-2" points="185.76 50.3 196.74 44.21 207.72 50.3 196.74 56.39 185.76 50.3"/><polygon class="cls-3" points="185.76 63.83 196.74 69.92 196.74 56.39 185.76 50.3 185.76 63.83"/><polygon class="cls-4" points="207.72 63.83 196.74 69.92 196.74 56.39 207.72 50.3 207.72 63.83"/><polygon class="cls-2" points="198.4 57.31 209.38 51.22 220.36 57.31 209.38 63.41 198.4 57.31"/><polygon class="cls-3" points="198.4 70.84 209.38 76.94 209.38 63.41 198.4 57.31 198.4 70.84"/><polygon class="cls-4" points="220.36 70.84 209.38 76.94 209.38 63.41 220.36 57.31 220.36 70.84"/><polygon class="cls-2" points="265.45 97.51 276.43 91.42 287.41 97.51 276.43 103.6 265.45 97.51"/><polygon class="cls-3" points="265.45 111.04 276.43 117.13 276.43 103.6 265.45 97.51 265.45 111.04"/><polygon class="cls-4" points="287.41 111.04 276.43 117.13 276.43 103.6 287.41 97.51 287.41 111.04"/><polygon class="cls-2" points="252.81 104.53 263.79 98.43 274.77 104.53 263.79 110.62 252.81 104.53"/><polygon class="cls-3" points="252.81 118.05 263.79 124.15 263.79 110.62 252.81 104.53 252.81 118.05"/><polygon class="cls-4" points="274.77 118.05 263.79 124.15 263.79 110.62 274.77 104.53 274.77 118.05"/><polygon class="cls-2" points="214.87 97.51 225.85 91.42 236.83 97.51 225.85 103.6 214.87 97.51"/><polygon class="cls-3" points="214.87 111.04 225.85 117.13 225.85 103.6 214.87 97.51 214.87 111.04"/><polygon class="cls-4" points="236.83 111.04 225.85 117.13 225.85 103.6 236.83 97.51 236.83 111.04"/><polygon class="cls-2" points="227.52 104.53 238.5 98.43 249.48 104.53 238.5 110.62 227.52 104.53"/><polygon class="cls-3" points="227.52 118.05 238.5 124.15 238.5 110.62 227.52 104.53 227.52 118.05"/><polygon class="cls-4" points="249.48 118.05 238.5 124.15 238.5 110.62 249.48 104.53 249.48 118.05"/><polygon class="cls-2" points="240.16 111.54 251.14 105.45 262.12 111.54 251.14 117.63 240.16 111.54"/><polygon class="cls-3" points="240.16 125.07 251.14 131.16 251.14 117.63 240.16 111.54 240.16 125.07"/><polygon class="cls-4" points="262.12 125.07 251.14 131.16 251.14 117.63 262.12 111.54 262.12 125.07"/><polygon class="cls-2" points="265.45 81.98 276.43 75.89 287.41 81.98 276.43 88.07 265.45 81.98"/><polygon class="cls-3" points="265.45 95.51 276.43 101.6 276.43 88.07 265.45 81.98 265.45 95.51"/><polygon class="cls-4" points="287.41 95.51 276.43 101.6 276.43 88.07 287.41 81.98 287.41 95.51"/><polygon class="cls-2" points="252.81 89 263.79 82.9 274.77 89 263.79 95.09 252.81 89"/><polygon class="cls-3" points="252.81 102.53 263.79 108.62 263.79 95.09 252.81 89 252.81 102.53"/><polygon class="cls-4" points="274.77 102.53 263.79 108.62 263.79 95.09 274.77 89 274.77 102.53"/><polygon class="cls-2" points="214.87 81.98 225.85 75.89 236.83 81.98 225.85 88.07 214.87 81.98"/><polygon class="cls-3" points="214.87 95.51 225.85 101.6 225.85 88.07 214.87 81.98 214.87 95.51"/><polygon class="cls-4" points="236.83 95.51 225.85 101.6 225.85 88.07 236.83 81.98 236.83 95.51"/><polygon class="cls-2" points="227.52 89 238.5 82.9 249.48 89 238.5 95.09 227.52 89"/><polygon class="cls-3" points="227.52 102.53 238.5 108.62 238.5 95.09 227.52 89 227.52 102.53"/><polygon class="cls-4" points="249.48 102.53 238.5 108.62 238.5 95.09 249.48 89 249.48 102.53"/><polygon class="cls-2" points="240.16 96.01 251.14 89.92 262.12 96.01 251.14 102.1 240.16 96.01"/><polygon class="cls-3" points="240.16 109.54 251.14 115.63 251.14 102.1 240.16 96.01 240.16 109.54"/><polygon class="cls-4" points="262.12 109.54 251.14 115.63 251.14 102.1 262.12 96.01 262.12 109.54"/><polygon class="cls-2" points="240.16 52.42 251.14 46.33 262.12 52.42 251.14 58.52 240.16 52.42"/><polygon class="cls-3" points="240.16 65.95 251.14 72.04 251.14 58.52 240.16 52.42 240.16 65.95"/><polygon class="cls-4" points="262.12 65.95 251.14 72.04 251.14 58.52 262.12 52.42 262.12 65.95"/><polygon class="cls-2" points="252.81 59.44 263.79 53.35 274.77 59.44 263.79 65.53 252.81 59.44"/><polygon class="cls-3" points="252.81 72.97 263.79 79.06 263.79 65.53 252.81 59.44 252.81 72.97"/><polygon class="cls-4" points="274.77 72.97 263.79 79.06 263.79 65.53 274.77 59.44 274.77 72.97"/><polygon class="cls-2" points="265.45 66.45 276.43 60.36 287.41 66.45 276.43 72.54 265.45 66.45"/><polygon class="cls-3" points="265.45 79.98 276.43 86.07 276.43 72.54 265.45 66.45 265.45 79.98"/><polygon class="cls-4" points="287.41 79.98 276.43 86.07 276.43 72.54 287.41 66.45 287.41 79.98"/><polygon class="cls-2" points="227.52 59.44 238.5 53.35 249.48 59.44 238.5 65.53 227.52 59.44"/><polygon class="cls-3" points="227.52 72.97 238.5 79.06 238.5 65.53 227.52 59.44 227.52 72.97"/><polygon class="cls-4" points="249.48 72.97 238.5 79.06 238.5 65.53 249.48 59.44 249.48 72.97"/><polygon class="cls-2" points="240.16 66.45 251.14 60.36 262.12 66.45 251.14 72.54 240.16 66.45"/><polygon class="cls-3" points="240.16 79.98 251.14 86.07 251.14 72.54 240.16 66.45 240.16 79.98"/><polygon class="cls-4" points="262.12 79.98 251.14 86.07 251.14 72.54 262.12 66.45 262.12 79.98"/><polygon class="cls-2" points="252.81 73.47 263.79 67.38 274.77 73.47 263.79 79.56 252.81 73.47"/><polygon class="cls-3" points="252.81 87 263.79 93.09 263.79 79.56 252.81 73.47 252.81 87"/><polygon class="cls-4" points="274.77 87 263.79 93.09 263.79 79.56 274.77 73.47 274.77 87"/><polygon class="cls-2" points="214.87 66.45 225.85 60.36 236.83 66.45 225.85 72.54 214.87 66.45"/><polygon class="cls-3" points="214.87 79.98 225.85 86.07 225.85 72.54 214.87 66.45 214.87 79.98"/><polygon class="cls-4" points="236.83 79.98 225.85 86.07 225.85 72.54 236.83 66.45 236.83 79.98"/><polygon class="cls-2" points="227.52 73.47 238.5 67.38 249.48 73.47 238.5 79.56 227.52 73.47"/><polygon class="cls-3" points="227.52 87 238.5 93.09 238.5 79.56 227.52 73.47 227.52 87"/><polygon class="cls-4" points="249.48 87 238.5 93.09 238.5 79.56 249.48 73.47 249.48 87"/><polygon class="cls-2" points="240.16 80.48 251.14 74.39 262.12 80.48 251.14 86.57 240.16 80.48"/><polygon class="cls-3" points="240.16 94.01 251.14 100.1 251.14 86.57 240.16 80.48 240.16 94.01"/><polygon class="cls-4" points="262.12 94.01 251.14 100.1 251.14 86.57 262.12 80.48 262.12 94.01"/><polygon class="cls-2" points="307.21 120.68 318.19 114.58 329.17 120.68 318.19 126.77 307.21 120.68"/><polygon class="cls-3" points="307.21 134.21 318.19 140.3 318.19 126.77 307.21 120.68 307.21 134.21"/><polygon class="cls-4" points="329.17 134.21 318.19 140.3 318.19 126.77 329.17 120.68 329.17 134.21"/><polygon class="cls-2" points="294.57 127.69 305.55 121.6 316.53 127.69 305.55 133.78 294.57 127.69"/><polygon class="cls-3" points="294.57 141.22 305.55 147.31 305.55 133.78 294.57 127.69 294.57 141.22"/><polygon class="cls-4" points="316.53 141.22 305.55 147.31 305.55 133.78 316.53 127.69 316.53 141.22"/><polygon class="cls-2" points="256.63 120.68 267.61 114.58 278.59 120.68 267.61 126.77 256.63 120.68"/><polygon class="cls-3" points="256.63 134.21 267.61 140.3 267.61 126.77 256.63 120.68 256.63 134.21"/><polygon class="cls-4" points="278.59 134.21 267.61 140.3 267.61 126.77 278.59 120.68 278.59 134.21"/><polygon class="cls-2" points="269.28 127.69 280.26 121.6 291.24 127.69 280.26 133.78 269.28 127.69"/><polygon class="cls-3" points="269.28 141.22 280.26 147.31 280.26 133.78 269.28 127.69 269.28 141.22"/><polygon class="cls-4" points="291.24 141.22 280.26 147.31 280.26 133.78 291.24 127.69 291.24 141.22"/><polygon class="cls-2" points="281.92 134.71 292.9 128.61 303.88 134.71 292.9 140.8 281.92 134.71"/><polygon class="cls-3" points="281.92 148.23 292.9 154.33 292.9 140.8 281.92 134.71 281.92 148.23"/><polygon class="cls-4" points="303.88 148.23 292.9 154.33 292.9 140.8 303.88 134.71 303.88 148.23"/><polygon class="cls-2" points="307.21 105.15 318.19 99.06 329.17 105.15 318.19 111.24 307.21 105.15"/><polygon class="cls-3" points="307.21 118.68 318.19 124.77 318.19 111.24 307.21 105.15 307.21 118.68"/><polygon class="cls-4" points="329.17 118.68 318.19 124.77 318.19 111.24 329.17 105.15 329.17 118.68"/><polygon class="cls-2" points="294.57 112.16 305.55 106.07 316.53 112.16 305.55 118.25 294.57 112.16"/><polygon class="cls-3" points="294.57 125.69 305.55 131.78 305.55 118.25 294.57 112.16 294.57 125.69"/><polygon class="cls-4" points="316.53 125.69 305.55 131.78 305.55 118.25 316.53 112.16 316.53 125.69"/><polygon class="cls-2" points="256.63 105.15 267.61 99.06 278.59 105.15 267.61 111.24 256.63 105.15"/><polygon class="cls-3" points="256.63 118.68 267.61 124.77 267.61 111.24 256.63 105.15 256.63 118.68"/><polygon class="cls-4" points="278.59 118.68 267.61 124.77 267.61 111.24 278.59 105.15 278.59 118.68"/><polygon class="cls-2" points="269.28 112.16 280.26 106.07 291.24 112.16 280.26 118.25 269.28 112.16"/><polygon class="cls-3" points="269.28 125.69 280.26 131.78 280.26 118.25 269.28 112.16 269.28 125.69"/><polygon class="cls-4" points="291.24 125.69 280.26 131.78 280.26 118.25 291.24 112.16 291.24 125.69"/><polygon class="cls-2" points="281.92 119.18 292.9 113.08 303.88 119.18 292.9 125.27 281.92 119.18"/><polygon class="cls-3" points="281.92 132.71 292.9 138.8 292.9 125.27 281.92 119.18 281.92 132.71"/><polygon class="cls-4" points="303.88 132.71 292.9 138.8 292.9 125.27 303.88 119.18 303.88 132.71"/><polygon class="cls-2" points="281.92 75.59 292.9 69.5 303.88 75.59 292.9 81.68 281.92 75.59"/><polygon class="cls-3" points="281.92 89.12 292.9 95.21 292.9 81.68 281.92 75.59 281.92 89.12"/><polygon class="cls-4" points="303.88 89.12 292.9 95.21 292.9 81.68 303.88 75.59 303.88 89.12"/><polygon class="cls-2" points="294.57 82.6 305.55 76.51 316.53 82.6 305.55 88.69 294.57 82.6"/><polygon class="cls-3" points="294.57 96.13 305.55 102.22 305.55 88.69 294.57 82.6 294.57 96.13"/><polygon class="cls-4" points="316.53 96.13 305.55 102.22 305.55 88.69 316.53 82.6 316.53 96.13"/><polygon class="cls-2" points="307.21 89.62 318.19 83.53 329.17 89.62 318.19 95.71 307.21 89.62"/><polygon class="cls-3" points="307.21 103.15 318.19 109.24 318.19 95.71 307.21 89.62 307.21 103.15"/><polygon class="cls-4" points="329.17 103.15 318.19 109.24 318.19 95.71 329.17 89.62 329.17 103.15"/><polygon class="cls-2" points="269.28 82.6 280.26 76.51 291.24 82.6 280.26 88.69 269.28 82.6"/><polygon class="cls-3" points="269.28 96.13 280.26 102.22 280.26 88.69 269.28 82.6 269.28 96.13"/><polygon class="cls-4" points="291.24 96.13 280.26 102.22 280.26 88.69 291.24 82.6 291.24 96.13"/><polygon class="cls-2" points="281.92 89.62 292.9 83.53 303.88 89.62 292.9 95.71 281.92 89.62"/><polygon class="cls-3" points="281.92 103.15 292.9 109.24 292.9 95.71 281.92 89.62 281.92 103.15"/><polygon class="cls-4" points="303.88 103.15 292.9 109.24 292.9 95.71 303.88 89.62 303.88 103.15"/><polygon class="cls-2" points="294.57 96.63 305.55 90.54 316.53 96.63 305.55 102.72 294.57 96.63"/><polygon class="cls-3" points="294.57 110.16 305.55 116.25 305.55 102.72 294.57 96.63 294.57 110.16"/><polygon class="cls-4" points="316.53 110.16 305.55 116.25 305.55 102.72 316.53 96.63 316.53 110.16"/><polygon class="cls-2" points="256.63 89.62 267.61 83.53 278.59 89.62 267.61 95.71 256.63 89.62"/><polygon class="cls-3" points="256.63 103.15 267.61 109.24 267.61 95.71 256.63 89.62 256.63 103.15"/><polygon class="cls-4" points="278.59 103.15 267.61 109.24 267.61 95.71 278.59 89.62 278.59 103.15"/><polygon class="cls-2" points="269.28 96.63 280.26 90.54 291.24 96.63 280.26 102.72 269.28 96.63"/><polygon class="cls-3" points="269.28 110.16 280.26 116.25 280.26 102.72 269.28 96.63 269.28 110.16"/><polygon class="cls-4" points="291.24 110.16 280.26 116.25 280.26 102.72 291.24 96.63 291.24 110.16"/><polygon class="cls-2" points="281.92 103.65 292.9 97.56 303.88 103.65 292.9 109.74 281.92 103.65"/><polygon class="cls-3" points="281.92 117.18 292.9 123.27 292.9 109.74 281.92 103.65 281.92 117.18"/><polygon class="cls-4" points="303.88 117.18 292.9 123.27 292.9 109.74 303.88 103.65 303.88 117.18"/><polygon class="cls-2" points="181.94 97.51 192.91 91.42 203.89 97.51 192.91 103.6 181.94 97.51"/><polygon class="cls-3" points="181.94 111.04 192.91 117.13 192.91 103.6 181.94 97.51 181.94 111.04"/><polygon class="cls-4" points="203.89 111.04 192.91 117.13 192.91 103.6 203.89 97.51 203.89 111.04"/><polygon class="cls-2" points="169.29 104.53 180.27 98.43 191.25 104.53 180.27 110.62 169.29 104.53"/><polygon class="cls-3" points="169.29 118.06 180.27 124.15 180.27 110.62 169.29 104.53 169.29 118.06"/><polygon class="cls-4" points="191.25 118.06 180.27 124.15 180.27 110.62 191.25 104.53 191.25 118.06"/><polygon class="cls-2" points="131.35 97.51 142.33 91.42 153.31 97.51 142.33 103.6 131.35 97.51"/><polygon class="cls-3" points="131.35 111.04 142.33 117.13 142.33 103.6 131.35 97.51 131.35 111.04"/><polygon class="cls-4" points="153.31 111.04 142.33 117.13 142.33 103.6 153.31 97.51 153.31 111.04"/><polygon class="cls-2" points="144 104.53 154.98 98.43 165.96 104.53 154.98 110.62 144 104.53"/><polygon class="cls-3" points="144 118.06 154.98 124.15 154.98 110.62 144 104.53 144 118.06"/><polygon class="cls-4" points="165.96 118.06 154.98 124.15 154.98 110.62 165.96 104.53 165.96 118.06"/><polygon class="cls-2" points="156.64 111.54 167.62 105.45 178.6 111.54 167.62 117.63 156.64 111.54"/><polygon class="cls-3" points="156.64 125.07 167.62 131.16 167.62 117.63 156.64 111.54 156.64 125.07"/><polygon class="cls-4" points="178.6 125.07 167.62 131.16 167.62 117.63 178.6 111.54 178.6 125.07"/><polygon class="cls-2" points="181.94 81.98 192.91 75.89 203.89 81.98 192.91 88.07 181.94 81.98"/><polygon class="cls-3" points="181.94 95.51 192.91 101.6 192.91 88.07 181.94 81.98 181.94 95.51"/><polygon class="cls-4" points="203.89 95.51 192.91 101.6 192.91 88.07 203.89 81.98 203.89 95.51"/><polygon class="cls-2" points="169.29 89 180.27 82.91 191.25 89 180.27 95.09 169.29 89"/><polygon class="cls-3" points="169.29 102.53 180.27 108.62 180.27 95.09 169.29 89 169.29 102.53"/><polygon class="cls-4" points="191.25 102.53 180.27 108.62 180.27 95.09 191.25 89 191.25 102.53"/><polygon class="cls-2" points="131.35 81.98 142.33 75.89 153.31 81.98 142.33 88.07 131.35 81.98"/><polygon class="cls-3" points="131.35 95.51 142.33 101.6 142.33 88.07 131.35 81.98 131.35 95.51"/><polygon class="cls-4" points="153.31 95.51 142.33 101.6 142.33 88.07 153.31 81.98 153.31 95.51"/><polygon class="cls-2" points="144 89 154.98 82.91 165.96 89 154.98 95.09 144 89"/><polygon class="cls-3" points="144 102.53 154.98 108.62 154.98 95.09 144 89 144 102.53"/><polygon class="cls-4" points="165.96 102.53 154.98 108.62 154.98 95.09 165.96 89 165.96 102.53"/><polygon class="cls-2" points="156.64 96.01 167.62 89.92 178.6 96.01 167.62 102.1 156.64 96.01"/><polygon class="cls-3" points="156.64 109.54 167.62 115.63 167.62 102.1 156.64 96.01 156.64 109.54"/><polygon class="cls-4" points="178.6 109.54 167.62 115.63 167.62 102.1 178.6 96.01 178.6 109.54"/><polygon class="cls-2" points="156.64 52.42 167.62 46.33 178.6 52.42 167.62 58.52 156.64 52.42"/><polygon class="cls-3" points="156.64 65.95 167.62 72.05 167.62 58.52 156.64 52.42 156.64 65.95"/><polygon class="cls-4" points="178.6 65.95 167.62 72.05 167.62 58.52 178.6 52.42 178.6 65.95"/><polygon class="cls-2" points="169.29 59.44 180.27 53.35 191.25 59.44 180.27 65.53 169.29 59.44"/><polygon class="cls-3" points="169.29 72.97 180.27 79.06 180.27 65.53 169.29 59.44 169.29 72.97"/><polygon class="cls-4" points="191.25 72.97 180.27 79.06 180.27 65.53 191.25 59.44 191.25 72.97"/><polygon class="cls-2" points="181.94 66.45 192.91 60.36 203.89 66.45 192.91 72.55 181.94 66.45"/><polygon class="cls-3" points="181.94 79.98 192.91 86.07 192.91 72.55 181.94 66.45 181.94 79.98"/><polygon class="cls-4" points="203.89 79.98 192.91 86.07 192.91 72.55 203.89 66.45 203.89 79.98"/><polygon class="cls-2" points="144 59.44 154.98 53.35 165.96 59.44 154.98 65.53 144 59.44"/><polygon class="cls-3" points="144 72.97 154.98 79.06 154.98 65.53 144 59.44 144 72.97"/><polygon class="cls-4" points="165.96 72.97 154.98 79.06 154.98 65.53 165.96 59.44 165.96 72.97"/><polygon class="cls-2" points="156.64 66.45 167.62 60.36 178.6 66.45 167.62 72.55 156.64 66.45"/><polygon class="cls-3" points="156.64 79.98 167.62 86.07 167.62 72.55 156.64 66.45 156.64 79.98"/><polygon class="cls-4" points="178.6 79.98 167.62 86.07 167.62 72.55 178.6 66.45 178.6 79.98"/><polygon class="cls-2" points="169.29 73.47 180.27 67.38 191.25 73.47 180.27 79.56 169.29 73.47"/><polygon class="cls-3" points="169.29 87 180.27 93.09 180.27 79.56 169.29 73.47 169.29 87"/><polygon class="cls-4" points="191.25 87 180.27 93.09 180.27 79.56 191.25 73.47 191.25 87"/><polygon class="cls-2" points="131.35 66.45 142.33 60.36 153.31 66.45 142.33 72.55 131.35 66.45"/><polygon class="cls-3" points="131.35 79.98 142.33 86.07 142.33 72.55 131.35 66.45 131.35 79.98"/><polygon class="cls-4" points="153.31 79.98 142.33 86.07 142.33 72.55 153.31 66.45 153.31 79.98"/><polygon class="cls-2" points="144 73.47 154.98 67.38 165.96 73.47 154.98 79.56 144 73.47"/><polygon class="cls-3" points="144 87 154.98 93.09 154.98 79.56 144 73.47 144 87"/><polygon class="cls-4" points="165.96 87 154.98 93.09 154.98 79.56 165.96 73.47 165.96 87"/><polygon class="cls-2" points="156.64 80.48 167.62 74.39 178.6 80.48 167.62 86.57 156.64 80.48"/><polygon class="cls-3" points="156.64 94.01 167.62 100.1 167.62 86.57 156.64 80.48 156.64 94.01"/><polygon class="cls-4" points="178.6 94.01 167.62 100.1 167.62 86.57 178.6 80.48 178.6 94.01"/><polygon class="cls-2" points="223.69 120.68 234.67 114.58 245.65 120.68 234.67 126.77 223.69 120.68"/><polygon class="cls-3" points="223.69 134.21 234.67 140.3 234.67 126.77 223.69 120.68 223.69 134.21"/><polygon class="cls-4" points="245.65 134.21 234.67 140.3 234.67 126.77 245.65 120.68 245.65 134.21"/><polygon class="cls-2" points="211.05 127.69 222.03 121.6 233.01 127.69 222.03 133.78 211.05 127.69"/><polygon class="cls-3" points="211.05 141.22 222.03 147.31 222.03 133.78 211.05 127.69 211.05 141.22"/><polygon class="cls-4" points="233.01 141.22 222.03 147.31 222.03 133.78 233.01 127.69 233.01 141.22"/><polygon class="cls-2" points="173.11 120.68 184.09 114.58 195.07 120.68 184.09 126.77 173.11 120.68"/><polygon class="cls-3" points="173.11 134.21 184.09 140.3 184.09 126.77 173.11 120.68 173.11 134.21"/><polygon class="cls-4" points="195.07 134.21 184.09 140.3 184.09 126.77 195.07 120.68 195.07 134.21"/><polygon class="cls-2" points="185.76 127.69 196.74 121.6 207.72 127.69 196.74 133.78 185.76 127.69"/><polygon class="cls-3" points="185.76 141.22 196.74 147.31 196.74 133.78 185.76 127.69 185.76 141.22"/><polygon class="cls-4" points="207.72 141.22 196.74 147.31 196.74 133.78 207.72 127.69 207.72 141.22"/><polygon class="cls-2" points="198.4 134.71 209.38 128.61 220.36 134.71 209.38 140.8 198.4 134.71"/><polygon class="cls-3" points="198.4 148.24 209.38 154.33 209.38 140.8 198.4 134.71 198.4 148.24"/><polygon class="cls-4" points="220.36 148.24 209.38 154.33 209.38 140.8 220.36 134.71 220.36 148.24"/><polygon class="cls-2" points="223.69 105.15 234.67 99.06 245.65 105.15 234.67 111.24 223.69 105.15"/><polygon class="cls-3" points="223.69 118.68 234.67 124.77 234.67 111.24 223.69 105.15 223.69 118.68"/><polygon class="cls-4" points="245.65 118.68 234.67 124.77 234.67 111.24 245.65 105.15 245.65 118.68"/><polygon class="cls-2" points="211.05 112.16 222.03 106.07 233.01 112.16 222.03 118.25 211.05 112.16"/><polygon class="cls-3" points="211.05 125.69 222.03 131.78 222.03 118.25 211.05 112.16 211.05 125.69"/><polygon class="cls-4" points="233.01 125.69 222.03 131.78 222.03 118.25 233.01 112.16 233.01 125.69"/><polygon class="cls-2" points="173.11 105.15 184.09 99.06 195.07 105.15 184.09 111.24 173.11 105.15"/><polygon class="cls-3" points="173.11 118.68 184.09 124.77 184.09 111.24 173.11 105.15 173.11 118.68"/><polygon class="cls-4" points="195.07 118.68 184.09 124.77 184.09 111.24 195.07 105.15 195.07 118.68"/><polygon class="cls-2" points="185.76 112.16 196.74 106.07 207.72 112.16 196.74 118.25 185.76 112.16"/><polygon class="cls-3" points="185.76 125.69 196.74 131.78 196.74 118.25 185.76 112.16 185.76 125.69"/><polygon class="cls-4" points="207.72 125.69 196.74 131.78 196.74 118.25 207.72 112.16 207.72 125.69"/><polygon class="cls-2" points="198.4 119.18 209.38 113.08 220.36 119.18 209.38 125.27 198.4 119.18"/><polygon class="cls-3" points="198.4 132.71 209.38 138.8 209.38 125.27 198.4 119.18 198.4 132.71"/><polygon class="cls-4" points="220.36 132.71 209.38 138.8 209.38 125.27 220.36 119.18 220.36 132.71"/><polygon class="cls-2" points="198.4 75.59 209.38 69.5 220.36 75.59 209.38 81.68 198.4 75.59"/><polygon class="cls-3" points="198.4 89.12 209.38 95.21 209.38 81.68 198.4 75.59 198.4 89.12"/><polygon class="cls-4" points="220.36 89.12 209.38 95.21 209.38 81.68 220.36 75.59 220.36 89.12"/><polygon class="cls-2" points="211.05 82.6 222.03 76.51 233.01 82.6 222.03 88.7 211.05 82.6"/><polygon class="cls-3" points="211.05 96.13 222.03 102.22 222.03 88.7 211.05 82.6 211.05 96.13"/><polygon class="cls-4" points="233.01 96.13 222.03 102.22 222.03 88.7 233.01 82.6 233.01 96.13"/><polygon class="cls-2" points="223.69 89.62 234.67 83.53 245.65 89.62 234.67 95.71 223.69 89.62"/><polygon class="cls-3" points="223.69 103.15 234.67 109.24 234.67 95.71 223.69 89.62 223.69 103.15"/><polygon class="cls-4" points="245.65 103.15 234.67 109.24 234.67 95.71 245.65 89.62 245.65 103.15"/><polygon class="cls-2" points="185.76 82.6 196.74 76.51 207.72 82.6 196.74 88.7 185.76 82.6"/><polygon class="cls-3" points="185.76 96.13 196.74 102.22 196.74 88.7 185.76 82.6 185.76 96.13"/><polygon class="cls-4" points="207.72 96.13 196.74 102.22 196.74 88.7 207.72 82.6 207.72 96.13"/><polygon class="cls-2" points="198.4 89.62 209.38 83.53 220.36 89.62 209.38 95.71 198.4 89.62"/><polygon class="cls-3" points="198.4 103.15 209.38 109.24 209.38 95.71 198.4 89.62 198.4 103.15"/><polygon class="cls-4" points="220.36 103.15 209.38 109.24 209.38 95.71 220.36 89.62 220.36 103.15"/><polygon class="cls-2" points="211.05 96.63 222.03 90.54 233.01 96.63 222.03 102.72 211.05 96.63"/><polygon class="cls-3" points="211.05 110.16 222.03 116.25 222.03 102.72 211.05 96.63 211.05 110.16"/><polygon class="cls-4" points="233.01 110.16 222.03 116.25 222.03 102.72 233.01 96.63 233.01 110.16"/><polygon class="cls-2" points="173.11 89.62 184.09 83.53 195.07 89.62 184.09 95.71 173.11 89.62"/><polygon class="cls-3" points="173.11 103.15 184.09 109.24 184.09 95.71 173.11 89.62 173.11 103.15"/><polygon class="cls-4" points="195.07 103.15 184.09 109.24 184.09 95.71 195.07 89.62 195.07 103.15"/><polygon class="cls-2" points="185.76 96.63 196.74 90.54 207.72 96.63 196.74 102.72 185.76 96.63"/><polygon class="cls-3" points="185.76 110.16 196.74 116.25 196.74 102.72 185.76 96.63 185.76 110.16"/><polygon class="cls-4" points="207.72 110.16 196.74 116.25 196.74 102.72 207.72 96.63 207.72 110.16"/><polygon class="cls-2" points="198.4 103.65 209.38 97.56 220.36 103.65 209.38 109.74 198.4 103.65"/><polygon class="cls-3" points="198.4 117.18 209.38 123.27 209.38 109.74 198.4 103.65 198.4 117.18"/><polygon class="cls-4" points="220.36 117.18 209.38 123.27 209.38 109.74 220.36 103.65 220.36 117.18"/><polygon class="cls-2" points="265.45 143.84 276.43 137.75 287.41 143.84 276.43 149.93 265.45 143.84"/><polygon class="cls-3" points="265.45 157.37 276.43 163.46 276.43 149.93 265.45 143.84 265.45 157.37"/><polygon class="cls-4" points="287.41 157.37 276.43 163.46 276.43 149.93 287.41 143.84 287.41 157.37"/><polygon class="cls-2" points="252.81 150.86 263.79 144.76 274.77 150.86 263.79 156.95 252.81 150.86"/><polygon class="cls-3" points="252.81 164.39 263.79 170.48 263.79 156.95 252.81 150.86 252.81 164.39"/><polygon class="cls-4" points="274.77 164.39 263.79 170.48 263.79 156.95 274.77 150.86 274.77 164.39"/><polygon class="cls-2" points="214.87 143.84 225.85 137.75 236.83 143.84 225.85 149.93 214.87 143.84"/><polygon class="cls-3" points="214.87 157.37 225.85 163.46 225.85 149.93 214.87 143.84 214.87 157.37"/><polygon class="cls-4" points="236.83 157.37 225.85 163.46 225.85 149.93 236.83 143.84 236.83 157.37"/><polygon class="cls-2" points="227.52 150.86 238.5 144.76 249.48 150.86 238.5 156.95 227.52 150.86"/><polygon class="cls-3" points="227.52 164.39 238.5 170.48 238.5 156.95 227.52 150.86 227.52 164.39"/><polygon class="cls-4" points="249.48 164.39 238.5 170.48 238.5 156.95 249.48 150.86 249.48 164.39"/><polygon class="cls-2" points="240.16 157.87 251.14 151.78 262.12 157.87 251.14 163.96 240.16 157.87"/><polygon class="cls-3" points="240.16 171.4 251.14 177.49 251.14 163.96 240.16 157.87 240.16 171.4"/><polygon class="cls-4" points="262.12 171.4 251.14 177.49 251.14 163.96 262.12 157.87 262.12 171.4"/><polygon class="cls-2" points="265.45 128.31 276.43 122.22 287.41 128.31 276.43 134.41 265.45 128.31"/><polygon class="cls-3" points="265.45 141.84 276.43 147.93 276.43 134.41 265.45 128.31 265.45 141.84"/><polygon class="cls-4" points="287.41 141.84 276.43 147.93 276.43 134.41 287.41 128.31 287.41 141.84"/><polygon class="cls-2" points="252.81 135.33 263.79 129.24 274.77 135.33 263.79 141.42 252.81 135.33"/><polygon class="cls-3" points="252.81 148.86 263.79 154.95 263.79 141.42 252.81 135.33 252.81 148.86"/><polygon class="cls-4" points="274.77 148.86 263.79 154.95 263.79 141.42 274.77 135.33 274.77 148.86"/><polygon class="cls-2" points="214.87 128.31 225.85 122.22 236.83 128.31 225.85 134.41 214.87 128.31"/><polygon class="cls-3" points="214.87 141.84 225.85 147.93 225.85 134.41 214.87 128.31 214.87 141.84"/><polygon class="cls-4" points="236.83 141.84 225.85 147.93 225.85 134.41 236.83 128.31 236.83 141.84"/><polygon class="cls-2" points="227.52 135.33 238.5 129.24 249.48 135.33 238.5 141.42 227.52 135.33"/><polygon class="cls-3" points="227.52 148.86 238.5 154.95 238.5 141.42 227.52 135.33 227.52 148.86"/><polygon class="cls-4" points="249.48 148.86 238.5 154.95 238.5 141.42 249.48 135.33 249.48 148.86"/><polygon class="cls-2" points="240.16 142.34 251.14 136.25 262.12 142.34 251.14 148.43 240.16 142.34"/><polygon class="cls-3" points="240.16 155.87 251.14 161.96 251.14 148.43 240.16 142.34 240.16 155.87"/><polygon class="cls-4" points="262.12 155.87 251.14 161.96 251.14 148.43 262.12 142.34 262.12 155.87"/><polygon class="cls-2" points="240.16 98.75 251.14 92.66 262.12 98.75 251.14 104.85 240.16 98.75"/><polygon class="cls-3" points="240.16 112.28 251.14 118.38 251.14 104.85 240.16 98.75 240.16 112.28"/><polygon class="cls-4" points="262.12 112.28 251.14 118.38 251.14 104.85 262.12 98.75 262.12 112.28"/><polygon class="cls-2" points="252.81 105.77 263.79 99.68 274.77 105.77 263.79 111.86 252.81 105.77"/><polygon class="cls-3" points="252.81 119.3 263.79 125.39 263.79 111.86 252.81 105.77 252.81 119.3"/><polygon class="cls-4" points="274.77 119.3 263.79 125.39 263.79 111.86 274.77 105.77 274.77 119.3"/><polygon class="cls-2" points="265.45 112.78 276.43 106.69 287.41 112.78 276.43 118.88 265.45 112.78"/><polygon class="cls-3" points="265.45 126.31 276.43 132.41 276.43 118.88 265.45 112.78 265.45 126.31"/><polygon class="cls-4" points="287.41 126.31 276.43 132.41 276.43 118.88 287.41 112.78 287.41 126.31"/><polygon class="cls-2" points="227.52 105.77 238.5 99.68 249.48 105.77 238.5 111.86 227.52 105.77"/><polygon class="cls-3" points="227.52 119.3 238.5 125.39 238.5 111.86 227.52 105.77 227.52 119.3"/><polygon class="cls-4" points="249.48 119.3 238.5 125.39 238.5 111.86 249.48 105.77 249.48 119.3"/><polygon class="cls-2" points="240.16 112.78 251.14 106.69 262.12 112.78 251.14 118.88 240.16 112.78"/><polygon class="cls-3" points="240.16 126.31 251.14 132.41 251.14 118.88 240.16 112.78 240.16 126.31"/><polygon class="cls-4" points="262.12 126.31 251.14 132.41 251.14 118.88 262.12 112.78 262.12 126.31"/><polygon class="cls-2" points="252.81 119.8 263.79 113.71 274.77 119.8 263.79 125.89 252.81 119.8"/><polygon class="cls-3" points="252.81 133.33 263.79 139.42 263.79 125.89 252.81 119.8 252.81 133.33"/><polygon class="cls-4" points="274.77 133.33 263.79 139.42 263.79 125.89 274.77 119.8 274.77 133.33"/><polygon class="cls-2" points="214.87 112.78 225.85 106.69 236.83 112.78 225.85 118.88 214.87 112.78"/><polygon class="cls-3" points="214.87 126.31 225.85 132.41 225.85 118.88 214.87 112.78 214.87 126.31"/><polygon class="cls-4" points="236.83 126.31 225.85 132.41 225.85 118.88 236.83 112.78 236.83 126.31"/><polygon class="cls-2" points="227.52 119.8 238.5 113.71 249.48 119.8 238.5 125.89 227.52 119.8"/><polygon class="cls-3" points="227.52 133.33 238.5 139.42 238.5 125.89 227.52 119.8 227.52 133.33"/><polygon class="cls-4" points="249.48 133.33 238.5 139.42 238.5 125.89 249.48 119.8 249.48 133.33"/><polygon class="cls-2" points="240.16 126.81 251.14 120.72 262.12 126.81 251.14 132.91 240.16 126.81"/><polygon class="cls-3" points="240.16 140.34 251.14 146.43 251.14 132.91 240.16 126.81 240.16 140.34"/><polygon class="cls-4" points="262.12 140.34 251.14 146.43 251.14 132.91 262.12 126.81 262.12 140.34"/><path class="cls-5" d="M311.9,118.39c-.52-.15-1.34.42-1.82,1.27s-2.58,6.43-2.58,6.43,4-5,4.47-5.89S312.42,118.54,311.9,118.39Z"/><path class="cls-5" d="M310.18,126c-.52-.15-.55-1-.06-1.81s4.47-5.89,4.47-5.89-2.1,5.58-2.58,6.43S310.7,126.1,310.18,126Z"/><polygon class="cls-2" points="0 230.93 10.98 224.83 21.96 230.93 10.98 237.02 0 230.93"/><polygon class="cls-3" points="0 244.46 10.98 250.55 10.98 237.02 0 230.93 0 244.46"/><polygon class="cls-4" points="21.96 244.46 10.98 250.55 10.98 237.02 21.96 230.93 21.96 244.46"/><path class="cls-5" d="M17.33,237.16c-.52-.15-1.34.42-1.82,1.27s-2.58,6.43-2.58,6.43,4-5,4.47-5.89S17.85,237.31,17.33,237.16Z"/><path class="cls-5" d="M15.61,244.72c-.52-.15-.55-1-.06-1.81S20,237,20,237s-2.1,5.58-2.58,6.43S16.13,244.86,15.61,244.72Z"/></g></g></svg>