<svg xmlns="http://www.w3.org/2000/svg" xmlns:xlink="http://www.w3.org/1999/xlink" viewBox="0 0 414.37 327.26"><defs><style>.cls-1,.cls-16,.cls-2,.cls-3,.cls-4,.cls-5,.cls-6,.cls-7,.cls-8,.cls-9{fill:none;stroke-miterlimit:10;}.cls-1,.cls-2,.cls-3,.cls-4{stroke:#f2f2f2;}.cls-13,.cls-2{opacity:0.7;}.cls-14,.cls-3{opacity:0.5;}.cls-15,.cls-4{opacity:0.3;}.cls-5{stroke:url(#linear-gradient);}.cls-6{stroke:url(#linear-gradient-2);}.cls-7{stroke:url(#linear-gradient-3);}.cls-8{stroke:url(#linear-gradient-4);}.cls-9{stroke:url(#linear-gradient-5);}.cls-10,.cls-12{fill:#fff;}.cls-11{fill:#333;}.cls-12{font-size:16.88px;font-family:Corbel-Bold, Corbel;font-weight:700;}.cls-16{stroke-width:0.5px;stroke:url(#linear-gradient-6);}</style><linearGradient id="linear-gradient" x1="207.18" y1="273.11" x2="207.18" y2="120.45" gradientUnits="userSpaceOnUse"><stop offset="0" stop-color="#cce0f4"/><stop offset="0.16" stop-color="#c3dcf6"/><stop offset="0.42" stop-color="#a9d2fb"/><stop offset="0.56" stop-color="#9cf"/><stop offset="0.82" stop-color="#3d88c1" stop-opacity="0.9"/><stop offset="0.99" stop-color="#005b97" stop-opacity="0.1"/></linearGradient><linearGradient id="linear-gradient-2" x1="276.78" y1="248.97" x2="276.78" y2="98.54" xlink:href="#linear-gradient"/><linearGradient id="linear-gradient-3" x1="305.84" y1="203.84" x2="305.84" y2="81.95" xlink:href="#linear-gradient"/><linearGradient id="linear-gradient-4" x1="945.22" y1="248.97" x2="945.22" y2="98.54" gradientTransform="matrix(-1, 0, 0, 1, 1082.82, 0)" xlink:href="#linear-gradient"/><linearGradient id="linear-gradient-5" x1="974.29" y1="203.84" x2="974.29" y2="81.95" gradientTransform="matrix(-1, 0, 0, 1, 1082.82, 0)" xlink:href="#linear-gradient"/><linearGradient id="linear-gradient-6" x1="206.4" y1="108.93" x2="206.4" y2="9.45" gradientUnits="userSpaceOnUse"><stop offset="0" stop-color="#555"/><stop offset="0.47" stop-color="#333"/><stop offset="0.51" stop-opacity="0"/></linearGradient></defs><title>Connect</title><g id="Layer_2" data-name="Layer 2"><g id="Connect"><path class="cls-1" d="M240.2,309,213,325.32a12.45,12.45,0,0,1-11.65,0L174.17,309c-3.22-1.93-3.22-5.06,0-7l27.19-16.32a12.45,12.45,0,0,1,11.65,0L240.2,302C243.42,303.94,243.42,307.07,240.2,309Z"/><path class="cls-2" d="M119.88,272.09,92.69,288.4a12.45,12.45,0,0,1-11.65,0L53.84,272.09c-3.22-1.93-3.22-5.06,0-7L81,248.78a12.45,12.45,0,0,1,11.65,0l27.19,16.32C123.1,267,123.1,270.16,119.88,272.09Z"/><path class="cls-2" d="M360.53,271.78,333.33,288.1a12.45,12.45,0,0,1-11.65,0l-27.19-16.32c-3.22-1.93-3.22-5.06,0-7l27.19-16.32a12.45,12.45,0,0,1,11.65,0l27.19,16.32C363.74,266.72,363.74,269.85,360.53,271.78Z"/><path class="cls-3" d="M411.46,206.23l-27.19,16.32a12.45,12.45,0,0,1-11.65,0l-27.19-16.32c-3.22-1.93-3.22-5.06,0-7l27.19-16.32a12.45,12.45,0,0,1,11.65,0l27.19,16.32C414.67,201.16,414.67,204.29,411.46,206.23Z"/><path class="cls-3" d="M69,206.53,41.76,222.85a12.45,12.45,0,0,1-11.65,0L2.91,206.53c-3.22-1.93-3.22-5.06,0-7l27.19-16.32a12.45,12.45,0,0,1,11.65,0L69,199.54C72.17,201.47,72.17,204.6,69,206.53Z"/><path class="cls-4" d="M360.53,138.73,333.33,155a12.45,12.45,0,0,1-11.65,0l-27.19-16.32c-3.22-1.93-3.22-5.06,0-7l27.19-16.32a12.45,12.45,0,0,1,11.65,0l27.19,16.32C363.74,133.67,363.74,136.8,360.53,138.73Z"/><path class="cls-4" d="M119.88,138.73,92.69,155A12.45,12.45,0,0,1,81,155L53.84,138.73c-3.22-1.93-3.22-5.06,0-7L81,115.43a12.45,12.45,0,0,1,11.65,0l27.19,16.32C123.1,133.67,123.1,136.8,119.88,138.73Z"/><line class="cls-5" x1="207.18" y1="120.45" x2="207.18" y2="273.11"/><path class="cls-6" d="M293.87,248.54l-27-16a14.29,14.29,0,0,1-6.92-12.24V98.54"/><path class="cls-7" d="M284.67,82V190.47a12.87,12.87,0,0,0,12.87,12.87h30"/><path class="cls-8" d="M120.5,248.54l27-16a14.29,14.29,0,0,0,6.92-12.24V98.54"/><path class="cls-9" d="M129.7,82V190.47a12.87,12.87,0,0,1-12.87,12.87h-30"/><path class="cls-10" d="M200.88,299.07c-2.47.13-4.27,1.57-4,3.22S203.06,314,203.06,314s3-10.53,2.73-12.18S203.35,298.94,200.88,299.07Z"/><path class="cls-10" d="M213.49,311.94c-2.47.13-4.66-1.1-4.9-2.75S211.31,297,211.31,297s6,10.06,6.21,11.71S216,311.81,213.49,311.94Z"/><path class="cls-11" d="M283.29,57.65,220,95.64c-7.49,4.5-19.64,4.5-27.14,0l-63.32-38c-7.49-4.5-7.49-11.79,0-16.28l63.32-38c7.49-4.5,19.64-4.5,27.14,0l63.32,38C290.78,45.86,290.78,53.15,283.29,57.65Z"/><text class="cls-12" transform="matrix(0.86, -0.51, 0.86, 0.51, 219.34, 77.25)">Nano</text><path class="cls-10" d="M188.54,33.95c-4.51.24-7.81,2.87-7.37,5.89s11.35,21.42,11.35,21.42,5.42-19.26,5-22.27S193.06,33.71,188.54,33.95Z"/><path class="cls-10" d="M211.6,57.47c-4.51.24-8.53-2-9-5s5-22.27,5-22.27S218.53,48.56,219,51.58,216.11,57.23,211.6,57.47Z"/><g class="cls-13"><path class="cls-10" d="M321.2,261.85c-2.47.13-4.27,1.57-4,3.22s6.21,11.71,6.21,11.71,3-10.53,2.73-12.18S323.67,261.72,321.2,261.85Z"/><path class="cls-10" d="M333.81,274.72c-2.47.13-4.66-1.1-4.9-2.75s2.73-12.18,2.73-12.18,6,10.06,6.21,11.71S336.28,274.59,333.81,274.72Z"/></g><g class="cls-14"><path class="cls-10" d="M372.13,196.3c-2.47.13-4.27,1.57-4,3.22s6.21,11.71,6.21,11.71,3-10.53,2.73-12.18S374.6,196.17,372.13,196.3Z"/><path class="cls-10" d="M384.74,209.16c-2.47.13-4.66-1.1-4.9-2.75s2.73-12.18,2.73-12.18,6,10.06,6.21,11.71S387.21,209,384.74,209.16Z"/></g><g class="cls-15"><path class="cls-10" d="M321.2,128.81c-2.47.13-4.27,1.57-4,3.22s6.21,11.71,6.21,11.71,3-10.53,2.73-12.18S323.67,128.68,321.2,128.81Z"/><path class="cls-10" d="M333.81,141.67c-2.47.13-4.66-1.1-4.9-2.75s2.73-12.18,2.73-12.18,6,10.06,6.21,11.71S336.28,141.54,333.81,141.67Z"/></g><g class="cls-15"><path class="cls-10" d="M80.56,128.81c-2.47.13-4.27,1.57-4,3.22s6.21,11.71,6.21,11.71,3-10.53,2.73-12.18S83,128.68,80.56,128.81Z"/><path class="cls-10" d="M93.17,141.67c-2.47.13-4.66-1.1-4.9-2.75S91,126.74,91,126.74s6,10.06,6.21,11.71S95.63,141.54,93.17,141.67Z"/></g><g class="cls-14"><path class="cls-10" d="M29.63,196.6c-2.47.13-4.27,1.57-4,3.22s6.21,11.71,6.21,11.71,3-10.53,2.73-12.18S32.1,196.47,29.63,196.6Z"/><path class="cls-10" d="M42.24,209.47c-2.47.13-4.66-1.1-4.9-2.75s2.73-12.18,2.73-12.18,6,10.06,6.21,11.71S44.7,209.34,42.24,209.47Z"/></g><g class="cls-13"><path class="cls-10" d="M80.56,262.16c-2.47.13-4.27,1.57-4,3.22s6.21,11.71,6.21,11.71,3-10.53,2.73-12.18S83,262,80.56,262.16Z"/><path class="cls-10" d="M93.17,275c-2.47.13-4.66-1.1-4.9-2.75S91,260.09,91,260.09s6,10.06,6.21,11.71S95.63,274.89,93.17,275Z"/></g><path class="cls-16" d="M283.26,67.33l-63.3,38c-7.49,4.49-19.64,4.49-27.13,0l-63.3-38c-7.49-4.49-7.49-11.78,0-16.28l63.3-38c7.49-4.49,19.64-4.49,27.13,0l63.3,38C290.75,55.55,290.75,62.83,283.26,67.33Z"/></g></g></svg>