<svg xmlns="http://www.w3.org/2000/svg" xmlns:xlink="http://www.w3.org/1999/xlink" viewBox="0 0 212.35 208.09"><defs><style>.cls-1{fill:none;stroke-miterlimit:10;stroke:url(#linear-gradient);}.cls-2{fill:#1a1a1a;}.cls-3{fill:#333;}.cls-4{fill:#4d4d4d;}.cls-5{fill:gray;}.cls-6{fill:#e6e6e6;}</style><linearGradient id="linear-gradient" x1="106.18" y1="208.09" x2="106.18" y2="102.69" gradientUnits="userSpaceOnUse"><stop offset="0" stop-color="#cce0f4"/><stop offset="0.16" stop-color="#c3dcf6"/><stop offset="0.42" stop-color="#a9d2fb"/><stop offset="0.56" stop-color="#9cf"/><stop offset="0.82" stop-color="#3d88c1" stop-opacity="0.9"/><stop offset="0.99" stop-color="#005b97" stop-opacity="0.1"/></linearGradient></defs><title>Server</title><g id="Layer_2" data-name="Layer 2"><g id="Server"><polygon class="cls-1" points="103.08 103.25 211.23 148.86 109.27 207.53 1.12 161.93 103.08 103.25"/><polygon class="cls-2" points="41.89 67.25 135.41 13.43 135.41 121.19 41.89 174.75 41.89 67.25"/><polygon class="cls-3" points="10.03 53.82 103.55 0 135.41 13.43 41.89 67.25 10.03 53.82"/><polygon class="cls-4" points="10.03 161.33 41.89 174.75 41.89 67.25 10.03 53.82 10.03 161.33"/><polygon class="cls-2" points="75.35 81.47 168.87 27.65 168.87 135.41 75.35 188.97 75.35 81.47"/><polygon class="cls-3" points="43.49 68.04 137.01 14.22 168.87 27.65 75.35 81.47 43.49 68.04"/><polygon class="cls-4" points="43.49 175.55 75.35 188.97 75.35 81.47 43.49 68.04 43.49 175.55"/><polygon class="cls-2" points="109.23 95.65 202.75 41.83 202.75 149.59 109.23 203.15 109.23 95.65"/><polygon class="cls-3" points="77.37 82.22 170.89 28.4 202.75 41.83 109.23 95.65 77.37 82.22"/><polygon class="cls-4" points="77.37 189.73 109.23 203.15 109.23 95.65 77.37 82.22 77.37 189.73"/><path class="cls-5" d="M159.06,104.22c-2.12-1-5.35,1.45-7.23,5.42s-9.77,30.54-9.77,30.54,15.55-23,17.43-27S161.17,105.2,159.06,104.22Z"/><path class="cls-5" d="M152.92,140.77c-2.12-1-2.31-5-.43-9s17.43-27,17.43-27-7.89,26.57-9.77,30.54S155,141.75,152.92,140.77Z"/><path class="cls-6" d="M105.17,102.33l-23.81-10a2.12,2.12,0,0,1-1.16-1.85l0-2.24c0-.75.54-1.13,1.19-.86l23.81,10a2.12,2.12,0,0,1,1.16,1.85l0,2.24C106.36,102.22,105.83,102.6,105.17,102.33Z"/><path class="cls-6" d="M105.17,109.9l-23.81-10A2.12,2.12,0,0,1,80.2,98l0-2.24c0-.75.54-1.13,1.19-.86l23.81,10a2.12,2.12,0,0,1,1.16,1.85l0,2.24C106.36,109.79,105.83,110.18,105.17,109.9Z"/><path class="cls-6" d="M105.17,117.48l-23.81-10a2.12,2.12,0,0,1-1.16-1.85l0-2.24c0-.75.54-1.13,1.19-.86l23.81,10a2.12,2.12,0,0,1,1.16,1.85l0,2.24C106.36,117.37,105.83,117.76,105.17,117.48Z"/><path class="cls-6" d="M46.63,174.18h0a1.83,1.83,0,0,1-1.07-1.53V91.8c0-.59.48-.87,1.07-.62h0a1.83,1.83,0,0,1,1.07,1.53v80.86C47.7,174.15,47.22,174.43,46.63,174.18Z"/><path class="cls-6" d="M50.63,175.86h0a1.83,1.83,0,0,1-1.07-1.53V93.48c0-.59.48-.87,1.07-.62h0a1.83,1.83,0,0,1,1.07,1.53v80.86C51.7,175.83,51.22,176.11,50.63,175.86Z"/><path class="cls-6" d="M54.63,177.61h0c-.59-.18-1.07-.67-1.07-1.09V118.59c0-.42.48-.62,1.07-.44h0c.59.18,1.07.67,1.07,1.09v57.93C55.7,177.6,55.22,177.79,54.63,177.61Z"/><path class="cls-6" d="M17.67,162.65h0a1.83,1.83,0,0,1-1.07-1.53V150.87c0-.59.48-.87,1.07-.62h0a1.83,1.83,0,0,1,1.07,1.53V162C18.74,162.62,18.26,162.9,17.67,162.65Z"/><path class="cls-6" d="M17.67,147.25h0a1.83,1.83,0,0,1-1.07-1.53V134c0-.59.48-.87,1.07-.62h0A1.83,1.83,0,0,1,18.74,135v11.68C18.74,147.23,18.26,147.5,17.67,147.25Z"/><path class="cls-6" d="M21.81,164.41h0a1.83,1.83,0,0,1-1.07-1.53V149.63c0-.59.48-.87,1.07-.62h0a1.83,1.83,0,0,1,1.07,1.53v13.25C22.89,164.38,22.41,164.66,21.81,164.41Z"/><path class="cls-6" d="M21.81,146h0a1.83,1.83,0,0,1-1.07-1.53v-5.61c0-.59.48-.87,1.07-.62h0a1.83,1.83,0,0,1,1.07,1.53v5.61C22.89,146,22.41,146.26,21.81,146Z"/><path class="cls-6" d="M26,153.65h0a1.83,1.83,0,0,1-1.07-1.53v-15.9c0-.59.48-.87,1.07-.62h0A1.83,1.83,0,0,1,27,137.13V153C27,153.62,26.55,153.9,26,153.65Z"/><path class="cls-6" d="M30.1,167.93h0A1.83,1.83,0,0,1,29,166.4V153.15c0-.59.48-.87,1.07-.62h0a1.83,1.83,0,0,1,1.07,1.53v13.25C31.18,167.9,30.7,168.18,30.1,167.93Z"/><path class="cls-6" d="M34.25,169.69h0a1.83,1.83,0,0,1-1.07-1.53V157.91c0-.59.48-.87,1.07-.62h0a1.83,1.83,0,0,1,1.07,1.53v10.25C35.32,169.66,34.84,169.94,34.25,169.69Z"/><path class="cls-6" d="M30.1,149.53h0A1.83,1.83,0,0,1,29,148V142.4c0-.59.48-.87,1.07-.62h0a1.83,1.83,0,0,1,1.07,1.53v5.61C31.18,149.51,30.7,149.78,30.1,149.53Z"/><path class="cls-6" d="M34.25,154.29h0a1.83,1.83,0,0,1-1.07-1.53V141.09c0-.59.48-.87,1.07-.62h0A1.83,1.83,0,0,1,35.32,142v11.68C35.32,154.26,34.84,154.54,34.25,154.29Z"/><path class="cls-6" d="M34.25,127h0a1.83,1.83,0,0,1,1.07,1.53v8.33c0,.59-.48.87-1.07.62h0a1.83,1.83,0,0,1-1.07-1.53v-8.33C33.18,127,33.66,126.74,34.25,127Z"/><path class="cls-6" d="M30.1,122.27h0a1.83,1.83,0,0,1,1.07,1.53v14.36c0,.59-.48.87-1.07.62h0A1.83,1.83,0,0,1,29,137.25V122.89C29,122.3,29.51,122,30.1,122.27Z"/><path class="cls-6" d="M26,122.12h0A1.83,1.83,0,0,1,27,123.65V132c0,.59-.48.87-1.07.62h0a1.83,1.83,0,0,1-1.07-1.53v-8.34C24.89,122.14,25.37,121.87,26,122.12Z"/><path class="cls-6" d="M21.81,118.75h0a1.83,1.83,0,0,1,1.07,1.53v14.36c0,.59-.48.87-1.07.62h0a1.83,1.83,0,0,1-1.07-1.53V119.37C20.74,118.78,21.22,118.5,21.81,118.75Z"/><path class="cls-6" d="M17.67,120h0a1.83,1.83,0,0,1,1.07,1.53v8.33c0,.59-.48.87-1.07.62h0a1.83,1.83,0,0,1-1.07-1.53v-8.33C16.6,120,17.08,119.7,17.67,120Z"/><path class="cls-6" d="M26,119.12h0a1.83,1.83,0,0,1-1.07-1.53v-7.51c0-.59.48-.87,1.07-.62h0A1.83,1.83,0,0,1,27,111v7.51C27,119.09,26.55,119.37,26,119.12Z"/><path class="cls-6" d="M30.1,119.27h0A1.83,1.83,0,0,1,29,117.75v-4.26c0-.59.48-.87,1.07-.62h0a1.83,1.83,0,0,1,1.07,1.53v4.26C31.18,119.25,30.7,119.52,30.1,119.27Z"/><path class="cls-6" d="M34.25,65.92h0a1.83,1.83,0,0,1,1.07,1.53V77.7c0,.59-.48.87-1.07.62h0a1.83,1.83,0,0,1-1.07-1.53V66.54C33.18,65.95,33.66,65.67,34.25,65.92Z"/><path class="cls-6" d="M34.25,81.32h0a1.83,1.83,0,0,1,1.07,1.53V94.52c0,.59-.48.87-1.07.62h0a1.83,1.83,0,0,1-1.07-1.53V81.94C33.18,81.34,33.66,81.07,34.25,81.32Z"/><path class="cls-6" d="M30.1,64.16h0a1.83,1.83,0,0,1,1.07,1.53V78.94c0,.59-.48.87-1.07.62h0A1.83,1.83,0,0,1,29,78V64.78C29,64.19,29.51,63.91,30.1,64.16Z"/><path class="cls-6" d="M30.1,82.56h0a1.83,1.83,0,0,1,1.07,1.53v5.61c0,.59-.48.87-1.07.62h0A1.83,1.83,0,0,1,29,88.78V83.18C29,82.58,29.51,82.31,30.1,82.56Z"/><path class="cls-6" d="M26,62.4h0A1.83,1.83,0,0,1,27,63.93v7.38c0,.59-.48.87-1.07.62h0a1.83,1.83,0,0,1-1.07-1.53V63C24.89,62.43,25.37,62.15,26,62.4Z"/><path class="cls-6" d="M26,74.92h0A1.83,1.83,0,0,1,27,76.45v15.9c0,.59-.48.87-1.07.62h0a1.83,1.83,0,0,1-1.07-1.53V75.54C24.89,74.95,25.37,74.67,26,74.92Z"/><path class="cls-6" d="M21.81,60.64h0a1.83,1.83,0,0,1,1.07,1.53V75.42c0,.59-.48.87-1.07.62h0a1.83,1.83,0,0,1-1.07-1.53V61.26C20.74,60.67,21.22,60.39,21.81,60.64Z"/><path class="cls-6" d="M17.67,58.88h0a1.83,1.83,0,0,1,1.07,1.53V70.66c0,.59-.48.87-1.07.62h0a1.83,1.83,0,0,1-1.07-1.53V59.5C16.6,58.91,17.08,58.63,17.67,58.88Z"/><path class="cls-6" d="M21.81,79h0a1.83,1.83,0,0,1,1.07,1.53v5.61c0,.59-.48.87-1.07.62h0a1.83,1.83,0,0,1-1.07-1.53V79.66C20.74,79.06,21.22,78.79,21.81,79Z"/><path class="cls-6" d="M17.67,74.28h0a1.83,1.83,0,0,1,1.07,1.53V87.48c0,.59-.48.87-1.07.62h0a1.83,1.83,0,0,1-1.07-1.53V74.9C16.6,74.31,17.08,74,17.67,74.28Z"/><path class="cls-6" d="M21.81,115.75h0a1.83,1.83,0,0,1-1.07-1.53V110c0-.59.48-.87,1.07-.62h0a1.83,1.83,0,0,1,1.07,1.53v4.26C22.89,115.73,22.41,116,21.81,115.75Z"/><path class="cls-6" d="M17.67,104.59h0a1.83,1.83,0,0,1,1.07,1.53v10.22c0,.59-.48.87-1.07.62h0a1.83,1.83,0,0,1-1.07-1.53V105.2C16.6,104.61,17.08,104.33,17.67,104.59Z"/><path class="cls-6" d="M34.25,111.62h0a1.83,1.83,0,0,1,1.07,1.53v10.22c0,.59-.48.87-1.07.62h0a1.83,1.83,0,0,1-1.07-1.53V112.24C33.18,111.65,33.66,111.37,34.25,111.62Z"/><path class="cls-6" d="M17.67,101.59h0a1.83,1.83,0,0,1-1.07-1.53V91.72c0-.59.48-.87,1.07-.62h0a1.83,1.83,0,0,1,1.07,1.53V101C18.74,101.56,18.26,101.84,17.67,101.59Z"/><path class="cls-6" d="M21.81,106.3h0a1.83,1.83,0,0,1-1.07-1.53V90.41c0-.59.48-.87,1.07-.62h0a1.83,1.83,0,0,1,1.07,1.53v14.36C22.89,106.28,22.41,106.55,21.81,106.3Z"/><path class="cls-6" d="M26,106.46h0a1.83,1.83,0,0,1-1.07-1.53V96.59c0-.59.48-.87,1.07-.62h0A1.83,1.83,0,0,1,27,97.5v8.34C27,106.43,26.55,106.71,26,106.46Z"/><path class="cls-6" d="M30.1,109.82h0A1.83,1.83,0,0,1,29,108.29V93.93c0-.59.48-.87,1.07-.62h0a1.83,1.83,0,0,1,1.07,1.53V109.2C31.18,109.8,30.7,110.07,30.1,109.82Z"/><path class="cls-6" d="M34.25,108.62h0a1.83,1.83,0,0,1-1.07-1.53V98.76c0-.59.48-.87,1.07-.62h0a1.83,1.83,0,0,1,1.07,1.53V108C35.32,108.6,34.84,108.87,34.25,108.62Z"/><path class="cls-6" d="M26,156.65h0A1.83,1.83,0,0,1,27,158.17v7.38c0,.59-.48.87-1.07.62h0a1.83,1.83,0,0,1-1.07-1.53v-7.38C24.89,156.67,25.37,156.39,26,156.65Z"/></g></g></svg>