<svg xmlns="http://www.w3.org/2000/svg" viewBox="0 0 269.91 205.67"><defs><style>.cls-1,.cls-4,.cls-5,.cls-6,.cls-8{fill:none;}.cls-1{stroke:#2e3192;}.cls-1,.cls-4,.cls-6,.cls-7,.cls-8{stroke-miterlimit:10;stroke-width:1.08px;}.cls-2{fill:#191b1e;}.cls-3{font-size:15.08px;fill:#e6e6e6;font-family:Microsoft-Yi-Baiti, Microsoft Yi Baiti;}.cls-4{stroke:#29abe2;}.cls-6,.cls-7{stroke:#6cc;}.cls-7{fill:#6cc;}.cls-8{stroke:#662d91;}</style></defs><title>Features Two</title><g id="Layer_2" data-name="Layer 2"><g id="Webpage"><rect class="cls-1" x="0.58" y="108.1" width="43.09" height="43.09" rx="7.79" ry="7.79"/><rect class="cls-2" x="54.45" y="108.06" width="215.47" height="43.09" rx="7.79" ry="7.79"/><text class="cls-3" transform="translate(76.04 133.95)">Add additional security</text><rect class="cls-1" x="12.18" y="126.71" width="19.9" height="16.81" rx="2.77" ry="2.77"/><path class="cls-1" d="M14.83,126.71v-3.65a7.3,7.3,0,0,1,14.59,0v3.65"/><rect class="cls-2" x="54.45" y="54.28" width="215.47" height="43.09" rx="7.79" ry="7.79"/><text class="cls-3" transform="translate(76.04 79.75)">256 Bit Encryption</text><rect class="cls-4" x="0.54" y="54.32" width="43.09" height="43.09" rx="7.79" ry="7.79"/><path class="cls-5" d="M26.66,82.26V69.47H20.24s-6.15,1.89,0,5.61S26.66,82.26,26.66,82.26Z"/><polyline class="cls-4" points="37.74 74 37.74 70.54 35.14 67.85 35.14 61.2 30.87 67.6 30.87 74"/><path class="cls-4" d="M26.47,74s-3.19-1.08-3.23-3.82,3.23-9,3.23-9H23.24"/><path class="cls-4" d="M18.76,74S21,67.85,21,65.11a4.43,4.43,0,0,0-2.24-3.91h4.49"/><path class="cls-4" d="M14.76,74V69.33s-4.49-2.38,0-5.12v-3H9.42v6.08H6.63"/><line class="cls-4" x1="9.42" y1="69.66" x2="9.42" y2="74"/><polyline class="cls-4" points="18.08 90.53 18.08 84.69 22.52 84.69 27.24 90.53"/><polyline class="cls-4" points="18.08 90.53 18.08 77.1 22.52 77.1 27.24 82.94"/><path class="cls-4" d="M10.4,84.13v3.48h4.78V77.73c-10.77.13-9.52,12.79-9.52,12.79"/><polyline class="cls-4" points="38.55 90.53 30.29 82.81 30.29 77.1 38.55 77.1 38.55 82.81 30.29 90.53"/><rect class="cls-2" x="54.45" y="0.5" width="215.47" height="43.09" rx="7.79" ry="7.79"/><text class="cls-3" transform="translate(76.04 26.39)">Scale with usage</text><rect class="cls-6" x="0.58" y="0.54" width="43.09" height="43.09" rx="7.79" ry="7.79"/><polygon class="cls-6" points="6.41 24.95 22.13 16.23 37.84 24.95 22.13 33.67 6.41 24.95"/><polygon class="cls-6" points="6.41 21.01 22.13 12.29 37.84 21.01 22.13 29.73 6.41 21.01"/><polygon class="cls-7" points="6.41 17.07 22.13 8.35 37.84 17.07 22.13 25.79 6.41 17.07"/><rect class="cls-8" x="0.58" y="162.03" width="43.09" height="43.09" rx="7.79" ry="7.79"/><rect class="cls-2" x="54.45" y="162" width="215.47" height="43.09" rx="7.79" ry="7.79"/><text class="cls-3" transform="translate(76.04 187.89)">Personalise</text><path class="cls-8" d="M37.16,179H21.44l-4.6-6.46H10.42a3.34,3.34,0,0,0-3.33,3.33v15.42a3.34,3.34,0,0,0,3.33,3.33H33.83a3.34,3.34,0,0,0,3.33-3.33Z"/><path class="cls-8" d="M20.28,172.47l2.94,4.06,13.94.07v-.73a3.34,3.34,0,0,0-3.33-3.33Z"/></g></g></svg>