<svg xmlns="http://www.w3.org/2000/svg" viewBox="0 0 269.87 205.86"><defs><style>.cls-1,.cls-4,.cls-5,.cls-6{fill:none;stroke-miterlimit:10;stroke-width:1.08px;}.cls-1{stroke:#fcee21;}.cls-2{fill:#191b1e;}.cls-3{font-size:15.08px;fill:#e6e6e6;font-family:Microsoft-Yi-Baiti, Microsoft Yi Baiti;}.cls-4{stroke:#f7931e;}.cls-5{stroke:#d3162d;}.cls-6{stroke:#961760;}</style></defs><title>Features One</title><g id="Layer_2" data-name="Layer 2"><g id="Webpage"><path class="cls-1" d="M11.26,14.07a13.47,13.47,0,0,0,21.64,16"/><path class="cls-1" d="M13.9,11.39A13.47,13.47,0,1,1,30.27,32.78"/><circle class="cls-1" cx="22.09" cy="22.09" r="2.69"/><circle class="cls-1" cx="12.49" cy="12.64" r="1.96"/><rect class="cls-1" x="0.54" y="0.54" width="43.09" height="43.09" rx="7.79" ry="7.79"/><rect class="cls-2" x="54.41" y="0.5" width="215.47" height="43.09" rx="7.79" ry="7.79"/><text class="cls-3" transform="translate(76 26.46)">Access from anywhere</text><rect class="cls-4" x="0.54" y="54.35" width="43.09" height="43.09" rx="7.79" ry="7.79"/><circle class="cls-4" cx="16.62" cy="81.63" r="7.67" transform="translate(-52.85 35.66) rotate(-45)"/><circle class="cls-4" cx="31.54" cy="66.68" r="1.96" transform="translate(-37.92 41.83) rotate(-45)"/><polyline class="cls-4" points="30.15 68.07 28.03 70.22 33.68 75.87 24.03 74.22 22.04 76.2"/><polyline class="cls-4" points="28.03 70.22 22.38 64.56 24.03 74.22"/><rect class="cls-2" x="54.41" y="54.32" width="215.47" height="43.09" rx="7.79" ry="7.79"/><text class="cls-3" transform="translate(76 80.21)">Send across the globe</text><rect class="cls-2" x="54.41" y="108.22" width="215.47" height="43.09" rx="7.79" ry="7.79"/><rect class="cls-5" x="0.54" y="108.29" width="43.09" height="43.09" rx="7.79" ry="7.79"/><text class="cls-3" transform="translate(76 134.18)">Private Sharing</text><path class="cls-5" d="M22.09,121.32c7.51,0,16.27,6.73,16.27,8.48s-8.76,8.55-16.27,8.55"/><path class="cls-5" d="M22.09,138.35c-7.51,0-16.27-6.73-16.27-8.48s8.76-8.55,16.27-8.55"/><circle class="cls-5" cx="22.09" cy="129.84" r="4.63"/><rect class="cls-2" x="54.41" y="162.16" width="215.47" height="43.09" rx="7.79" ry="7.79"/><rect class="cls-6" x="0.54" y="162.23" width="43.09" height="43.09" rx="7.79" ry="7.79"/><text class="cls-3" transform="translate(76 188.11)">Monitor Activity</text><polyline class="cls-6" points="0.54 188.66 5.68 188.66 10.19 182.77 14.51 193.29 20.73 169.58 26.28 197.96 33.08 182.71 37.64 188.66 43.63 188.66"/></g></g></svg>