<svg xmlns="http://www.w3.org/2000/svg" viewBox="0 0 267.75 218.88"><defs><style>.cls-1{fill:#ccc;opacity:0.3;}.cls-2,.cls-3{fill:none;stroke:#ccc;stroke-miterlimit:10;}.cls-2{stroke-width:0.53px;}.cls-3{stroke-width:0.47px;}</style></defs><title>Node_Web</title><g id="Layer_2" data-name="Layer 2"><g id="Nodes"><circle class="cls-1" cx="265.63" cy="8.13" r="2.13"/><circle class="cls-1" cx="206.63" cy="2.13" r="2.13"/><circle class="cls-1" cx="206.63" cy="43.13" r="2.13"/><circle class="cls-1" cx="236.66" cy="54.16" r="2.13"/><circle class="cls-1" cx="163.67" cy="30.65" r="2.13"/><circle class="cls-1" cx="174.22" cy="72.78" r="2.13"/><circle class="cls-1" cx="216.08" cy="77.74" r="2.13"/><circle class="cls-1" cx="216" cy="148.29" r="2.13"/><circle class="cls-1" cx="169.9" cy="143.29" r="2.13"/><circle class="cls-1" cx="109.79" cy="122.37" r="2.13"/><circle class="cls-1" cx="127.64" cy="64.03" r="2.13"/><circle class="cls-1" cx="119.88" cy="20.79" r="2.13"/><circle class="cls-1" cx="75.69" cy="61.53" r="2.13"/><circle class="cls-1" cx="79.08" cy="37.42" r="2.13"/><circle class="cls-1" cx="221.82" cy="180.06" r="2.13"/><circle class="cls-1" cx="175.77" cy="178.9" r="2.13"/><circle class="cls-1" cx="100.94" cy="96.82" r="2.13"/><circle class="cls-1" cx="12.93" cy="40.75" r="2.13"/><circle class="cls-1" cx="204.63" cy="114.44" r="2.13"/><circle class="cls-1" cx="172.4" cy="108.54" r="2.13"/><circle class="cls-1" cx="28.73" cy="73.52" r="2.13"/><circle class="cls-1" cx="72.09" cy="125.29" r="2.13"/><circle class="cls-1" cx="75.64" cy="160.54" r="2.13"/><circle class="cls-1" cx="138.38" cy="174.5" r="2.12"/><circle class="cls-1" cx="201.38" cy="206.79" r="2.13"/><circle class="cls-1" cx="244.52" cy="99.04" r="2.13"/><circle class="cls-1" cx="33.73" cy="122.38" r="2.13"/><circle class="cls-1" cx="156.51" cy="216.75" r="2.13"/><circle class="cls-1" cx="98.42" cy="193.13" r="2.13"/><circle class="cls-1" cx="25.07" cy="154.79" r="2.13"/><circle class="cls-1" cx="57.15" cy="93.4" r="2.13"/><circle class="cls-1" cx="2.13" cy="101.71" r="2.13"/><circle class="cls-1" cx="113.79" cy="153.58" r="2.13"/><circle class="cls-1" cx="140.83" cy="130.29" r="2.13"/><circle class="cls-1" cx="140.56" cy="94.32" r="2.13"/></g><g id="Lines"><line class="cls-2" x1="239" y1="50.44" x2="263.14" y2="12.08"/><line class="cls-2" x1="260.91" y1="7.65" x2="211.85" y2="2.66"/><line class="cls-2" x1="210.73" y1="40.69" x2="261.27" y2="10.71"/><line class="cls-2" x1="206.63" y1="6.48" x2="206.63" y2="39"/><line class="cls-2" x1="210.11" y1="44.3" x2="232.53" y2="52.63"/><line class="cls-2" x1="167.8" y1="27.9" x2="202.06" y2="5.16"/><line class="cls-2" x1="202.06" y1="41.8" x2="168.08" y2="31.93"/><line class="cls-2" x1="124.04" y1="21.73" x2="159.36" y2="29.68"/><line class="cls-2" x1="131" y1="60.92" x2="160.41" y2="33.67"/><line class="cls-2" x1="177.67" y1="69.63" x2="203.18" y2="46.28"/><line class="cls-2" x1="218.27" y1="75.23" x2="233.85" y2="57.39"/><line class="cls-2" x1="178.67" y1="73.3" x2="211.64" y2="77.21"/><line class="cls-2" x1="132.59" y1="64.96" x2="169.27" y2="71.85"/><line class="cls-2" x1="221.2" y1="176.69" x2="216.79" y2="152.62"/><line class="cls-2" x1="122.63" y1="63.79" x2="81.21" y2="61.8"/><line class="cls-2" x1="98.25" y1="93.07" x2="78.37" y2="65.28"/><line class="cls-2" x1="126.87" y1="59.9" x2="120.28" y2="24.73"/><line class="cls-2" x1="179.57" y1="176" x2="211.72" y2="151.54"/><line class="cls-2" x1="170.52" y1="147.07" x2="175.15" y2="175.11"/><line class="cls-2" x1="139.19" y1="91.1" x2="129.02" y2="67.25"/><line class="cls-2" x1="170.35" y1="75.26" x2="144.14" y2="92.03"/><line class="cls-2" x1="83.04" y1="35.79" x2="115.95" y2="22.27"/><line class="cls-2" x1="17.55" y1="40.52" x2="73.26" y2="37.71"/><line class="cls-3" x1="76.3" y1="57.17" x2="78.51" y2="41.46"/><line class="cls-2" x1="105.15" y1="96.55" x2="136.35" y2="94.59"/><line class="cls-2" x1="173.36" y1="140.42" x2="200.93" y2="117.5"/><line class="cls-2" x1="214.85" y1="81.68" x2="205.8" y2="110.58"/><line class="cls-2" x1="174.01" y1="76.88" x2="172.59" y2="104.74"/><line class="cls-2" x1="143.94" y1="95.83" x2="169.01" y2="107.03"/><line class="cls-2" x1="219.54" y1="80.33" x2="241.5" y2="96.78"/><line class="cls-2" x1="218.39" y1="144.16" x2="241.96" y2="103.47"/><line class="cls-2" x1="208.86" y1="112.8" x2="240.28" y2="100.68"/><line class="cls-2" x1="203.55" y1="203.95" x2="219.65" y2="182.9"/><line class="cls-2" x1="178.49" y1="181.86" x2="198.65" y2="203.83"/><line class="cls-2" x1="142.35" y1="174.97" x2="171.8" y2="178.43"/><line class="cls-2" x1="79.7" y1="159.8" x2="109.73" y2="154.32"/><line class="cls-2" x1="135.24" y1="171.83" x2="116.4" y2="155.8"/><line class="cls-2" x1="75.28" y1="122.14" x2="97.87" y2="99.84"/><line class="cls-2" x1="14.6" y1="44.23" x2="27.05" y2="70.04"/><line class="cls-2" x1="70.7" y1="62.81" x2="33.72" y2="72.25"/><line class="cls-2" x1="175.81" y1="109.17" x2="201.16" y2="113.85"/><line class="cls-2" x1="103.78" y1="93.34" x2="124.81" y2="67.52"/><line class="cls-2" x1="75.75" y1="127.78" x2="109.36" y2="150.58"/><line class="cls-2" x1="30.07" y1="151.66" x2="68.23" y2="127.71"/><line class="cls-2" x1="37.77" y1="122.69" x2="67.78" y2="124.98"/><line class="cls-2" x1="75.27" y1="156.79" x2="72.48" y2="129.18"/><line class="cls-2" x1="96" y1="189.66" x2="78.06" y2="164"/><line class="cls-2" x1="134.13" y1="176.48" x2="102.66" y2="191.15"/><line class="cls-2" x1="154.58" y1="212.26" x2="140.3" y2="178.99"/><line class="cls-2" x1="196.83" y1="207.8" x2="161.28" y2="215.69"/><line class="cls-2" x1="32.81" y1="125.82" x2="25.99" y2="151.35"/><line class="cls-2" x1="70.27" y1="159.93" x2="30.45" y2="155.4"/><line class="cls-2" x1="174.79" y1="143.82" x2="211.1" y2="147.76"/><line class="cls-2" x1="158.56" y1="212.73" x2="173.72" y2="182.92"/><line class="cls-2" x1="100.05" y1="188.92" x2="112.15" y2="157.78"/><line class="cls-2" x1="141.72" y1="171.18" x2="166.55" y2="146.61"/><line class="cls-2" x1="61.8" y1="93.76" x2="96.28" y2="96.46"/><line class="cls-2" x1="70.36" y1="121.61" x2="58.73" y2="96.78"/><line class="cls-2" x1="36.21" y1="119.3" x2="54.66" y2="96.48"/><line class="cls-2" x1="73.72" y1="64.92" x2="59.12" y2="90.01"/><line class="cls-2" x1="31.75" y1="75.63" x2="54.13" y2="91.28"/><line class="cls-2" x1="4.95" y1="98.71" x2="25.9" y2="76.52"/><line class="cls-2" x1="30.37" y1="120.18" x2="5.48" y2="103.9"/><line class="cls-2" x1="164.72" y1="34.87" x2="173.17" y2="68.58"/><line class="cls-2" x1="237.38" y1="58.26" x2="243.69" y2="94.27"/><line class="cls-2" x1="205.83" y1="118.03" x2="214.59" y2="144.27"/><line class="cls-2" x1="207.63" y1="46.75" x2="215.08" y2="73.62"/><line class="cls-2" x1="170.16" y1="139.6" x2="172.13" y2="112.23"/><line class="cls-2" x1="116.66" y1="151.11" x2="137.7" y2="132.98"/><line class="cls-2" x1="102.13" y1="100.25" x2="108.85" y2="119.66"/><line class="cls-2" x1="137.26" y1="129.38" x2="113.09" y2="123.22"/><line class="cls-2" x1="113.36" y1="150.27" x2="110.21" y2="125.69"/><line class="cls-2" x1="76.09" y1="124.98" x2="105.78" y2="122.68"/><line class="cls-2" x1="166.21" y1="141.64" x2="144.22" y2="131.81"/><line class="cls-2" x1="169.04" y1="110.85" x2="144.19" y2="127.98"/><line class="cls-2" x1="140.59" y1="98.14" x2="140.8" y2="126.47"/><line class="cls-2" x1="113.06" y1="119.39" x2="137.29" y2="97.3"/></g></g></svg>