<svg xmlns="http://www.w3.org/2000/svg" xmlns:xlink="http://www.w3.org/1999/xlink" viewBox="0 0 2698.79 1105.4"><defs><style>.cls-1,.cls-11,.cls-12,.cls-14,.cls-16,.cls-17,.cls-2,.cls-3,.cls-7,.cls-9{fill:none;}.cls-1{stroke:#fff;}.cls-1,.cls-10,.cls-11,.cls-13,.cls-14,.cls-15,.cls-16,.cls-17,.cls-2,.cls-3,.cls-4,.cls-7,.cls-8,.cls-9{stroke-miterlimit:10;}.cls-1,.cls-2,.cls-3{stroke-width:2.94px;}.cls-2{stroke:url(#linear-gradient);}.cls-3{stroke:url(#linear-gradient-2);}.cls-10,.cls-13,.cls-4,.cls-8{fill:#0e0f11;}.cls-4{stroke:#fcee21;}.cls-10,.cls-11,.cls-13,.cls-14,.cls-15,.cls-16,.cls-17,.cls-4,.cls-7,.cls-8,.cls-9{stroke-width:3.16px;}.cls-5{fill:#191b1e;}.cls-6{font-size:33.66px;fill:#e6e6e6;font-family:Microsoft-Yi-Baiti, Microsoft Yi Baiti;}.cls-7{stroke:#f7931e;}.cls-8,.cls-9{stroke:#2e3192;}.cls-10{stroke:#d3162d;}.cls-11{stroke:#29abe2;}.cls-13,.cls-14,.cls-15{stroke:#6cc;}.cls-15{fill:#6cc;}.cls-16{stroke:#961760;}.cls-17{stroke:#662d91;}</style><linearGradient id="linear-gradient" x1="254.03" y1="1555.45" x2="1259.65" y2="1555.45" gradientTransform="matrix(1, 0, 0, -1, 0, 2058.92)" gradientUnits="userSpaceOnUse"><stop offset="0.01" stop-color="#005b97" stop-opacity="0.1"/><stop offset="0.18" stop-color="#3d88c1" stop-opacity="0.9"/><stop offset="0.44" stop-color="#9cf"/><stop offset="0.57" stop-color="#a9d2fb"/><stop offset="0.8" stop-color="#c3dcf6"/><stop offset="0.94" stop-color="#cce0f4"/><stop offset="1" stop-color="#cce0f4" stop-opacity="0"/></linearGradient><linearGradient id="linear-gradient-2" x1="-2962.02" y1="1555.45" x2="-1956.4" y2="1555.45" gradientTransform="translate(-520.63 2058.92) rotate(180)" xlink:href="#linear-gradient"/></defs><title>Web</title><g id="Layer_2" data-name="Layer 2"><g id="Feature_Tree" data-name="Feature Tree"><circle class="cls-1" cx="1347.71" cy="503.47" r="88.06"/><path class="cls-1" d="M1359.65,457.45c-7.25-6.09-18.63-4.47-25.41,3.61s-36,69.56-36,69.56,55.47-39.43,62.25-47.52S1366.9,463.54,1359.65,457.45Z"/><path class="cls-1" d="M1335.77,549.49c-7.25-6.09-7.64-17.57-.85-25.65s62.25-47.52,62.25-47.52-29.2,61.47-36,69.56S1343,555.57,1335.77,549.49Z"/><path class="cls-2" d="M254,942.12H476.2a58.9,58.9,0,0,0,41.65-17.25l145-145a58.9,58.9,0,0,1,41.65-17.25H910.76a58.9,58.9,0,0,0,41.65-17.25l224.66-224.66a58.9,58.9,0,0,1,41.65-17.25h0a58.9,58.9,0,0,1-41.65-17.25L952.41,261.55a58.9,58.9,0,0,0-41.65-17.25H704.48A58.9,58.9,0,0,1,662.83,227l-145-145A58.9,58.9,0,0,0,476.2,64.81H254"/><path class="cls-3" d="M2441.38,942.12H2219.22a58.9,58.9,0,0,1-41.65-17.25l-145-145a58.9,58.9,0,0,0-41.65-17.25H1784.66A58.9,58.9,0,0,1,1743,745.38L1518.35,520.72a58.9,58.9,0,0,0-41.65-17.25h0a58.9,58.9,0,0,0,41.65-17.25L1743,261.55a58.9,58.9,0,0,1,41.65-17.25h206.28A58.9,58.9,0,0,0,2032.59,227l145-145a58.9,58.9,0,0,1,41.65-17.25h222.16"/><rect class="cls-4" x="745.17" y="699.39" width="126.49" height="126.49" rx="22.86" ry="22.86"/><path class="cls-4" d="M776.66,739.1a39.53,39.53,0,1,0,63.52,47.07"/><path class="cls-4" d="M784.4,731.24a39.53,39.53,0,0,1,48,62.79"/><circle class="cls-4" cx="808.42" cy="762.64" r="7.91"/><circle class="cls-4" cx="780.26" cy="734.9" r="5.76"/><rect class="cls-5" x="613.74" y="855.24" width="381.58" height="76.32" rx="13.79" ry="13.79"/><text class="cls-6" transform="translate(666.46 902.38)">Access from anywhere</text><rect class="cls-7" x="128.22" y="878.86" width="126.49" height="126.49" rx="22.86" ry="22.86"/><circle class="cls-7" cx="175.41" cy="958.92" r="22.52" transform="translate(-626.68 404.9) rotate(-45)"/><circle class="cls-7" cx="219.2" cy="915.05" r="5.76" transform="translate(-582.83 423.01) rotate(-45)"/><polyline class="cls-7" points="215.13 919.12 208.92 925.42 225.5 942 197.18 937.16 191.34 942.99"/><polyline class="cls-7" points="208.92 925.42 192.33 908.83 197.18 937.16"/><rect class="cls-5" x="1.54" y="1028.83" width="381.58" height="76.32" rx="13.79" ry="13.79"/><text class="cls-6" transform="translate(52.34 1075.82)">Send across the globe</text><rect class="cls-8" x="1824.54" y="699.39" width="126.49" height="126.49" rx="22.86" ry="22.86"/><rect class="cls-9" x="1858.58" y="754.03" width="58.41" height="49.34" rx="8.14" ry="8.14"/><path class="cls-9" d="M1866.37,754V743.32a21.42,21.42,0,0,1,42.84,0V754"/><rect class="cls-5" x="1697" y="855.24" width="381.58" height="76.32" rx="13.79" ry="13.79"/><text class="cls-6" transform="translate(1750.11 902.22)">Add additional security</text><rect class="cls-10" x="744.37" y="181.06" width="126.49" height="126.49" rx="22.86" ry="22.86"/><path class="cls-10" d="M807.62,219.31c22.05,0,47.77,19.75,47.77,24.89,0,4.74-25.72,25.1-47.77,25.1"/><path class="cls-10" d="M807.62,269.3c-22.05,0-47.77-19.75-47.77-24.89,0-4.74,25.72-25.1,47.77-25.1"/><circle class="cls-10" cx="807.62" cy="244.31" r="13.58"/><rect class="cls-5" x="616.83" y="331.03" width="381.58" height="76.32" rx="13.79" ry="13.79"/><text class="cls-6" transform="translate(714.33 378.18)">Private Sharing</text><rect class="cls-11" x="2441.36" y="1.58" width="126.49" height="126.49" rx="22.86" ry="22.86"/><path class="cls-12" d="M2518,83.6V46H2499.2s-18.05,5.53,0,16.47S2518,83.6,2518,83.6Z"/><polyline class="cls-11" points="2550.56 59.34 2550.56 49.19 2542.92 41.29 2542.92 21.79 2530.4 40.56 2530.4 59.34"/><path class="cls-11" d="M2517.49,59.34s-9.36-3.16-9.49-11.2,9.49-26.35,9.49-26.35H2508"/><path class="cls-11" d="M2494.83,59.34s6.45-18.05,6.58-26.09a13,13,0,0,0-6.58-11.46H2508"/><path class="cls-11" d="M2483.1,59.34V45.63s-13.18-7,0-15V21.79h-15.68V39.63h-8.17"/><line class="cls-11" x1="2467.42" y1="46.62" x2="2467.42" y2="59.34"/><polyline class="cls-11" points="2492.85 107.86 2492.85 90.74 2505.89 90.74 2519.73 107.86"/><polyline class="cls-11" points="2492.85 107.86 2492.85 68.45 2505.89 68.45 2519.73 85.58"/><path class="cls-11" d="M2470.31,89.09V99.3h14v-29c-31.62.4-27.93,37.55-27.93,37.55"/><polyline class="cls-11" points="2552.93 107.86 2528.69 85.2 2528.69 68.45 2552.93 68.45 2552.93 85.2 2528.69 107.86"/><rect class="cls-5" x="2317.21" y="151.55" width="381.58" height="76.32" rx="13.79" ry="13.79"/><text class="cls-6" transform="translate(2389.82 197.6)">256 Bit Encryption</text><rect class="cls-13" x="1824.53" y="181.06" width="126.49" height="126.49" rx="22.86" ry="22.86"/><polygon class="cls-14" points="1841.65 252.71 1887.78 227.12 1933.9 252.71 1887.78 278.3 1841.65 252.71"/><polygon class="cls-14" points="1841.65 241.14 1887.78 215.55 1933.9 241.14 1887.78 266.73 1841.65 241.14"/><polygon class="cls-15" points="1841.65 229.58 1887.78 203.99 1933.9 229.58 1887.78 255.17 1841.65 229.58"/><rect class="cls-5" x="1693.91" y="331.03" width="381.58" height="76.32" rx="13.79" ry="13.79"/><text class="cls-6" transform="translate(1778.58 378.02)">Scale with usage</text><rect class="cls-16" x="127.55" y="2.17" width="126.49" height="126.49" rx="22.86" ry="22.86"/><polyline class="cls-16" points="127.55 79.77 142.63 79.77 155.88 62.46 168.56 93.36 186.8 23.76 203.1 107.06 223.06 62.3 236.44 79.77 254.03 79.77"/><rect class="cls-5" y="158.01" width="381.58" height="76.32" rx="13.79" ry="13.79"/><text class="cls-6" transform="translate(98.11 205.15)">Monitor Activity</text><rect class="cls-17" x="2441.2" y="879.11" width="126.49" height="126.49" rx="22.86" ry="22.86"/><path class="cls-17" d="M2548.58,928.91h-46.16l-13.51-19h-18.82a9.81,9.81,0,0,0-9.78,9.78V965a9.81,9.81,0,0,0,9.78,9.78h68.71a9.81,9.81,0,0,0,9.78-9.78Z"/><path class="cls-17" d="M2499,909.74l8.62,11.92,40.93.2v-2.14a9.81,9.81,0,0,0-9.78-9.78Z"/><rect class="cls-5" x="2313.66" y="1029.08" width="381.58" height="76.32" rx="13.79" ry="13.79"/><text class="cls-6" transform="translate(2435.46 1076.07)">Personalise</text></g></g></svg>