<svg xmlns="http://www.w3.org/2000/svg" xmlns:xlink="http://www.w3.org/1999/xlink" viewBox="0 0 1259.11 2534.89"><defs><style>.cls-1,.cls-11,.cls-12,.cls-14,.cls-16,.cls-17,.cls-2,.cls-3,.cls-7,.cls-9{fill:none;}.cls-1{stroke:#fff;}.cls-1,.cls-10,.cls-11,.cls-13,.cls-14,.cls-15,.cls-16,.cls-17,.cls-2,.cls-3,.cls-4,.cls-7,.cls-8,.cls-9{stroke-miterlimit:10;}.cls-1,.cls-2,.cls-3{stroke-width:2.94px;}.cls-2{stroke:url(#linear-gradient);}.cls-3{stroke:url(#linear-gradient-2);}.cls-10,.cls-13,.cls-4,.cls-8{fill:#0e0f11;}.cls-4{stroke:#fcee21;}.cls-10,.cls-11,.cls-13,.cls-14,.cls-15,.cls-16,.cls-17,.cls-4,.cls-7,.cls-8,.cls-9{stroke-width:3.16px;}.cls-5{fill:#191b1e;}.cls-6{font-size:33.66px;fill:#e6e6e6;font-family:Microsoft-Yi-Baiti, Microsoft Yi Baiti;}.cls-7{stroke:#f7931e;}.cls-8,.cls-9{stroke:#2e3192;}.cls-10{stroke:#d3162d;}.cls-11{stroke:#29abe2;}.cls-13,.cls-14,.cls-15{stroke:#6cc;}.cls-15{fill:#6cc;}.cls-16{stroke:#961760;}.cls-17{stroke:#662d91;}</style><linearGradient id="linear-gradient" x1="-515.83" y1="2225.39" x2="489.79" y2="2225.39" gradientTransform="matrix(0, 1, 1, 0, -1595.84, 643.9)" gradientUnits="userSpaceOnUse"><stop offset="0.01" stop-color="#005b97" stop-opacity="0.1"/><stop offset="0.18" stop-color="#3d88c1" stop-opacity="0.9"/><stop offset="0.44" stop-color="#9cf"/><stop offset="0.57" stop-color="#a9d2fb"/><stop offset="0.8" stop-color="#c3dcf6"/><stop offset="0.94" stop-color="#cce0f4"/><stop offset="1" stop-color="#cce0f4" stop-opacity="0"/></linearGradient><linearGradient id="linear-gradient-2" x1="-3731.88" y1="2225.39" x2="-2726.26" y2="2225.39" gradientTransform="translate(-1595.84 -1416.46) rotate(-90)" xlink:href="#linear-gradient"/></defs><title>WebVertical</title><g id="Layer_2" data-name="Layer 2"><g id="Feature_Tree" data-name="Feature Tree"><circle class="cls-1" cx="629.55" cy="1221.75" r="88.06"/><path class="cls-1" d="M617.62,1267.76c7.25,6.09,18.63,4.47,25.41-3.61s36-69.56,36-69.56-55.47,39.43-62.25,47.52S610.36,1261.68,617.62,1267.76Z"/><path class="cls-1" d="M641.49,1175.73c7.25,6.09,7.64,17.57.85,25.65s-62.25,47.52-62.25,47.52,29.2-61.47,36-69.56S634.24,1169.64,641.49,1175.73Z"/><path class="cls-2" d="M190.91,128.07V350.23a58.9,58.9,0,0,0,17.25,41.65l145,145a58.9,58.9,0,0,1,17.25,41.65V784.79a58.9,58.9,0,0,0,17.25,41.65L612.3,1051.1a58.9,58.9,0,0,1,17.25,41.65v0a58.9,58.9,0,0,1,17.25-41.65L871.47,826.44a58.9,58.9,0,0,0,17.25-41.65V578.51A58.9,58.9,0,0,1,906,536.86l145-145a58.9,58.9,0,0,0,17.25-41.65V128.07"/><path class="cls-3" d="M190.91,2315.42V2093.26a58.9,58.9,0,0,1,17.25-41.65l145-145A58.9,58.9,0,0,0,370.39,1865V1658.7A58.9,58.9,0,0,1,387.64,1617L612.3,1392.39a58.9,58.9,0,0,0,17.25-41.65v0a58.9,58.9,0,0,0,17.25,41.65L871.47,1617a58.9,58.9,0,0,1,17.25,41.65V1865A58.9,58.9,0,0,0,906,1906.63l145,145a58.9,58.9,0,0,1,17.25,41.65v222.16"/><rect class="cls-4" x="307.14" y="619.21" width="126.49" height="126.49" rx="22.86" ry="22.86"/><path class="cls-4" d="M338.62,658.92A39.53,39.53,0,0,0,402.15,706"/><path class="cls-4" d="M346.37,651.06a39.53,39.53,0,0,1,48,62.79"/><circle class="cls-4" cx="370.38" cy="682.45" r="7.91"/><circle class="cls-4" cx="342.23" cy="654.72" r="5.76"/><rect class="cls-5" x="173.85" y="755.1" width="381.58" height="76.32" rx="13.79" ry="13.79"/><text class="cls-6" transform="translate(226.57 802.25)">Access from anywhere</text><rect class="cls-7" x="127.68" y="2.25" width="126.49" height="126.49" rx="22.86" ry="22.86"/><circle class="cls-7" cx="174.88" cy="82.31" r="22.52" transform="translate(-6.99 147.77) rotate(-45)"/><circle class="cls-7" cx="218.66" cy="38.44" r="5.76" transform="translate(36.86 165.88) rotate(-45)"/><polyline class="cls-7" points="214.59 42.52 208.38 48.81 224.97 65.4 196.64 60.55 190.8 66.39"/><polyline class="cls-7" points="208.38 48.81 191.79 32.23 196.64 60.55"/><rect class="cls-5" x="0.25" y="142.9" width="381.58" height="76.32" rx="13.79" ry="13.79"/><text class="cls-6" transform="translate(51.05 189.89)">Send across the globe</text><rect class="cls-8" x="307.14" y="1698.58" width="126.49" height="126.49" rx="22.86" ry="22.86"/><rect class="cls-9" x="341.18" y="1753.22" width="58.41" height="49.34" rx="8.14" ry="8.14"/><path class="cls-9" d="M349,1753.22v-10.71a21.42,21.42,0,0,1,42.84,0v10.71"/><rect class="cls-5" x="173.85" y="1838.36" width="381.58" height="76.32" rx="13.79" ry="13.79"/><text class="cls-6" transform="translate(226.95 1885.35)">Add additional security</text><rect class="cls-10" x="825.47" y="618.41" width="126.49" height="126.49" rx="22.86" ry="22.86"/><path class="cls-10" d="M888.72,656.66c22.05,0,47.77,19.75,47.77,24.89,0,4.74-25.72,25.1-47.77,25.1"/><path class="cls-10" d="M888.72,706.65c-22.05,0-47.77-19.75-47.77-24.89,0-4.74,25.72-25.1,47.77-25.1"/><circle class="cls-10" cx="888.72" cy="681.65" r="13.58"/><rect class="cls-5" x="698.05" y="758.19" width="381.58" height="76.32" rx="13.79" ry="13.79"/><text class="cls-6" transform="translate(795.55 805.34)">Private Sharing</text><rect class="cls-11" x="1004.95" y="2315.4" width="126.49" height="126.49" rx="22.86" ry="22.86"/><path class="cls-12" d="M1081.63,2397.42v-37.55h-18.84s-18.05,5.53,0,16.47S1081.63,2397.42,1081.63,2397.42Z"/><polyline class="cls-11" points="1114.15 2373.15 1114.15 2363.01 1106.51 2355.1 1106.51 2335.6 1093.99 2354.38 1093.99 2373.15"/><path class="cls-11" d="M1081.08,2373.15s-9.36-3.16-9.49-11.2,9.49-26.35,9.49-26.35h-9.49"/><path class="cls-11" d="M1058.43,2373.15s6.45-18.05,6.58-26.09a13,13,0,0,0-6.58-11.46h13.17"/><path class="cls-11" d="M1046.69,2373.15v-13.7s-13.18-7,0-15v-8.83H1031v17.85h-8.17"/><line class="cls-11" x1="1031.01" y1="2360.44" x2="1031.01" y2="2373.15"/><polyline class="cls-11" points="1056.44 2421.68 1056.44 2404.55 1069.49 2404.55 1083.32 2421.68"/><polyline class="cls-11" points="1056.44 2421.68 1056.44 2382.27 1069.49 2382.27 1083.32 2399.4"/><path class="cls-11" d="M1033.9,2402.9v10.21h14v-29c-31.62.4-27.93,37.55-27.93,37.55"/><polyline class="cls-11" points="1116.52 2421.68 1092.28 2399.02 1092.28 2382.27 1116.52 2382.27 1116.52 2399.02 1092.28 2421.68"/><rect class="cls-5" x="877.53" y="2458.57" width="381.58" height="76.32" rx="13.79" ry="13.79"/><text class="cls-6" transform="translate(950.13 2504.62)">256 Bit Encryption</text><rect class="cls-13" x="825.47" y="1698.57" width="126.49" height="126.49" rx="22.86" ry="22.86"/><polygon class="cls-14" points="842.6 1770.21 888.72 1744.63 934.84 1770.21 888.72 1795.81 842.6 1770.21"/><polygon class="cls-14" points="842.6 1758.65 888.72 1733.06 934.84 1758.65 888.72 1784.24 842.6 1758.65"/><polygon class="cls-15" points="842.6 1747.09 888.72 1721.5 934.84 1747.09 888.72 1772.68 842.6 1747.09"/><rect class="cls-5" x="698.05" y="1835.27" width="381.58" height="76.32" rx="13.79" ry="13.79"/><text class="cls-6" transform="translate(782.72 1882.26)">Scale with usage</text><rect class="cls-16" x="1004.37" y="1.58" width="126.49" height="126.49" rx="22.86" ry="22.86"/><polyline class="cls-16" points="1004.37 79.19 1019.46 79.19 1032.71 61.87 1045.38 92.77 1063.63 23.18 1079.92 106.47 1099.88 61.71 1113.26 79.19 1130.86 79.19"/><rect class="cls-5" x="871.07" y="141.36" width="381.58" height="76.32" rx="13.79" ry="13.79"/><text class="cls-6" transform="translate(969.18 188.51)">Monitor Activity</text><rect class="cls-17" x="127.42" y="2315.24" width="126.49" height="126.49" rx="22.86" ry="22.86"/><path class="cls-17" d="M234.8,2365H188.64l-13.51-19H156.32a9.81,9.81,0,0,0-9.78,9.78v45.28a9.81,9.81,0,0,0,9.78,9.78H225a9.81,9.81,0,0,0,9.78-9.78Z"/><path class="cls-17" d="M185.26,2345.87l8.62,11.92,40.93.2v-2.14a9.81,9.81,0,0,0-9.78-9.78Z"/><rect class="cls-5" y="2455.02" width="381.58" height="76.32" rx="13.79" ry="13.79"/><text class="cls-6" transform="translate(121.81 2502.01)">Personalise</text></g></g></svg>