<svg version="1.0" xmlns="http://www.w3.org/2000/svg"
 width="100pt" height="100pt" viewBox="0 0 100 100"
 preserveAspectRatio="xMidYMid meet">
<g transform="translate(0,100) scale(0.1,-0.1)"
fill="#000000" stroke="none">
<path d="M30 750 c0 -92 1 -100 19 -100 15 0 23 12 33 48 l14 47 67 3 67 3 0
-265 0 -264 -40 -7 c-36 -6 -40 -10 -40 -36 l0 -29 150 0 150 0 0 29 c0 26 -4
30 -40 36 l-40 7 0 264 0 265 67 -3 67 -3 14 -47 c10 -36 18 -48 33 -48 18 0
19 8 19 100 l0 100 -270 0 -270 0 0 -100z m520 0 c0 -44 -2 -80 -5 -80 -2 0
-11 21 -18 48 l-14 47 -82 3 -81 3 0 -280 0 -279 40 -7 c25 -4 40 -12 40 -21
0 -11 -25 -14 -130 -14 -105 0 -130 3 -130 14 0 9 15 17 40 21 l40 7 0 279 0
280 -81 -3 -82 -3 -14 -47 c-7 -27 -16 -48 -18 -48 -3 0 -5 36 -5 80 l0 80
250 0 250 0 0 -80z"/>
<path d="M580 525 c0 -66 2 -75 18 -75 11 0 24 11 30 25 10 21 18 25 57 25
l45 0 0 -135 0 -134 -40 -12 c-34 -11 -40 -16 -40 -41 l0 -28 125 0 125 0 0
28 c0 25 -6 30 -40 41 l-40 12 0 134 0 135 45 0 c39 0 47 -4 57 -25 6 -14 19
-25 30 -25 16 0 18 9 18 75 l0 75 -195 0 -195 0 0 -75z m370 -2 c-1 -53 -2
-56 -15 -39 -8 11 -15 23 -15 28 0 4 -27 8 -60 8 l-60 0 0 -148 0 -149 40 -12
c23 -7 40 -18 40 -26 0 -12 -20 -15 -105 -15 -85 0 -105 3 -105 15 0 8 17 19
40 26 l40 12 0 149 0 148 -60 0 c-33 0 -60 -4 -60 -8 0 -5 -7 -17 -15 -28 -13
-17 -14 -14 -15 39 l0 57 175 0 175 0 0 -57z"/>
</g>
</svg>
