<svg xmlns="http://www.w3.org/2000/svg" viewBox="0 0 106.52 128.34"><defs><style>.cls-1{font-size:10px;fill:#fff;font-family:SegoeUI-LightItalic, Segoe UI;font-style:italic;}.cls-2{letter-spacing:-0.02em;}.cls-3{letter-spacing:-0.01em;}.cls-4{letter-spacing:0.02em;}.cls-5{fill:#c1272d;stroke:#9b3131;}.cls-10,.cls-11,.cls-12,.cls-13,.cls-14,.cls-15,.cls-5,.cls-6,.cls-7,.cls-8,.cls-9{stroke-miterlimit:10;}.cls-10,.cls-11,.cls-12,.cls-13,.cls-14,.cls-15,.cls-6,.cls-7,.cls-8,.cls-9{fill:none;}.cls-6{stroke:aqua;}.cls-7{stroke:#f7931e;}.cls-8{stroke:#fcee21;}.cls-9{stroke:#0071bc;}.cls-10{stroke:#7ac943;}.cls-11{stroke:#c69c6d;}.cls-12{stroke:#006837;}.cls-13{stroke:#ff7bac;}.cls-14{stroke:#662d91;}.cls-15{stroke:#ff0013;}</style></defs><title>Flow Diagram Text</title><g id="Layer_2" data-name="Layer 2"><g id="Layer_1-2" data-name="Layer 1"><text class="cls-1" transform="translate(19.67 8.5)">
<tspan class="cls-2">Webpage</tspan>
<tspan x="0" y="11.72">SocketIO</tspan>
<tspan x="0" y="23.44">Cloudflare</tspan>
<tspan x="0" y="35.16">Server (Express)</tspan>
<tspan x="0" y="46.88">Accounts (MongoDB)</tspan>
<tspan x="0" y="58.6">Security Checks</tspan>
<tspan x="0" y="70.32">Project Allocate</tspan>
<tspan x="0" y="82.04">Reader</tspan>
<tspan x="0" y="93.76">Writer</tspan>
<tspan x="0" y="105.48">User Data</tspan>
<tspan x="0" y="117.2">Mass Storage</tspan>
</text><line class="cls-5" x1="16.16" y1="17.23" y2="17.23"/><line class="cls-6" x1="16.16" y1="5.52" y2="5.52"/><line class="cls-7" x1="16.16" y1="28.94" y2="28.94"/><line class="cls-8" x1="16.16" y1="40.65" y2="40.65"/><line class="cls-9" x1="16.23" y1="52.35" x2="0.08" y2="52.35"/><line class="cls-10" x1="16.23" y1="64.06" x2="0.08" y2="64.06"/><line class="cls-11" x1="16.23" y1="75.77" x2="0.08" y2="75.77"/><line class="cls-12" x1="16.23" y1="87.48" x2="0.08" y2="87.48"/><line class="cls-13" x1="16.23" y1="99.19" x2="0.08" y2="99.19"/><line class="cls-14" x1="16.23" y1="110.9" x2="0.08" y2="110.9"/><line class="cls-15" x1="16.23" y1="122.6" x2="0.08" y2="122.6"/></g></g></svg>