<svg xmlns="http://www.w3.org/2000/svg" viewBox="0 0 59.2 228.75"><defs><style>.cls-1{fill:none;stroke:#fff;stroke-miterlimit:10;}</style></defs><title>Flow Diagram</title><g id="Layer_2" data-name="Layer 2"><g id="Layer_1-2" data-name="Layer 1"><circle class="cls-1" cx="29.59" cy="5.5" r="5"/><line class="cls-1" x1="29.59" y1="10.5" x2="29.59" y2="35.81"/><circle class="cls-1" cx="29.59" cy="83.16" r="5"/><line class="cls-1" x1="29.59" y1="88.16" x2="29.59" y2="103.49"/><circle class="cls-1" cx="29.59" cy="115.82" r="12.33"/><line class="cls-1" x1="29.59" y1="78.16" x2="29.59" y2="53.5"/><circle class="cls-1" cx="29.59" cy="44.66" r="8.84"/><circle class="cls-1" cx="7.34" cy="83.16" r="5"/><line class="cls-1" x1="24.59" y1="83.16" x2="12.26" y2="83.16"/><circle class="cls-1" cx="51.84" cy="83.16" r="5"/><line class="cls-1" x1="34.59" y1="83.16" x2="46.92" y2="83.16"/><line class="cls-1" x1="38.59" y1="124.82" x2="50.16" y2="136.39"/><circle class="cls-1" cx="53.7" cy="139.92" r="5" transform="translate(-83.21 78.95) rotate(-45)"/><line class="cls-1" x1="20.59" y1="124.86" x2="9.03" y2="136.43"/><circle class="cls-1" cx="5.5" cy="139.97" r="5" transform="translate(-97.36 44.89) rotate(-45)"/><circle class="cls-1" cx="29.59" cy="204.69" r="23.56"/><circle class="cls-1" cx="29.58" cy="163.96" r="8.27" transform="translate(-107.27 68.94) rotate(-45)"/><line class="cls-1" x1="29.58" y1="172.23" x2="29.58" y2="181.13"/><line class="cls-1" x1="50.16" y1="143.45" x2="35.43" y2="158.11"/><line class="cls-1" x1="9.04" y1="143.5" x2="23.73" y2="158.11"/></g></g></svg>