<svg xmlns="http://www.w3.org/2000/svg" viewBox="0 0 706.07 111.52"><defs><style>.cls-1,.cls-3{fill:#fff;}.cls-1,.cls-2{opacity:0.8;}</style></defs><title>Nanode</title><g id="Layer_2" data-name="Layer 2"><g id="Layer_1-2" data-name="Layer 1"><path class="cls-1" d="M63.07,52q13,16.47,21.17,29.25h.54q-1.09-21-1.09-30.53V2h0c12.24,0,22.17,8.81,22.17,19.68V95c0,8-6.94,14.53-15.49,14.53h0A15.86,15.86,0,0,1,78,103.68L43.16,60Q32.76,47.16,21.63,30.21h-.54Q22.17,50,22.17,60.82v48.69h0C9.93,109.51,0,100.7,0,89.83V16.54C0,8.52,6.94,2,15.49,2h0A15.86,15.86,0,0,1,27.9,7.84Z"/><path class="cls-1" d="M288.81,52q13,16.47,21.17,29.25h.54q-1.09-21-1.09-30.53V2h0c12.24,0,22.17,8.81,22.17,19.68V95c0,8-6.94,14.53-15.49,14.53h0a15.86,15.86,0,0,1-12.41-5.83L268.91,60Q258.5,47.16,247.37,30.21h-.54q1.09,19.77,1.09,30.61v48.69h0c-12.24,0-22.17-8.81-22.17-19.68V16.54c0-8,6.94-14.53,15.49-14.53h0a15.86,15.86,0,0,1,12.41,5.83Z"/><path class="cls-1" d="M473.14,55.76a62.34,62.34,0,0,1-3.94,22.54,48.84,48.84,0,0,1-11.49,17.64,52.17,52.17,0,0,1-18.55,11.49,78.44,78.44,0,0,1-50,0,52.17,52.17,0,0,1-18.55-11.49A48.84,48.84,0,0,1,359.08,78.3a62.34,62.34,0,0,1-3.94-22.54,62.34,62.34,0,0,1,3.94-22.54,48.84,48.84,0,0,1,11.49-17.64A52.17,52.17,0,0,1,389.12,4.1a78.44,78.44,0,0,1,50,0,52.17,52.17,0,0,1,18.55,11.49,48.84,48.84,0,0,1,11.49,17.64A62.34,62.34,0,0,1,473.14,55.76Zm-22.89,0a49.44,49.44,0,0,0-2.71-17.15A34.14,34.14,0,0,0,440,26.35,30.23,30.23,0,0,0,428.62,19a44.69,44.69,0,0,0-29,0,30.23,30.23,0,0,0-11.4,7.31,34.14,34.14,0,0,0-7.51,12.25A49.44,49.44,0,0,0,378,55.76a49.44,49.44,0,0,0,2.71,17.15,33.74,33.74,0,0,0,7.51,12.21,30.89,30.89,0,0,0,11.4,7.31,44,44,0,0,0,29,0A30.89,30.89,0,0,0,440,85.13a33.74,33.74,0,0,0,7.51-12.21A49.44,49.44,0,0,0,450.25,55.76Z"/><polygon class="cls-1" points="173.25 82.11 127.66 82.11 134.81 65.64 127.66 82.11 134.81 65.64 166.1 65.64 150.64 27.88 160.5 2.01 208.55 109.51 185.11 109.51 173.25 82.11"/><g class="cls-2"><path class="cls-3" d="M496.67,100.29V9.75A9.75,9.75,0,0,1,506.42,0H528.7q4.25,0,8.64.25T545.9,1q4.16.49,8.05,1.19a63.35,63.35,0,0,1,7.15,1.69,64.55,64.55,0,0,1,17.1,7.57A49.1,49.1,0,0,1,590.64,22.7a47.12,47.12,0,0,1,7.6,14.52,56.52,56.52,0,0,1,2.58,17.39,61.64,61.64,0,0,1-2.17,16.65,46.12,46.12,0,0,1-17.78,25.49,59.46,59.46,0,0,1-16,8,92,92,0,0,1-17.46,3.95,166,166,0,0,1-22,1.32h-19A9.75,9.75,0,0,1,496.67,100.29ZM528,93.18q19.46,0,30.4-4.85A31.69,31.69,0,0,0,573,75.66q5-8.31,5-21.22a42.29,42.29,0,0,0-1.63-12.17,31.88,31.88,0,0,0-4.71-9.66,30.93,30.93,0,0,0-7.47-7.28,42.27,42.27,0,0,0-9.91-5,56.82,56.82,0,0,0-11.49-2.63,111.09,111.09,0,0,0-14.21-.82h-5.16a4.62,4.62,0,0,0-4.62,4.62V88.53a4.65,4.65,0,0,0,4.65,4.65Z"/><path class="cls-3" d="M654.63,93.18h51.43A16.86,16.86,0,0,1,689.21,110H641.34a17,17,0,0,1-17-17V0h61.6a16.86,16.86,0,0,1,16.86,16.86H646.52V45.31h48.32V62.17H646.52V85.07A8.11,8.11,0,0,0,654.63,93.18Z"/></g></g></g></svg>