<svg xmlns="http://www.w3.org/2000/svg" viewBox="0 0 88.26 86.13"><defs><style>.cls-1{fill:none;stroke:#d6af43;stroke-miterlimit:10;stroke-width:0.75px;}.cls-2{fill:#d6af43;}</style></defs><title>System</title><g id="Layer_2" data-name="Layer 2"><g id="Layer_1-2" data-name="Layer 1"><path class="cls-1" d="M65.89,6.37q-.85-.52-1.73-1t-1.79-.91q-.91-.44-1.83-.83t-1.88-.74q-1-.35-1.92-.65t-2-.56q-1-.26-2-.46t-2-.36Q49.7.7,48.65.59T46.55.43Q45.49.38,44.42.38T42.29.43q-1.06.05-2.1.16T38.11.85q-1,.16-2,.36t-2,.46q-1,.26-2,.56t-1.92.65q-1,.35-1.88.74t-1.83.83q-.91.44-1.79.91t-1.73,1q-.85.52-1.68,1.08T19.64,8.6q-.8.6-1.56,1.23t-1.5,1.3q-.74.67-1.44,1.37t-1.37,1.44q-.67.74-1.3,1.5T11.23,17q-.6.8-1.15,1.62T9,20.31q-.52.85-1,1.73t-.91,1.79q-.44.91-.83,1.83t-.74,1.88q-.35,1-.65,1.92t-.56,2q-.26,1-.46,2t-.36,2q-.16,1-.26,2.07t-.16,2.1Q3,40.71,3,41.79"/><path class="cls-1" d="M73.7,71.07q1.41-1.41,2.67-2.94t2.38-3.19q1.12-1.65,2.07-3.41t1.74-3.62Q83.36,56,84,54.1t1-4A41.34,41.34,0,0,0,85.62,46a42,42,0,0,0,0-8.47"/><path class="cls-1" d="M11.23,66.56q.6.8,1.23,1.56t1.3,1.5q.67.74,1.37,1.44t1.44,1.37q.74.67,1.5,1.3T19.64,75q.8.6,1.62,1.15t1.68,1.08q.85.52,1.73,1t1.79.91q.91.44,1.83.83t1.88.74q1,.35,1.92.65t2,.56q1,.26,2,.46t2,.36q1,.16,2.07.26t2.1.16q1.06.05,2.13.05"/><path class="cls-2" d="M68.24,5.65h.16a2.26,2.26,0,0,1-.15,4.51h-.16a2.26,2.26,0,0,1,.15-4.51m0-.75a3,3,0,0,0-.21,6h.21a3,3,0,0,0,.21-6Z"/><path class="cls-2" d="M85.25,32.91h.16a2.26,2.26,0,0,1-.15,4.51h-.16a2.26,2.26,0,0,1,.15-4.51m0-.75a3,3,0,0,0-.21,6h.21a3,3,0,0,0,.21-6Z"/><path class="cls-2" d="M72,70.54h.16A2.26,2.26,0,0,1,72,75.05H71.8A2.26,2.26,0,0,1,72,70.54m0-.75a3,3,0,0,0-.21,6H72a3,3,0,0,0,.21-6Z"/><path class="cls-2" d="M47,80.86h.16A2.26,2.26,0,0,1,47,85.38H46.8A2.26,2.26,0,0,1,47,80.86m0-.75a3,3,0,0,0-.21,6H47a3,3,0,0,0,.21-6Z"/><path class="cls-2" d="M9.88,62.38H10a2.26,2.26,0,0,1-.15,4.51H9.72a2.26,2.26,0,0,1,.15-4.51m0-.75a3,3,0,0,0-.21,6h.21a3,3,0,0,0,.21-6Z"/><path class="cls-2" d="M3,42.39h.16A2.26,2.26,0,0,1,3,46.9H2.85A2.26,2.26,0,0,1,3,42.39m0-.75a3,3,0,0,0-.21,6H3a3,3,0,0,0,.21-6Z"/><path class="cls-1" d="M66.66,32.68q-.46-1.1-1-2.14t-1.23-2q-.66-1-1.41-1.88t-1.58-1.74q-.83-.83-1.74-1.58t-1.88-1.41"/><path class="cls-1" d="M36.82,18.84q-1.15.36-2.25.82t-2.14,1q-1,.57-2,1.23t-1.88,1.41q-.91.75-1.74,1.58t-1.58,1.74q-.75.91-1.41,1.88t-1.23,2q-.57,1-1,2.14t-.82,2.25"/><path class="cls-1" d="M25.21,57.77q.37.45.77.89t.81.85q.42.42.85.81t.89.77q.45.37.92.73t1,.68q.49.33,1,.64t1,.59q.52.28,1.06.54t1.08.49q.55.23,1.11.44t1.14.38q.57.18,1.16.33t1.18.27q.6.12,1.2.22t1.22.16q.62.06,1.24.09t1.26,0q.63,0,1.26,0t1.24-.09q.62-.06,1.22-.16t1.2-.22q.6-.12,1.18-.27t1.16-.33q.57-.18,1.14-.38t1.11-.44q.55-.23,1.08-.49t1.06-.54q.52-.28,1-.59t1-.64q.49-.33,1-.68t.92-.73q.45-.37.89-.77t.85-.81q.42-.42.81-.85t.77-.89q.37-.45.73-.92t.68-1q.33-.49.64-1t.59-1q.28-.52.54-1.06t.49-1.08q.23-.55.44-1.11"/><path class="cls-1" d="M23.8,55.89"/><path class="cls-2" d="M20.12,35h.16a2.26,2.26,0,0,1-.15,4.51H20A2.26,2.26,0,0,1,20.12,35m0-.75a3,3,0,0,0-.21,6h.21a3,3,0,0,0,.21-6Z"/><path class="cls-2" d="M39.16,16h.16a2.26,2.26,0,0,1-.15,4.51H39A2.26,2.26,0,0,1,39.16,16m0-.75a3,3,0,0,0-.21,6h.21a3,3,0,0,0,.21-6Z"/><path class="cls-2" d="M55.36,18.16h.16a2.26,2.26,0,0,1-.15,4.51h-.16a2.26,2.26,0,0,1,.15-4.51m0-.75a3,3,0,0,0-.21,6h.21a3,3,0,0,0,.21-6Z"/><path class="cls-2" d="M67.48,32.67h.16a2.26,2.26,0,0,1-.15,4.51h-.16a2.26,2.26,0,0,1,.15-4.51m0-.75a3,3,0,0,0-.21,6h.21a3,3,0,0,0,.21-6Z"/><path class="cls-2" d="M67.83,46.19H68a2.26,2.26,0,0,1-.15,4.51h-.16a2.26,2.26,0,0,1,.15-4.51m0-.75a3,3,0,0,0-.21,6h.21a3,3,0,0,0,.21-6Z"/><path class="cls-2" d="M23.8,53.63H24a2.26,2.26,0,0,1-.15,4.51h-.16a2.26,2.26,0,0,1,.15-4.51m0-.75a3,3,0,0,0-.21,6h.21a3,3,0,0,0,.21-6Z"/><path class="cls-2" d="M44.18,40h.16a2.26,2.26,0,0,1-.15,4.51H44A2.26,2.26,0,0,1,44.18,40m0-.75a3,3,0,0,0-.21,6h.21a3,3,0,0,0,.21-6Z"/></g></g></svg>