<svg id="Layer_1" data-name="Layer 1" xmlns="http://www.w3.org/2000/svg" xmlns:xlink="http://www.w3.org/1999/xlink" viewBox="0 0 900 500"><defs><style>.cls-1{fill:#141517;}.cls-2,.cls-3{fill:none;stroke-miterlimit:10;}.cls-2{stroke:url(#Nanode_Grade);}.cls-3{stroke:url(#Nanode_Grade-2);}.cls-4{fill:#e6e6e6;}.cls-5{fill:#999;}.cls-6{fill:#333;}.cls-7{fill:#9cf;}.cls-8{fill:#f2f2f2;}.cls-11,.cls-12,.cls-9{fill:#666;}.cls-10,.cls-12,.cls-9{opacity:0.6;}.cls-12{font-size:8px;font-family:Corbel-Bold, Corbel;font-weight:700;}</style><linearGradient id="Nanode_Grade" x1="4935.56" y1="331.42" x2="5946.07" y2="331.42" gradientTransform="translate(5890.96 576.91) rotate(180)" gradientUnits="userSpaceOnUse"><stop offset="0.01" stop-color="#005b97" stop-opacity="0.1"/><stop offset="0.18" stop-color="#3d88c1" stop-opacity="0.9"/><stop offset="0.44" stop-color="#9cf"/><stop offset="0.57" stop-color="#a9d2fb"/><stop offset="0.8" stop-color="#c3dcf6"/><stop offset="0.94" stop-color="#cce0f4"/><stop offset="1" stop-color="#cce0f4" stop-opacity="0"/></linearGradient><linearGradient id="Nanode_Grade-2" x1="4935.56" y1="321.42" x2="5946.07" y2="321.42" xlink:href="#Nanode_Grade"/></defs><title>Nanode Poster</title><rect class="cls-1" x="0.15" y="-0.01" width="900" height="500"/><polyline class="cls-2" points="-54.86 437.4 351.13 203.75 549.16 287.23 955.16 53.59"/><polyline class="cls-3" points="-54.86 447.4 351.13 213.75 549.16 297.23 955.16 63.59"/><path class="cls-4" d="M470.43,420.88q3.39,4.28,5.5,7.6h.14q-.28-5.45-.28-7.94V407.89h0c3.18,0,5.76,2.29,5.76,5.12v19.05a3.91,3.91,0,0,1-4,3.78h0a4.12,4.12,0,0,1-3.23-1.52l-9-11.35q-2.71-3.34-5.6-7.75h-.14q.28,5.14.28,8v12.66h0c-3.18,0-5.76-2.29-5.76-5.12V411.67a3.91,3.91,0,0,1,4-3.78h0a4.12,4.12,0,0,1,3.23,1.52Z"/><path class="cls-4" d="M547,420.88q3.39,4.28,5.5,7.6h.14q-.28-5.45-.28-7.94V407.89h0c3.18,0,5.76,2.29,5.76,5.12v19.05a3.91,3.91,0,0,1-4,3.78h0a4.12,4.12,0,0,1-3.23-1.52l-9-11.35q-2.71-3.34-5.6-7.75h-.14q.28,5.14.28,8v12.66h0c-3.18,0-5.76-2.29-5.76-5.12V411.67a3.91,3.91,0,0,1,4-3.78h0a4.12,4.12,0,0,1,3.23,1.52Z"/><path class="cls-4" d="M597.76,421.87a15.6,15.6,0,0,1-1,5.64,12.22,12.22,0,0,1-2.88,4.41,13.05,13.05,0,0,1-4.64,2.87,19.62,19.62,0,0,1-12.52,0,13.05,13.05,0,0,1-4.64-2.87,12.22,12.22,0,0,1-2.88-4.41,16.63,16.63,0,0,1,0-11.28,12.22,12.22,0,0,1,2.88-4.41,13.05,13.05,0,0,1,4.64-2.87,19.62,19.62,0,0,1,12.52,0,13.05,13.05,0,0,1,4.64,2.87,12.22,12.22,0,0,1,2.88,4.41A15.6,15.6,0,0,1,597.76,421.87Zm-5.73,0a12.37,12.37,0,0,0-.68-4.29,8.54,8.54,0,0,0-1.88-3.07,7.56,7.56,0,0,0-2.85-1.83,11.18,11.18,0,0,0-7.24,0,7.56,7.56,0,0,0-2.85,1.83,8.54,8.54,0,0,0-1.88,3.07,13.9,13.9,0,0,0,0,8.58,8.44,8.44,0,0,0,1.88,3.06,7.73,7.73,0,0,0,2.85,1.83,11,11,0,0,0,7.24,0,7.73,7.73,0,0,0,2.85-1.83,8.44,8.44,0,0,0,1.88-3.06A12.37,12.37,0,0,0,592,421.87Z"/><path class="cls-4" d="M607.83,433.63V410.1a2.54,2.54,0,0,1,2.54-2.54h5.79q1.11,0,2.25.06t2.22.19q1.08.13,2.09.31a16.47,16.47,0,0,1,1.86.44,16.78,16.78,0,0,1,4.45,2,12.76,12.76,0,0,1,3.23,2.93,12.25,12.25,0,0,1,2,3.77,14.69,14.69,0,0,1,.67,4.52,16,16,0,0,1-.56,4.33,12,12,0,0,1-4.62,6.63,15.46,15.46,0,0,1-4.15,2.08,23.92,23.92,0,0,1-4.54,1,43.14,43.14,0,0,1-5.72.34h-4.95A2.53,2.53,0,0,1,607.83,433.63Zm8.14-1.85a20,20,0,0,0,7.9-1.26,8.24,8.24,0,0,0,3.81-3.29,10.6,10.6,0,0,0,1.29-5.52,11,11,0,0,0-.42-3.16,8.29,8.29,0,0,0-1.22-2.51,8,8,0,0,0-1.94-1.89,11,11,0,0,0-2.58-1.3,14.77,14.77,0,0,0-3-.68,28.88,28.88,0,0,0-3.69-.21H614.8a1.2,1.2,0,0,0-1.2,1.2v17.43a1.21,1.21,0,0,0,1.21,1.21Z"/><path class="cls-4" d="M652.85,431.79h13.37a4.38,4.38,0,0,1-4.38,4.38H649.4a4.42,4.42,0,0,1-4.42-4.42V407.56h16a4.38,4.38,0,0,1,4.38,4.38H650.75v7.4h12.56v4.38H650.75v6A2.11,2.11,0,0,0,652.85,431.79Z"/><path class="cls-4" d="M506.1,407.89h0a3.06,3.06,0,0,0-2.79,1.81l-11.68,26.14h6.09l3.08-7.12H511.4l3.08,7.12h6.09L508.89,409.7A3.06,3.06,0,0,0,506.1,407.89Zm-3.44,16.54,3.34-8.15h.2l3.34,8.15Z"/><circle class="cls-5" cx="678.49" cy="433.98" r="2.19"/><path class="cls-5" d="M719.78,422.24a15.56,15.56,0,0,1-1,5.66,12.71,12.71,0,0,1-2.85,4.44,13,13,0,0,1-4.47,2.91,15.65,15.65,0,0,1-5.85,1,16.26,16.26,0,0,1-6-1,12.74,12.74,0,0,1-4.48-2.91,12.61,12.61,0,0,1-2.81-4.44,15.89,15.89,0,0,1-1-5.66,15.57,15.57,0,0,1,1-5.69,12.63,12.63,0,0,1,7.33-7.37,15.82,15.82,0,0,1,5.89-1,16.09,16.09,0,0,1,6,1,12.77,12.77,0,0,1,4.47,2.91,12.6,12.6,0,0,1,2.81,4.45A16,16,0,0,1,719.78,422.24Zm-3.7,0a13.35,13.35,0,0,0-.81-4.83,9.79,9.79,0,0,0-2.23-3.49,9.39,9.39,0,0,0-3.35-2.12,12.27,12.27,0,0,0-8.29,0,9.39,9.39,0,0,0-3.35,2.12,9.78,9.78,0,0,0-2.23,3.49,13.35,13.35,0,0,0-.81,4.83,13.1,13.1,0,0,0,.82,4.82,9.92,9.92,0,0,0,2.24,3.48,9.27,9.27,0,0,0,3.35,2.11,12,12,0,0,0,4.17.71,11.71,11.71,0,0,0,4.12-.71,9.33,9.33,0,0,0,3.32-2.11,9.81,9.81,0,0,0,2.23-3.48A13.26,13.26,0,0,0,716.08,422.24Z"/><path class="cls-5" d="M747.47,423.47q2.88,3.69,5.7,7.58h.14q-.3-4.06-.3-8.29V407.93h0a3.85,3.85,0,0,1,3.84,3.85v21.45a2.58,2.58,0,0,1-2.58,2.58h0a2.57,2.57,0,0,1-2-1l-11.53-14.57q-3.19-4.06-5.7-7.58h-.14q.3,3.81.3,8.9v14.23h0a3.82,3.82,0,0,1-3.82-3.83V410.49a2.56,2.56,0,0,1,2.56-2.56h0a2.56,2.56,0,0,1,2,1Z"/><path class="cls-5" d="M771.86,433.38h16.49a3.14,3.14,0,0,1-3.14,3.14H771.64a3.7,3.7,0,0,1-3.7-3.71V407.93h16.38a3.14,3.14,0,0,1,3.14,3.14h-15.6v9.23h13.87v3.14H771.86Z"/><circle class="cls-6" cx="8.61" cy="162.75" r="2.13"/><circle class="cls-6" cx="47.98" cy="162.75" r="2.13"/><circle class="cls-6" cx="87.36" cy="162.75" r="2.13"/><circle class="cls-6" cx="126.74" cy="162.75" r="2.13"/><circle class="cls-6" cx="166.11" cy="162.75" r="2.13"/><circle class="cls-6" cx="205.49" cy="162.75" r="2.13"/><circle class="cls-6" cx="244.87" cy="162.75" r="2.13"/><circle class="cls-6" cx="8.61" cy="132.9" r="2.13"/><circle class="cls-6" cx="47.98" cy="132.9" r="2.13"/><circle class="cls-6" cx="87.36" cy="132.9" r="2.13"/><circle class="cls-6" cx="126.74" cy="132.9" r="2.13"/><circle class="cls-6" cx="166.11" cy="132.9" r="2.13"/><circle class="cls-6" cx="205.49" cy="132.9" r="2.13"/><circle class="cls-6" cx="244.87" cy="132.9" r="2.13"/><circle class="cls-6" cx="8.61" cy="103.04" r="2.13"/><circle class="cls-6" cx="47.98" cy="103.04" r="2.13"/><circle class="cls-6" cx="87.36" cy="103.04" r="2.13"/><circle class="cls-6" cx="126.74" cy="103.04" r="2.13"/><circle class="cls-6" cx="166.11" cy="103.04" r="2.13"/><circle class="cls-6" cx="205.49" cy="103.04" r="2.13"/><circle class="cls-6" cx="244.87" cy="103.04" r="2.13"/><circle class="cls-6" cx="8.61" cy="71.78" r="2.13"/><circle class="cls-6" cx="47.98" cy="71.78" r="2.13"/><circle class="cls-6" cx="87.36" cy="71.78" r="2.13"/><circle class="cls-6" cx="126.74" cy="71.78" r="2.13"/><circle class="cls-6" cx="166.11" cy="71.78" r="2.13"/><circle class="cls-6" cx="205.49" cy="71.78" r="2.13"/><circle class="cls-6" cx="244.87" cy="71.78" r="2.13"/><circle class="cls-6" cx="8.61" cy="40.51" r="2.13"/><circle class="cls-6" cx="47.98" cy="40.51" r="2.13"/><circle class="cls-6" cx="87.36" cy="40.51" r="2.13"/><circle class="cls-6" cx="126.74" cy="40.51" r="2.13"/><circle class="cls-6" cx="166.11" cy="40.51" r="2.13"/><circle class="cls-6" cx="205.49" cy="40.51" r="2.13"/><circle class="cls-6" cx="244.87" cy="40.51" r="2.13"/><circle class="cls-6" cx="8.61" cy="8.77" r="2.13"/><circle class="cls-6" cx="47.98" cy="8.77" r="2.13"/><circle class="cls-6" cx="87.36" cy="8.77" r="2.13"/><circle class="cls-6" cx="126.74" cy="8.77" r="2.13"/><circle class="cls-6" cx="166.11" cy="8.77" r="2.13"/><circle class="cls-6" cx="205.49" cy="8.77" r="2.13"/><circle class="cls-6" cx="244.87" cy="8.77" r="2.13"/><path class="cls-1" d="M450,295.23A45.23,45.23,0,1,1,495.23,250,45.28,45.28,0,0,1,450,295.23Z"/><path class="cls-7" d="M450,205.53A44.47,44.47,0,1,1,405.53,250,44.52,44.52,0,0,1,450,205.53m0-1.53a46,46,0,1,0,46,46,46,46,0,0,0-46-46Z"/><path class="cls-8" d="M456.24,226c-3.79-3.18-9.73-2.33-13.28,1.89s-18.8,36.34-18.8,36.34,29-20.6,32.52-24.82S460,229.14,456.24,226Z"/><path class="cls-8" d="M443.76,274c-3.79-3.18-4-9.18-.45-13.4s32.52-24.82,32.52-24.82-15.26,32.11-18.8,36.34S447.55,277.22,443.76,274Z"/><rect class="cls-9" x="847.35" y="150.05" width="2.45" height="2.45"/><rect class="cls-9" x="888.28" y="129.38" width="2.45" height="2.45"/><rect class="cls-9" x="847.35" y="192.82" width="2.45" height="2.45"/><rect class="cls-9" x="888.28" y="172.15" width="2.45" height="2.45"/><rect class="cls-9" x="847.35" y="235.58" width="2.45" height="2.45"/><rect class="cls-9" x="888.28" y="214.91" width="2.45" height="2.45"/><rect class="cls-9" x="299.75" y="8.46" width="2" height="2"/><rect class="cls-9" x="347.94" y="8.46" width="2" height="2"/><g class="cls-10"><rect class="cls-11" x="396.58" y="8.53" width="6" height="1.8"/></g><g class="cls-10"><rect class="cls-11" x="407.52" y="8.57" width="6" height="1.8"/></g><g class="cls-10"><rect class="cls-11" x="418.46" y="8.53" width="6" height="1.8"/></g><rect class="cls-9" x="595.1" y="8.43" width="2" height="2" transform="translate(1192.21 18.85) rotate(180)"/><rect class="cls-9" x="546.92" y="8.43" width="2" height="2" transform="translate(1095.83 18.85) rotate(180)"/><g class="cls-10"><rect class="cls-11" x="494.27" y="8.55" width="6" height="1.8"/></g><g class="cls-10"><rect class="cls-11" x="483.33" y="8.51" width="6" height="1.8"/></g><g class="cls-10"><rect class="cls-11" x="472.4" y="8.55" width="6" height="1.8"/></g><g class="cls-10"><rect class="cls-11" x="647" y="6.65" width="5.5" height="5.5"/></g><g class="cls-10"><rect class="cls-11" x="657.25" y="6.65" width="5.5" height="5.5"/></g><rect class="cls-9" x="718.56" y="8.4" width="2" height="2"/><rect class="cls-9" x="766.75" y="8.4" width="2" height="2"/><rect class="cls-9" x="718.56" y="30.99" width="2" height="2"/><rect class="cls-9" x="766.75" y="30.99" width="2" height="2"/><rect class="cls-9" x="806.42" y="288.07" width="2.45" height="2.45"/><rect class="cls-9" x="847.35" y="267.4" width="2.45" height="2.45"/><rect class="cls-9" x="806.42" y="330.83" width="2.45" height="2.45"/><rect class="cls-9" x="847.35" y="310.17" width="2.45" height="2.45"/><rect class="cls-9" x="806.42" y="373.6" width="2.45" height="2.45"/><rect class="cls-9" x="847.35" y="352.93" width="2.45" height="2.45"/><g class="cls-10"><rect class="cls-11" x="864" y="478.92" width="5.5" height="5.5"/></g><g class="cls-10"><rect class="cls-11" x="874.25" y="478.92" width="5.5" height="5.5"/></g><g class="cls-10"><rect class="cls-11" x="794.29" y="478.92" width="5.5" height="5.5"/></g><g class="cls-10"><rect class="cls-11" x="804.54" y="478.92" width="5.5" height="5.5"/></g><g class="cls-10"><rect class="cls-11" x="34.71" y="288.63" width="40.75" height="2.75"/></g><g class="cls-10"><rect class="cls-11" x="34.71" y="297.38" width="20.38" height="1.38"/></g><text class="cls-12" transform="translate(35.34 282.63)">NANO</text><g class="cls-10"><rect class="cls-11" x="78.75" y="478.5" width="5.5" height="5.5"/></g><g class="cls-10"><rect class="cls-11" x="89" y="478.5" width="5.5" height="5.5"/></g><g class="cls-10"><path class="cls-11" d="M37.75,484H27a2.75,2.75,0,0,1-2.75-2.75h0A2.75,2.75,0,0,1,27,478.5H37.75Z"/></g><rect class="cls-9" x="33.71" y="411" width="2" height="2"/><rect class="cls-9" x="33.71" y="433.6" width="2" height="2"/><rect class="cls-9" x="81.89" y="433.6" width="2" height="2"/><rect class="cls-9" x="33.71" y="371" width="2" height="2"/><rect class="cls-9" x="81.89" y="393.6" width="2" height="2"/><rect class="cls-9" x="33.71" y="325.81" width="2" height="2"/><rect class="cls-9" x="81.89" y="325.81" width="2" height="2"/><rect class="cls-9" x="33.71" y="348.4" width="2" height="2"/><rect class="cls-9" x="81.89" y="348.4" width="2" height="2"/><rect class="cls-9" x="33.71" y="456.19" width="2" height="2"/><rect class="cls-9" x="81.89" y="456.19" width="2" height="2"/><rect class="cls-9" x="288.86" y="480.68" width="2" height="2"/><rect class="cls-9" x="337.05" y="480.68" width="2" height="2"/><rect class="cls-9" x="625.5" y="480.65" width="2" height="2" transform="translate(1253 963.3) rotate(180)"/><rect class="cls-9" x="577.31" y="480.65" width="2" height="2" transform="translate(1156.62 963.3) rotate(180)"/><g class="cls-10"><rect class="cls-11" x="524.67" y="480.9" width="6" height="1.54"/></g><g class="cls-10"><rect class="cls-11" x="513.73" y="480.86" width="6" height="1.54"/></g><g class="cls-10"><rect class="cls-11" x="502.79" y="480.9" width="6" height="1.54"/></g><path class="cls-9" d="M853.17,34.26V56.17h21.92V34.26Zm9.14,5.23a2.33,2.33,0,1,1,3.55,3c-.92,1.09-8.41,6.42-8.41,6.42S861.39,40.58,862.31,39.49Zm3.64,11.45a2.33,2.33,0,1,1-3.55-3c.92-1.09,8.41-6.42,8.41-6.42S866.86,49.85,865.94,50.94Z"/><g class="cls-10"><rect class="cls-11" x="853.17" y="27.54" width="16.48" height="1.38"/></g><rect class="cls-9" x="546.92" y="30.99" width="2" height="2"/><rect class="cls-9" x="595.1" y="30.99" width="2" height="2"/><rect class="cls-9" x="498.73" y="30.99" width="2" height="2"/><g class="cls-10"><rect class="cls-11" x="236.21" y="481.68" width="6" height="1.41"/></g><g class="cls-10"><rect class="cls-11" x="225.28" y="481.65" width="6" height="1.41"/></g><g class="cls-10"><rect class="cls-11" x="214.34" y="481.68" width="6" height="1.41"/></g><rect class="cls-9" x="240.21" y="438.91" width="2" height="2" transform="translate(482.43 879.83) rotate(180)"/><rect class="cls-9" x="192.03" y="438.91" width="2" height="2" transform="translate(386.05 879.83) rotate(180)"/><rect class="cls-9" x="733.99" y="480.62" width="2" height="2" transform="translate(1469.98 963.24) rotate(180)"/><rect class="cls-9" x="685.8" y="480.62" width="2" height="2" transform="translate(1373.6 963.24) rotate(180)"/><g class="cls-10"><rect class="cls-11" x="308.79" y="29.24" width="5.5" height="5.5"/></g><g class="cls-10"><rect class="cls-11" x="298.54" y="29.24" width="5.5" height="5.5"/></g><g class="cls-10"><rect class="cls-11" x="345.15" y="29.24" width="5.5" height="5.5"/></g><g class="cls-10"><rect class="cls-11" x="334.9" y="29.24" width="5.5" height="5.5"/></g><g class="cls-10"><path class="cls-11" d="M391.65,29.24H402.4A2.75,2.75,0,0,1,405.15,32h0a2.75,2.75,0,0,1-2.75,2.75H391.65Z"/></g><rect class="cls-9" x="718.56" y="53.59" width="2" height="2"/><rect class="cls-9" x="766.75" y="53.59" width="2" height="2"/><rect class="cls-9" x="718.56" y="76.18" width="2" height="2"/><rect class="cls-9" x="766.75" y="76.18" width="2" height="2"/><rect class="cls-9" x="192.03" y="393.72" width="2" height="2"/><rect class="cls-9" x="240.21" y="393.72" width="2" height="2"/><rect class="cls-9" x="192.03" y="416.32" width="2" height="2"/><rect class="cls-9" x="240.21" y="416.32" width="2" height="2"/><rect class="cls-9" x="288.86" y="458.09" width="2" height="2"/><rect class="cls-9" x="337.05" y="458.09" width="2" height="2"/><g class="cls-10"><rect class="cls-11" x="190.33" y="374.21" width="5.5" height="5.5"/></g><g class="cls-10"><rect class="cls-11" x="238.46" y="374.21" width="5.5" height="5.5"/></g><rect class="cls-9" x="814.94" y="8.4" width="2" height="2"/><rect class="cls-9" x="814.94" y="30.99" width="2" height="2"/><rect class="cls-9" x="814.94" y="53.59" width="2" height="2"/><rect class="cls-9" x="814.94" y="76.18" width="2" height="2"/><rect class="cls-9" x="863.13" y="8.4" width="2" height="2"/><rect class="cls-9" x="863.13" y="76.18" width="2" height="2"/><g class="cls-10"><rect class="cls-11" x="440.81" y="456.54" width="40.75" height="3.88"/></g><g class="cls-10"><rect class="cls-11" x="461.18" y="470.03" width="20.38" height="1.38"/></g><g class="cls-10"><rect class="cls-11" x="461.18" y="481.03" width="20.38" height="1.38"/></g><g class="cls-10"><path class="cls-11" d="M662.75,34.74H652A2.75,2.75,0,0,1,649.25,32h0A2.75,2.75,0,0,1,652,29.24h10.75Z"/></g></svg>