<svg xmlns="http://www.w3.org/2000/svg" xmlns:xlink="http://www.w3.org/1999/xlink" viewBox="0 0 772.52 707.95"><defs><style>.cls-1,.cls-10,.cls-2,.cls-3,.cls-4,.cls-5,.cls-57,.cls-58,.cls-59,.cls-6,.cls-60,.cls-61,.cls-7,.cls-8,.cls-9{fill:none;}.cls-10,.cls-2,.cls-3,.cls-4,.cls-5,.cls-6,.cls-61,.cls-7,.cls-8,.cls-9{stroke:#bdccd4;stroke-linecap:round;}.cls-10,.cls-2,.cls-3,.cls-4,.cls-5,.cls-57,.cls-58,.cls-59,.cls-6,.cls-60,.cls-61,.cls-7,.cls-8,.cls-9{stroke-miterlimit:10;}.cls-10,.cls-2,.cls-3,.cls-4,.cls-5,.cls-6,.cls-7,.cls-8,.cls-9{stroke-width:2px;}.cls-3{stroke-dasharray:3.14 9.42 15.71 9.42;}.cls-4{stroke-dasharray:3.14 9.42 3.14 9.42 15.71 9.42;}.cls-5{stroke-dasharray:3.55 10.66 17.76 10.66;}.cls-6{stroke-dasharray:3.55 10.66 3.55 10.66 17.76 10.66;}.cls-7{stroke-dasharray:2.71 8.13 13.56 8.13;}.cls-8{stroke-dasharray:2.71 8.13 2.71 8.13 13.56 8.13;}.cls-9{stroke-dasharray:2.78 8.35 13.91 8.35;}.cls-10{stroke-dasharray:2.78 8.35 2.78 8.35 13.91 8.35;}.cls-11{fill:#a3b0b6;}.cls-12{opacity:0.5;}.cls-13{fill:#101113;}.cls-14{clip-path:url(#clip-path);}.cls-15{fill:#282c32;}.cls-16{clip-path:url(#clip-path-2);}.cls-17{fill:#15171a;}.cls-18{fill:#23272c;}.cls-19{clip-path:url(#clip-path-3);}.cls-20{clip-path:url(#clip-path-4);}.cls-21{clip-path:url(#clip-path-5);}.cls-22{clip-path:url(#clip-path-6);}.cls-23{clip-path:url(#clip-path-7);}.cls-24{clip-path:url(#clip-path-8);}.cls-25{clip-path:url(#clip-path-9);}.cls-26{clip-path:url(#clip-path-10);}.cls-27{clip-path:url(#clip-path-11);}.cls-28{clip-path:url(#clip-path-12);}.cls-29{clip-path:url(#clip-path-13);}.cls-30{clip-path:url(#clip-path-14);}.cls-31{clip-path:url(#clip-path-15);}.cls-32{clip-path:url(#clip-path-16);}.cls-33{clip-path:url(#clip-path-17);}.cls-34{clip-path:url(#clip-path-18);}.cls-35{clip-path:url(#clip-path-19);}.cls-36{clip-path:url(#clip-path-20);}.cls-37{clip-path:url(#clip-path-21);}.cls-38{clip-path:url(#clip-path-22);}.cls-39{clip-path:url(#clip-path-23);}.cls-40{clip-path:url(#clip-path-24);}.cls-41{clip-path:url(#clip-path-25);}.cls-42{fill:#131416;}.cls-43{clip-path:url(#clip-path-26);}.cls-44{fill:#0d0e10;}.cls-45{fill:#16181b;}.cls-46{clip-path:url(#clip-path-27);}.cls-47{clip-path:url(#clip-path-28);}.cls-48{clip-path:url(#clip-path-29);}.cls-49{clip-path:url(#clip-path-30);}.cls-50{clip-path:url(#clip-path-31);}.cls-51{clip-path:url(#clip-path-32);}.cls-52{clip-path:url(#clip-path-33);}.cls-53{fill:#b6b7b7;}.cls-54{clip-path:url(#clip-path-34);}.cls-55{fill:#818182;}.cls-56{fill:#d9dadb;}.cls-57,.cls-58,.cls-59,.cls-60,.cls-61{stroke-width:3px;}.cls-57{stroke:url(#linear-gradient);}.cls-58{stroke:url(#linear-gradient-2);}.cls-59{stroke:url(#linear-gradient-3);}.cls-60{stroke:url(#linear-gradient-4);}.cls-62{fill:#1f2226;}.cls-63{fill:#d3d4d5;}</style><clipPath id="clip-path"><rect class="cls-1" x="650.12" y="269.83" width="102.34" height="83.28"/></clipPath><clipPath id="clip-path-2"><rect class="cls-1" x="547.78" y="269.83" width="102.33" height="83.28"/></clipPath><clipPath id="clip-path-3"><rect class="cls-1" x="650.12" y="233.83" width="102.34" height="83.28"/></clipPath><clipPath id="clip-path-4"><rect class="cls-1" x="547.78" y="233.83" width="102.33" height="83.28"/></clipPath><clipPath id="clip-path-5"><rect class="cls-1" x="650.12" y="197.83" width="102.34" height="83.28"/></clipPath><clipPath id="clip-path-6"><rect class="cls-1" x="547.78" y="197.83" width="102.33" height="83.28"/></clipPath><clipPath id="clip-path-7"><rect class="cls-1" x="650.12" y="161.83" width="102.34" height="83.28"/></clipPath><clipPath id="clip-path-8"><rect class="cls-1" x="547.78" y="161.83" width="102.33" height="83.28"/></clipPath><clipPath id="clip-path-9"><rect class="cls-1" x="650.12" y="125.83" width="102.34" height="83.28"/></clipPath><clipPath id="clip-path-10"><rect class="cls-1" x="547.78" y="125.83" width="102.33" height="83.28"/></clipPath><clipPath id="clip-path-11"><rect class="cls-1" x="649.16" y="574.67" width="102.34" height="83.28"/></clipPath><clipPath id="clip-path-12"><rect class="cls-1" x="546.82" y="574.67" width="102.33" height="83.28"/></clipPath><clipPath id="clip-path-13"><rect class="cls-1" x="123.56" y="574.67" width="102.34" height="83.28"/></clipPath><clipPath id="clip-path-14"><rect class="cls-1" x="21.22" y="574.67" width="102.33" height="83.28"/></clipPath><clipPath id="clip-path-15"><rect class="cls-1" x="123.56" y="538.67" width="102.34" height="83.28"/></clipPath><clipPath id="clip-path-16"><rect class="cls-1" x="21.22" y="538.67" width="102.33" height="83.28"/></clipPath><clipPath id="clip-path-17"><rect class="cls-1" x="123.56" y="269.83" width="102.34" height="83.28"/></clipPath><clipPath id="clip-path-18"><rect class="cls-1" x="21.22" y="269.83" width="102.33" height="83.28"/></clipPath><clipPath id="clip-path-19"><rect class="cls-1" x="123.56" y="233.83" width="102.34" height="83.28"/></clipPath><clipPath id="clip-path-20"><rect class="cls-1" x="21.22" y="233.83" width="102.33" height="83.28"/></clipPath><clipPath id="clip-path-21"><rect class="cls-1" x="123.56" y="197.83" width="102.34" height="83.28"/></clipPath><clipPath id="clip-path-22"><rect class="cls-1" x="21.22" y="197.83" width="102.33" height="83.28"/></clipPath><clipPath id="clip-path-23"><rect class="cls-1" x="385.5" y="458.4" width="102.34" height="83.28"/></clipPath><clipPath id="clip-path-24"><rect class="cls-1" x="283.16" y="458.4" width="102.33" height="83.28"/></clipPath><clipPath id="clip-path-25"><rect class="cls-1" x="649.16" y="538.67" width="102.34" height="83.28"/></clipPath><clipPath id="clip-path-26"><rect class="cls-1" x="546.82" y="538.67" width="102.33" height="83.28"/></clipPath><clipPath id="clip-path-27"><rect class="cls-1" x="123.56" y="502.67" width="102.34" height="83.28"/></clipPath><clipPath id="clip-path-28"><rect class="cls-1" x="21.22" y="502.67" width="102.33" height="83.28"/></clipPath><clipPath id="clip-path-29"><rect class="cls-1" x="123.56" y="147.21" width="102.34" height="96.9"/></clipPath><clipPath id="clip-path-30"><rect class="cls-1" x="21.22" y="147.21" width="102.33" height="96.9"/></clipPath><clipPath id="clip-path-31"><polygon class="cls-1" points="752.46 172.56 650.12 172.56 650.12 59.65 752.46 59.28 752.46 172.56"/></clipPath><clipPath id="clip-path-32"><rect class="cls-1" x="547.78" y="59.65" width="102.33" height="112.9"/></clipPath><clipPath id="clip-path-33"><rect class="cls-1" x="385.5" y="450.27" width="71.14" height="49.34"/></clipPath><clipPath id="clip-path-34"><rect class="cls-1" x="314.36" y="450.32" width="71.14" height="49.24"/></clipPath><linearGradient id="linear-gradient" x1="181.08" y1="468.46" x2="66.04" y2="534.88" gradientUnits="userSpaceOnUse"><stop offset="0" stop-color="#a4ccf4"/><stop offset="0.49" stop-color="#9bccfd"/><stop offset="0.56" stop-color="#9cf"/><stop offset="0.82" stop-color="#3d9cc1" stop-opacity="0.9"/><stop offset="1" stop-color="#0083ba" stop-opacity="0.6"/></linearGradient><linearGradient id="linear-gradient-2" x1="181.08" y1="112.67" x2="66.03" y2="179.09" xlink:href="#linear-gradient"/><linearGradient id="linear-gradient-3" x1="707.64" y1="25.07" x2="592.59" y2="91.49" xlink:href="#linear-gradient"/><linearGradient id="linear-gradient-4" x1="706.68" y1="504.46" x2="591.64" y2="570.88" xlink:href="#linear-gradient"/></defs><title>nanode_servers_4_1</title><g id="Layer_2" data-name="Layer 2"><g id="Lines"><line class="cls-2" x1="229.62" y1="573.04" x2="230.92" y2="572.29"/><line class="cls-3" x1="239.08" y1="567.58" x2="267.64" y2="551.09"/><line class="cls-4" x1="271.73" y1="548.73" x2="311.17" y2="525.96"/><line class="cls-2" x1="315.26" y1="523.6" x2="316.55" y2="522.85"/><line class="cls-2" x1="454.21" y1="522.98" x2="455.51" y2="523.73"/><line class="cls-5" x1="464.73" y1="529.08" x2="496.97" y2="547.83"/><line class="cls-6" x1="501.58" y1="550.5" x2="546.11" y2="576.38"/><line class="cls-2" x1="550.72" y1="579.06" x2="552.02" y2="579.81"/><line class="cls-2" x1="464.49" y1="437.44" x2="465.79" y2="436.69"/><line class="cls-7" x1="472.84" y1="432.62" x2="497.49" y2="418.39"/><line class="cls-8" x1="501.01" y1="416.35" x2="572.63" y2="375"/><line class="cls-2" x1="576.16" y1="372.97" x2="577.46" y2="372.22"/><line class="cls-2" x1="192.88" y1="371.11" x2="194.18" y2="371.86"/><line class="cls-9" x1="201.39" y1="376.05" x2="226.65" y2="390.73"/><line class="cls-10" x1="230.26" y1="392.83" x2="303.64" y2="435.47"/><line class="cls-2" x1="307.25" y1="437.57" x2="308.54" y2="438.32"/><path class="cls-11" d="M377.55,413.33c4.62-2.67,12.1-2.67,16.69,0l111.64,64.88c4.59,2.67,4.56,7-.05,9.67L393.45,552.75c-4.62,2.67-12.1,2.67-16.69,0L265.13,487.88c-4.59-2.67-4.56-7,.05-9.67ZM504.46,479,392.82,414.15a15.31,15.31,0,0,0-13.86,0L266.59,479c-3.83,2.21-3.85,5.82,0,8l111.64,64.88a15.3,15.3,0,0,0,13.86,0l112.37-64.88c3.83-2.21,3.86-5.81,0-8"/><polygon class="cls-11" points="660.62 264.34 662.04 263.52 664.87 265.16 663.44 265.98 660.62 264.34"/><polygon class="cls-11" points="673.31 271.71 670.49 270.08 671.91 269.25 674.73 270.89 673.31 271.71"/><polygon class="cls-11" points="683.18 277.45 680.36 275.81 681.78 274.99 684.6 276.63 683.18 277.45"/><polygon class="cls-11" points="693.04 283.18 690.23 281.55 691.65 280.72 694.47 282.36 693.04 283.18"/><polygon class="cls-11" points="702.91 288.92 700.1 287.28 701.52 286.46 704.34 288.1 702.91 288.92"/><polygon class="cls-11" points="712.78 294.65 709.96 293.01 711.38 292.19 714.21 293.83 712.78 294.65"/><polygon class="cls-11" points="722.64 300.38 719.83 298.75 721.25 297.93 724.07 299.56 722.64 300.38"/><polygon class="cls-11" points="732.51 306.12 729.69 304.48 731.12 303.66 733.94 305.3 732.51 306.12"/><polygon class="cls-11" points="742.38 311.85 739.56 310.22 740.99 309.39 743.8 311.03 742.38 311.85"/><polygon class="cls-11" points="752.25 317.59 749.43 315.95 750.85 315.13 753.67 316.77 752.25 317.59"/><polygon class="cls-11" points="762.11 323.32 759.3 321.68 760.72 320.86 763.54 322.5 762.11 323.32"/><path class="cls-11" d="M770.6,329.27a5.33,5.33,0,0,0-1.6-1.87l1.59-.7a6.35,6.35,0,0,1,1.93,2.25Z"/><path class="cls-11" d="M654.21,259.66l-.79,1.07a16.1,16.1,0,0,0-3.53-.45l.08-1.16A19.13,19.13,0,0,1,654.21,259.66Z"/><path class="cls-11" d="M768.07,334.84a8.14,8.14,0,0,0,.89-.59l1.59.7a10.24,10.24,0,0,1-1.07.71l-2.83,1.64-1.41-.82Z"/><polygon class="cls-11" points="640.4 261.58 641.81 262.4 638.97 264.04 637.56 263.22 640.4 261.58"/><polygon class="cls-11" points="756.71 343.03 755.3 342.21 758.14 340.57 759.55 341.39 756.71 343.03"/><polygon class="cls-11" points="630.47 267.31 631.88 268.13 629.04 269.77 627.63 268.95 630.47 267.31"/><polygon class="cls-11" points="746.78 348.76 745.37 347.94 748.21 346.31 749.62 347.13 746.78 348.76"/><polygon class="cls-11" points="620.53 273.05 621.95 273.87 619.11 275.51 617.7 274.69 620.53 273.05"/><polygon class="cls-11" points="736.85 354.5 735.43 353.68 738.28 352.04 739.69 352.86 736.85 354.5"/><polygon class="cls-11" points="610.6 278.78 612.02 279.6 609.18 281.24 607.76 280.42 610.6 278.78"/><polygon class="cls-11" points="726.92 360.23 725.51 359.41 728.34 357.77 729.76 358.59 726.92 360.23"/><polygon class="cls-11" points="600.67 284.52 602.08 285.34 599.25 286.97 597.83 286.15 600.67 284.52"/><polygon class="cls-11" points="716.99 365.97 715.57 365.14 718.41 363.5 719.83 364.33 716.99 365.97"/><polygon class="cls-11" points="590.74 290.25 592.15 291.07 589.31 292.71 587.9 291.89 590.74 290.25"/><polygon class="cls-11" points="707.06 371.7 705.64 370.88 708.48 369.24 709.89 370.06 707.06 371.7"/><polygon class="cls-11" points="580.8 295.98 582.22 296.81 579.38 298.44 577.97 297.62 580.8 295.98"/><polygon class="cls-11" points="697.13 377.43 695.71 376.61 698.55 374.97 699.97 375.79 697.13 377.43"/><polygon class="cls-11" points="570.88 301.71 572.29 302.54 569.45 304.18 568.04 303.36 570.88 301.71"/><polygon class="cls-11" points="687.2 383.17 685.78 382.34 688.62 380.71 690.03 381.53 687.2 383.17"/><polygon class="cls-11" points="560.94 307.45 562.36 308.27 559.52 309.91 558.11 309.09 560.94 307.45"/><polygon class="cls-11" points="677.26 388.9 675.85 388.08 678.68 386.44 680.1 387.27 677.26 388.9"/><polygon class="cls-11" points="551.01 313.18 552.43 314 549.59 315.65 548.17 314.82 551.01 313.18"/><polygon class="cls-11" points="667.33 394.64 665.91 393.82 668.75 392.18 670.17 393 667.33 394.64"/><polygon class="cls-11" points="541.08 318.92 542.5 319.74 539.66 321.38 538.25 320.56 541.08 318.92"/><polygon class="cls-11" points="657.4 400.37 655.99 399.55 658.82 397.91 660.23 398.73 657.4 400.37"/><path class="cls-11" d="M531.15,324.65l1.41.82-2.31,1.33c-.16.09-.32.18-.46.28l-1.5-.76.55-.34Z"/><path class="cls-11" d="M643.38,401.79l.92-1a15.51,15.51,0,0,0,3.45.59l-.21,1.15A18.79,18.79,0,0,1,643.38,401.79Z"/><polygon class="cls-11" points="634.35 395.36 637.17 397 635.75 397.82 632.93 396.18 634.35 395.36"/><polygon class="cls-11" points="624.49 389.63 627.3 391.26 625.88 392.08 623.07 390.45 624.49 389.63"/><polygon class="cls-11" points="614.62 383.89 617.44 385.53 616.02 386.35 613.19 384.71 614.62 383.89"/><polygon class="cls-11" points="604.75 378.16 607.57 379.79 606.15 380.62 603.33 378.98 604.75 378.16"/><polygon class="cls-11" points="594.88 372.42 597.71 374.06 596.28 374.88 593.46 373.24 594.88 372.42"/><polygon class="cls-11" points="585.02 366.69 587.84 368.32 586.41 369.15 583.6 367.51 585.02 366.69"/><polygon class="cls-11" points="575.15 360.95 577.97 362.59 576.55 363.42 573.73 361.77 575.15 360.95"/><polygon class="cls-11" points="565.29 355.22 568.1 356.86 566.68 357.68 563.86 356.04 565.29 355.22"/><polygon class="cls-11" points="555.42 349.49 558.23 351.12 556.81 351.94 553.99 350.31 555.42 349.49"/><polygon class="cls-11" points="545.55 343.75 548.37 345.39 546.95 346.21 544.12 344.57 545.55 343.75"/><polygon class="cls-11" points="535.68 338.02 538.5 339.65 537.08 340.48 534.26 338.84 535.68 338.02"/><path class="cls-11" d="M527.56,332a4.8,4.8,0,0,0,1.37,1.93l-1.67.63a5.75,5.75,0,0,1-1.65-2.32Z"/><polygon class="cls-11" points="135.02 264.34 136.44 263.52 139.26 265.16 137.84 265.98 135.02 264.34"/><polygon class="cls-11" points="147.71 271.71 144.89 270.07 146.31 269.26 149.12 270.89 147.71 271.71"/><polygon class="cls-11" points="157.58 277.45 154.75 275.81 156.17 274.99 158.99 276.63 157.58 277.45"/><polygon class="cls-11" points="167.44 283.18 164.62 281.54 166.04 280.73 168.86 282.36 167.44 283.18"/><polygon class="cls-11" points="177.31 288.92 174.49 287.28 175.91 286.46 178.73 288.1 177.31 288.92"/><polygon class="cls-11" points="187.18 294.65 184.36 293.01 185.78 292.19 188.6 293.83 187.18 294.65"/><polygon class="cls-11" points="197.04 300.38 194.23 298.75 195.65 297.93 198.46 299.56 197.04 300.38"/><polygon class="cls-11" points="206.91 306.12 204.09 304.48 205.51 303.66 208.33 305.3 206.91 306.12"/><polygon class="cls-11" points="216.78 311.85 213.96 310.21 215.38 309.4 218.19 311.03 216.78 311.85"/><polygon class="cls-11" points="226.65 317.59 223.82 315.95 225.24 315.13 228.06 316.77 226.65 317.59"/><polygon class="cls-11" points="236.51 323.32 233.69 321.68 235.11 320.86 237.93 322.5 236.51 323.32"/><path class="cls-11" d="M245,329.27a5.44,5.44,0,0,0-1.6-1.87l1.59-.7a6.35,6.35,0,0,1,1.93,2.25Z"/><path class="cls-11" d="M128.61,259.66l-.79,1.07a16.1,16.1,0,0,0-3.53-.45l.08-1.16A19.13,19.13,0,0,1,128.61,259.66Z"/><path class="cls-11" d="M242.47,334.83a8.17,8.17,0,0,0,.89-.59l1.59.7a10.21,10.21,0,0,1-1.07.71L241,337.29l-1.41-.82Z"/><polygon class="cls-11" points="114.79 261.58 116.21 262.4 113.37 264.04 111.96 263.21 114.79 261.58"/><polygon class="cls-11" points="231.11 343.03 229.7 342.21 232.54 340.57 233.95 341.39 231.11 343.03"/><polygon class="cls-11" points="104.86 267.31 106.28 268.13 103.44 269.77 102.02 268.95 104.86 267.31"/><polygon class="cls-11" points="221.18 348.76 219.77 347.94 222.6 346.3 224.02 347.13 221.18 348.76"/><polygon class="cls-11" points="94.93 273.05 96.34 273.87 93.51 275.5 92.09 274.68 94.93 273.05"/><polygon class="cls-11" points="211.25 354.5 209.83 353.68 212.68 352.04 214.09 352.86 211.25 354.5"/><polygon class="cls-11" points="85 278.78 86.42 279.6 83.58 281.24 82.16 280.42 85 278.78"/><polygon class="cls-11" points="201.32 360.23 199.91 359.41 202.74 357.77 204.16 358.59 201.32 360.23"/><polygon class="cls-11" points="75.07 284.51 76.48 285.34 73.65 286.97 72.23 286.15 75.07 284.51"/><polygon class="cls-11" points="191.39 365.96 189.97 365.14 192.81 363.5 194.23 364.32 191.39 365.96"/><polygon class="cls-11" points="65.14 290.25 66.55 291.07 63.71 292.71 62.3 291.89 65.14 290.25"/><polygon class="cls-11" points="181.46 371.7 180.04 370.88 182.88 369.24 184.29 370.06 181.46 371.7"/><polygon class="cls-11" points="55.2 295.98 56.62 296.8 53.78 298.44 52.37 297.62 55.2 295.98"/><polygon class="cls-11" points="171.52 377.43 170.11 376.61 172.94 374.97 174.36 375.8 171.52 377.43"/><polygon class="cls-11" points="45.27 301.72 46.68 302.54 43.85 304.18 42.44 303.35 45.27 301.72"/><polygon class="cls-11" points="161.59 383.17 160.17 382.35 163.02 380.71 164.43 381.53 161.59 383.17"/><polygon class="cls-11" points="35.34 307.45 36.76 308.27 33.91 309.91 32.5 309.09 35.34 307.45"/><polygon class="cls-11" points="151.66 388.9 150.25 388.08 153.08 386.44 154.5 387.26 151.66 388.9"/><polygon class="cls-11" points="25.41 313.19 26.82 314.01 23.99 315.64 22.57 314.82 25.41 313.19"/><polygon class="cls-11" points="141.73 394.64 140.31 393.81 143.15 392.17 144.57 393 141.73 394.64"/><polygon class="cls-11" points="15.48 318.92 16.89 319.74 14.05 321.38 12.64 320.56 15.48 318.92"/><polygon class="cls-11" points="131.8 400.37 130.38 399.55 133.22 397.91 134.63 398.73 131.8 400.37"/><path class="cls-11" d="M5.54,324.65l1.41.82-2.31,1.33-.47.28-1.5-.76.56-.34Z"/><path class="cls-11" d="M117.78,401.78l.92-1a15.51,15.51,0,0,0,3.45.59l-.21,1.15A18.79,18.79,0,0,1,117.78,401.78Z"/><polygon class="cls-11" points="108.75 395.36 111.57 397 110.15 397.82 107.33 396.18 108.75 395.36"/><polygon class="cls-11" points="98.88 389.63 101.7 391.26 100.28 392.08 97.46 390.44 98.88 389.63"/><polygon class="cls-11" points="89.01 383.89 91.83 385.53 90.42 386.35 87.59 384.71 89.01 383.89"/><polygon class="cls-11" points="79.15 378.16 81.96 379.8 80.55 380.61 77.73 378.98 79.15 378.16"/><polygon class="cls-11" points="69.28 372.42 72.1 374.06 70.68 374.88 67.86 373.24 69.28 372.42"/><polygon class="cls-11" points="59.41 366.69 62.23 368.33 60.81 369.14 58 367.51 59.41 366.69"/><polygon class="cls-11" points="49.54 360.95 52.37 362.6 50.95 363.41 48.13 361.77 49.54 360.95"/><polygon class="cls-11" points="39.68 355.22 42.5 356.86 41.08 357.68 38.26 356.04 39.68 355.22"/><polygon class="cls-11" points="29.81 349.49 32.63 351.12 31.21 351.94 28.39 350.31 29.81 349.49"/><polygon class="cls-11" points="19.94 343.75 22.76 345.39 21.35 346.21 18.52 344.57 19.94 343.75"/><polygon class="cls-11" points="10.08 338.02 12.89 339.66 11.48 340.47 8.66 338.84 10.08 338.02"/><path class="cls-11" d="M2,332a4.8,4.8,0,0,0,1.37,1.93l-1.67.63A5.67,5.67,0,0,1,0,332.24Z"/><polygon class="cls-11" points="135.02 569.79 136.44 568.97 139.26 570.61 137.84 571.42 135.02 569.79"/><polygon class="cls-11" points="147.71 577.16 144.89 575.52 146.3 574.7 149.13 576.34 147.71 577.16"/><polygon class="cls-11" points="157.57 582.89 154.76 581.26 156.17 580.44 158.99 582.07 157.57 582.89"/><polygon class="cls-11" points="167.44 588.63 164.62 586.99 166.04 586.17 168.86 587.81 167.44 588.63"/><polygon class="cls-11" points="177.31 594.36 174.49 592.72 175.91 591.9 178.72 593.54 177.31 594.36"/><polygon class="cls-11" points="187.18 600.1 184.36 598.46 185.78 597.64 188.59 599.28 187.18 600.1"/><polygon class="cls-11" points="197.05 605.83 194.22 604.19 195.64 603.37 198.46 605.01 197.05 605.83"/><polygon class="cls-11" points="206.91 611.56 204.09 609.93 205.51 609.11 208.33 610.75 206.91 611.56"/><polygon class="cls-11" points="216.78 617.3 213.96 615.66 215.38 614.84 218.2 616.48 216.78 617.3"/><polygon class="cls-11" points="226.64 623.03 223.83 621.39 225.25 620.58 228.06 622.21 226.64 623.03"/><polygon class="cls-11" points="236.51 628.77 233.69 627.13 235.11 626.31 237.93 627.95 236.51 628.77"/><path class="cls-11" d="M245,634.71a5.37,5.37,0,0,0-1.6-1.87l1.59-.7a6.31,6.31,0,0,1,1.93,2.25Z"/><path class="cls-11" d="M128.6,565.1l-.79,1.07a16,16,0,0,0-3.52-.45l.08-1.16A19.3,19.3,0,0,1,128.6,565.1Z"/><path class="cls-11" d="M242.47,640.28a9.49,9.49,0,0,0,.89-.59l1.59.7a10.3,10.3,0,0,1-1.07.71L241,642.74l-1.41-.82Z"/><polygon class="cls-11" points="114.8 567.03 116.2 567.85 113.37 569.48 111.96 568.66 114.8 567.03"/><polygon class="cls-11" points="231.11 648.47 229.7 647.66 232.54 646.01 233.95 646.83 231.11 648.47"/><polygon class="cls-11" points="104.87 572.76 106.28 573.58 103.43 575.22 102.03 574.4 104.87 572.76"/><polygon class="cls-11" points="221.18 654.21 219.77 653.39 222.61 651.75 224.01 652.57 221.18 654.21"/><polygon class="cls-11" points="94.93 578.49 96.34 579.31 93.51 580.95 92.1 580.13 94.93 578.49"/><polygon class="cls-11" points="211.25 659.94 209.84 659.12 212.68 657.48 214.09 658.3 211.25 659.94"/><polygon class="cls-11" points="85 584.23 86.41 585.04 83.57 586.68 82.16 585.87 85 584.23"/><polygon class="cls-11" points="201.32 665.67 199.91 664.86 202.74 663.22 204.15 664.04 201.32 665.67"/><polygon class="cls-11" points="75.07 589.96 76.48 590.78 73.64 592.42 72.23 591.6 75.07 589.96"/><polygon class="cls-11" points="191.38 671.41 189.97 670.59 192.82 668.95 194.22 669.77 191.38 671.41"/><polygon class="cls-11" points="65.14 595.69 66.55 596.51 63.71 598.15 62.3 597.34 65.14 595.69"/><polygon class="cls-11" points="181.46 677.14 180.05 676.32 182.88 674.69 184.29 675.5 181.46 677.14"/><polygon class="cls-11" points="55.21 601.43 56.62 602.25 53.78 603.88 52.37 603.07 55.21 601.43"/><polygon class="cls-11" points="171.52 682.88 170.11 682.06 172.95 680.42 174.35 681.24 171.52 682.88"/><polygon class="cls-11" points="45.28 607.16 46.69 607.98 43.85 609.62 42.44 608.8 45.28 607.16"/><polygon class="cls-11" points="161.59 688.61 160.18 687.79 163.02 686.15 164.43 686.97 161.59 688.61"/><polygon class="cls-11" points="35.34 612.9 36.75 613.72 33.92 615.35 32.51 614.53 35.34 612.9"/><polygon class="cls-11" points="151.66 694.35 150.25 693.53 153.08 691.89 154.49 692.71 151.66 694.35"/><polygon class="cls-11" points="25.41 618.63 26.82 619.45 23.98 621.09 22.57 620.27 25.41 618.63"/><polygon class="cls-11" points="141.72 700.08 140.31 699.26 143.16 697.62 144.56 698.44 141.72 700.08"/><polygon class="cls-11" points="15.48 624.37 16.89 625.18 14.05 626.82 12.64 626.01 15.48 624.37"/><polygon class="cls-11" points="131.79 705.81 130.39 704.99 133.22 703.36 134.63 704.18 131.79 705.81"/><path class="cls-11" d="M5.55,630.1l1.41.82-2.31,1.33-.47.28-1.5-.76.56-.34Z"/><path class="cls-11" d="M117.77,707.23l.92-1a15.36,15.36,0,0,0,3.45.59l-.2,1.15A18.85,18.85,0,0,1,117.77,707.23Z"/><polygon class="cls-11" points="108.75 700.81 111.56 702.44 110.15 703.26 107.33 701.63 108.75 700.81"/><polygon class="cls-11" points="98.88 695.07 101.7 696.71 100.28 697.53 97.46 695.89 98.88 695.07"/><polygon class="cls-11" points="89.01 689.34 91.83 690.98 90.41 691.79 87.6 690.16 89.01 689.34"/><polygon class="cls-11" points="79.14 683.6 81.97 685.24 80.55 686.06 77.73 684.42 79.14 683.6"/><polygon class="cls-11" points="69.28 677.87 72.1 679.51 70.68 680.33 67.86 678.69 69.28 677.87"/><polygon class="cls-11" points="59.41 672.13 62.23 673.78 60.82 674.59 57.99 672.95 59.41 672.13"/><polygon class="cls-11" points="49.55 666.4 52.36 668.04 50.95 668.86 48.13 667.22 49.55 666.4"/><polygon class="cls-11" points="39.68 660.67 42.49 662.3 41.08 663.12 38.26 661.49 39.68 660.67"/><polygon class="cls-11" points="29.81 654.93 32.63 656.57 31.21 657.39 28.39 655.75 29.81 654.93"/><polygon class="cls-11" points="19.94 649.2 22.76 650.84 21.34 651.65 18.53 650.02 19.94 649.2"/><polygon class="cls-11" points="10.07 643.46 12.9 645.1 11.48 645.92 8.66 644.28 10.07 643.46"/><path class="cls-11" d="M2,637.44a4.87,4.87,0,0,0,1.38,1.93L1.65,640A5.74,5.74,0,0,1,0,637.68Z"/><polygon class="cls-11" points="660.63 569.79 662.05 568.97 664.87 570.6 663.44 571.43 660.63 569.79"/><polygon class="cls-11" points="673.31 577.16 670.49 575.52 671.91 574.7 674.74 576.34 673.31 577.16"/><polygon class="cls-11" points="683.17 582.89 680.36 581.26 681.78 580.44 684.6 582.07 683.17 582.89"/><polygon class="cls-11" points="693.04 588.63 690.22 586.99 691.64 586.17 694.47 587.81 693.04 588.63"/><polygon class="cls-11" points="702.91 594.36 700.09 592.73 701.51 591.9 704.33 593.54 702.91 594.36"/><polygon class="cls-11" points="712.78 600.1 709.96 598.46 711.38 597.64 714.2 599.28 712.78 600.1"/><polygon class="cls-11" points="722.65 605.83 719.83 604.19 721.25 603.37 724.07 605.01 722.65 605.83"/><polygon class="cls-11" points="732.51 611.57 729.7 609.93 731.12 609.11 733.93 610.74 732.51 611.57"/><polygon class="cls-11" points="742.38 617.3 739.56 615.66 740.98 614.84 743.8 616.48 742.38 617.3"/><polygon class="cls-11" points="752.25 623.03 749.43 621.4 750.85 620.58 753.67 622.21 752.25 623.03"/><polygon class="cls-11" points="762.12 628.77 759.29 627.13 760.72 626.31 763.54 627.95 762.12 628.77"/><path class="cls-11" d="M770.6,634.71a5.27,5.27,0,0,0-1.6-1.87l1.59-.7a6.31,6.31,0,0,1,1.93,2.25Z"/><path class="cls-11" d="M654.2,565.1l-.79,1.07a16,16,0,0,0-3.52-.45l.08-1.16A19.3,19.3,0,0,1,654.2,565.1Z"/><path class="cls-11" d="M768.07,640.29a9.49,9.49,0,0,0,.89-.59l1.59.7a10.3,10.3,0,0,1-1.07.71l-2.83,1.64-1.41-.82Z"/><polygon class="cls-11" points="640.4 567.02 641.81 567.84 638.97 569.48 637.56 568.66 640.4 567.02"/><polygon class="cls-11" points="756.71 648.48 755.3 647.66 758.14 646.02 759.55 646.84 756.71 648.48"/><polygon class="cls-11" points="630.47 572.76 631.88 573.58 629.04 575.22 627.63 574.4 630.47 572.76"/><polygon class="cls-11" points="746.78 654.21 745.37 653.39 748.21 651.75 749.62 652.57 746.78 654.21"/><polygon class="cls-11" points="620.53 578.5 621.94 579.32 619.11 580.95 617.7 580.13 620.53 578.5"/><polygon class="cls-11" points="736.85 659.94 735.44 659.13 738.28 657.49 739.69 658.3 736.85 659.94"/><polygon class="cls-11" points="610.61 584.23 612.01 585.05 609.17 586.69 607.76 585.87 610.61 584.23"/><polygon class="cls-11" points="726.92 665.68 725.51 664.86 728.35 663.22 729.75 664.04 726.92 665.68"/><polygon class="cls-11" points="600.67 589.96 602.08 590.78 599.24 592.42 597.84 591.6 600.67 589.96"/><polygon class="cls-11" points="716.98 671.41 715.58 670.59 718.42 668.95 719.83 669.77 716.98 671.41"/><polygon class="cls-11" points="590.74 595.7 592.15 596.51 589.31 598.15 587.9 597.34 590.74 595.7"/><polygon class="cls-11" points="707.06 677.14 705.65 676.33 708.48 674.69 709.89 675.51 707.06 677.14"/><polygon class="cls-11" points="580.81 601.43 582.22 602.25 579.38 603.89 577.97 603.07 580.81 601.43"/><polygon class="cls-11" points="697.12 682.88 695.71 682.06 698.55 680.42 699.96 681.24 697.12 682.88"/><polygon class="cls-11" points="570.88 607.16 572.29 607.98 569.45 609.62 568.04 608.8 570.88 607.16"/><polygon class="cls-11" points="687.19 688.61 685.78 687.79 688.62 686.16 690.03 686.97 687.19 688.61"/><polygon class="cls-11" points="560.95 612.9 562.35 613.72 559.52 615.35 558.11 614.54 560.95 612.9"/><polygon class="cls-11" points="677.26 694.35 675.85 693.53 678.68 691.89 680.09 692.71 677.26 694.35"/><polygon class="cls-11" points="551.02 618.63 552.43 619.45 549.59 621.09 548.18 620.27 551.02 618.63"/><polygon class="cls-11" points="667.32 700.08 665.92 699.26 668.76 697.62 670.16 698.44 667.32 700.08"/><polygon class="cls-11" points="541.08 624.37 542.49 625.18 539.66 626.82 538.25 626 541.08 624.37"/><polygon class="cls-11" points="657.4 705.82 655.99 705 658.82 703.36 660.23 704.18 657.4 705.82"/><path class="cls-11" d="M531.15,630.1l1.41.82-2.31,1.33-.46.28-1.5-.76.55-.34Z"/><path class="cls-11" d="M643.37,707.23l.92-1a15.36,15.36,0,0,0,3.45.59l-.2,1.15A18.85,18.85,0,0,1,643.37,707.23Z"/><polygon class="cls-11" points="634.36 700.8 637.17 702.44 635.75 703.26 632.93 701.63 634.36 700.8"/><polygon class="cls-11" points="624.49 695.07 627.31 696.71 625.88 697.53 623.06 695.89 624.49 695.07"/><polygon class="cls-11" points="614.62 689.34 617.44 690.97 616.01 691.8 613.2 690.16 614.62 689.34"/><polygon class="cls-11" points="604.75 683.6 607.57 685.24 606.15 686.06 603.33 684.42 604.75 683.6"/><polygon class="cls-11" points="594.89 677.87 597.7 679.51 596.28 680.33 593.46 678.69 594.89 677.87"/><polygon class="cls-11" points="585.02 672.13 587.84 673.77 586.42 674.6 583.59 672.96 585.02 672.13"/><polygon class="cls-11" points="575.15 666.4 577.97 668.04 576.55 668.86 573.73 667.22 575.15 666.4"/><polygon class="cls-11" points="565.28 660.66 568.1 662.3 566.68 663.12 563.86 661.49 565.28 660.66"/><polygon class="cls-11" points="555.41 654.93 558.24 656.57 556.81 657.39 553.99 655.75 555.41 654.93"/><polygon class="cls-11" points="545.55 649.2 548.37 650.83 546.94 651.66 544.13 650.02 545.55 649.2"/><polygon class="cls-11" points="535.68 643.46 538.5 645.1 537.08 645.92 534.26 644.28 535.68 643.46"/><path class="cls-11" d="M527.56,637.45a4.87,4.87,0,0,0,1.38,1.93l-1.68.63a5.83,5.83,0,0,1-1.65-2.32Z"/></g><g id="Shadow"><g class="cls-12"><path class="cls-13" d="M644.13,282.69a11.68,11.68,0,0,1,10.6,0l77.53,45.06c2.92,1.7,2.9,4.45,0,6.14l-78,45.06a11.68,11.68,0,0,1-10.6,0l-77.53-45.06c-2.92-1.7-2.9-4.45,0-6.14Z"/></g><g class="cls-12"><path class="cls-13" d="M118.52,282.7a11.69,11.69,0,0,1,10.61,0l77.53,45.06c2.92,1.7,2.9,4.45,0,6.14l-78,45.05a11.68,11.68,0,0,1-10.6,0L40.46,333.89c-2.92-1.7-2.9-4.45,0-6.14Z"/></g><g class="cls-12"><path class="cls-13" d="M644.13,588.14a11.7,11.7,0,0,1,10.61,0l77.53,45.05c2.92,1.7,2.9,4.45,0,6.14l-78,45.06a11.68,11.68,0,0,1-10.6,0l-77.53-45.05c-2.92-1.7-2.91-4.45,0-6.14Z"/></g><g class="cls-12"><path class="cls-13" d="M118.52,588.14a11.7,11.7,0,0,1,10.61,0l77.53,45.05c2.92,1.7,2.9,4.45,0,6.14l-78,45.05a11.68,11.68,0,0,1-10.6,0L40.46,639.34c-2.92-1.7-2.91-4.45,0-6.14Z"/></g></g><g id="Racks"><g class="cls-14"><path class="cls-15" d="M752.45,269.83v24c0,1.33-.9,2.67-2.66,3.69l-93.64,54.06a14,14,0,0,1-12.73,0l-93-54.07c-1.76-1-2.63-2.35-2.62-3.68v-24Z"/></g><g class="cls-16"><path class="cls-17" d="M752.45,269.83v24c0,1.33-.9,2.67-2.66,3.69l-93.64,54.06a14,14,0,0,1-12.73,0l-93-54.07c-1.76-1-2.63-2.35-2.62-3.68v-24Z"/></g><path class="cls-18" d="M644.08,212.08a14,14,0,0,1,12.73,0l93,54.07c3.5,2,3.48,5.34,0,7.37l-93.64,54.06a14,14,0,0,1-12.73,0l-93-54.07c-3.5-2-3.49-5.33,0-7.37Z"/><g class="cls-19"><path class="cls-15" d="M752.45,233.83v24c0,1.33-.9,2.67-2.66,3.69l-93.64,54.06a14,14,0,0,1-12.73,0l-93-54.07c-1.76-1-2.63-2.35-2.62-3.68v-24Z"/></g><g class="cls-20"><path class="cls-17" d="M752.45,233.83v24c0,1.33-.9,2.67-2.66,3.69l-93.64,54.06a14,14,0,0,1-12.73,0l-93-54.07c-1.76-1-2.63-2.35-2.62-3.68v-24Z"/></g><path class="cls-18" d="M644.08,176.08a14,14,0,0,1,12.73,0l93,54.07c3.5,2,3.48,5.34,0,7.37l-93.64,54.06a14,14,0,0,1-12.73,0l-93-54.07c-3.5-2-3.49-5.33,0-7.37Z"/><g class="cls-21"><path class="cls-15" d="M752.45,197.83v24c0,1.33-.9,2.67-2.66,3.69l-93.64,54.06a14,14,0,0,1-12.73,0l-93-54.07c-1.76-1-2.63-2.35-2.62-3.68v-24Z"/></g><g class="cls-22"><path class="cls-17" d="M752.45,197.83v24c0,1.33-.9,2.67-2.66,3.69l-93.64,54.06a14,14,0,0,1-12.73,0l-93-54.07c-1.76-1-2.63-2.35-2.62-3.68v-24Z"/></g><path class="cls-18" d="M644.08,140.08a14,14,0,0,1,12.73,0l93,54.07c3.5,2,3.48,5.34,0,7.37l-93.64,54.06a14,14,0,0,1-12.73,0l-93-54.07c-3.5-2-3.49-5.33,0-7.37Z"/><g class="cls-23"><path class="cls-15" d="M752.45,161.83v24c0,1.33-.9,2.67-2.66,3.69l-93.64,54.06a14,14,0,0,1-12.73,0l-93-54.07c-1.76-1-2.63-2.35-2.62-3.68v-24Z"/></g><g class="cls-24"><path class="cls-17" d="M752.45,161.83v24c0,1.33-.9,2.67-2.66,3.69l-93.64,54.06a14,14,0,0,1-12.73,0l-93-54.07c-1.76-1-2.63-2.35-2.62-3.68v-24Z"/></g><path class="cls-18" d="M644.08,104.08a14,14,0,0,1,12.73,0l93,54.07c3.5,2,3.48,5.34,0,7.37l-93.64,54.06a14,14,0,0,1-12.73,0l-93-54.07c-3.5-2-3.49-5.33,0-7.37Z"/><g class="cls-25"><path class="cls-15" d="M752.45,125.83v24c0,1.33-.9,2.67-2.66,3.69l-93.64,54.06a14,14,0,0,1-12.73,0l-93-54.07c-1.76-1-2.63-2.35-2.62-3.68v-24Z"/></g><g class="cls-26"><path class="cls-17" d="M752.45,125.83v24c0,1.33-.9,2.67-2.66,3.69l-93.64,54.06a14,14,0,0,1-12.73,0l-93-54.07c-1.76-1-2.63-2.35-2.62-3.68v-24Z"/></g><path class="cls-18" d="M644.08,68.08a14,14,0,0,1,12.73,0l93,54.07c3.5,2,3.48,5.34,0,7.37l-93.64,54.06a14,14,0,0,1-12.73,0l-93-54.07c-3.5-2-3.49-5.33,0-7.37Z"/><g class="cls-27"><path class="cls-15" d="M751.5,574.67v24c0,1.33-.9,2.67-2.66,3.69L655.2,656.42a14,14,0,0,1-12.73,0l-93-54.07c-1.76-1-2.63-2.35-2.62-3.68v-24Z"/></g><g class="cls-28"><path class="cls-17" d="M751.49,574.67v24c0,1.33-.9,2.67-2.66,3.69l-93.64,54.06a14,14,0,0,1-12.73,0l-93-54.07c-1.76-1-2.63-2.35-2.62-3.68v-24Z"/></g><path class="cls-18" d="M643.12,516.92a14,14,0,0,1,12.73,0l93,54.07c3.5,2,3.48,5.34,0,7.37L655.2,632.42a14,14,0,0,1-12.73,0l-93-54.07c-3.5-2-3.49-5.33,0-7.37Z"/><g class="cls-29"><path class="cls-15" d="M225.9,574.67v24c0,1.33-.9,2.67-2.66,3.69L129.6,656.42a14,14,0,0,1-12.73,0l-93-54.07c-1.76-1-2.63-2.35-2.62-3.68v-24Z"/></g><g class="cls-30"><path class="cls-17" d="M225.89,574.67v24c0,1.33-.9,2.67-2.66,3.69l-93.64,54.06a14,14,0,0,1-12.73,0l-93-54.07c-1.76-1-2.63-2.35-2.62-3.68v-24Z"/></g><path class="cls-18" d="M117.52,516.92a14,14,0,0,1,12.73,0l93,54.07c3.5,2,3.48,5.34,0,7.37L129.6,632.42a14,14,0,0,1-12.73,0l-93-54.07c-3.5-2-3.49-5.33,0-7.37Z"/><g class="cls-31"><path class="cls-15" d="M225.9,538.67v24c0,1.33-.9,2.67-2.66,3.69L129.6,620.42a14,14,0,0,1-12.73,0l-93-54.07c-1.76-1-2.63-2.35-2.62-3.68v-24Z"/></g><g class="cls-32"><path class="cls-17" d="M225.89,538.67v24c0,1.33-.9,2.67-2.66,3.69l-93.64,54.06a14,14,0,0,1-12.73,0l-93-54.07c-1.76-1-2.63-2.35-2.62-3.68v-24Z"/></g><path class="cls-18" d="M117.52,480.92a14,14,0,0,1,12.73,0l93,54.07c3.5,2,3.48,5.34,0,7.37L129.6,596.42a14,14,0,0,1-12.73,0l-93-54.07c-3.5-2-3.49-5.33,0-7.37Z"/><g class="cls-33"><path class="cls-15" d="M225.9,269.83v24c0,1.33-.9,2.67-2.66,3.69L129.6,351.58a14,14,0,0,1-12.73,0l-93-54.07c-1.76-1-2.63-2.35-2.62-3.68v-24Z"/></g><g class="cls-34"><path class="cls-17" d="M225.89,269.83v24c0,1.33-.9,2.67-2.66,3.69l-93.64,54.06a14,14,0,0,1-12.73,0l-93-54.07c-1.76-1-2.63-2.35-2.62-3.68v-24Z"/></g><path class="cls-18" d="M117.52,212.08a14,14,0,0,1,12.73,0l93,54.07c3.5,2,3.48,5.34,0,7.37L129.6,327.58a14,14,0,0,1-12.73,0l-93-54.07c-3.5-2-3.49-5.33,0-7.37Z"/><g class="cls-35"><path class="cls-15" d="M225.9,233.83v24c0,1.33-.9,2.67-2.66,3.69L129.6,315.58a14,14,0,0,1-12.73,0l-93-54.07c-1.76-1-2.63-2.35-2.62-3.68v-24Z"/></g><g class="cls-36"><path class="cls-17" d="M225.89,233.83v24c0,1.33-.9,2.67-2.66,3.69l-93.64,54.06a14,14,0,0,1-12.73,0l-93-54.07c-1.76-1-2.63-2.35-2.62-3.68v-24Z"/></g><path class="cls-18" d="M117.52,176.08a14,14,0,0,1,12.73,0l93,54.07c3.5,2,3.48,5.34,0,7.37L129.6,291.58a14,14,0,0,1-12.73,0l-93-54.07c-3.5-2-3.49-5.33,0-7.37Z"/><g class="cls-37"><path class="cls-15" d="M225.9,197.83v24c0,1.33-.9,2.67-2.66,3.69L129.6,279.58a14,14,0,0,1-12.73,0l-93-54.07c-1.76-1-2.63-2.35-2.62-3.68v-24Z"/></g><g class="cls-38"><path class="cls-17" d="M225.89,197.83v24c0,1.33-.9,2.67-2.66,3.69l-93.64,54.06a14,14,0,0,1-12.73,0l-93-54.07c-1.76-1-2.63-2.35-2.62-3.68v-24Z"/></g><path class="cls-18" d="M117.52,140.08a14,14,0,0,1,12.73,0l93,54.07c3.5,2,3.48,5.34,0,7.37L129.6,255.58a14,14,0,0,1-12.73,0l-93-54.07c-3.5-2-3.49-5.33,0-7.37Z"/><g class="cls-39"><path class="cls-15" d="M487.84,458.4v24c0,1.33-.9,2.67-2.66,3.69l-93.64,54.06a14,14,0,0,1-12.73,0l-93-54.07c-1.76-1-2.63-2.35-2.62-3.68v-24Z"/></g><g class="cls-40"><path class="cls-17" d="M487.83,458.4v24c0,1.33-.9,2.67-2.66,3.69l-93.64,54.06a14,14,0,0,1-12.73,0l-93-54.07c-1.76-1-2.63-2.35-2.62-3.68v-24Z"/></g><path class="cls-18" d="M379.46,400.65a14,14,0,0,1,12.73,0l93,54.07c3.5,2,3.48,5.34,0,7.37l-93.64,54.06a14,14,0,0,1-12.73,0l-93-54.07c-3.5-2-3.49-5.33,0-7.37Z"/></g><g id="Tops"><g class="cls-41"><path class="cls-42" d="M751.5,538.67v24c0,1.33-.9,2.67-2.66,3.69L655.2,620.42a14,14,0,0,1-12.73,0l-93-54.07c-1.76-1-2.63-2.35-2.62-3.68v-24Z"/></g><g class="cls-43"><path class="cls-44" d="M751.49,538.67v24c0,1.33-.9,2.67-2.66,3.69l-93.64,54.06a14,14,0,0,1-12.73,0l-93-54.07c-1.76-1-2.63-2.35-2.62-3.68v-24Z"/></g><path class="cls-45" d="M643.12,480.92a14,14,0,0,1,12.73,0l93,54.07c3.5,2,3.48,5.34,0,7.37L655.2,596.42a14,14,0,0,1-12.73,0l-93-54.07c-3.5-2-3.49-5.33,0-7.37Z"/><g class="cls-46"><path class="cls-42" d="M225.9,502.67v24c0,1.33-.9,2.67-2.66,3.69L129.6,584.42a14,14,0,0,1-12.73,0l-93-54.07c-1.76-1-2.63-2.35-2.62-3.68v-24Z"/></g><g class="cls-47"><path class="cls-44" d="M225.89,502.67v24c0,1.33-.9,2.67-2.66,3.69l-93.64,54.06a14,14,0,0,1-12.73,0l-93-54.07c-1.76-1-2.63-2.35-2.62-3.68v-24Z"/></g><path class="cls-45" d="M117.52,444.92a14,14,0,0,1,12.73,0l93,54.07c3.5,2,3.48,5.34,0,7.37L129.6,560.42a14,14,0,0,1-12.73,0l-93-54.07c-3.5-2-3.49-5.33,0-7.37Z"/><g class="cls-48"><path class="cls-42" d="M225.89,147.21v37.62c0,1.33-.9,2.67-2.66,3.69l-93.64,54.06a14,14,0,0,1-12.73,0l-93-54.07c-1.76-1-2.63-2.35-2.62-3.68V147.21Z"/></g><g class="cls-49"><path class="cls-44" d="M225.89,147.21v37.62c0,1.33-.9,2.67-2.66,3.69l-93.64,54.06a14,14,0,0,1-12.73,0l-93-54.07c-1.76-1-2.63-2.35-2.62-3.68V147.21Z"/></g><path class="cls-45" d="M117.52,89.08a14,14,0,0,1,12.73,0l93,54.07c3.5,2,3.48,5.34,0,7.37L129.6,204.58a14,14,0,0,1-12.73,0l-93-54.07c-3.5-2-3.49-5.33,0-7.37Z"/><g class="cls-50"><path class="cls-42" d="M752.46,59.28v54c0,1.33-.9,2.67-2.66,3.69L656.16,171a14,14,0,0,1-12.73,0l-93-54.07c-1.76-1-2.63-2.35-2.62-3.68V59.65Z"/></g><g class="cls-51"><path class="cls-44" d="M752.45,59.28v54c0,1.33-.9,2.67-2.66,3.69L656.15,171a14,14,0,0,1-12.73,0L550.4,117c-1.76-1-2.63-2.35-2.62-3.68V59.65Z"/></g><path class="cls-45" d="M644.08,1.53a14,14,0,0,1,12.73,0l93,54.07c3.5,2,3.48,5.34,0,7.37L656.16,117a14,14,0,0,1-12.73,0L550.4,63c-3.5-2-3.49-5.33,0-7.37Z"/><g class="cls-52"><path class="cls-53" d="M456.64,450.27v8a3.16,3.16,0,0,1-1.85,2.57l-65.1,37.58a9.74,9.74,0,0,1-8.85,0l-64.67-37.59a3.09,3.09,0,0,1-1.82-2.56v-8Z"/></g><g class="cls-54"><path class="cls-55" d="M456.64,450.32v8a3.16,3.16,0,0,1-1.85,2.57l-65.1,37.58a9.74,9.74,0,0,1-8.85,0l-64.67-37.59a3.09,3.09,0,0,1-1.82-2.56v-8Z"/></g><path class="cls-56" d="M380.42,410.39a11.69,11.69,0,0,1,10.62,0l63.43,36.86c2.92,1.7,2.9,4.45,0,6.14l-63.85,36.86a11.68,11.68,0,0,1-10.6,0l-63.43-36.86c-2.92-1.7-2.91-4.45,0-6.14Z"/></g><g id="Highlights"><line class="cls-2" x1="621.87" y1="116.01" x2="621.87" y2="122.29"/><line class="cls-2" x1="626.71" y1="118.79" x2="626.71" y2="125.08"/><line class="cls-2" x1="631.55" y1="121.7" x2="631.55" y2="127.99"/><line class="cls-2" x1="213.56" y1="176.84" x2="213.56" y2="166.21"/><line class="cls-2" x1="217.31" y1="171.3" x2="217.31" y2="164.11"/><line class="cls-2" x1="209.33" y1="172.58" x2="209.33" y2="168.71"/><path class="cls-57" d="M118.24,459.84a12.24,12.24,0,0,1,11.11,0l66.45,38.62c3.06,1.78,3,4.66,0,6.44l-66.89,38.62a12.25,12.25,0,0,1-11.11,0L51.32,504.89c-3.06-1.78-3-4.66,0-6.44Z"/><path class="cls-58" d="M118.24,104a12.24,12.24,0,0,1,11.11,0l66.45,38.62c3.06,1.78,3,4.66,0,6.44l-66.89,38.62a12.25,12.25,0,0,1-11.11,0L51.31,149.1c-3.06-1.78-3-4.66,0-6.44Z"/><path class="cls-59" d="M644.8,16.44a12.24,12.24,0,0,1,11.11,0l66.45,38.62c3.06,1.78,3,4.66,0,6.44l-66.89,38.62a12.25,12.25,0,0,1-11.11,0L577.87,61.5c-3.06-1.78-3-4.66,0-6.44Z"/><path class="cls-60" d="M643.84,495.84a12.24,12.24,0,0,1,11.11,0l66.45,38.62c3.06,1.78,3,4.66,0,6.44l-66.89,38.62a12.25,12.25,0,0,1-11.11,0l-66.45-38.62c-3.06-1.78-3-4.66,0-6.44Z"/><line class="cls-61" x1="560.62" y1="86.43" x2="583.75" y2="98.88"/><line class="cls-2" x1="140.72" y1="209.55" x2="161.02" y2="197.83"/><line class="cls-2" x1="140.72" y1="217.55" x2="161.02" y2="205.83"/><line class="cls-2" x1="140.72" y1="225.55" x2="161.02" y2="213.83"/></g><g id="Icons"><path class="cls-62" d="M395.93,429.75C396.67,431,410.71,454,411.29,458c.34,2.36-1.1,4.54-3.62,6a14.58,14.58,0,0,1-6.51,1.79c-6.17.31-11.64-2.67-12.22-6.64S395.55,431,395.93,429.75Z"/><path class="cls-62" d="M363.33,436.53a14.57,14.57,0,0,1,6.5-1.79c6.17-.31,11.64,2.66,12.22,6.64s-6.6,28.13-7,29.4c-.74-1.21-14.78-24.28-15.36-28.27C359.36,440.17,360.81,438,363.33,436.53Z"/><path class="cls-63" d="M102.67,140.78a2.28,2.28,0,0,1,.82-.26l35.86-5c1.27-.17,2.4.49,2.09,1.22l-8.75,20.75a1,1,0,0,1-.46.48,2.71,2.71,0,0,1-2.46,0l-27.11-15.76C101.95,141.79,102,141.15,102.67,140.78Z"/><path class="cls-63" d="M115.23,517.66a.76.76,0,0,1,0-1.44l35.24-20.48a2.73,2.73,0,0,1,2.48,0,.76.76,0,0,1,0,1.43l-35.24,20.48A2.74,2.74,0,0,1,115.23,517.66Z"/><path class="cls-63" d="M98.06,494a.76.76,0,0,1,0-1.43l11.44-6.65a2.72,2.72,0,0,1,2.47,0c.69.4.69,1,0,1.43L100.54,494A2.73,2.73,0,0,1,98.06,494Z"/><path class="cls-63" d="M107.52,495.21c-.69-.4-.69-1,0-1.43l4.17-2.42a2.73,2.73,0,0,1,2.48,0,.76.76,0,0,1,0,1.43L110,495.21A2.72,2.72,0,0,1,107.52,495.21Z"/><path class="cls-63" d="M103,504.57a.76.76,0,0,1,0-1.43l24.85-14.44a2.72,2.72,0,0,1,2.47,0c.69.4.69,1,0,1.43l-24.85,14.44A2.73,2.73,0,0,1,103,504.57Z"/><path class="cls-63" d="M116.6,503.4a.76.76,0,0,1,0-1.44l9.25-5.37a2.73,2.73,0,0,1,2.48,0,.76.76,0,0,1,0,1.43l-9.25,5.37A2.73,2.73,0,0,1,116.6,503.4Z"/><path class="cls-63" d="M117,509.91a.76.76,0,0,1,0-1.43l20.11-11.69a2.72,2.72,0,0,1,2.47,0c.69.4.69,1,0,1.43l-20.11,11.69A2.73,2.73,0,0,1,117,509.91Z"/><path class="cls-63" d="M127.28,517.39a.76.76,0,0,1,0-1.43L150,502.73a2.73,2.73,0,0,1,2.48,0,.76.76,0,0,1,0,1.44l-22.77,13.23A2.73,2.73,0,0,1,127.28,517.39Z"/><path class="cls-63" d="M139.05,517.29c-.69-.4-.69-1,0-1.43l10.87-6.31a2.73,2.73,0,0,1,2.48,0,.76.76,0,0,1,0,1.43l-10.87,6.31A2.72,2.72,0,0,1,139.05,517.29Z"/><polygon class="cls-63" points="669.58 54.73 669.7 67.06 658.14 73.78 621.86 52.83 626.71 50.01 643.37 49.99 643.32 54.8 669.58 54.73"/><path class="cls-63" d="M653.14,40.5c2.64,1.52,2.66,4,0,5.51a10.49,10.49,0,0,1-9.52,0c-2.64-1.52-2.65-4,0-5.51A10.48,10.48,0,0,1,653.14,40.5Z"/><path class="cls-63" d="M633,539.66l-16,2.49a1.5,1.5,0,0,1-1.53-.51c-.12-.26,0-.52.33-.7a1.63,1.63,0,0,1,.56-.19l16-2.49-.38.81Z"/><path class="cls-63" d="M645.82,546.66l-.62.1L633,539.66l-1-.59.38-.81,4.33-9.24c-.08.23,0,.48.34.65l1.53.89-3.78,8.08,10.17,5.91-.57,1.21c-.19.39.21.78.88.89A2.11,2.11,0,0,0,645.82,546.66Z"/><path class="cls-63" d="M667.18,534.36a1.64,1.64,0,0,0,.57-.19.82.82,0,0,0,.3-.28l-4.33,9.24-.19.41-.19.4-1.4.22-16,2.48a1.59,1.59,0,0,0,.48-.17.77.77,0,0,0,.33-.33l.57-1.21,14-2.16,3.78-8.08Z"/><path class="cls-63" d="M675.42,551a1.94,1.94,0,0,1-1.77,0l-11.7-6.8,1.4-.22.19-.4.19-.41,11.7,6.8A.54.54,0,0,1,675.42,551Z"/><path class="cls-63" d="M656.06,526.35l-1-.59-1.4.22,4.35-9.29a.77.77,0,0,1,.32-.32,1.93,1.93,0,0,1,1.21-.19c.66.1,1.05.5.88.89Z"/><path class="cls-63" d="M637.51,528.48a1.57,1.57,0,0,0-.47.17.81.81,0,0,0-.3.27l.16-.35Z"/><path class="cls-63" d="M651,536.77a1.94,1.94,0,0,1-1.77,0l-.51-.3-10.17-5.91-1.53-.89c-.3-.18-.42-.42-.34-.65l0-.1a.81.81,0,0,1,.3-.27,1.57,1.57,0,0,1,.47-.17l.17,0a1.91,1.91,0,0,1,1.13.2l1.53.89,10.17,5.91.51.3A.54.54,0,0,1,651,536.77Z"/><path class="cls-63" d="M646.46,546.46a1.59,1.59,0,0,1-.48.17l-.16,0a2.11,2.11,0,0,1-.56,0c-.67-.11-1.07-.5-.88-.89l.57-1.21,3.78-8.08.51.3a1.94,1.94,0,0,0,1.77,0,.54.54,0,0,0,0-1l-.51-.3,14-2.16,2.09-.32a1.49,1.49,0,0,1,1.53.51.42.42,0,0,1,0,.32l0,.09a.82.82,0,0,1-.3.28,1.64,1.64,0,0,1-.57.19l-2.09.32-14,2.16-3.78,8.08-.57,1.21A.77.77,0,0,1,646.46,546.46Z"/><path class="cls-63" d="M638.8,528.65a1.91,1.91,0,0,0-1.13-.2l16-2.48,1.4-.22,1,.59,12.21,7.09-.17.36a.42.42,0,0,0,0-.32,1.49,1.49,0,0,0-1.53-.51l-2.09.32-10.17-5.91-14,2.16Z"/></g></g></svg>