<svg xmlns="http://www.w3.org/2000/svg" xmlns:xlink="http://www.w3.org/1999/xlink" viewBox="0 0 204.68 353.11"><defs><style>.cls-1,.cls-20,.cls-21,.cls-22{fill:none;}.cls-2{clip-path:url(#clip-path);}.cls-3{fill:#282c32;}.cls-4{clip-path:url(#clip-path-2);}.cls-5{fill:#15171a;}.cls-6{fill:#23272c;}.cls-7{clip-path:url(#clip-path-3);}.cls-8{clip-path:url(#clip-path-4);}.cls-9{clip-path:url(#clip-path-5);}.cls-10{clip-path:url(#clip-path-6);}.cls-11{clip-path:url(#clip-path-7);}.cls-12{clip-path:url(#clip-path-8);}.cls-13{clip-path:url(#clip-path-9);}.cls-14{clip-path:url(#clip-path-10);}.cls-15{clip-path:url(#clip-path-11);}.cls-16{fill:#131416;}.cls-17{clip-path:url(#clip-path-12);}.cls-18{fill:#0d0e10;}.cls-19{fill:#16181b;}.cls-20,.cls-22{stroke:#bdccd4;stroke-linecap:round;}.cls-20,.cls-21,.cls-22{stroke-miterlimit:10;}.cls-20{stroke-width:2px;}.cls-21,.cls-22{stroke-width:3px;}.cls-21{stroke:url(#linear-gradient);}.cls-23{fill:#d3d4d5;}</style><clipPath id="clip-path"><rect class="cls-1" x="102.34" y="269.83" width="102.34" height="83.28"/></clipPath><clipPath id="clip-path-2"><rect class="cls-1" y="269.83" width="102.33" height="83.28"/></clipPath><clipPath id="clip-path-3"><rect class="cls-1" x="102.34" y="233.83" width="102.34" height="83.28"/></clipPath><clipPath id="clip-path-4"><rect class="cls-1" y="233.83" width="102.33" height="83.28"/></clipPath><clipPath id="clip-path-5"><rect class="cls-1" x="102.34" y="197.83" width="102.34" height="83.28"/></clipPath><clipPath id="clip-path-6"><rect class="cls-1" y="197.83" width="102.33" height="83.28"/></clipPath><clipPath id="clip-path-7"><rect class="cls-1" x="102.34" y="161.83" width="102.34" height="83.28"/></clipPath><clipPath id="clip-path-8"><rect class="cls-1" y="161.83" width="102.33" height="83.28"/></clipPath><clipPath id="clip-path-9"><rect class="cls-1" x="102.34" y="125.83" width="102.34" height="83.28"/></clipPath><clipPath id="clip-path-10"><rect class="cls-1" y="125.83" width="102.33" height="83.28"/></clipPath><clipPath id="clip-path-11"><polygon class="cls-1" points="204.68 172.56 102.34 172.56 102.34 59.65 204.68 59.28 204.68 172.56"/></clipPath><clipPath id="clip-path-12"><rect class="cls-1" y="59.65" width="102.33" height="112.9"/></clipPath><linearGradient id="linear-gradient" x1="159.86" y1="25.07" x2="44.81" y2="91.49" gradientUnits="userSpaceOnUse"><stop offset="0" stop-color="#a4ccf4"/><stop offset="0.49" stop-color="#9bccfd"/><stop offset="0.56" stop-color="#9cf"/><stop offset="0.82" stop-color="#3d9cc1" stop-opacity="0.9"/><stop offset="1" stop-color="#0083ba" stop-opacity="0.6"/></linearGradient></defs><title>server_4</title><g id="Layer_2" data-name="Layer 2"><g id="Icons"><g class="cls-2"><path class="cls-3" d="M204.67,269.83v24c0,1.33-.9,2.67-2.66,3.69l-93.64,54.06a14,14,0,0,1-12.73,0l-93-54.07c-1.76-1-2.63-2.35-2.62-3.68v-24Z"/></g><g class="cls-4"><path class="cls-5" d="M204.67,269.83v24c0,1.33-.9,2.67-2.66,3.69l-93.64,54.06a14,14,0,0,1-12.73,0l-93-54.07c-1.76-1-2.63-2.35-2.62-3.68v-24Z"/></g><path class="cls-6" d="M96.3,212.08a14,14,0,0,1,12.73,0l93,54.07c3.5,2,3.48,5.34,0,7.37l-93.64,54.06a14,14,0,0,1-12.73,0l-93-54.07c-3.5-2-3.49-5.33,0-7.37Z"/><g class="cls-7"><path class="cls-3" d="M204.67,233.83v24c0,1.33-.9,2.67-2.66,3.69l-93.64,54.06a14,14,0,0,1-12.73,0l-93-54.07c-1.76-1-2.63-2.35-2.62-3.68v-24Z"/></g><g class="cls-8"><path class="cls-5" d="M204.67,233.83v24c0,1.33-.9,2.67-2.66,3.69l-93.64,54.06a14,14,0,0,1-12.73,0l-93-54.07c-1.76-1-2.63-2.35-2.62-3.68v-24Z"/></g><path class="cls-6" d="M96.3,176.08a14,14,0,0,1,12.73,0l93,54.07c3.5,2,3.48,5.34,0,7.37l-93.64,54.06a14,14,0,0,1-12.73,0l-93-54.07c-3.5-2-3.49-5.33,0-7.37Z"/><g class="cls-9"><path class="cls-3" d="M204.67,197.83v24c0,1.33-.9,2.67-2.66,3.69l-93.64,54.06a14,14,0,0,1-12.73,0l-93-54.07c-1.76-1-2.63-2.35-2.62-3.68v-24Z"/></g><g class="cls-10"><path class="cls-5" d="M204.67,197.83v24c0,1.33-.9,2.67-2.66,3.69l-93.64,54.06a14,14,0,0,1-12.73,0l-93-54.07c-1.76-1-2.63-2.35-2.62-3.68v-24Z"/></g><path class="cls-6" d="M96.3,140.08a14,14,0,0,1,12.73,0l93,54.07c3.5,2,3.48,5.34,0,7.37l-93.64,54.06a14,14,0,0,1-12.73,0l-93-54.07c-3.5-2-3.49-5.33,0-7.37Z"/><g class="cls-11"><path class="cls-3" d="M204.67,161.83v24c0,1.33-.9,2.67-2.66,3.69l-93.64,54.06a14,14,0,0,1-12.73,0l-93-54.07c-1.76-1-2.63-2.35-2.62-3.68v-24Z"/></g><g class="cls-12"><path class="cls-5" d="M204.67,161.83v24c0,1.33-.9,2.67-2.66,3.69l-93.64,54.06a14,14,0,0,1-12.73,0l-93-54.07c-1.76-1-2.63-2.35-2.62-3.68v-24Z"/></g><path class="cls-6" d="M96.3,104.08a14,14,0,0,1,12.73,0l93,54.07c3.5,2,3.48,5.34,0,7.37l-93.64,54.06a14,14,0,0,1-12.73,0l-93-54.07c-3.5-2-3.49-5.33,0-7.37Z"/><g class="cls-13"><path class="cls-3" d="M204.67,125.83v24c0,1.33-.9,2.67-2.66,3.69l-93.64,54.06a14,14,0,0,1-12.73,0l-93-54.07c-1.76-1-2.63-2.35-2.62-3.68v-24Z"/></g><g class="cls-14"><path class="cls-5" d="M204.67,125.83v24c0,1.33-.9,2.67-2.66,3.69l-93.64,54.06a14,14,0,0,1-12.73,0l-93-54.07c-1.76-1-2.63-2.35-2.62-3.68v-24Z"/></g><path class="cls-6" d="M96.3,68.08a14,14,0,0,1,12.73,0l93,54.07c3.5,2,3.48,5.34,0,7.37l-93.64,54.06a14,14,0,0,1-12.73,0l-93-54.07c-3.5-2-3.49-5.33,0-7.37Z"/><g class="cls-15"><path class="cls-16" d="M204.68,59.28v54c0,1.33-.9,2.67-2.66,3.69L108.38,171a14,14,0,0,1-12.73,0L2.63,117c-1.76-1-2.63-2.35-2.62-3.68V59.65Z"/></g><g class="cls-17"><path class="cls-18" d="M204.67,59.28v54c0,1.33-.9,2.67-2.66,3.69L108.37,171a14,14,0,0,1-12.73,0L2.62,117c-1.76-1-2.63-2.35-2.62-3.68V59.65Z"/></g><path class="cls-19" d="M96.3,1.53a14,14,0,0,1,12.73,0l93,54.07c3.5,2,3.48,5.34,0,7.37L108.38,117a14,14,0,0,1-12.73,0L2.62,63c-3.5-2-3.49-5.33,0-7.37Z"/><line class="cls-20" x1="74.09" y1="116.01" x2="74.09" y2="122.29"/><line class="cls-20" x1="78.93" y1="118.79" x2="78.93" y2="125.08"/><line class="cls-20" x1="83.77" y1="121.7" x2="83.77" y2="127.99"/><path class="cls-21" d="M97,16.44a12.24,12.24,0,0,1,11.11,0l66.45,38.62c3.06,1.78,3,4.66,0,6.44l-66.89,38.62a12.25,12.25,0,0,1-11.11,0L30.09,61.5c-3.06-1.78-3-4.66,0-6.44Z"/><line class="cls-22" x1="12.85" y1="86.43" x2="35.97" y2="98.88"/><path class="cls-23" d="M105.36,40.5c2.64,1.52,2.65,4,0,5.51a10.48,10.48,0,0,1-9.52,0c-2.64-1.52-2.66-4,0-5.51A10.49,10.49,0,0,1,105.36,40.5Z"/><polygon class="cls-23" points="121.8 54.73 121.92 67.06 110.36 73.78 74.08 52.83 78.93 50.01 95.59 49.99 95.53 54.79 121.8 54.73"/></g></g></svg>