<svg xmlns="http://www.w3.org/2000/svg" viewBox="0 0 772.52 448.83"><defs><style>.cls-1,.cls-2,.cls-3,.cls-4,.cls-5,.cls-6,.cls-7,.cls-8,.cls-9{fill:none;stroke:#bdccd4;stroke-linecap:round;stroke-miterlimit:10;stroke-width:2px;}.cls-2{stroke-dasharray:3.14 9.42 15.71 9.42;}.cls-3{stroke-dasharray:3.14 9.42 3.14 9.42 15.71 9.42;}.cls-4{stroke-dasharray:3.55 10.66 17.76 10.66;}.cls-5{stroke-dasharray:3.55 10.66 3.55 10.66 17.76 10.66;}.cls-6{stroke-dasharray:2.71 8.13 13.56 8.13;}.cls-7{stroke-dasharray:2.71 8.13 2.71 8.13 13.56 8.13;}.cls-8{stroke-dasharray:2.78 8.35 13.91 8.35;}.cls-9{stroke-dasharray:2.78 8.35 2.78 8.35 13.91 8.35;}.cls-10{fill:#a3b0b6;}</style></defs><title>server_traffic</title><g id="Layer_2" data-name="Layer 2"><g id="Lines"><line class="cls-1" x1="229.62" y1="313.93" x2="230.92" y2="313.18"/><line class="cls-2" x1="239.08" y1="308.47" x2="267.64" y2="291.98"/><line class="cls-3" x1="271.73" y1="289.62" x2="311.17" y2="266.85"/><line class="cls-1" x1="315.26" y1="264.49" x2="316.55" y2="263.74"/><line class="cls-1" x1="454.21" y1="263.86" x2="455.51" y2="264.62"/><line class="cls-4" x1="464.73" y1="269.97" x2="496.97" y2="288.71"/><line class="cls-5" x1="501.58" y1="291.39" x2="546.11" y2="317.27"/><line class="cls-1" x1="550.72" y1="319.95" x2="552.02" y2="320.7"/><line class="cls-1" x1="464.49" y1="178.33" x2="465.79" y2="177.58"/><line class="cls-6" x1="472.84" y1="173.51" x2="497.49" y2="159.28"/><line class="cls-7" x1="501.01" y1="157.24" x2="572.63" y2="115.89"/><line class="cls-1" x1="576.16" y1="113.86" x2="577.46" y2="113.11"/><line class="cls-1" x1="192.88" y1="111.99" x2="194.18" y2="112.75"/><line class="cls-8" x1="201.39" y1="116.94" x2="226.65" y2="131.62"/><line class="cls-9" x1="230.26" y1="133.72" x2="303.64" y2="176.36"/><line class="cls-1" x1="307.25" y1="178.45" x2="308.54" y2="179.21"/><path class="cls-10" d="M377.55,154.22c4.62-2.67,12.1-2.67,16.69,0L505.88,219.1c4.59,2.67,4.56,7-.05,9.67L393.45,293.64c-4.62,2.67-12.1,2.67-16.69,0L265.13,228.76c-4.59-2.67-4.56-7,.05-9.67Zm126.91,65.7L392.82,155A15.31,15.31,0,0,0,379,155L266.59,219.92c-3.83,2.21-3.85,5.82,0,8l111.64,64.88a15.3,15.3,0,0,0,13.86,0l112.37-64.88c3.83-2.21,3.86-5.81,0-8"/><polygon class="cls-10" points="660.62 5.23 662.04 4.41 664.87 6.05 663.44 6.87 660.62 5.23"/><polygon class="cls-10" points="673.31 12.6 670.49 10.96 671.91 10.14 674.73 11.78 673.31 12.6"/><polygon class="cls-10" points="683.18 18.34 680.36 16.7 681.78 15.88 684.6 17.52 683.18 18.34"/><polygon class="cls-10" points="693.04 24.07 690.23 22.43 691.65 21.61 694.47 23.25 693.04 24.07"/><polygon class="cls-10" points="702.91 29.8 700.1 28.17 701.52 27.35 704.34 28.98 702.91 29.8"/><polygon class="cls-10" points="712.78 35.54 709.96 33.9 711.38 33.08 714.21 34.72 712.78 35.54"/><polygon class="cls-10" points="722.64 41.27 719.83 39.64 721.25 38.81 724.07 40.45 722.64 41.27"/><polygon class="cls-10" points="732.51 47.01 729.69 45.37 731.12 44.55 733.94 46.19 732.51 47.01"/><polygon class="cls-10" points="742.38 52.74 739.56 51.1 740.99 50.28 743.8 51.92 742.38 52.74"/><polygon class="cls-10" points="752.25 58.48 749.43 56.84 750.85 56.01 753.67 57.66 752.25 58.48"/><polygon class="cls-10" points="762.11 64.21 759.3 62.57 760.72 61.75 763.54 63.39 762.11 64.21"/><path class="cls-10" d="M770.6,70.15a5.33,5.33,0,0,0-1.6-1.87l1.59-.7a6.35,6.35,0,0,1,1.93,2.25Z"/><path class="cls-10" d="M654.21.55l-.79,1.07a16.1,16.1,0,0,0-3.53-.45L650,0A19.13,19.13,0,0,1,654.21.55Z"/><path class="cls-10" d="M768.07,75.72a8.14,8.14,0,0,0,.89-.59l1.59.7a10.24,10.24,0,0,1-1.07.71l-2.83,1.64-1.41-.82Z"/><polygon class="cls-10" points="640.4 2.46 641.81 3.29 638.97 4.93 637.56 4.11 640.4 2.46"/><polygon class="cls-10" points="756.71 83.92 755.3 83.1 758.14 81.46 759.55 82.28 756.71 83.92"/><polygon class="cls-10" points="630.47 8.2 631.88 9.02 629.04 10.66 627.63 9.84 630.47 8.2"/><polygon class="cls-10" points="746.78 89.65 745.37 88.83 748.21 87.19 749.62 88.01 746.78 89.65"/><polygon class="cls-10" points="620.53 13.94 621.95 14.76 619.11 16.39 617.7 15.57 620.53 13.94"/><polygon class="cls-10" points="736.85 95.39 735.43 94.56 738.28 92.92 739.69 93.75 736.85 95.39"/><polygon class="cls-10" points="610.6 19.67 612.02 20.49 609.18 22.13 607.76 21.31 610.6 19.67"/><polygon class="cls-10" points="726.92 101.12 725.51 100.3 728.34 98.66 729.76 99.48 726.92 101.12"/><polygon class="cls-10" points="600.67 25.4 602.08 26.23 599.25 27.86 597.83 27.04 600.67 25.4"/><polygon class="cls-10" points="716.99 106.85 715.57 106.03 718.41 104.39 719.83 105.21 716.99 106.85"/><polygon class="cls-10" points="590.74 31.14 592.15 31.96 589.31 33.6 587.9 32.78 590.74 31.14"/><polygon class="cls-10" points="707.06 112.59 705.64 111.76 708.48 110.13 709.89 110.95 707.06 112.59"/><polygon class="cls-10" points="580.8 36.87 582.22 37.69 579.38 39.33 577.97 38.51 580.8 36.87"/><polygon class="cls-10" points="697.13 118.32 695.71 117.5 698.55 115.86 699.97 116.68 697.13 118.32"/><polygon class="cls-10" points="570.88 42.6 572.29 43.42 569.45 45.07 568.04 44.24 570.88 42.6"/><polygon class="cls-10" points="687.2 124.05 685.78 123.23 688.62 121.6 690.03 122.42 687.2 124.05"/><polygon class="cls-10" points="560.94 48.34 562.36 49.16 559.52 50.8 558.11 49.98 560.94 48.34"/><polygon class="cls-10" points="677.26 129.79 675.85 128.97 678.68 127.33 680.1 128.15 677.26 129.79"/><polygon class="cls-10" points="551.01 54.07 552.43 54.89 549.59 56.53 548.17 55.71 551.01 54.07"/><polygon class="cls-10" points="667.33 135.53 665.91 134.7 668.75 133.06 670.17 133.88 667.33 135.53"/><polygon class="cls-10" points="541.08 59.81 542.5 60.63 539.66 62.27 538.25 61.44 541.08 59.81"/><polygon class="cls-10" points="657.4 141.26 655.99 140.44 658.82 138.8 660.23 139.62 657.4 141.26"/><path class="cls-10" d="M531.15,65.54l1.41.82-2.31,1.33c-.16.09-.32.18-.46.28l-1.5-.76.55-.34Z"/><path class="cls-10" d="M643.38,142.67l.92-1a15.51,15.51,0,0,0,3.45.59l-.21,1.15A18.79,18.79,0,0,1,643.38,142.67Z"/><polygon class="cls-10" points="634.35 136.24 637.17 137.88 635.75 138.71 632.93 137.07 634.35 136.24"/><polygon class="cls-10" points="624.49 130.51 627.3 132.15 625.88 132.97 623.07 131.33 624.49 130.51"/><polygon class="cls-10" points="614.62 124.78 617.44 126.42 616.02 127.24 613.19 125.6 614.62 124.78"/><polygon class="cls-10" points="604.75 119.04 607.57 120.68 606.15 121.5 603.33 119.87 604.75 119.04"/><polygon class="cls-10" points="594.88 113.31 597.71 114.95 596.28 115.77 593.46 114.13 594.88 113.31"/><polygon class="cls-10" points="585.02 107.58 587.84 109.21 586.41 110.03 583.6 108.4 585.02 107.58"/><polygon class="cls-10" points="575.15 101.84 577.97 103.48 576.55 104.3 573.73 102.66 575.15 101.84"/><polygon class="cls-10" points="565.29 96.11 568.1 97.75 566.68 98.57 563.86 96.93 565.29 96.11"/><polygon class="cls-10" points="555.42 90.37 558.23 92.01 556.81 92.83 553.99 91.19 555.42 90.37"/><polygon class="cls-10" points="545.55 84.64 548.37 86.28 546.95 87.1 544.12 85.46 545.55 84.64"/><polygon class="cls-10" points="535.68 78.91 538.5 80.54 537.08 81.36 534.26 79.73 535.68 78.91"/><path class="cls-10" d="M527.56,72.89a4.8,4.8,0,0,0,1.37,1.93l-1.67.63a5.75,5.75,0,0,1-1.65-2.32Z"/><polygon class="cls-10" points="135.02 5.23 136.44 4.41 139.26 6.05 137.84 6.87 135.02 5.23"/><polygon class="cls-10" points="147.71 12.6 144.89 10.96 146.31 10.14 149.12 11.78 147.71 12.6"/><polygon class="cls-10" points="157.58 18.34 154.75 16.7 156.17 15.88 158.99 17.52 157.58 18.34"/><polygon class="cls-10" points="167.44 24.07 164.62 22.43 166.04 21.61 168.86 23.25 167.44 24.07"/><polygon class="cls-10" points="177.31 29.8 174.49 28.17 175.91 27.35 178.73 28.98 177.31 29.8"/><polygon class="cls-10" points="187.18 35.54 184.36 33.9 185.78 33.08 188.6 34.72 187.18 35.54"/><polygon class="cls-10" points="197.04 41.27 194.23 39.63 195.65 38.82 198.46 40.45 197.04 41.27"/><polygon class="cls-10" points="206.91 47.01 204.09 45.37 205.51 44.55 208.33 46.19 206.91 47.01"/><polygon class="cls-10" points="216.78 52.74 213.96 51.1 215.38 50.28 218.19 51.92 216.78 52.74"/><polygon class="cls-10" points="226.65 58.48 223.82 56.83 225.24 56.02 228.06 57.66 226.65 58.48"/><polygon class="cls-10" points="236.51 64.21 233.69 62.57 235.11 61.75 237.93 63.39 236.51 64.21"/><path class="cls-10" d="M245,70.15a5.44,5.44,0,0,0-1.6-1.87l1.59-.7a6.35,6.35,0,0,1,1.93,2.25Z"/><path class="cls-10" d="M128.61.55l-.79,1.07a16.1,16.1,0,0,0-3.53-.45L124.37,0A19.13,19.13,0,0,1,128.61.55Z"/><path class="cls-10" d="M242.47,75.72a8.17,8.17,0,0,0,.89-.59l1.59.7a10.21,10.21,0,0,1-1.07.71L241,78.18l-1.41-.82Z"/><polygon class="cls-10" points="114.79 2.47 116.21 3.29 113.37 4.92 111.96 4.1 114.79 2.47"/><polygon class="cls-10" points="231.11 83.92 229.7 83.09 232.54 81.45 233.95 82.28 231.11 83.92"/><polygon class="cls-10" points="104.86 8.2 106.28 9.02 103.44 10.66 102.02 9.84 104.86 8.2"/><polygon class="cls-10" points="221.18 89.65 219.77 88.83 222.6 87.19 224.02 88.01 221.18 89.65"/><polygon class="cls-10" points="94.93 13.93 96.34 14.76 93.51 16.39 92.09 15.57 94.93 13.93"/><polygon class="cls-10" points="211.25 95.39 209.83 94.56 212.68 92.92 214.09 93.74 211.25 95.39"/><polygon class="cls-10" points="85 19.67 86.42 20.49 83.58 22.13 82.16 21.31 85 19.67"/><polygon class="cls-10" points="201.32 101.12 199.91 100.3 202.74 98.66 204.16 99.48 201.32 101.12"/><polygon class="cls-10" points="75.07 25.4 76.48 26.22 73.65 27.86 72.23 27.04 75.07 25.4"/><polygon class="cls-10" points="191.39 106.85 189.97 106.03 192.81 104.39 194.23 105.21 191.39 106.85"/><polygon class="cls-10" points="65.14 31.13 66.55 31.96 63.71 33.6 62.3 32.77 65.14 31.13"/><polygon class="cls-10" points="181.46 112.58 180.04 111.76 182.88 110.13 184.29 110.95 181.46 112.58"/><polygon class="cls-10" points="55.2 36.87 56.62 37.69 53.78 39.33 52.37 38.51 55.2 36.87"/><polygon class="cls-10" points="171.52 118.32 170.11 117.5 172.94 115.86 174.36 116.68 171.52 118.32"/><polygon class="cls-10" points="45.27 42.6 46.68 43.43 43.85 45.06 42.44 44.24 45.27 42.6"/><polygon class="cls-10" points="161.59 124.06 160.17 123.23 163.02 121.59 164.43 122.42 161.59 124.06"/><polygon class="cls-10" points="35.34 48.34 36.76 49.16 33.91 50.8 32.5 49.98 35.34 48.34"/><polygon class="cls-10" points="151.66 129.79 150.25 128.97 153.08 127.33 154.5 128.15 151.66 129.79"/><polygon class="cls-10" points="25.41 54.07 26.82 54.9 23.99 56.53 22.57 55.71 25.41 54.07"/><polygon class="cls-10" points="141.73 135.52 140.31 134.7 143.15 133.06 144.57 133.88 141.73 135.52"/><polygon class="cls-10" points="15.48 59.8 16.89 60.63 14.05 62.27 12.64 61.45 15.48 59.8"/><polygon class="cls-10" points="131.8 141.26 130.38 140.43 133.22 138.8 134.63 139.62 131.8 141.26"/><path class="cls-10" d="M5.54,65.54,7,66.36,4.65,67.7,4.18,68l-1.5-.76.56-.34Z"/><path class="cls-10" d="M117.78,142.67l.92-1a15.51,15.51,0,0,0,3.45.59l-.21,1.15A18.79,18.79,0,0,1,117.78,142.67Z"/><polygon class="cls-10" points="108.75 136.25 111.57 137.89 110.15 138.71 107.33 137.06 108.75 136.25"/><polygon class="cls-10" points="98.88 130.51 101.7 132.15 100.28 132.97 97.46 131.33 98.88 130.51"/><polygon class="cls-10" points="89.01 124.78 91.83 126.42 90.42 127.24 87.59 125.6 89.01 124.78"/><polygon class="cls-10" points="79.15 119.05 81.96 120.68 80.55 121.5 77.73 119.86 79.15 119.05"/><polygon class="cls-10" points="69.28 113.31 72.1 114.95 70.68 115.77 67.86 114.13 69.28 113.31"/><polygon class="cls-10" points="59.41 107.58 62.23 109.22 60.81 110.03 58 108.4 59.41 107.58"/><polygon class="cls-10" points="49.54 101.84 52.37 103.48 50.95 104.3 48.13 102.66 49.54 101.84"/><polygon class="cls-10" points="39.68 96.11 42.5 97.75 41.08 98.56 38.26 96.93 39.68 96.11"/><polygon class="cls-10" points="29.81 90.37 32.63 92.01 31.21 92.83 28.39 91.19 29.81 90.37"/><polygon class="cls-10" points="19.94 84.64 22.76 86.28 21.35 87.1 18.52 85.46 19.94 84.64"/><polygon class="cls-10" points="10.08 78.91 12.89 80.54 11.48 81.36 8.66 79.72 10.08 78.91"/><path class="cls-10" d="M2,72.89a4.8,4.8,0,0,0,1.37,1.93l-1.67.63A5.67,5.67,0,0,1,0,73.13Z"/><polygon class="cls-10" points="135.02 310.68 136.44 309.86 139.26 311.49 137.84 312.31 135.02 310.68"/><polygon class="cls-10" points="147.71 318.05 144.89 316.41 146.3 315.59 149.13 317.23 147.71 318.05"/><polygon class="cls-10" points="157.57 323.78 154.76 322.14 156.17 321.32 158.99 322.96 157.57 323.78"/><polygon class="cls-10" points="167.44 329.52 164.62 327.88 166.04 327.06 168.86 328.7 167.44 329.52"/><polygon class="cls-10" points="177.31 335.25 174.49 333.61 175.91 332.79 178.72 334.43 177.31 335.25"/><polygon class="cls-10" points="187.18 340.98 184.36 339.35 185.78 338.53 188.59 340.17 187.18 340.98"/><polygon class="cls-10" points="197.05 346.72 194.22 345.08 195.64 344.26 198.46 345.9 197.05 346.72"/><polygon class="cls-10" points="206.91 352.45 204.09 350.81 205.51 350 208.33 351.63 206.91 352.45"/><polygon class="cls-10" points="216.78 358.19 213.96 356.55 215.38 355.73 218.2 357.37 216.78 358.19"/><polygon class="cls-10" points="226.64 363.92 223.83 362.28 225.25 361.46 228.06 363.1 226.64 363.92"/><polygon class="cls-10" points="236.51 369.65 233.69 368.01 235.11 367.2 237.93 368.84 236.51 369.65"/><path class="cls-10" d="M245,375.6a5.37,5.37,0,0,0-1.6-1.87L245,373a6.31,6.31,0,0,1,1.93,2.25Z"/><path class="cls-10" d="M128.6,306l-.79,1.07a16,16,0,0,0-3.52-.45l.08-1.16A19.3,19.3,0,0,1,128.6,306Z"/><path class="cls-10" d="M242.47,381.17a9.49,9.49,0,0,0,.89-.59l1.59.7a10.3,10.3,0,0,1-1.07.71L241,383.63l-1.41-.82Z"/><polygon class="cls-10" points="114.8 307.91 116.2 308.73 113.37 310.37 111.96 309.55 114.8 307.91"/><polygon class="cls-10" points="231.11 389.36 229.7 388.54 232.54 386.9 233.95 387.72 231.11 389.36"/><polygon class="cls-10" points="104.87 313.65 106.28 314.46 103.43 316.11 102.03 315.29 104.87 313.65"/><polygon class="cls-10" points="221.18 395.09 219.77 394.28 222.61 392.64 224.01 393.46 221.18 395.09"/><polygon class="cls-10" points="94.93 319.38 96.34 320.2 93.51 321.84 92.1 321.02 94.93 319.38"/><polygon class="cls-10" points="211.25 400.83 209.84 400.01 212.68 398.37 214.09 399.19 211.25 400.83"/><polygon class="cls-10" points="85 325.11 86.41 325.93 83.57 327.57 82.16 326.75 85 325.11"/><polygon class="cls-10" points="201.32 406.56 199.91 405.74 202.74 404.11 204.15 404.93 201.32 406.56"/><polygon class="cls-10" points="75.07 330.85 76.48 331.67 73.64 333.31 72.23 332.49 75.07 330.85"/><polygon class="cls-10" points="191.38 412.3 189.97 411.48 192.82 409.84 194.22 410.66 191.38 412.3"/><polygon class="cls-10" points="65.14 336.58 66.55 337.4 63.71 339.04 62.3 338.22 65.14 336.58"/><polygon class="cls-10" points="181.46 418.03 180.05 417.21 182.88 415.57 184.29 416.39 181.46 418.03"/><polygon class="cls-10" points="55.21 342.32 56.62 343.14 53.78 344.77 52.37 343.95 55.21 342.32"/><polygon class="cls-10" points="171.52 423.76 170.11 422.95 172.95 421.31 174.35 422.13 171.52 423.76"/><polygon class="cls-10" points="45.28 348.05 46.69 348.87 43.85 350.51 42.44 349.69 45.28 348.05"/><polygon class="cls-10" points="161.59 429.5 160.18 428.68 163.02 427.04 164.43 427.86 161.59 429.5"/><polygon class="cls-10" points="35.34 353.79 36.75 354.6 33.92 356.24 32.51 355.42 35.34 353.79"/><polygon class="cls-10" points="151.66 435.23 150.25 434.41 153.08 432.78 154.49 433.6 151.66 435.23"/><polygon class="cls-10" points="25.41 359.52 26.82 360.34 23.98 361.98 22.57 361.16 25.41 359.52"/><polygon class="cls-10" points="141.72 440.97 140.31 440.15 143.16 438.51 144.56 439.33 141.72 440.97"/><polygon class="cls-10" points="15.48 365.25 16.89 366.07 14.05 367.71 12.64 366.89 15.48 365.25"/><polygon class="cls-10" points="131.79 446.7 130.39 445.88 133.22 444.25 134.63 445.06 131.79 446.7"/><path class="cls-10" d="M5.55,371l1.41.82-2.31,1.33-.47.28-1.5-.76.56-.34Z"/><path class="cls-10" d="M117.77,448.12l.92-1a15.36,15.36,0,0,0,3.45.59l-.2,1.15A18.85,18.85,0,0,1,117.77,448.12Z"/><polygon class="cls-10" points="108.75 441.69 111.56 443.33 110.15 444.15 107.33 442.51 108.75 441.69"/><polygon class="cls-10" points="98.88 435.96 101.7 437.6 100.28 438.42 97.46 436.78 98.88 435.96"/><polygon class="cls-10" points="89.01 430.23 91.83 431.86 90.41 432.68 87.6 431.05 89.01 430.23"/><polygon class="cls-10" points="79.14 424.49 81.97 426.13 80.55 426.95 77.73 425.31 79.14 424.49"/><polygon class="cls-10" points="69.28 418.76 72.1 420.39 70.68 421.21 67.86 419.58 69.28 418.76"/><polygon class="cls-10" points="59.41 413.02 62.23 414.66 60.82 415.48 57.99 413.84 59.41 413.02"/><polygon class="cls-10" points="49.55 407.29 52.36 408.93 50.95 409.75 48.13 408.11 49.55 407.29"/><polygon class="cls-10" points="39.68 401.56 42.49 403.19 41.08 404.01 38.26 402.37 39.68 401.56"/><polygon class="cls-10" points="29.81 395.82 32.63 397.46 31.21 398.28 28.39 396.64 29.81 395.82"/><polygon class="cls-10" points="19.94 390.09 22.76 391.72 21.34 392.54 18.53 390.9 19.94 390.09"/><polygon class="cls-10" points="10.07 384.35 12.9 385.99 11.48 386.81 8.66 385.17 10.07 384.35"/><path class="cls-10" d="M2,378.33a4.87,4.87,0,0,0,1.38,1.93l-1.68.63A5.74,5.74,0,0,1,0,378.57Z"/><polygon class="cls-10" points="660.63 310.68 662.05 309.86 664.87 311.49 663.44 312.31 660.63 310.68"/><polygon class="cls-10" points="673.31 318.05 670.49 316.41 671.91 315.59 674.74 317.23 673.31 318.05"/><polygon class="cls-10" points="683.17 323.78 680.36 322.14 681.78 321.32 684.6 322.96 683.17 323.78"/><polygon class="cls-10" points="693.04 329.52 690.22 327.88 691.64 327.06 694.47 328.7 693.04 329.52"/><polygon class="cls-10" points="702.91 335.25 700.09 333.61 701.51 332.79 704.33 334.43 702.91 335.25"/><polygon class="cls-10" points="712.78 340.99 709.96 339.35 711.38 338.53 714.2 340.16 712.78 340.99"/><polygon class="cls-10" points="722.65 346.72 719.83 345.08 721.25 344.26 724.07 345.9 722.65 346.72"/><polygon class="cls-10" points="732.51 352.45 729.7 350.82 731.12 350 733.93 351.63 732.51 352.45"/><polygon class="cls-10" points="742.38 358.19 739.56 356.55 740.98 355.73 743.8 357.37 742.38 358.19"/><polygon class="cls-10" points="752.25 363.92 749.43 362.29 750.85 361.46 753.67 363.1 752.25 363.92"/><polygon class="cls-10" points="762.12 369.66 759.29 368.02 760.72 367.19 763.54 368.83 762.12 369.66"/><path class="cls-10" d="M770.6,375.6a5.27,5.27,0,0,0-1.6-1.87l1.59-.7a6.31,6.31,0,0,1,1.93,2.25Z"/><path class="cls-10" d="M654.2,306l-.79,1.07a16,16,0,0,0-3.52-.45l.08-1.16A19.3,19.3,0,0,1,654.2,306Z"/><path class="cls-10" d="M768.07,381.17a9.49,9.49,0,0,0,.89-.59l1.59.7a10.3,10.3,0,0,1-1.07.71l-2.83,1.64-1.41-.82Z"/><polygon class="cls-10" points="640.4 307.91 641.81 308.73 638.97 310.37 637.56 309.55 640.4 307.91"/><polygon class="cls-10" points="756.71 389.36 755.3 388.55 758.14 386.9 759.55 387.72 756.71 389.36"/><polygon class="cls-10" points="630.47 313.65 631.88 314.47 629.04 316.1 627.63 315.29 630.47 313.65"/><polygon class="cls-10" points="746.78 395.1 745.37 394.28 748.21 392.64 749.62 393.46 746.78 395.1"/><polygon class="cls-10" points="620.53 319.38 621.94 320.2 619.11 321.84 617.7 321.02 620.53 319.38"/><polygon class="cls-10" points="736.85 400.83 735.44 400.01 738.28 398.37 739.69 399.19 736.85 400.83"/><polygon class="cls-10" points="610.61 325.12 612.01 325.93 609.17 327.57 607.76 326.76 610.61 325.12"/><polygon class="cls-10" points="726.92 406.56 725.51 405.75 728.35 404.11 729.75 404.93 726.92 406.56"/><polygon class="cls-10" points="600.67 330.85 602.08 331.67 599.24 333.31 597.84 332.49 600.67 330.85"/><polygon class="cls-10" points="716.98 412.3 715.58 411.48 718.42 409.84 719.83 410.66 716.98 412.3"/><polygon class="cls-10" points="590.74 336.58 592.15 337.4 589.31 339.04 587.9 338.22 590.74 336.58"/><polygon class="cls-10" points="707.06 418.03 705.65 417.21 708.48 415.58 709.89 416.39 707.06 418.03"/><polygon class="cls-10" points="580.81 342.32 582.22 343.14 579.38 344.77 577.97 343.96 580.81 342.32"/><polygon class="cls-10" points="697.12 423.77 695.71 422.95 698.55 421.31 699.96 422.13 697.12 423.77"/><polygon class="cls-10" points="570.88 348.05 572.29 348.87 569.45 350.51 568.04 349.69 570.88 348.05"/><polygon class="cls-10" points="687.19 429.5 685.78 428.68 688.62 427.04 690.03 427.86 687.19 429.5"/><polygon class="cls-10" points="560.95 353.79 562.35 354.61 559.52 356.24 558.11 355.42 560.95 353.79"/><polygon class="cls-10" points="677.26 435.24 675.85 434.42 678.68 432.78 680.09 433.6 677.26 435.24"/><polygon class="cls-10" points="551.02 359.52 552.43 360.34 549.59 361.98 548.18 361.16 551.02 359.52"/><polygon class="cls-10" points="667.32 440.97 665.92 440.15 668.76 438.51 670.16 439.33 667.32 440.97"/><polygon class="cls-10" points="541.08 365.25 542.49 366.07 539.66 367.71 538.25 366.89 541.08 365.25"/><polygon class="cls-10" points="657.4 446.7 655.99 445.88 658.82 444.25 660.23 445.07 657.4 446.7"/><path class="cls-10" d="M531.15,371l1.41.82-2.31,1.33-.46.28-1.5-.76.55-.34Z"/><path class="cls-10" d="M643.37,448.12l.92-1a15.36,15.36,0,0,0,3.45.59l-.2,1.15A18.85,18.85,0,0,1,643.37,448.12Z"/><polygon class="cls-10" points="634.36 441.69 637.17 443.33 635.75 444.15 632.93 442.51 634.36 441.69"/><polygon class="cls-10" points="624.49 435.96 627.31 437.6 625.88 438.42 623.06 436.78 624.49 435.96"/><polygon class="cls-10" points="614.62 430.23 617.44 431.86 616.01 432.68 613.2 431.05 614.62 430.23"/><polygon class="cls-10" points="604.75 424.49 607.57 426.13 606.15 426.95 603.33 425.31 604.75 424.49"/><polygon class="cls-10" points="594.89 418.76 597.7 420.39 596.28 421.21 593.46 419.58 594.89 418.76"/><polygon class="cls-10" points="585.02 413.02 587.84 414.66 586.42 415.48 583.59 413.84 585.02 413.02"/><polygon class="cls-10" points="575.15 407.29 577.97 408.93 576.55 409.75 573.73 408.11 575.15 407.29"/><polygon class="cls-10" points="565.28 401.55 568.1 403.19 566.68 404.01 563.86 402.38 565.28 401.55"/><polygon class="cls-10" points="555.41 395.82 558.24 397.46 556.81 398.28 553.99 396.64 555.41 395.82"/><polygon class="cls-10" points="545.55 390.08 548.37 391.72 546.94 392.54 544.13 390.91 545.55 390.08"/><polygon class="cls-10" points="535.68 384.35 538.5 385.99 537.08 386.81 534.26 385.17 535.68 384.35"/><path class="cls-10" d="M527.56,378.33a4.87,4.87,0,0,0,1.38,1.93l-1.68.63a5.83,5.83,0,0,1-1.65-2.32Z"/></g></g></svg>