<svg xmlns="http://www.w3.org/2000/svg" xmlns:xlink="http://www.w3.org/1999/xlink" viewBox="0 0 204.67 178.56"><defs><style>.cls-1,.cls-12{fill:none;}.cls-2{clip-path:url(#clip-path);}.cls-3{fill:#282c32;}.cls-4{clip-path:url(#clip-path-2);}.cls-5{fill:#15171a;}.cls-6{fill:#23272c;}.cls-7{clip-path:url(#clip-path-3);}.cls-8{fill:#131416;}.cls-9{clip-path:url(#clip-path-4);}.cls-10{fill:#0d0e10;}.cls-11{fill:#16181b;}.cls-12{stroke-miterlimit:10;stroke-width:3px;stroke:url(#linear-gradient);}.cls-13{fill:#d3d4d5;}.cls-14{isolation:isolate;}</style><clipPath id="clip-path"><rect class="cls-1" x="102.34" y="95.28" width="102.34" height="83.28"/></clipPath><clipPath id="clip-path-2"><rect class="cls-1" y="95.28" width="102.33" height="83.28"/></clipPath><clipPath id="clip-path-3"><rect class="cls-1" x="102.34" y="59.28" width="102.34" height="83.28"/></clipPath><clipPath id="clip-path-4"><rect class="cls-1" y="59.28" width="102.33" height="83.28"/></clipPath><linearGradient id="linear-gradient" x1="159.86" y1="25.07" x2="44.81" y2="91.49" gradientUnits="userSpaceOnUse"><stop offset="0" stop-color="#a4ccf4"/><stop offset="0.49" stop-color="#9bccfd"/><stop offset="0.56" stop-color="#9cf"/><stop offset="0.82" stop-color="#3d9cc1" stop-opacity="0.9"/><stop offset="1" stop-color="#0083ba" stop-opacity="0.6"/></linearGradient></defs><title>server_1</title><g id="Layer_2" data-name="Layer 2"><g id="Icons"><g class="cls-2"><path class="cls-3" d="M204.67,95.28v24c0,1.33-.9,2.67-2.66,3.69L108.37,177a14,14,0,0,1-12.73,0L2.62,123c-1.76-1-2.63-2.35-2.62-3.68v-24Z"/></g><g class="cls-4"><path class="cls-5" d="M204.67,95.28v24c0,1.33-.9,2.67-2.66,3.69L108.37,177a14,14,0,0,1-12.73,0L2.62,123c-1.76-1-2.63-2.35-2.62-3.68v-24Z"/></g><path class="cls-6" d="M96.3,37.53a14,14,0,0,1,12.73,0l93,54.07c3.5,2,3.48,5.34,0,7.37L108.38,153a14,14,0,0,1-12.73,0L2.62,99c-3.5-2-3.49-5.33,0-7.37Z"/><g class="cls-7"><path class="cls-8" d="M204.67,59.28v24c0,1.33-.9,2.67-2.66,3.69L108.37,141a14,14,0,0,1-12.73,0L2.62,87C.86,85.94,0,84.61,0,83.28v-24Z"/></g><g class="cls-9"><path class="cls-10" d="M204.67,59.28v24c0,1.33-.9,2.67-2.66,3.69L108.37,141a14,14,0,0,1-12.73,0L2.62,87C.86,85.94,0,84.61,0,83.28v-24Z"/></g><path class="cls-11" d="M96.3,1.53a14,14,0,0,1,12.73,0l93,54.07c3.5,2,3.48,5.34,0,7.37L108.38,117a14,14,0,0,1-12.73,0L2.62,63c-3.5-2-3.49-5.33,0-7.37Z"/><path class="cls-12" d="M97,16.44a12.24,12.24,0,0,1,11.11,0l66.45,38.62c3.06,1.78,3,4.66,0,6.44l-66.89,38.62a12.25,12.25,0,0,1-11.11,0L30.09,61.49c-3.06-1.78-3-4.66,0-6.44Z"/><path class="cls-13" d="M86.17,60.27l-16,2.49a1.5,1.5,0,0,1-1.53-.51c-.11-.26,0-.53.34-.7a1.61,1.61,0,0,1,.55-.19l16-2.49-.38.81Z"/><g class="cls-14"><path class="cls-13" d="M99.65,67.07a1.93,1.93,0,0,1-1.21.19c-.67-.11-1.05-.5-.88-.89l.57-1.21,3.78-8.08.51.29a1.94,1.94,0,0,0,1.77,0,.54.54,0,0,0,0-1l-.51-.29,14-2.16,2.09-.32a1.49,1.49,0,0,1,1.53.51c.12.26,0,.52-.33.7a1.64,1.64,0,0,1-.56.19l-2.1.32-13.95,2.16-3.78,8.07L100,66.75A.79.79,0,0,1,99.65,67.07Z"/><path class="cls-13" d="M115.13,64.77l-16.74,2.6-12.21-7.1-1-.59.38-.81,4.54-9.69,16.75-2.6,1.4-.22,1,.59,12.21,7.1-4.54,9.69-.19.41-.19.4Zm-17.57,1.6c-.17.39.21.78.88.89a1.93,1.93,0,0,0,1.21-.19.79.79,0,0,0,.33-.32l.57-1.21,13.95-2.16,3.78-8.07,2.1-.32a1.64,1.64,0,0,0,.56-.19c.31-.18.45-.44.33-.7a1.49,1.49,0,0,0-1.53-.51l-2.09.32L107.46,48l-14,2.16L92,49.26a1.94,1.94,0,0,0-1.77,0,.54.54,0,0,0,0,1l1.52.89-3.78,8.08,10.17,5.91-.57,1.21"/><path class="cls-13" d="M104.18,57.38a1.94,1.94,0,0,1-1.77,0l-.51-.29L91.73,51.17l-1.52-.89a.54.54,0,0,1,0-1,1.94,1.94,0,0,1,1.77,0l1.52.89,10.17,5.91.51.29A.54.54,0,0,1,104.18,57.38Z"/><path class="cls-13" d="M128.6,71.57a1.94,1.94,0,0,1-1.77,0l-11.7-6.8,1.4-.22.19-.4.19-.41,11.7,6.8A.54.54,0,0,1,128.6,71.57Z"/></g><path class="cls-13" d="M109.23,47l-1-.59-1.4.22,4.34-9.29a.77.77,0,0,1,.32-.32,2,2,0,0,1,1.21-.19c.67.11,1.06.51.88.89Z"/></g></g></svg>