<svg xmlns="http://www.w3.org/2000/svg" xmlns:xlink="http://www.w3.org/1999/xlink" viewBox="0 0 204.68 265.56"><defs><style>.cls-1,.cls-16,.cls-17{fill:none;}.cls-2{clip-path:url(#clip-path);}.cls-3{fill:#282c32;}.cls-4{clip-path:url(#clip-path-2);}.cls-5{fill:#15171a;}.cls-6{fill:#23272c;}.cls-7{clip-path:url(#clip-path-3);}.cls-8{clip-path:url(#clip-path-4);}.cls-9{clip-path:url(#clip-path-5);}.cls-10{clip-path:url(#clip-path-6);}.cls-11{clip-path:url(#clip-path-7);}.cls-12{fill:#131416;}.cls-13{clip-path:url(#clip-path-8);}.cls-14{fill:#0d0e10;}.cls-15{fill:#16181b;}.cls-16{stroke:#bdccd4;stroke-linecap:round;stroke-width:2px;}.cls-16,.cls-17{stroke-miterlimit:10;}.cls-17{stroke-width:3px;stroke:url(#linear-gradient);}.cls-18{fill:#d3d4d5;}</style><clipPath id="clip-path"><rect class="cls-1" x="102.34" y="182.28" width="102.34" height="83.28"/></clipPath><clipPath id="clip-path-2"><rect class="cls-1" y="182.28" width="102.33" height="83.28"/></clipPath><clipPath id="clip-path-3"><rect class="cls-1" x="102.34" y="146.28" width="102.34" height="83.28"/></clipPath><clipPath id="clip-path-4"><rect class="cls-1" y="146.28" width="102.33" height="83.28"/></clipPath><clipPath id="clip-path-5"><rect class="cls-1" x="102.34" y="110.28" width="102.34" height="83.28"/></clipPath><clipPath id="clip-path-6"><rect class="cls-1" y="110.28" width="102.33" height="83.28"/></clipPath><clipPath id="clip-path-7"><rect class="cls-1" x="102.34" y="59.65" width="102.34" height="96.9"/></clipPath><clipPath id="clip-path-8"><rect class="cls-1" y="59.65" width="102.33" height="96.9"/></clipPath><linearGradient id="linear-gradient" x1="159.86" y1="25.12" x2="44.81" y2="91.54" gradientUnits="userSpaceOnUse"><stop offset="0" stop-color="#a4ccf4"/><stop offset="0.49" stop-color="#9bccfd"/><stop offset="0.56" stop-color="#9cf"/><stop offset="0.82" stop-color="#3d9cc1" stop-opacity="0.9"/><stop offset="1" stop-color="#0083ba" stop-opacity="0.6"/></linearGradient></defs><title>server_3</title><g id="Layer_2" data-name="Layer 2"><g id="Icons"><g class="cls-2"><path class="cls-3" d="M204.68,182.28v24c0,1.33-.9,2.67-2.66,3.69L108.38,264a14,14,0,0,1-12.73,0L2.63,210c-1.76-1-2.63-2.35-2.62-3.68v-24Z"/></g><g class="cls-4"><path class="cls-5" d="M204.67,182.28v24c0,1.33-.9,2.67-2.66,3.69L108.37,264a14,14,0,0,1-12.73,0L2.62,210c-1.76-1-2.63-2.35-2.62-3.68v-24Z"/></g><path class="cls-6" d="M96.3,124.53a14,14,0,0,1,12.73,0l93,54.07c3.5,2,3.48,5.34,0,7.37L108.38,240a14,14,0,0,1-12.73,0L2.62,186c-3.5-2-3.49-5.33,0-7.37Z"/><g class="cls-7"><path class="cls-3" d="M204.68,146.28v24c0,1.33-.9,2.67-2.66,3.69L108.38,228a14,14,0,0,1-12.73,0L2.63,174c-1.76-1-2.63-2.35-2.62-3.68v-24Z"/></g><g class="cls-8"><path class="cls-5" d="M204.67,146.28v24c0,1.33-.9,2.67-2.66,3.69L108.37,228a14,14,0,0,1-12.73,0L2.62,174c-1.76-1-2.63-2.35-2.62-3.68v-24Z"/></g><path class="cls-6" d="M96.3,88.53a14,14,0,0,1,12.73,0l93,54.07c3.5,2,3.48,5.34,0,7.37L108.38,204a14,14,0,0,1-12.73,0L2.62,150c-3.5-2-3.49-5.33,0-7.37Z"/><g class="cls-9"><path class="cls-3" d="M204.68,110.28v24c0,1.33-.9,2.67-2.66,3.69L108.38,192a14,14,0,0,1-12.73,0L2.63,138c-1.76-1-2.63-2.35-2.62-3.68v-24Z"/></g><g class="cls-10"><path class="cls-5" d="M204.67,110.28v24c0,1.33-.9,2.67-2.66,3.69L108.37,192a14,14,0,0,1-12.73,0L2.62,138c-1.76-1-2.63-2.35-2.62-3.68v-24Z"/></g><path class="cls-6" d="M96.3,52.53a14,14,0,0,1,12.73,0l93,54.07c3.5,2,3.48,5.34,0,7.37L108.38,168a14,14,0,0,1-12.73,0L2.62,114c-3.5-2-3.49-5.33,0-7.37Z"/><g class="cls-11"><path class="cls-12" d="M204.67,59.65V97.28c0,1.33-.9,2.67-2.66,3.69L108.37,155a14,14,0,0,1-12.73,0L2.62,101C.86,99.94,0,98.61,0,97.28V59.65Z"/></g><g class="cls-13"><path class="cls-14" d="M204.67,59.65V97.28c0,1.33-.9,2.67-2.66,3.69L108.37,155a14,14,0,0,1-12.73,0L2.62,101C.86,99.94,0,98.61,0,97.28V59.65Z"/></g><path class="cls-15" d="M96.3,1.53a14,14,0,0,1,12.73,0l93,54.07c3.5,2,3.48,5.34,0,7.37L108.38,117a14,14,0,0,1-12.73,0L2.62,63c-3.5-2-3.49-5.33,0-7.37Z"/><line class="cls-16" x1="192.34" y1="89.29" x2="192.34" y2="78.65"/><line class="cls-16" x1="196.09" y1="83.75" x2="196.09" y2="76.56"/><line class="cls-16" x1="188.11" y1="85.03" x2="188.11" y2="81.15"/><path class="cls-17" d="M97,16.49a12.24,12.24,0,0,1,11.11,0l66.45,38.62c3.06,1.78,3,4.66,0,6.44l-66.89,38.62a12.25,12.25,0,0,1-11.11,0L30.09,61.55c-3.06-1.78-3-4.66,0-6.44Z"/><line class="cls-16" x1="119.5" y1="122" x2="139.8" y2="110.28"/><line class="cls-16" x1="119.5" y1="130" x2="139.8" y2="118.28"/><line class="cls-16" x1="119.5" y1="138" x2="139.8" y2="126.28"/><path class="cls-18" d="M81.45,53.23a2.28,2.28,0,0,1,.83-.27l35.85-5c1.27-.18,2.41.48,2.09,1.22l-8.74,20.75a1,1,0,0,1-.46.48,2.71,2.71,0,0,1-2.47,0L81.44,54.66C80.72,54.24,80.81,53.6,81.45,53.23Z"/></g></g></svg>