<svg id="Layer_1" data-name="Layer 1" xmlns="http://www.w3.org/2000/svg" xmlns:xlink="http://www.w3.org/1999/xlink" viewBox="0 0 52.5 60.24"><defs><style>.cls-1,.cls-3,.cls-5{fill:none;}.cls-2{fill:#dff0fe;}.cls-3{stroke:#3fa9f5;}.cls-3,.cls-5{stroke-miterlimit:10;}.cls-4{clip-path:url(#clip-path);}.cls-5{stroke:#4b8ac8;}</style><clipPath id="clip-path" transform="translate(-2.5 -1.88)"><polygon class="cls-1" points="46.5 12.5 38.5 20.5 38.5 42.5 46.5 50.5 56.5 40.5 56.5 19.5 46.5 12.5"/></clipPath></defs><title>AudioFile</title><path class="cls-2" d="M35,3,16,20H7.22a4.28,4.28,0,0,0-3.44,1.63A3.86,3.86,0,0,0,3,24V41a2.94,2.94,0,0,0,3,3H16L35,61Z" transform="translate(-2.5 -1.88)"/><line class="cls-2" x1="13" y1="17.62" x2="13" y2="41.62"/><path class="cls-3" d="M35,3,16,20H7.22a4.28,4.28,0,0,0-3.44,1.63A3.86,3.86,0,0,0,3,24V41a2.94,2.94,0,0,0,3,3H16L35,61Z" transform="translate(-2.5 -1.88)"/><line class="cls-3" x1="13.5" y1="18.12" x2="13.5" y2="42.12"/><g class="cls-4"><circle class="cls-5" cx="31" cy="29.62" r="13"/><circle class="cls-5" cx="31" cy="29.62" r="17"/><circle class="cls-5" cx="31" cy="29.62" r="21"/></g></svg>