<svg xmlns="http://www.w3.org/2000/svg" viewBox="0 0 773.32 449.42"><defs><style>.cls-1,.cls-2,.cls-3,.cls-4,.cls-5,.cls-6,.cls-7,.cls-8,.cls-9{fill:none;stroke:#bdccd4;stroke-linecap:round;stroke-miterlimit:10;stroke-width:2.5px;}.cls-2{stroke-dasharray:3.14 9.42 15.71 9.42;}.cls-3{stroke-dasharray:3.14 9.42 3.14 9.42 15.71 9.42;}.cls-4{stroke-dasharray:3.55 10.66 17.76 10.66;}.cls-5{stroke-dasharray:3.55 10.66 3.55 10.66 17.76 10.66;}.cls-6{stroke-dasharray:2.71 8.13 13.56 8.13;}.cls-7{stroke-dasharray:2.71 8.13 2.71 8.13 13.56 8.13;}.cls-8{stroke-dasharray:2.78 8.35 13.91 8.35;}.cls-9{stroke-dasharray:2.78 8.35 2.78 8.35 13.91 8.35;}.cls-10{fill:#a3b0b6;}</style></defs><title>server_traffic_1</title><g id="Layer_2" data-name="Layer 2"><g id="Lines"><line class="cls-1" x1="229.89" y1="314.22" x2="231.19" y2="313.47"/><line class="cls-2" x1="239.35" y1="308.76" x2="267.92" y2="292.27"/><line class="cls-3" x1="272" y1="289.91" x2="311.45" y2="267.14"/><line class="cls-1" x1="315.53" y1="264.78" x2="316.83" y2="264.03"/><line class="cls-1" x1="454.49" y1="264.16" x2="455.78" y2="264.91"/><line class="cls-4" x1="465" y1="270.26" x2="497.25" y2="289"/><line class="cls-5" x1="501.85" y1="291.68" x2="546.39" y2="317.56"/><line class="cls-1" x1="550.99" y1="320.24" x2="552.29" y2="320.99"/><line class="cls-1" x1="464.77" y1="178.62" x2="466.06" y2="177.87"/><line class="cls-6" x1="473.11" y1="173.8" x2="497.77" y2="159.57"/><line class="cls-7" x1="501.29" y1="157.53" x2="572.91" y2="116.18"/><line class="cls-1" x1="576.43" y1="114.15" x2="577.73" y2="113.4"/><line class="cls-1" x1="193.15" y1="112.29" x2="194.45" y2="113.04"/><line class="cls-8" x1="201.67" y1="117.23" x2="226.93" y2="131.91"/><line class="cls-9" x1="230.54" y1="134.01" x2="303.91" y2="176.65"/><line class="cls-1" x1="307.52" y1="178.75" x2="308.82" y2="179.5"/><path class="cls-10" d="M377.65,154.41c4.71-2.72,12.36-2.72,17,0l111.64,64.88c4.68,2.72,4.66,7.15-.06,9.87L393.9,294c-4.71,2.72-12.36,2.72-17,0L265.22,229.16c-4.68-2.72-4.66-7.15.06-9.87Zm126.91,65.9L392.91,155.43a14.9,14.9,0,0,0-13.5,0L267,220.31c-3.74,2.16-3.75,5.67,0,7.82L378.64,293a14.9,14.9,0,0,0,13.5,0l112.37-64.88c3.74-2.16,3.75-5.67,0-7.82"/><path class="cls-10" d="M657.73,2.86a2.34,2.34,0,0,1,2.13,0L662,4.09a.65.65,0,0,1,0,1.23,2.33,2.33,0,0,1-2.12,0l-2.11-1.23A.65.65,0,0,1,657.73,2.86Z"/><path class="cls-10" d="M666.19,7.78a2.32,2.32,0,0,1,2.12,0L670.43,9c.58.34.58.88,0,1.23a2.32,2.32,0,0,1-2.11,0L666.18,9A.65.65,0,0,1,666.19,7.78Z"/><path class="cls-10" d="M674.65,12.69a2.34,2.34,0,0,1,2.13,0l10.57,6.14a.65.65,0,0,1,0,1.23,2.33,2.33,0,0,1-2.12,0l-10.57-6.14A.65.65,0,0,1,674.65,12.69Z"/><path class="cls-10" d="M691.56,22.52a2.32,2.32,0,0,1,2.12,0l2.12,1.23c.58.34.58.88,0,1.23a2.32,2.32,0,0,1-2.11,0l-2.12-1.23A.65.65,0,0,1,691.56,22.52Z"/><path class="cls-10" d="M700,27.44a2.34,2.34,0,0,1,2.13,0l2.11,1.23a.65.65,0,0,1,0,1.23,2.33,2.33,0,0,1-2.12,0L700,28.66A.65.65,0,0,1,700,27.44Z"/><path class="cls-10" d="M708.47,32.35a2.34,2.34,0,0,1,2.13,0l10.57,6.14c.58.34.58.88,0,1.23a2.32,2.32,0,0,1-2.11,0l-10.57-6.14A.65.65,0,0,1,708.47,32.35Z"/><path class="cls-10" d="M725.39,42.18a2.34,2.34,0,0,1,2.13,0l2.11,1.23a.65.65,0,0,1,0,1.23,2.33,2.33,0,0,1-2.12,0l-2.11-1.23A.65.65,0,0,1,725.39,42.18Z"/><path class="cls-10" d="M733.85,47.09a2.34,2.34,0,0,1,2.13,0l2.11,1.23a.65.65,0,0,1,0,1.23,2.33,2.33,0,0,1-2.12,0l-2.11-1.23A.65.65,0,0,1,733.85,47.09Z"/><path class="cls-10" d="M742.31,52a2.32,2.32,0,0,1,2.12,0L755,58.15a.65.65,0,0,1,0,1.23,2.33,2.33,0,0,1-2.12,0L742.3,53.24A.65.65,0,0,1,742.31,52Z"/><path class="cls-10" d="M759.22,61.84a2.34,2.34,0,0,1,2.13,0l2.11,1.23a.65.65,0,0,1,0,1.23,2.33,2.33,0,0,1-2.12,0l-2.11-1.23A.65.65,0,0,1,759.22,61.84Z"/><path class="cls-10" d="M767.68,66.76a2.32,2.32,0,0,1,2.12,0l.36.21a9.38,9.38,0,0,1,1.75,1.28c.37.35.27.79-.22,1.07a1.69,1.69,0,0,1-.27.13,2.21,2.21,0,0,1-2.06-.28,7.48,7.48,0,0,0-1.32-1l-.36-.21A.65.65,0,0,1,767.68,66.76Z"/><path class="cls-10" d="M651.39.06c.83.06,1.4.49,1.3,1a.84.84,0,0,1-.43.5,2.23,2.23,0,0,1-1.25.25,14,14,0,0,0-7.77,1.54l-3.65,2.1a2.35,2.35,0,0,1-2.13,0c-.58-.34-.57-.89,0-1.23l3.65-2.1A18.47,18.47,0,0,1,651.39.06Z"/><path class="cls-10" d="M770.76,73.1a2.33,2.33,0,0,1,1.47-.22c.79.13,1.26.61,1,1.08A7.65,7.65,0,0,1,770.1,77L768,78.27a2.35,2.35,0,0,1-2.13,0c-.58-.34-.57-.89,0-1.23L768,75.81a5.8,5.8,0,0,0,2.39-2.33A.93.93,0,0,1,770.76,73.1Z"/><path class="cls-10" d="M759.48,80.73a2.33,2.33,0,0,1,2.12,0,.65.65,0,0,1,0,1.23l-2.13,1.23a2.35,2.35,0,0,1-2.13,0c-.58-.34-.57-.89,0-1.23Z"/><path class="cls-10" d="M633.22,7.88a.65.65,0,0,1,0,1.23l-2.13,1.23a2.35,2.35,0,0,1-2.13,0c-.58-.34-.57-.89,0-1.23l2.13-1.23A2.33,2.33,0,0,1,633.22,7.88Z"/><path class="cls-10" d="M751,85.64a2.32,2.32,0,0,1,2.11,0,.65.65,0,0,1,0,1.23L742.44,93a2.35,2.35,0,0,1-2.13,0c-.58-.34-.57-.89,0-1.23Z"/><path class="cls-10" d="M733.94,95.47a2.33,2.33,0,0,1,2.12,0,.65.65,0,0,1,0,1.23l-2.13,1.23a2.35,2.35,0,0,1-2.13,0c-.58-.34-.57-.89,0-1.23Z"/><path class="cls-10" d="M616.19,17.71a.65.65,0,0,1,0,1.23l-10.64,6.14a2.35,2.35,0,0,1-2.13,0c-.58-.34-.57-.89,0-1.23l10.64-6.14A2.33,2.33,0,0,1,616.19,17.71Z"/><path class="cls-10" d="M725.43,100.39a2.32,2.32,0,0,1,2.11,0,.65.65,0,0,1,0,1.23l-2.13,1.23a2.33,2.33,0,0,1-2.12,0,.65.65,0,0,1,0-1.22Z"/><path class="cls-10" d="M599.16,27.54a.65.65,0,0,1,0,1.23L597,30a2.33,2.33,0,0,1-2.12,0,.65.65,0,0,1,0-1.22L597,27.54A2.32,2.32,0,0,1,599.16,27.54Z"/><path class="cls-10" d="M716.91,105.3a2.32,2.32,0,0,1,2.12,0,.65.65,0,0,1,0,1.23l-10.64,6.14a2.35,2.35,0,0,1-2.13,0c-.58-.34-.57-.89,0-1.23Z"/><path class="cls-10" d="M699.89,115.13a2.32,2.32,0,0,1,2.11,0,.65.65,0,0,1,0,1.23l-2.13,1.23a2.33,2.33,0,0,1-2.12,0,.65.65,0,0,1,0-1.22Z"/><path class="cls-10" d="M582.14,37.37a.65.65,0,0,1,0,1.23l-10.64,6.14a2.33,2.33,0,0,1-2.12,0,.65.65,0,0,1,0-1.22L580,37.37A2.33,2.33,0,0,1,582.14,37.37Z"/><path class="cls-10" d="M691.38,120a2.32,2.32,0,0,1,2.12,0,.65.65,0,0,1,0,1.23l-2.13,1.23a2.35,2.35,0,0,1-2.13,0c-.58-.34-.57-.89,0-1.23Z"/><path class="cls-10" d="M565.11,47.2a.65.65,0,0,1,0,1.23L563,49.65a2.35,2.35,0,0,1-2.13,0c-.58-.34-.57-.89,0-1.23L563,47.2A2.33,2.33,0,0,1,565.11,47.2Z"/><path class="cls-10" d="M682.87,125a2.33,2.33,0,0,1,2.12,0,.65.65,0,0,1,0,1.23l-10.64,6.14a2.33,2.33,0,0,1-2.12,0,.65.65,0,0,1,0-1.22Z"/><path class="cls-10" d="M665.84,134.79a2.32,2.32,0,0,1,2.12,0,.65.65,0,0,1,0,1.23l-2.13,1.23a2.35,2.35,0,0,1-2.13,0c-.58-.34-.57-.89,0-1.23Z"/><path class="cls-10" d="M548.08,57a.65.65,0,0,1,0,1.23L537.44,64.4a2.35,2.35,0,0,1-2.13,0c-.58-.34-.57-.89,0-1.23L546,57A2.32,2.32,0,0,1,548.08,57Z"/><path class="cls-10" d="M657.33,139.71a2.33,2.33,0,0,1,2.12,0,.65.65,0,0,1,0,1.23l-1.7,1-.49.27a2.34,2.34,0,0,1-2.12-.06c-.53-.35-.5-.87.06-1.2l.06,0,.38-.2Z"/><path class="cls-10" d="M531.06,68.09l-.19.11a7.33,7.33,0,0,0-1.44,1.08,1.16,1.16,0,0,1-.23.17,2.38,2.38,0,0,1-1.83.13c-.71-.24-1-.77-.53-1.19A9.73,9.73,0,0,1,528.76,67l.19-.11a2.33,2.33,0,0,1,2.12,0A.65.65,0,0,1,531.06,68.09Z"/><path class="cls-10" d="M642.47,140.69a12.89,12.89,0,0,0,5.61,1.55c.82,0,1.42.47,1.33,1a.81.81,0,0,1-.43.53,2.21,2.21,0,0,1-1.21.25,17,17,0,0,1-7.42-2L635,138.79a.65.65,0,0,1,0-1.23,2.34,2.34,0,0,1,2.13,0Z"/><path class="cls-10" d="M630.75,135.11a2.33,2.33,0,0,1-2.12,0l-2.11-1.23a.65.65,0,0,1,0-1.23,2.33,2.33,0,0,1,2.13,0l2.11,1.23A.65.65,0,0,1,630.75,135.11Z"/><path class="cls-10" d="M622.28,130.19a2.32,2.32,0,0,1-2.11,0L618.05,129a.65.65,0,0,1,0-1.22,2.32,2.32,0,0,1,2.12,0L622.3,129C622.88,129.3,622.88,129.85,622.28,130.19Z"/><path class="cls-10" d="M613.83,125.28a2.33,2.33,0,0,1-2.12,0l-10.57-6.14a.65.65,0,0,1,0-1.22,2.32,2.32,0,0,1,2.12,0L613.84,124A.65.65,0,0,1,613.83,125.28Z"/><path class="cls-10" d="M596.91,115.45a2.32,2.32,0,0,1-2.12,0l-2.11-1.23a.65.65,0,0,1,0-1.23,2.34,2.34,0,0,1,2.13,0l2.11,1.23C597.51,114.56,597.5,115.1,596.91,115.45Z"/><path class="cls-10" d="M588.46,110.53a2.33,2.33,0,0,1-2.12,0l-2.11-1.23a.65.65,0,0,1,0-1.23,2.34,2.34,0,0,1,2.13,0l2.11,1.23A.65.65,0,0,1,588.46,110.53Z"/><path class="cls-10" d="M580,105.62a2.33,2.33,0,0,1-2.12,0l-10.57-6.15a.65.65,0,0,1,0-1.22,2.32,2.32,0,0,1,2.12,0L580,104.39A.65.65,0,0,1,580,105.62Z"/><path class="cls-10" d="M563.08,95.79a2.33,2.33,0,0,1-2.12,0l-2.11-1.23a.65.65,0,0,1,0-1.23,2.34,2.34,0,0,1,2.13,0l2.11,1.23A.65.65,0,0,1,563.08,95.79Z"/><path class="cls-10" d="M554.63,90.87a2.33,2.33,0,0,1-2.12,0l-2.11-1.23a.65.65,0,0,1,0-1.23,2.33,2.33,0,0,1,2.13,0l2.11,1.23A.65.65,0,0,1,554.63,90.87Z"/><path class="cls-10" d="M546.17,86a2.32,2.32,0,0,1-2.11,0l-10.57-6.14a.65.65,0,0,1,0-1.23,2.34,2.34,0,0,1,2.13,0l10.57,6.14C546.76,85.07,546.76,85.61,546.17,86Z"/><path class="cls-10" d="M529.19,76.15a2.26,2.26,0,0,1-2.08-.25,6.5,6.5,0,0,1-1.44-1.79c-.17-.31,0-.65.38-.87a1.94,1.94,0,0,1,.62-.22,1.84,1.84,0,0,1,1.87.57,4.89,4.89,0,0,0,1.09,1.35c.39.35.29.8-.2,1.09Z"/><path class="cls-10" d="M554.47,54.57a2.35,2.35,0,0,1-2.13,0c-.58-.34-.57-.89,0-1.23l2.13-1.23a2.33,2.33,0,0,1,2.12,0,.65.65,0,0,1,0,1.23Z"/><path class="cls-10" d="M588.52,34.91a2.35,2.35,0,0,1-2.13,0c-.58-.34-.57-.89,0-1.23l2.13-1.23a2.33,2.33,0,0,1,2.12,0,.65.65,0,0,1,0,1.23Z"/><path class="cls-10" d="M622.57,15.25a2.33,2.33,0,0,1-2.12,0,.65.65,0,0,1,0-1.22l2.13-1.23a2.32,2.32,0,0,1,2.11,0,.65.65,0,0,1,0,1.23Z"/><path class="cls-10" d="M132.13,2.86a2.35,2.35,0,0,1,2.13,0l2.11,1.23a.65.65,0,0,1,0,1.23,2.33,2.33,0,0,1-2.12,0l-2.11-1.23A.65.65,0,0,1,132.13,2.86Z"/><path class="cls-10" d="M140.59,7.78a2.33,2.33,0,0,1,2.12,0L144.83,9c.58.34.57.89,0,1.23a2.32,2.32,0,0,1-2.11,0L140.58,9A.65.65,0,0,1,140.59,7.78Z"/><path class="cls-10" d="M149,12.69a2.35,2.35,0,0,1,2.13,0l10.57,6.14a.65.65,0,0,1,0,1.23,2.33,2.33,0,0,1-2.12,0L149,13.92A.65.65,0,0,1,149,12.69Z"/><path class="cls-10" d="M166,22.52a2.33,2.33,0,0,1,2.12,0l2.12,1.23c.58.34.57.89,0,1.23a2.32,2.32,0,0,1-2.11,0L166,23.75A.65.65,0,0,1,166,22.52Z"/><path class="cls-10" d="M174.42,27.44a2.35,2.35,0,0,1,2.13,0l2.11,1.23a.65.65,0,0,1,0,1.23,2.33,2.33,0,0,1-2.12,0l-2.11-1.23A.65.65,0,0,1,174.42,27.44Z"/><path class="cls-10" d="M182.87,32.35a2.35,2.35,0,0,1,2.13,0l10.57,6.14c.58.34.57.89,0,1.23a2.32,2.32,0,0,1-2.11,0l-10.57-6.14A.65.65,0,0,1,182.87,32.35Z"/><path class="cls-10" d="M199.79,42.18a2.35,2.35,0,0,1,2.13,0L204,43.41a.65.65,0,0,1,0,1.23,2.33,2.33,0,0,1-2.12,0l-2.11-1.23A.65.65,0,0,1,199.79,42.18Z"/><path class="cls-10" d="M208.25,47.09a2.35,2.35,0,0,1,2.13,0l2.11,1.23a.65.65,0,0,1,0,1.23,2.33,2.33,0,0,1-2.12,0l-2.11-1.23A.65.65,0,0,1,208.25,47.09Z"/><path class="cls-10" d="M216.71,52a2.33,2.33,0,0,1,2.12,0l10.57,6.15a.65.65,0,0,1,0,1.23,2.33,2.33,0,0,1-2.12,0L216.7,53.24A.65.65,0,0,1,216.71,52Z"/><path class="cls-10" d="M233.62,61.84a2.35,2.35,0,0,1,2.13,0l2.11,1.23a.65.65,0,0,1,0,1.23,2.33,2.33,0,0,1-2.12,0l-2.11-1.23A.65.65,0,0,1,233.62,61.84Z"/><path class="cls-10" d="M242.08,66.76a2.33,2.33,0,0,1,2.12,0l.36.21a9.38,9.38,0,0,1,1.75,1.28c.37.35.27.79-.22,1.07a1.69,1.69,0,0,1-.27.13,2.2,2.2,0,0,1-2.06-.28,7.48,7.48,0,0,0-1.32-1l-.36-.21A.65.65,0,0,1,242.08,66.76Z"/><path class="cls-10" d="M125.79.06c.83.06,1.4.49,1.3,1a.84.84,0,0,1-.43.5,2.24,2.24,0,0,1-1.25.25,14,14,0,0,0-7.77,1.54L114,5.42a2.35,2.35,0,0,1-2.13,0c-.58-.34-.57-.89,0-1.23l3.65-2.1A18.47,18.47,0,0,1,125.79.06Z"/><path class="cls-10" d="M245.16,73.1a2.3,2.3,0,0,1,1.47-.22c.79.13,1.26.61,1,1.07A7.66,7.66,0,0,1,244.5,77l-2.13,1.23a2.35,2.35,0,0,1-2.13,0c-.58-.34-.57-.89,0-1.23l2.13-1.23a5.8,5.8,0,0,0,2.39-2.33A.93.93,0,0,1,245.16,73.1Z"/><path class="cls-10" d="M233.88,80.73a2.33,2.33,0,0,1,2.12,0A.65.65,0,0,1,236,82l-2.13,1.23a2.35,2.35,0,0,1-2.13,0c-.58-.34-.57-.89,0-1.23Z"/><path class="cls-10" d="M107.62,7.88a.65.65,0,0,1,0,1.23l-2.13,1.23a2.35,2.35,0,0,1-2.13,0c-.58-.34-.57-.89,0-1.23l2.13-1.23A2.33,2.33,0,0,1,107.62,7.88Z"/><path class="cls-10" d="M225.37,85.64a2.32,2.32,0,0,1,2.11,0,.65.65,0,0,1,0,1.23L216.84,93a2.35,2.35,0,0,1-2.13,0c-.58-.34-.57-.89,0-1.23Z"/><path class="cls-10" d="M208.34,95.47a2.33,2.33,0,0,1,2.12,0,.65.65,0,0,1,0,1.23l-2.13,1.23a2.35,2.35,0,0,1-2.13,0c-.58-.34-.57-.89,0-1.23Z"/><path class="cls-10" d="M90.59,17.71a.65.65,0,0,1,0,1.23L79.95,25.08a2.35,2.35,0,0,1-2.13,0c-.58-.34-.57-.89,0-1.23l10.64-6.14A2.33,2.33,0,0,1,90.59,17.71Z"/><path class="cls-10" d="M199.83,100.39a2.32,2.32,0,0,1,2.11,0,.65.65,0,0,1,0,1.23l-2.13,1.23a2.33,2.33,0,0,1-2.12,0,.65.65,0,0,1,0-1.22Z"/><path class="cls-10" d="M73.56,27.54a.65.65,0,0,1,0,1.23L71.43,30a2.33,2.33,0,0,1-2.12,0,.65.65,0,0,1,0-1.22l2.13-1.23A2.32,2.32,0,0,1,73.56,27.54Z"/><path class="cls-10" d="M191.32,105.3a2.33,2.33,0,0,1,2.12,0,.65.65,0,0,1,0,1.23l-10.64,6.14a2.35,2.35,0,0,1-2.13,0c-.58-.34-.57-.89,0-1.23Z"/><path class="cls-10" d="M174.29,115.13a2.32,2.32,0,0,1,2.11,0,.65.65,0,0,1,0,1.23l-2.13,1.23a2.33,2.33,0,0,1-2.12,0,.65.65,0,0,1,0-1.22Z"/><path class="cls-10" d="M56.54,37.37a.65.65,0,0,1,0,1.23L45.89,44.74a2.33,2.33,0,0,1-2.12,0,.65.65,0,0,1,0-1.22l10.64-6.14A2.33,2.33,0,0,1,56.54,37.37Z"/><path class="cls-10" d="M165.78,120a2.33,2.33,0,0,1,2.12,0,.65.65,0,0,1,0,1.23l-2.13,1.23a2.35,2.35,0,0,1-2.13,0c-.58-.34-.57-.89,0-1.23Z"/><path class="cls-10" d="M39.51,47.2a.65.65,0,0,1,0,1.23l-2.13,1.23a2.35,2.35,0,0,1-2.13,0c-.58-.34-.57-.89,0-1.23l2.13-1.23A2.33,2.33,0,0,1,39.51,47.2Z"/><path class="cls-10" d="M157.27,125a2.33,2.33,0,0,1,2.12,0,.65.65,0,0,1,0,1.23l-10.64,6.14a2.33,2.33,0,0,1-2.12,0,.65.65,0,0,1,0-1.22Z"/><path class="cls-10" d="M140.24,134.79a2.33,2.33,0,0,1,2.12,0,.65.65,0,0,1,0,1.23l-2.13,1.23a2.35,2.35,0,0,1-2.13,0c-.58-.34-.57-.89,0-1.23Z"/><path class="cls-10" d="M22.48,57a.65.65,0,0,1,0,1.23L11.84,64.4a2.35,2.35,0,0,1-2.13,0c-.58-.34-.57-.89,0-1.23L20.37,57A2.32,2.32,0,0,1,22.48,57Z"/><path class="cls-10" d="M131.73,139.71a2.33,2.33,0,0,1,2.12,0,.65.65,0,0,1,0,1.23l-1.7,1-.49.27a2.34,2.34,0,0,1-2.12-.06c-.53-.35-.5-.87.06-1.2l.06,0,.38-.2Z"/><path class="cls-10" d="M5.46,68.09l-.19.11a7.29,7.29,0,0,0-1.44,1.08,1.16,1.16,0,0,1-.23.17,2.38,2.38,0,0,1-1.83.13c-.72-.24-1-.77-.53-1.19A9.73,9.73,0,0,1,3.16,67l.19-.11a2.33,2.33,0,0,1,2.12,0A.65.65,0,0,1,5.46,68.09Z"/><path class="cls-10" d="M116.87,140.69a12.89,12.89,0,0,0,5.61,1.55c.82,0,1.42.47,1.33,1a.81.81,0,0,1-.43.53,2.21,2.21,0,0,1-1.21.25,17,17,0,0,1-7.42-2l-5.37-3.12a.65.65,0,0,1,0-1.23,2.35,2.35,0,0,1,2.13,0Z"/><path class="cls-10" d="M105.15,135.11a2.33,2.33,0,0,1-2.12,0l-2.11-1.23a.65.65,0,0,1,0-1.23,2.34,2.34,0,0,1,2.13,0l2.11,1.23A.65.65,0,0,1,105.15,135.11Z"/><path class="cls-10" d="M96.68,130.19a2.32,2.32,0,0,1-2.11,0L92.45,129a.65.65,0,0,1,0-1.22,2.33,2.33,0,0,1,2.12,0L96.7,129C97.28,129.3,97.27,129.85,96.68,130.19Z"/><path class="cls-10" d="M88.23,125.28a2.33,2.33,0,0,1-2.12,0l-10.57-6.14a.65.65,0,0,1,0-1.22,2.33,2.33,0,0,1,2.12,0L88.24,124A.65.65,0,0,1,88.23,125.28Z"/><path class="cls-10" d="M71.31,115.45a2.32,2.32,0,0,1-2.12,0l-2.11-1.23a.65.65,0,0,1,0-1.23,2.35,2.35,0,0,1,2.13,0l2.11,1.23A.65.65,0,0,1,71.31,115.45Z"/><path class="cls-10" d="M62.86,110.53a2.33,2.33,0,0,1-2.12,0l-2.11-1.23a.65.65,0,0,1,0-1.23,2.35,2.35,0,0,1,2.13,0l2.11,1.23A.65.65,0,0,1,62.86,110.53Z"/><path class="cls-10" d="M54.4,105.62a2.33,2.33,0,0,1-2.12,0L41.71,99.47a.65.65,0,0,1,0-1.22,2.33,2.33,0,0,1,2.12,0l10.57,6.15A.65.65,0,0,1,54.4,105.62Z"/><path class="cls-10" d="M37.48,95.79a2.33,2.33,0,0,1-2.12,0l-2.11-1.23a.65.65,0,0,1,0-1.23,2.35,2.35,0,0,1,2.13,0l2.11,1.23A.65.65,0,0,1,37.48,95.79Z"/><path class="cls-10" d="M29,90.87a2.33,2.33,0,0,1-2.12,0L24.8,89.64a.65.65,0,0,1,0-1.23,2.34,2.34,0,0,1,2.13,0L29,89.64A.65.65,0,0,1,29,90.87Z"/><path class="cls-10" d="M20.57,86a2.32,2.32,0,0,1-2.11,0L7.88,79.81a.65.65,0,0,1,0-1.23,2.35,2.35,0,0,1,2.13,0l10.57,6.14C21.16,85.07,21.15,85.62,20.57,86Z"/><path class="cls-10" d="M3.59,76.15a2.25,2.25,0,0,1-2.08-.25A6.69,6.69,0,0,1,.06,74.12c-.17-.32,0-.65.38-.87A1.94,1.94,0,0,1,1.07,73a1.84,1.84,0,0,1,1.87.57A4.73,4.73,0,0,0,4,74.95c.39.35.29.8-.2,1.09Z"/><path class="cls-10" d="M28.87,54.57a2.35,2.35,0,0,1-2.13,0c-.58-.34-.57-.89,0-1.23l2.13-1.23a2.33,2.33,0,0,1,2.12,0,.65.65,0,0,1,0,1.23Z"/><path class="cls-10" d="M62.92,34.91a2.35,2.35,0,0,1-2.13,0c-.58-.34-.57-.89,0-1.23l2.13-1.23a2.33,2.33,0,0,1,2.12,0,.65.65,0,0,1,0,1.23Z"/><path class="cls-10" d="M97,15.25a2.33,2.33,0,0,1-2.12,0,.65.65,0,0,1,0-1.22L97,12.79a2.32,2.32,0,0,1,2.11,0,.65.65,0,0,1,0,1.23Z"/><path class="cls-10" d="M132.13,308.31a2.33,2.33,0,0,1,2.12,0l2.12,1.23c.58.34.57.89,0,1.23a2.32,2.32,0,0,1-2.11,0l-2.12-1.23A.65.65,0,0,1,132.13,308.31Z"/><path class="cls-10" d="M140.59,313.22a2.35,2.35,0,0,1,2.13,0l2.11,1.23a.65.65,0,0,1,0,1.23,2.33,2.33,0,0,1-2.12,0l-2.11-1.23A.65.65,0,0,1,140.59,313.22Z"/><path class="cls-10" d="M149,318.13a2.35,2.35,0,0,1,2.13,0l10.57,6.15c.58.34.57.89,0,1.23a2.32,2.32,0,0,1-2.11,0L149,319.36A.65.65,0,0,1,149,318.13Z"/><path class="cls-10" d="M166,328a2.35,2.35,0,0,1,2.13,0l2.11,1.23a.65.65,0,0,1,0,1.23,2.33,2.33,0,0,1-2.12,0L166,329.19A.65.65,0,0,1,166,328Z"/><path class="cls-10" d="M174.42,332.88a2.35,2.35,0,0,1,2.13,0l2.11,1.23a.65.65,0,0,1,0,1.23,2.33,2.33,0,0,1-2.12,0l-2.11-1.23A.65.65,0,0,1,174.42,332.88Z"/><path class="cls-10" d="M182.88,337.8a2.33,2.33,0,0,1,2.12,0l10.57,6.14a.65.65,0,0,1,0,1.23,2.33,2.33,0,0,1-2.12,0L182.87,339A.65.65,0,0,1,182.88,337.8Z"/><path class="cls-10" d="M199.79,347.62a2.35,2.35,0,0,1,2.13,0l2.11,1.23a.65.65,0,0,1,0,1.23,2.33,2.33,0,0,1-2.12,0l-2.11-1.23A.65.65,0,0,1,199.79,347.62Z"/><path class="cls-10" d="M208.25,352.54a2.33,2.33,0,0,1,2.12,0l2.12,1.23c.58.34.57.89,0,1.23a2.32,2.32,0,0,1-2.11,0l-2.12-1.23A.65.65,0,0,1,208.25,352.54Z"/><path class="cls-10" d="M216.7,357.46a2.35,2.35,0,0,1,2.13,0l10.57,6.14a.65.65,0,0,1,0,1.23,2.33,2.33,0,0,1-2.12,0l-10.57-6.14A.65.65,0,0,1,216.7,357.46Z"/><path class="cls-10" d="M233.62,367.29a2.33,2.33,0,0,1,2.12,0l2.12,1.23c.58.34.57.89,0,1.23a2.32,2.32,0,0,1-2.11,0l-2.12-1.23A.65.65,0,0,1,233.62,367.29Z"/><path class="cls-10" d="M242.08,372.2a2.35,2.35,0,0,1,2.13,0l.36.21a9.32,9.32,0,0,1,1.74,1.28c.37.35.27.79-.21,1.07l-.27.12a2.21,2.21,0,0,1-2.06-.28,7.58,7.58,0,0,0-1.32-1l-.36-.21A.65.65,0,0,1,242.08,372.2Z"/><path class="cls-10" d="M125.79,305.5c.83.06,1.4.5,1.3,1a.83.83,0,0,1-.43.51,2.25,2.25,0,0,1-1.25.25,14,14,0,0,0-7.77,1.54l-3.65,2.1a2.35,2.35,0,0,1-2.13,0,.65.65,0,0,1,0-1.23l3.65-2.1A18.47,18.47,0,0,1,125.79,305.5Z"/><path class="cls-10" d="M245.16,378.55a2.3,2.3,0,0,1,1.47-.22c.8.13,1.26.61,1,1.07a7.65,7.65,0,0,1-3.15,3.09l-2.13,1.23a2.35,2.35,0,0,1-2.13,0,.65.65,0,0,1,0-1.23l2.13-1.23a5.8,5.8,0,0,0,2.39-2.33A.93.93,0,0,1,245.16,378.55Z"/><path class="cls-10" d="M233.88,386.17a2.35,2.35,0,0,1,2.13,0,.65.65,0,0,1,0,1.23l-2.13,1.23a2.35,2.35,0,0,1-2.13,0,.65.65,0,0,1,0-1.23Z"/><path class="cls-10" d="M107.62,313.32a.65.65,0,0,1,0,1.23l-2.13,1.23a2.35,2.35,0,0,1-2.13,0,.65.65,0,0,1,0-1.23l2.13-1.23A2.35,2.35,0,0,1,107.62,313.32Z"/><path class="cls-10" d="M225.37,391.09a2.33,2.33,0,0,1,2.12,0,.65.65,0,0,1,0,1.23l-10.64,6.14a2.35,2.35,0,0,1-2.13,0,.65.65,0,0,1,0-1.23Z"/><path class="cls-10" d="M208.34,400.92a2.35,2.35,0,0,1,2.13,0,.65.65,0,0,1,0,1.23l-2.13,1.23a2.35,2.35,0,0,1-2.13,0,.65.65,0,0,1,0-1.23Z"/><path class="cls-10" d="M90.59,323.16a.65.65,0,0,1,0,1.23l-10.64,6.14a2.35,2.35,0,0,1-2.13,0,.65.65,0,0,1,0-1.23l10.64-6.14A2.35,2.35,0,0,1,90.59,323.16Z"/><path class="cls-10" d="M199.83,405.83a2.33,2.33,0,0,1,2.12,0,.65.65,0,0,1,0,1.23l-2.13,1.23a2.33,2.33,0,0,1-2.12,0,.65.65,0,0,1,0-1.23Z"/><path class="cls-10" d="M73.57,333a.65.65,0,0,1,0,1.23l-2.13,1.23a2.33,2.33,0,0,1-2.12,0,.65.65,0,0,1,0-1.23L71.45,333A2.33,2.33,0,0,1,73.57,333Z"/><path class="cls-10" d="M191.31,410.75a2.35,2.35,0,0,1,2.13,0,.65.65,0,0,1,0,1.23l-10.64,6.14a2.35,2.35,0,0,1-2.13,0,.65.65,0,0,1,0-1.23Z"/><path class="cls-10" d="M174.29,420.57a2.33,2.33,0,0,1,2.12,0,.65.65,0,0,1,0,1.23L174.28,423a2.33,2.33,0,0,1-2.12,0,.65.65,0,0,1,0-1.23Z"/><path class="cls-10" d="M56.54,342.81a.65.65,0,0,1,0,1.23l-10.64,6.14a2.33,2.33,0,0,1-2.12,0,.65.65,0,0,1,0-1.23l10.64-6.14A2.35,2.35,0,0,1,56.54,342.81Z"/><path class="cls-10" d="M165.77,425.49a2.35,2.35,0,0,1,2.13,0,.65.65,0,0,1,0,1.23L165.77,428a2.35,2.35,0,0,1-2.13,0,.65.65,0,0,1,0-1.23Z"/><path class="cls-10" d="M39.52,352.64a.65.65,0,0,1,0,1.23l-2.13,1.23a2.35,2.35,0,0,1-2.13,0,.65.65,0,0,1,0-1.23l2.13-1.23A2.35,2.35,0,0,1,39.52,352.64Z"/><path class="cls-10" d="M157.26,430.41a2.35,2.35,0,0,1,2.13,0,.65.65,0,0,1,0,1.23l-10.64,6.14a2.33,2.33,0,0,1-2.12,0,.65.65,0,0,1,0-1.23Z"/><path class="cls-10" d="M140.23,440.24a2.35,2.35,0,0,1,2.13,0,.65.65,0,0,1,0,1.23l-2.13,1.23a2.35,2.35,0,0,1-2.13,0,.65.65,0,0,1,0-1.23Z"/><path class="cls-10" d="M22.49,362.48a.65.65,0,0,1,0,1.23l-10.64,6.14a2.35,2.35,0,0,1-2.13,0,.65.65,0,0,1,0-1.23l10.64-6.14A2.33,2.33,0,0,1,22.49,362.48Z"/><path class="cls-10" d="M131.72,445.15a2.35,2.35,0,0,1,2.13,0,.65.65,0,0,1,0,1.23l-1.7,1-.5.27a2.33,2.33,0,0,1-2.12-.06c-.53-.35-.49-.87.07-1.19l.06,0,.37-.21Z"/><path class="cls-10" d="M5.46,373.53l-.19.11a7.38,7.38,0,0,0-1.45,1.07,1.17,1.17,0,0,1-.23.17,2.36,2.36,0,0,1-1.82.13c-.71-.24-1-.77-.53-1.19a9.37,9.37,0,0,1,1.91-1.43l.19-.11a2.35,2.35,0,0,1,2.13,0A.65.65,0,0,1,5.46,373.53Z"/><path class="cls-10" d="M116.87,446.13a12.88,12.88,0,0,0,5.6,1.55c.83.05,1.43.48,1.34,1a.81.81,0,0,1-.43.52,2.23,2.23,0,0,1-1.21.25,17,17,0,0,1-7.42-2l-5.38-3.13a.65.65,0,0,1,0-1.22,2.33,2.33,0,0,1,2.12,0Z"/><path class="cls-10" d="M105.14,440.55a2.33,2.33,0,0,1-2.12,0l-2.11-1.23a.65.65,0,0,1,0-1.23,2.35,2.35,0,0,1,2.13,0l2.11,1.23A.65.65,0,0,1,105.14,440.55Z"/><path class="cls-10" d="M96.69,435.64a2.33,2.33,0,0,1-2.12,0l-2.11-1.23a.65.65,0,0,1,0-1.23,2.35,2.35,0,0,1,2.13,0l2.11,1.23A.65.65,0,0,1,96.69,435.64Z"/><path class="cls-10" d="M88.23,430.72a2.32,2.32,0,0,1-2.11,0l-10.57-6.15a.65.65,0,0,1,0-1.23,2.35,2.35,0,0,1,2.13,0l10.57,6.15C88.82,429.83,88.81,430.38,88.23,430.72Z"/><path class="cls-10" d="M71.31,420.9a2.33,2.33,0,0,1-2.12,0l-2.11-1.23a.65.65,0,0,1,0-1.23,2.35,2.35,0,0,1,2.13,0l2.11,1.23A.65.65,0,0,1,71.31,420.9Z"/><path class="cls-10" d="M62.85,416a2.32,2.32,0,0,1-2.11,0l-2.12-1.23a.65.65,0,0,1,0-1.22,2.33,2.33,0,0,1,2.12,0l2.12,1.23C63.45,415.09,63.44,415.64,62.85,416Z"/><path class="cls-10" d="M54.4,411.06a2.33,2.33,0,0,1-2.12,0l-10.57-6.14a.65.65,0,0,1,0-1.23,2.35,2.35,0,0,1,2.13,0l10.57,6.14A.65.65,0,0,1,54.4,411.06Z"/><path class="cls-10" d="M37.48,401.23a2.32,2.32,0,0,1-2.11,0L33.25,400a.65.65,0,0,1,0-1.22,2.33,2.33,0,0,1,2.12,0L37.49,400C38.08,400.34,38.07,400.89,37.48,401.23Z"/><path class="cls-10" d="M29,396.32a2.33,2.33,0,0,1-2.12,0l-2.11-1.23a.65.65,0,0,1,0-1.23,2.35,2.35,0,0,1,2.13,0L29,395.09A.65.65,0,0,1,29,396.32Z"/><path class="cls-10" d="M20.57,391.41a2.33,2.33,0,0,1-2.12,0L7.88,385.26a.65.65,0,0,1,0-1.22A2.33,2.33,0,0,1,10,384l10.57,6.14A.65.65,0,0,1,20.57,391.41Z"/><path class="cls-10" d="M3.59,381.6a2.25,2.25,0,0,1-2.08-.25,6.58,6.58,0,0,1-1.44-1.78c-.17-.32,0-.65.38-.87a1.94,1.94,0,0,1,.62-.22,1.85,1.85,0,0,1,1.87.58A4.79,4.79,0,0,0,4,380.39c.39.35.29.8-.2,1.09Z"/><path class="cls-10" d="M28.87,360a2.35,2.35,0,0,1-2.13,0,.65.65,0,0,1,0-1.23l2.13-1.23a2.35,2.35,0,0,1,2.13,0,.65.65,0,0,1,0,1.23Z"/><path class="cls-10" d="M62.92,340.36a2.35,2.35,0,0,1-2.13,0,.65.65,0,0,1,0-1.23l2.13-1.23a2.35,2.35,0,0,1,2.13,0,.65.65,0,0,1,0,1.23Z"/><path class="cls-10" d="M97,320.7a2.33,2.33,0,0,1-2.12,0,.65.65,0,0,1,0-1.23L97,318.24a2.33,2.33,0,0,1,2.12,0,.65.65,0,0,1,0,1.23Z"/><path class="cls-10" d="M657.73,308.31a2.32,2.32,0,0,1,2.12,0l2.12,1.23c.58.34.58.88,0,1.23a2.32,2.32,0,0,1-2.11,0l-2.12-1.23A.65.65,0,0,1,657.73,308.31Z"/><path class="cls-10" d="M666.19,313.22a2.34,2.34,0,0,1,2.13,0l2.11,1.23a.65.65,0,0,1,0,1.23,2.33,2.33,0,0,1-2.12,0l-2.11-1.23A.65.65,0,0,1,666.19,313.22Z"/><path class="cls-10" d="M674.64,318.13a2.34,2.34,0,0,1,2.13,0l10.57,6.15c.58.34.58.88,0,1.23a2.32,2.32,0,0,1-2.11,0l-10.57-6.15A.65.65,0,0,1,674.64,318.13Z"/><path class="cls-10" d="M691.56,328a2.34,2.34,0,0,1,2.13,0l2.11,1.23a.65.65,0,0,1,0,1.23,2.33,2.33,0,0,1-2.12,0l-2.11-1.23A.65.65,0,0,1,691.56,328Z"/><path class="cls-10" d="M700,332.88a2.34,2.34,0,0,1,2.13,0l2.11,1.23a.65.65,0,0,1,0,1.23,2.33,2.33,0,0,1-2.12,0L700,334.11A.65.65,0,0,1,700,332.88Z"/><path class="cls-10" d="M708.48,337.8a2.32,2.32,0,0,1,2.12,0l10.57,6.14a.65.65,0,0,1,0,1.23,2.33,2.33,0,0,1-2.12,0L708.47,339A.65.65,0,0,1,708.48,337.8Z"/><path class="cls-10" d="M725.39,347.62a2.34,2.34,0,0,1,2.13,0l2.11,1.23a.65.65,0,0,1,0,1.23,2.33,2.33,0,0,1-2.12,0l-2.11-1.23A.65.65,0,0,1,725.39,347.62Z"/><path class="cls-10" d="M733.85,352.54a2.32,2.32,0,0,1,2.12,0l2.12,1.23c.58.34.58.88,0,1.23a2.32,2.32,0,0,1-2.11,0l-2.12-1.23A.65.65,0,0,1,733.85,352.54Z"/><path class="cls-10" d="M742.3,357.46a2.34,2.34,0,0,1,2.13,0L755,363.6a.65.65,0,0,1,0,1.23,2.33,2.33,0,0,1-2.12,0l-10.57-6.14A.65.65,0,0,1,742.3,357.46Z"/><path class="cls-10" d="M759.22,367.29a2.32,2.32,0,0,1,2.12,0l2.12,1.23c.58.34.58.88,0,1.23a2.32,2.32,0,0,1-2.11,0l-2.12-1.23A.65.65,0,0,1,759.22,367.29Z"/><path class="cls-10" d="M767.68,372.2a2.34,2.34,0,0,1,2.13,0l.36.21a9.32,9.32,0,0,1,1.74,1.28c.37.35.27.79-.21,1.07l-.27.12a2.22,2.22,0,0,1-2.06-.28,7.58,7.58,0,0,0-1.32-1l-.36-.21A.65.65,0,0,1,767.68,372.2Z"/><path class="cls-10" d="M651.39,305.5c.83.06,1.4.5,1.3,1a.83.83,0,0,1-.43.51,2.25,2.25,0,0,1-1.25.25,14,14,0,0,0-7.77,1.54l-3.65,2.1a2.35,2.35,0,0,1-2.13,0,.65.65,0,0,1,0-1.23l3.65-2.1A18.47,18.47,0,0,1,651.39,305.5Z"/><path class="cls-10" d="M770.76,378.55a2.33,2.33,0,0,1,1.47-.22c.79.14,1.26.61,1,1.08a7.65,7.65,0,0,1-3.15,3.09L768,383.72a2.35,2.35,0,0,1-2.13,0,.65.65,0,0,1,0-1.23l2.13-1.23a5.8,5.8,0,0,0,2.39-2.33A.93.93,0,0,1,770.76,378.55Z"/><path class="cls-10" d="M759.48,386.17a2.35,2.35,0,0,1,2.13,0,.65.65,0,0,1,0,1.23l-2.13,1.23a2.35,2.35,0,0,1-2.13,0,.65.65,0,0,1,0-1.23Z"/><path class="cls-10" d="M633.22,313.32a.65.65,0,0,1,0,1.23l-2.13,1.23a2.35,2.35,0,0,1-2.13,0,.65.65,0,0,1,0-1.23l2.13-1.23A2.35,2.35,0,0,1,633.22,313.32Z"/><path class="cls-10" d="M751,391.09a2.33,2.33,0,0,1,2.12,0,.65.65,0,0,1,0,1.23l-10.64,6.14a2.35,2.35,0,0,1-2.13,0,.65.65,0,0,1,0-1.23Z"/><path class="cls-10" d="M733.94,400.92a2.35,2.35,0,0,1,2.13,0,.65.65,0,0,1,0,1.23l-2.13,1.23a2.35,2.35,0,0,1-2.13,0,.65.65,0,0,1,0-1.23Z"/><path class="cls-10" d="M616.19,323.16a.65.65,0,0,1,0,1.23l-10.64,6.14a2.35,2.35,0,0,1-2.13,0,.65.65,0,0,1,0-1.23l10.64-6.14A2.35,2.35,0,0,1,616.19,323.16Z"/><path class="cls-10" d="M725.43,405.83a2.33,2.33,0,0,1,2.12,0,.65.65,0,0,1,0,1.23l-2.13,1.23a2.33,2.33,0,0,1-2.12,0,.65.65,0,0,1,0-1.23Z"/><path class="cls-10" d="M599.17,333a.65.65,0,0,1,0,1.23L597,335.44a2.33,2.33,0,0,1-2.12,0,.65.65,0,0,1,0-1.23L597,333A2.33,2.33,0,0,1,599.17,333Z"/><path class="cls-10" d="M716.91,410.75a2.34,2.34,0,0,1,2.13,0,.65.65,0,0,1,0,1.23l-10.64,6.14a2.35,2.35,0,0,1-2.13,0,.65.65,0,0,1,0-1.23Z"/><path class="cls-10" d="M699.89,420.57a2.33,2.33,0,0,1,2.12,0,.65.65,0,0,1,0,1.23L699.88,423a2.33,2.33,0,0,1-2.12,0,.65.65,0,0,1,0-1.23Z"/><path class="cls-10" d="M582.14,342.81a.65.65,0,0,1,0,1.23l-10.64,6.14a2.33,2.33,0,0,1-2.12,0,.65.65,0,0,1,0-1.23L580,342.81A2.35,2.35,0,0,1,582.14,342.81Z"/><path class="cls-10" d="M691.37,425.49a2.34,2.34,0,0,1,2.13,0,.65.65,0,0,1,0,1.23L691.37,428a2.35,2.35,0,0,1-2.13,0,.65.65,0,0,1,0-1.23Z"/><path class="cls-10" d="M565.12,352.64a.65.65,0,0,1,0,1.23L563,355.1a2.35,2.35,0,0,1-2.13,0,.65.65,0,0,1,0-1.23l2.13-1.23A2.35,2.35,0,0,1,565.12,352.64Z"/><path class="cls-10" d="M682.86,430.41a2.35,2.35,0,0,1,2.13,0,.65.65,0,0,1,0,1.23l-10.64,6.14a2.33,2.33,0,0,1-2.12,0,.65.65,0,0,1,0-1.23Z"/><path class="cls-10" d="M665.83,440.24a2.34,2.34,0,0,1,2.13,0,.65.65,0,0,1,0,1.23l-2.13,1.23a2.35,2.35,0,0,1-2.13,0,.65.65,0,0,1,0-1.23Z"/><path class="cls-10" d="M548.09,362.48a.65.65,0,0,1,0,1.23l-10.64,6.14a2.35,2.35,0,0,1-2.13,0,.65.65,0,0,1,0-1.23L546,362.47A2.33,2.33,0,0,1,548.09,362.48Z"/><path class="cls-10" d="M657.32,445.15a2.35,2.35,0,0,1,2.13,0,.65.65,0,0,1,0,1.23l-1.7,1-.5.27a2.33,2.33,0,0,1-2.12-.06c-.53-.35-.49-.87.07-1.19l.06,0,.37-.21Z"/><path class="cls-10" d="M531.06,373.53l-.19.11a7.42,7.42,0,0,0-1.45,1.07,1.17,1.17,0,0,1-.23.17,2.37,2.37,0,0,1-1.82.13c-.71-.24-1-.77-.53-1.19a9.37,9.37,0,0,1,1.91-1.43l.19-.11a2.35,2.35,0,0,1,2.13,0A.65.65,0,0,1,531.06,373.53Z"/><path class="cls-10" d="M642.47,446.13a12.88,12.88,0,0,0,5.6,1.55c.83.05,1.43.48,1.34,1a.81.81,0,0,1-.43.52,2.23,2.23,0,0,1-1.21.25,17,17,0,0,1-7.42-2L635,444.24a.65.65,0,0,1,0-1.22,2.32,2.32,0,0,1,2.12,0Z"/><path class="cls-10" d="M630.74,440.55a2.33,2.33,0,0,1-2.12,0l-2.11-1.23a.65.65,0,0,1,0-1.23,2.34,2.34,0,0,1,2.13,0l2.11,1.23A.65.65,0,0,1,630.74,440.55Z"/><path class="cls-10" d="M622.29,435.64a2.33,2.33,0,0,1-2.12,0l-2.11-1.23a.65.65,0,0,1,0-1.23,2.34,2.34,0,0,1,2.13,0l2.11,1.23A.65.65,0,0,1,622.29,435.64Z"/><path class="cls-10" d="M613.82,430.72a2.32,2.32,0,0,1-2.11,0l-10.57-6.15a.65.65,0,0,1,0-1.23,2.34,2.34,0,0,1,2.13,0l10.57,6.15C614.42,429.83,614.42,430.38,613.82,430.72Z"/><path class="cls-10" d="M596.91,420.9a2.33,2.33,0,0,1-2.12,0l-2.11-1.23a.65.65,0,0,1,0-1.23,2.34,2.34,0,0,1,2.13,0l2.11,1.23A.65.65,0,0,1,596.91,420.9Z"/><path class="cls-10" d="M588.45,416a2.32,2.32,0,0,1-2.11,0l-2.12-1.23a.65.65,0,0,1,0-1.22,2.32,2.32,0,0,1,2.12,0l2.12,1.23C589,415.09,589,415.63,588.45,416Z"/><path class="cls-10" d="M580,411.06a2.33,2.33,0,0,1-2.12,0l-10.57-6.14a.65.65,0,0,1,0-1.23,2.34,2.34,0,0,1,2.13,0L580,409.83A.65.65,0,0,1,580,411.06Z"/><path class="cls-10" d="M563.08,401.23a2.32,2.32,0,0,1-2.11,0L558.85,400a.65.65,0,0,1,0-1.22,2.32,2.32,0,0,1,2.12,0l2.12,1.23C563.68,400.34,563.67,400.89,563.08,401.23Z"/><path class="cls-10" d="M554.62,396.32a2.33,2.33,0,0,1-2.12,0l-2.11-1.23a.65.65,0,0,1,0-1.23,2.34,2.34,0,0,1,2.13,0l2.11,1.23A.65.65,0,0,1,554.62,396.32Z"/><path class="cls-10" d="M546.17,391.41a2.33,2.33,0,0,1-2.12,0l-10.57-6.14a.65.65,0,0,1,0-1.22,2.32,2.32,0,0,1,2.12,0l10.57,6.14A.65.65,0,0,1,546.17,391.41Z"/><path class="cls-10" d="M529.19,381.6a2.26,2.26,0,0,1-2.08-.25,6.4,6.4,0,0,1-1.43-1.79c-.18-.32,0-.65.37-.87a1.94,1.94,0,0,1,.62-.22,1.85,1.85,0,0,1,1.87.58,5,5,0,0,0,1.09,1.35c.39.35.29.8-.2,1.09Z"/><path class="cls-10" d="M554.47,360a2.35,2.35,0,0,1-2.13,0,.65.65,0,0,1,0-1.23l2.13-1.23a2.35,2.35,0,0,1,2.13,0,.65.65,0,0,1,0,1.23Z"/><path class="cls-10" d="M588.52,340.36a2.35,2.35,0,0,1-2.13,0,.65.65,0,0,1,0-1.23l2.13-1.23a2.35,2.35,0,0,1,2.13,0,.65.65,0,0,1,0,1.23Z"/><path class="cls-10" d="M622.57,320.7a2.33,2.33,0,0,1-2.12,0,.65.65,0,0,1,0-1.23l2.13-1.23a2.33,2.33,0,0,1,2.12,0,.65.65,0,0,1,0,1.23Z"/></g></g></svg>