<svg xmlns="http://www.w3.org/2000/svg" xmlns:xlink="http://www.w3.org/1999/xlink" viewBox="0 0 204.67 142.56"><defs><style>.cls-1{fill:none;}.cls-2{clip-path:url(#clip-path);}.cls-3{fill:#282c32;}.cls-4{clip-path:url(#clip-path-2);}.cls-5{fill:#1f2327;}.cls-6{fill:#23272c;}.cls-7{clip-path:url(#clip-path-3);}.cls-8{fill:#b6b7b7;}.cls-9{clip-path:url(#clip-path-4);}.cls-10{fill:#8f8f90;}.cls-11{fill:#d9dadb;}.cls-12{fill:#1f2226;}</style><clipPath id="clip-path"><rect class="cls-1" y="59.28" width="102.34" height="83.28" transform="translate(102.34 201.83) rotate(180)"/></clipPath><clipPath id="clip-path-2"><rect class="cls-1" x="102.34" y="59.28" width="102.33" height="83.28" transform="translate(307.01 201.83) rotate(180)"/></clipPath><clipPath id="clip-path-3"><rect class="cls-1" x="31.19" y="51.15" width="71.14" height="49.34" transform="translate(133.53 151.63) rotate(180)"/></clipPath><clipPath id="clip-path-4"><rect class="cls-1" x="102.34" y="51.2" width="71.14" height="49.24" transform="translate(275.81 151.63) rotate(180)"/></clipPath></defs><title>server_0</title><g id="Layer_2" data-name="Layer 2"><g id="Racks"><g class="cls-2"><path class="cls-3" d="M0,59.28v24C0,84.61.9,85.95,2.66,87L96.3,141A14,14,0,0,0,109,141L202,87c1.76-1,2.63-2.35,2.62-3.68v-24Z"/></g><g class="cls-4"><path class="cls-5" d="M0,59.28v24C0,84.61.9,85.95,2.66,87L96.3,141A14,14,0,0,0,109,141l93-54.07c1.76-1,2.63-2.35,2.62-3.68v-24Z"/></g><path class="cls-6" d="M108.38,1.53a14,14,0,0,0-12.73,0l-93,54.07c-3.5,2-3.48,5.34,0,7.37L96.29,117A14,14,0,0,0,109,117l93-54.07c3.5-2,3.49-5.33,0-7.37Z"/></g><g id="Tops"><g class="cls-7"><path class="cls-8" d="M31.19,51.15v8A3.16,3.16,0,0,0,33,61.74l65.1,37.58a9.74,9.74,0,0,0,8.85,0l64.67-37.59a3.09,3.09,0,0,0,1.82-2.56v-8Z"/></g><g class="cls-9"><path class="cls-10" d="M31.19,51.2v8A3.16,3.16,0,0,0,33,61.8l65.1,37.58a9.74,9.74,0,0,0,8.85,0l64.67-37.59a3.09,3.09,0,0,0,1.82-2.56v-8Z"/></g><path class="cls-11" d="M107.42,11.26a11.69,11.69,0,0,0-10.62,0L33.37,48.12c-2.92,1.7-2.9,4.45,0,6.14L97.26,91.13a11.68,11.68,0,0,0,10.6,0l63.43-36.86c2.92-1.7,2.91-4.45,0-6.14Z"/></g><g id="Icons"><path class="cls-12" d="M134.88,41.07c-1,1.16-19.56,23.19-24,26.23A18.08,18.08,0,0,1,100.92,70a15.58,15.58,0,0,1-6.74-1.43c-4.7-2.33-4.85-6.68-.37-9.72S133,41.81,134.88,41.07Z"/><path class="cls-12" d="M103.74,32.38a15.58,15.58,0,0,1,6.74,1.43c4.7,2.33,4.86,6.68.37,9.72S71.62,60.59,69.79,61.33c1-1.16,19.56-23.19,24.05-26.23A18,18,0,0,1,103.74,32.38Z"/></g></g></svg>