<svg xmlns="http://www.w3.org/2000/svg" xmlns:xlink="http://www.w3.org/1999/xlink" viewBox="0 0 204.68 319.11"><defs><style>.cls-1,.cls-18,.cls-19,.cls-20{fill:none;}.cls-2{clip-path:url(#clip-path);}.cls-3{fill:#282c32;}.cls-4{clip-path:url(#clip-path-2);}.cls-5{fill:#1c1f23;}.cls-6{fill:#23272c;}.cls-7{clip-path:url(#clip-path-3);}.cls-8{clip-path:url(#clip-path-4);}.cls-9{clip-path:url(#clip-path-5);}.cls-10{clip-path:url(#clip-path-6);}.cls-11{clip-path:url(#clip-path-7);}.cls-12{clip-path:url(#clip-path-8);}.cls-13{clip-path:url(#clip-path-9);}.cls-14{fill:#1e2024;}.cls-15{clip-path:url(#clip-path-10);}.cls-16{fill:#111315;}.cls-17{fill:#1a1c20;}.cls-18,.cls-20{stroke:#bdccd4;stroke-linecap:round;}.cls-18,.cls-19,.cls-20{stroke-miterlimit:10;}.cls-18{stroke-width:2px;}.cls-19,.cls-20{stroke-width:3px;}.cls-19{stroke:url(#linear-gradient);}.cls-21{fill:#d3d4d5;}</style><clipPath id="clip-path"><rect class="cls-1" y="235.83" width="102.34" height="83.28" transform="translate(102.34 554.94) rotate(180)"/></clipPath><clipPath id="clip-path-2"><rect class="cls-1" x="102.34" y="235.83" width="102.33" height="83.28" transform="translate(307.01 554.94) rotate(180)"/></clipPath><clipPath id="clip-path-3"><rect class="cls-1" y="199.83" width="102.34" height="83.28" transform="translate(102.34 482.94) rotate(180)"/></clipPath><clipPath id="clip-path-4"><rect class="cls-1" x="102.34" y="199.83" width="102.33" height="83.28" transform="translate(307.01 482.94) rotate(180)"/></clipPath><clipPath id="clip-path-5"><rect class="cls-1" y="163.83" width="102.34" height="83.28" transform="translate(102.34 410.94) rotate(180)"/></clipPath><clipPath id="clip-path-6"><rect class="cls-1" x="102.34" y="163.83" width="102.33" height="83.28" transform="translate(307.01 410.94) rotate(180)"/></clipPath><clipPath id="clip-path-7"><rect class="cls-1" y="127.83" width="102.34" height="83.28" transform="translate(102.34 338.94) rotate(180)"/></clipPath><clipPath id="clip-path-8"><rect class="cls-1" x="102.34" y="127.83" width="102.33" height="83.28" transform="translate(307.01 338.94) rotate(180)"/></clipPath><clipPath id="clip-path-9"><polygon class="cls-1" points="0 172.56 102.34 172.56 102.34 59.65 0 59.28 0 172.56"/></clipPath><clipPath id="clip-path-10"><rect class="cls-1" x="102.34" y="59.65" width="102.33" height="112.9"/></clipPath><linearGradient id="linear-gradient" x1="159.86" y1="25.07" x2="44.81" y2="91.49" gradientUnits="userSpaceOnUse"><stop offset="0" stop-color="#a4ccf4"/><stop offset="0.49" stop-color="#9bccfd"/><stop offset="0.56" stop-color="#9cf"/><stop offset="0.82" stop-color="#3d9cc1" stop-opacity="0.9"/><stop offset="1" stop-color="#0083ba" stop-opacity="0.6"/></linearGradient></defs><title>server_4</title><g id="Layer_2" data-name="Layer 2"><g id="Racks"><g class="cls-2"><path class="cls-3" d="M0,235.83v24c0,1.33.9,2.67,2.66,3.69L96.3,317.58a14,14,0,0,0,12.73,0l93-54.07c1.76-1,2.63-2.35,2.62-3.68v-24Z"/></g><g class="cls-4"><path class="cls-5" d="M0,235.83v24c0,1.33.9,2.67,2.66,3.69L96.3,317.58a14,14,0,0,0,12.73,0l93-54.07c1.76-1,2.63-2.35,2.62-3.68v-24Z"/></g><path class="cls-6" d="M108.38,178.08a14,14,0,0,0-12.73,0l-93,54.07c-3.5,2-3.48,5.34,0,7.37l93.64,54.06a14,14,0,0,0,12.73,0l93-54.07c3.5-2,3.49-5.33,0-7.37Z"/><g class="cls-7"><path class="cls-3" d="M0,199.83v24c0,1.33.9,2.67,2.66,3.69L96.3,281.58a14,14,0,0,0,12.73,0l93-54.07c1.76-1,2.63-2.35,2.62-3.68v-24Z"/></g><g class="cls-8"><path class="cls-5" d="M0,199.83v24c0,1.33.9,2.67,2.66,3.69L96.3,281.58a14,14,0,0,0,12.73,0l93-54.07c1.76-1,2.63-2.35,2.62-3.68v-24Z"/></g><path class="cls-6" d="M108.38,142.08a14,14,0,0,0-12.73,0l-93,54.07c-3.5,2-3.48,5.34,0,7.37l93.64,54.06a14,14,0,0,0,12.73,0l93-54.07c3.5-2,3.49-5.33,0-7.37Z"/><g class="cls-9"><path class="cls-3" d="M0,163.83v24c0,1.33.9,2.67,2.66,3.69L96.3,245.58a14,14,0,0,0,12.73,0l93-54.07c1.76-1,2.63-2.35,2.62-3.68v-24Z"/></g><g class="cls-10"><path class="cls-5" d="M0,163.83v24c0,1.33.9,2.67,2.66,3.69L96.3,245.58a14,14,0,0,0,12.73,0l93-54.07c1.76-1,2.63-2.35,2.62-3.68v-24Z"/></g><path class="cls-6" d="M108.38,106.08a14,14,0,0,0-12.73,0l-93,54.07c-3.5,2-3.48,5.34,0,7.37l93.64,54.06a14,14,0,0,0,12.73,0l93-54.07c3.5-2,3.49-5.33,0-7.37Z"/><g class="cls-11"><path class="cls-3" d="M0,127.83v24c0,1.33.9,2.67,2.66,3.69L96.3,209.58a14,14,0,0,0,12.73,0l93-54.07c1.76-1,2.63-2.35,2.62-3.68v-24Z"/></g><g class="cls-12"><path class="cls-5" d="M0,127.83v24c0,1.33.9,2.67,2.66,3.69L96.3,209.58a14,14,0,0,0,12.73,0l93-54.07c1.76-1,2.63-2.35,2.62-3.68v-24Z"/></g><path class="cls-6" d="M108.38,70.08a14,14,0,0,0-12.73,0l-93,54.07c-3.5,2-3.48,5.34,0,7.37l93.64,54.06a14,14,0,0,0,12.73,0l93-54.07c3.5-2,3.49-5.33,0-7.37Z"/></g><g id="Tops"><g class="cls-13"><path class="cls-14" d="M0,59.28v54c0,1.33.9,2.67,2.66,3.69L96.3,171A14,14,0,0,0,109,171l93-54.07c1.76-1,2.63-2.35,2.62-3.68V59.65Z"/></g><g class="cls-15"><path class="cls-16" d="M0,59.28v54c0,1.33.9,2.67,2.66,3.69L96.31,171A14,14,0,0,0,109,171l93-54.07c1.76-1,2.63-2.35,2.62-3.68V59.65Z"/></g><path class="cls-17" d="M108.38,1.53a14,14,0,0,0-12.73,0l-93,54.07c-3.5,2-3.48,5.34,0,7.37L96.3,117A14,14,0,0,0,109,117l93-54.07c3.5-2,3.49-5.33,0-7.37Z"/></g><g id="Highlights"><line class="cls-18" x1="74.09" y1="116.01" x2="74.09" y2="122.29"/><line class="cls-18" x1="78.93" y1="118.79" x2="78.93" y2="125.08"/><line class="cls-18" x1="83.77" y1="121.7" x2="83.77" y2="127.99"/><path class="cls-19" d="M97,16.44a12.24,12.24,0,0,1,11.11,0l66.45,38.62c3.06,1.78,3,4.66,0,6.44l-66.89,38.62a12.25,12.25,0,0,1-11.11,0L30.09,61.5c-3.06-1.78-3-4.66,0-6.44Z"/><line class="cls-20" x1="12.85" y1="86.43" x2="35.97" y2="98.88"/></g><g id="Icons"><polygon class="cls-21" points="121.8 54.73 121.92 67.06 110.36 73.78 74.07 52.83 78.92 50.01 95.59 49.99 95.54 54.79 121.8 54.73"/><path class="cls-21" d="M105.36,40.5c2.64,1.52,2.65,4,0,5.51a10.49,10.49,0,0,1-9.52,0c-2.64-1.52-2.65-4,0-5.51A10.49,10.49,0,0,1,105.36,40.5Z"/></g></g></svg>