<svg xmlns="http://www.w3.org/2000/svg" xmlns:xlink="http://www.w3.org/1999/xlink" viewBox="0 0 204.67 178.56"><defs><style>.cls-1,.cls-12{fill:none;}.cls-2{clip-path:url(#clip-path);}.cls-3{fill:#282c32;}.cls-4{clip-path:url(#clip-path-2);}.cls-5{fill:#1c1f23;}.cls-6{fill:#23272c;}.cls-7{clip-path:url(#clip-path-3);}.cls-8{fill:#1e2024;}.cls-9{clip-path:url(#clip-path-4);}.cls-10{fill:#111315;}.cls-11{fill:#1a1c20;}.cls-12{stroke-miterlimit:10;stroke-width:3px;stroke:url(#linear-gradient);}.cls-13{fill:#d3d4d5;}</style><clipPath id="clip-path"><rect class="cls-1" x="102.34" y="95.28" width="102.34" height="83.28"/></clipPath><clipPath id="clip-path-2"><rect class="cls-1" y="95.28" width="102.33" height="83.28"/></clipPath><clipPath id="clip-path-3"><rect class="cls-1" x="102.34" y="59.28" width="102.34" height="83.28"/></clipPath><clipPath id="clip-path-4"><rect class="cls-1" y="59.28" width="102.33" height="83.28"/></clipPath><linearGradient id="linear-gradient" x1="159.85" y1="25.07" x2="44.81" y2="91.49" gradientUnits="userSpaceOnUse"><stop offset="0" stop-color="#a4ccf4"/><stop offset="0.49" stop-color="#9bccfd"/><stop offset="0.56" stop-color="#9cf"/><stop offset="0.82" stop-color="#3d9cc1" stop-opacity="0.9"/><stop offset="1" stop-color="#0083ba" stop-opacity="0.6"/></linearGradient></defs><title>server_1</title><g id="Layer_2" data-name="Layer 2"><g id="Racks"><g class="cls-2"><path class="cls-3" d="M204.67,95.28v24c0,1.33-.9,2.67-2.66,3.69L108.37,177a14,14,0,0,1-12.73,0L2.62,123c-1.76-1-2.63-2.35-2.62-3.68v-24Z"/></g><g class="cls-4"><path class="cls-5" d="M204.67,95.28v24c0,1.33-.9,2.67-2.66,3.69L108.37,177a14,14,0,0,1-12.73,0L2.62,123c-1.76-1-2.63-2.35-2.62-3.68v-24Z"/></g><path class="cls-6" d="M96.3,37.53a14,14,0,0,1,12.73,0l93,54.07c3.5,2,3.48,5.34,0,7.37L108.38,153a14,14,0,0,1-12.73,0L2.62,99c-3.5-2-3.49-5.33,0-7.37Z"/></g><g id="Tops"><g class="cls-7"><path class="cls-8" d="M204.67,59.28v24c0,1.33-.9,2.67-2.66,3.69L108.37,141a14,14,0,0,1-12.73,0L2.62,87C.86,85.94,0,84.61,0,83.28v-24Z"/></g><g class="cls-9"><path class="cls-10" d="M204.67,59.28v24c0,1.33-.9,2.67-2.66,3.69L108.37,141a14,14,0,0,1-12.73,0L2.62,87C.86,85.94,0,84.61,0,83.28v-24Z"/></g><path class="cls-11" d="M96.3,1.53a14,14,0,0,1,12.73,0l93,54.07c3.5,2,3.48,5.34,0,7.37L108.38,117a14,14,0,0,1-12.73,0L2.62,63c-3.5-2-3.49-5.33,0-7.37Z"/></g><g id="Highlights"><path class="cls-12" d="M97,16.44a12.24,12.24,0,0,1,11.11,0l66.45,38.62c3.06,1.78,3,4.66,0,6.44l-66.89,38.62a12.25,12.25,0,0,1-11.11,0L30.09,61.49c-3.06-1.78-3-4.66,0-6.44Z"/></g><g id="Icons"><path class="cls-13" d="M94,74.27a.76.76,0,0,1,0-1.44l35.24-20.48a2.73,2.73,0,0,1,2.48,0,.76.76,0,0,1,0,1.43L96.48,74.26A2.74,2.74,0,0,1,94,74.27Z"/><path class="cls-13" d="M76.84,50.57a.76.76,0,0,1,0-1.43l11.44-6.65a2.72,2.72,0,0,1,2.47,0c.69.4.69,1,0,1.43L79.32,50.57A2.73,2.73,0,0,1,76.84,50.57Z"/><path class="cls-13" d="M86.29,51.81c-.69-.4-.69-1,0-1.43L90.45,48a2.73,2.73,0,0,1,2.48,0,.76.76,0,0,1,0,1.43l-4.17,2.42A2.72,2.72,0,0,1,86.29,51.81Z"/><path class="cls-13" d="M81.76,61.17a.76.76,0,0,1,0-1.43L106.6,45.3a2.72,2.72,0,0,1,2.47,0c.69.4.69,1,0,1.43L84.24,61.18A2.73,2.73,0,0,1,81.76,61.17Z"/><path class="cls-13" d="M95.38,60a.76.76,0,0,1,0-1.44l9.25-5.37a2.73,2.73,0,0,1,2.48,0,.76.76,0,0,1,0,1.43L97.85,60A2.73,2.73,0,0,1,95.38,60Z"/><path class="cls-13" d="M95.76,66.51a.76.76,0,0,1,0-1.43l20.11-11.69a2.72,2.72,0,0,1,2.47,0c.69.4.69,1,0,1.43L98.24,66.51A2.73,2.73,0,0,1,95.76,66.51Z"/><path class="cls-13" d="M106.06,74a.76.76,0,0,1,0-1.43l22.77-13.23a2.73,2.73,0,0,1,2.48,0,.76.76,0,0,1,0,1.44L108.53,74A2.73,2.73,0,0,1,106.06,74Z"/><path class="cls-13" d="M117.82,73.89c-.69-.4-.69-1,0-1.43l10.87-6.31a2.73,2.73,0,0,1,2.48,0,.76.76,0,0,1,0,1.43l-10.87,6.31A2.72,2.72,0,0,1,117.82,73.89Z"/></g></g></svg>