<svg xmlns="http://www.w3.org/2000/svg" viewBox="0 0 460 460"><defs><style>.cls-1,.cls-14,.cls-17,.cls-18,.cls-24,.cls-6,.cls-8{opacity:0.6;font-size:11px;fill:#fff;font-family:Gilroy-Bold, Gilroy;font-weight:700;}.cls-1,.cls-13{letter-spacing:0.05em;}.cls-2{letter-spacing:0.04em;}.cls-3{letter-spacing:0.03em;}.cls-4{letter-spacing:0.05em;}.cls-5{letter-spacing:0.04em;}.cls-15,.cls-6{letter-spacing:0.05em;}.cls-7{letter-spacing:0.04em;}.cls-26,.cls-8{letter-spacing:0.04em;}.cls-9{letter-spacing:0.07em;}.cls-10{letter-spacing:0.03em;}.cls-11{letter-spacing:0.03em;}.cls-12{letter-spacing:0.05em;}.cls-14{letter-spacing:0.01em;}.cls-16{letter-spacing:0.01em;}.cls-17,.cls-19{letter-spacing:0.04em;}.cls-18,.cls-25{letter-spacing:0.02em;}.cls-20{letter-spacing:0.03em;}.cls-21{letter-spacing:0.02em;}.cls-22{letter-spacing:0.01em;}.cls-23{letter-spacing:0em;}.cls-24{letter-spacing:0.04em;}.cls-27{fill:none;stroke:#0e0f11;stroke-miterlimit:10;}</style></defs><title>chip_5_2</title><g id="Layer_2" data-name="Layer 2"><g id="TOTAL"><text class="cls-1" transform="translate(95.24 353.17)">NANO</text><text class="cls-1" transform="translate(95.78 198.17)">NODE</text><text class="cls-1" transform="translate(281.6 420.81)">EN<tspan class="cls-2" x="14.33" y="0">C</tspan><tspan class="cls-3" x="22.78" y="0">R</tspan><tspan class="cls-4" x="29.87" y="0">Y</tspan><tspan class="cls-5" x="37.25" y="0">P</tspan><tspan x="44.14" y="0">TION</tspan></text><text class="cls-6" transform="translate(413.79 420.81)">ZIP</text><text class="cls-6" transform="translate(325.19 361.37) rotate(-90)">RE<tspan class="cls-7" x="13.68" y="0">S</tspan><tspan x="20.59" y="0">IZE</tspan></text><text class="cls-8" transform="translate(370.86 345.87)">C<tspan class="cls-9" x="8.45" y="0">L</tspan><tspan class="cls-10" x="14.53" y="0">A</tspan><tspan class="cls-11" x="22.25" y="0">S</tspan><tspan class="cls-12" x="28.98" y="0">S</tspan><tspan class="cls-13" x="35.89" y="0">IFIER</tspan></text><text class="cls-1" transform="translate(53.06 63.33)">API</text><text class="cls-14" transform="translate(155.36 35.87)">L<tspan class="cls-15" x="5.39" y="0">OG</tspan></text><text class="cls-1" transform="translate(129.91 91.08)">MIDDLE<tspan class="cls-16" x="42.04" y="0">W</tspan><tspan x="53.14" y="0">ARE</tspan></text><text class="cls-17" transform="translate(275.75 369.43) rotate(-90)">C<tspan class="cls-13" x="8.37" y="0">ONT</tspan><tspan class="cls-2" x="32.08" y="0">R</tspan><tspan class="cls-15" x="39.29" y="0">OL</tspan></text><text class="cls-18" transform="translate(365.99 158.67)">A<tspan class="cls-19" x="7.62" y="0">CC</tspan><tspan class="cls-12" x="24.37" y="0">O</tspan><tspan class="cls-13" x="33.57" y="0">UN</tspan><tspan class="cls-20" x="49.26" y="0">T</tspan><tspan class="cls-13" x="55.53" y="0">S</tspan></text><text class="cls-1" transform="translate(381.23 98.45)">N<tspan class="cls-21" x="7.95" y="0">O</tspan><tspan class="cls-16" x="16.87" y="0">V</tspan><tspan x="24.1" y="0">A</tspan></text><text class="cls-1" transform="translate(381.66 38.67)">LIN<tspan class="cls-22" x="17.31" y="0">K</tspan><tspan x="24.19" y="0">S</tspan></text><text class="cls-8" transform="translate(393.79 233.44)">C<tspan class="cls-13" x="8.45" y="0">H</tspan><tspan class="cls-23" x="16.31" y="0">A</tspan><tspan class="cls-20" x="23.65" y="0">T</tspan><tspan class="cls-13" x="29.92" y="0">S</tspan></text><text class="cls-1" transform="translate(275.78 98.29)">NORD</text><text class="cls-24" transform="translate(287.87 233.44)">C<tspan class="cls-25" x="8.42" y="0">A</tspan><tspan class="cls-26" x="16.04" y="0">C</tspan><tspan class="cls-13" x="24.49" y="0">HE</tspan></text><line class="cls-27" x1="10" y1="0.5" x2="15" y2="0.5"/><line class="cls-27" x1="0.5" y1="9.5" x2="0.5" y2="14.5"/><line class="cls-27" x1="450" y1="459.5" x2="445" y2="459.5"/><line class="cls-27" x1="459.5" y1="450" x2="459.5" y2="445"/></g></g></svg>