<svg xmlns="http://www.w3.org/2000/svg" viewBox="0 0 460 460"><defs><style>.cls-1,.cls-2,.cls-4{fill:none;stroke-miterlimit:10;}.cls-1,.cls-2{stroke:#fff;}.cls-1{stroke-width:2px;}.cls-2{stroke-width:1.99px;}.cls-3{fill:#0e0f11;}.cls-4{stroke:#0e0f11;}</style></defs><title>chip_6_3</title><g id="Layer_2" data-name="Layer 2"><g id="TOTAL"><line class="cls-1" x1="121" y1="87.5" x2="111" y2="87.5"/><line class="cls-1" x1="166" y1="55" x2="166" y2="65"/><line class="cls-1" x1="301" y1="342.5" x2="291" y2="342.5"/><line class="cls-1" x1="341" y1="342.5" x2="351" y2="342.5"/><line class="cls-1" x1="381" y1="420.81" x2="391" y2="420.81"/><line class="cls-1" x1="271" y1="375" x2="271" y2="385"/><path class="cls-2" d="M341,35H331"/><line class="cls-1" x1="290.96" y1="180" x2="290.96" y2="190"/><path class="cls-2" d="M341,95H331"/><path class="cls-2" d="M341,155H331"/><line class="cls-1" x1="410.96" y1="180" x2="410.96" y2="190"/><rect class="cls-3" x="262.99" y="275" width="16" height="30"/><line class="cls-1" x1="270.99" y1="270" x2="270.99" y2="310"/><rect class="cls-3" x="223" y="402.51" width="16" height="30" transform="translate(648.51 186.51) rotate(90)"/><line class="cls-1" x1="251" y1="417.51" x2="211" y2="417.51"/><rect class="cls-3" x="222.94" y="17.52" width="16" height="30" transform="translate(263.47 -198.42) rotate(90)"/><line class="cls-1" x1="250.94" y1="32.52" x2="210.94" y2="32.52"/><rect class="cls-3" x="223.16" y="149.98" width="16" height="30" transform="translate(396.13 -66.18) rotate(90)"/><line class="cls-1" x1="251.16" y1="164.98" x2="211.16" y2="164.98"/><line class="cls-4" x1="10" y1="0.5" x2="15" y2="0.5"/><line class="cls-4" x1="0.5" y1="9.5" x2="0.5" y2="14.5"/><line class="cls-4" x1="450" y1="459.5" x2="445" y2="459.5"/><line class="cls-4" x1="459.5" y1="450" x2="459.5" y2="445"/></g></g></svg>