<svg xmlns="http://www.w3.org/2000/svg" viewBox="0 0 442 442.1"><defs><style>.cls-1,.cls-2,.cls-3,.cls-4{fill:none;stroke:#fff;stroke-miterlimit:10;}.cls-1{stroke-width:2px;}.cls-2{stroke-width:1.79px;}.cls-3{stroke-width:2.31px;}.cls-4{stroke-width:2.2px;}</style></defs><title>chip_4_1</title><g id="Layer_2" data-name="Layer 2"><g id="TOTAL"><rect class="cls-1" x="1" y="241.1" width="200" height="200" rx="6" ry="6" transform="translate(202 682.2) rotate(180)"/><rect class="cls-1" x="1" y="141.1" width="200" height="90" rx="6" ry="6" transform="translate(202 372.2) rotate(180)"/><rect class="cls-1" x="341" y="301.1" width="100" height="65" rx="6" ry="6"/><rect class="cls-2" x="291" y="301.1" width="40" height="65" rx="5.37" ry="5.37"/><rect class="cls-1" x="381" y="376.1" width="60" height="65" rx="6" ry="6"/><rect class="cls-1" x="241" y="376.1" width="130" height="65" rx="6" ry="6"/><rect class="cls-1" x="1" y="1.1" width="100" height="100" rx="6" ry="6"/><rect class="cls-1" x="111" y="1.1" width="90" height="45" rx="6" ry="6"/><rect class="cls-1" x="111" y="56.1" width="90" height="45" rx="6" ry="6"/><rect class="cls-3" x="241" y="301.1" width="40" height="65" rx="6.93" ry="6.93"/><rect class="cls-1" x="360.96" y="181.1" width="80" height="80" rx="6" ry="6"/><rect class="cls-1" x="240.96" y="181.1" width="110" height="80" rx="6" ry="6"/><rect class="cls-4" x="195.96" y="46.1" width="170" height="80" rx="6" ry="6" transform="translate(194.86 367.06) rotate(-90)"/><rect class="cls-1" x="360.96" y="-28.9" width="50" height="110" rx="6" ry="6" transform="translate(412.06 -359.86) rotate(90)"/><rect class="cls-1" x="360.96" y="31.1" width="50" height="110" rx="6" ry="6" transform="translate(472.06 -299.86) rotate(90)"/><rect class="cls-1" x="360.96" y="91.1" width="50" height="110" rx="6" ry="6" transform="translate(532.06 -239.86) rotate(90)"/></g></g></svg>