<?xml version="1.0" standalone="no"?>
<!DOCTYPE svg PUBLIC "-//W3C//DTD SVG 20010904//EN"
 "http://www.w3.org/TR/2001/REC-SVG-20010904/DTD/svg10.dtd">
<svg version="1.0" xmlns="http://www.w3.org/2000/svg"
 width="256pt" height="256pt" viewBox="0 0 256 256"
 preserveAspectRatio="xMidYMid meet">
<g transform="translate(0,256) scale(0.1,-0.1)"
fill="#dd4b25" stroke="none">
<path d="M727 2543 c304 -2 802 -2 1105 0 304 1 56 2 -552 2 -608 0 -856 -1
-553 -2z"/>
<path d="M174 2508 c3 -13 49 -518 102 -1123 53 -605 99 -1103 103 -1106 3 -3
207 -61 453 -129 l447 -123 445 123 c245 68 449 126 454 129 5 3 52 501 106
1106 53 605 99 1110 102 1123 l4 22 -1110 0 -1110 0 4 -22z m1792 -535 c-4
-54 -9 -117 -12 -140 l-6 -43 -527 0 -527 0 12 -127 c7 -71 13 -134 13 -141 1
-10 99 -11 501 -6 l500 7 0 -37 c0 -82 -71 -820 -79 -826 -5 -3 -131 -38 -281
-79 -167 -46 -266 -77 -258 -83 7 -4 8 -8 2 -8 -5 0 -14 4 -20 9 -5 5 -135 44
-289 86 -154 42 -281 78 -281 79 -1 0 -9 84 -18 186 -9 102 -19 200 -22 218
l-5 32 145 0 144 0 7 -106 c9 -123 -9 -108 179 -159 l129 -35 151 41 c83 23
152 42 153 43 2 2 33 312 33 334 0 9 -102 12 -475 12 -261 0 -475 3 -475 8 0
4 -16 182 -35 395 -19 213 -35 399 -35 412 l0 25 691 0 692 0 -7 -97z"/>
</g>
</svg>
