<svg xmlns="http://www.w3.org/2000/svg" viewBox="0 0 45.51 45.51"><defs><style>.cls-1{fill:none;stroke:#f2f2f2;stroke-miterlimit:10;stroke-width:1.5px;}</style></defs><title>encryption</title><g id="Layer_2" data-name="Layer 2"><g id="Layer_1-2" data-name="Layer 1"><rect class="cls-1" x="0.75" y="0.75" width="44.01" height="44.01" rx="7.95" ry="7.95"/><polyline class="cls-1" points="38.74 20.84 38.74 17.31 36.08 14.56 36.08 7.78 31.73 14.31 31.73 20.84"/><path class="cls-1" d="M27.24,20.84s-3.26-1.1-3.3-3.9,3.3-9.17,3.3-9.17h-3.3"/><path class="cls-1" d="M19.35,20.84s2.24-6.28,2.29-9.08a4.53,4.53,0,0,0-2.29-4h4.58"/><path class="cls-1" d="M15.27,20.84V16.08s-4.58-2.43,0-5.23V7.78H9.82V14H7"/><line class="cls-1" x1="9.82" y1="16.42" x2="9.82" y2="20.84"/><polyline class="cls-1" points="18.66 37.73 18.66 31.77 23.2 31.77 28.01 37.73"/><polyline class="cls-1" points="18.66 37.73 18.66 24.02 23.2 24.02 28.01 29.97"/><path class="cls-1" d="M10.82,31.19v3.55H15.7V24.66C4.7,24.8,6,37.73,6,37.73"/><polyline class="cls-1" points="39.57 37.73 31.13 29.84 31.13 24.02 39.57 24.02 39.57 29.84 31.13 37.73"/></g></g></svg>