<svg xmlns="http://www.w3.org/2000/svg" viewBox="0 0 64 84"><defs><style>.cls-1{fill:#032326;stroke:#35b9b8;stroke-miterlimit:10;stroke-width:4px;}.cls-2{fill:#35b9b8;}</style></defs><title>adobe-lightroom</title><g id="Layer_2" data-name="Layer 2"><g id="Adobe"><path class="cls-1" d="M62,29.07V73a9,9,0,0,1-9,9H11a9,9,0,0,1-9-9V11a9,9,0,0,1,9-9H34.93a5,5,0,0,1,3.54,1.46L60.54,25.54A5,5,0,0,1,62,29.07Z"/><path class="cls-2" d="M19.06,34h3.48v24H34.06V61h-15Z"/><path class="cls-2" d="M37.82,47.68c0-2.28,0-4.24-.16-6h3.08l.12,3.8H41a5.81,5.81,0,0,1,5.36-4.24,3.81,3.81,0,0,1,1,.12v3.32a5.31,5.31,0,0,0-1.2-.12c-2.48,0-4.24,1.88-4.72,4.52a9.9,9.9,0,0,0-.16,1.64V61H37.82Z"/></g></g></svg>