<svg xmlns="http://www.w3.org/2000/svg" viewBox="0 0 64 84"><defs><style>.cls-1{fill:#470137;stroke:#ff61f6;stroke-miterlimit:10;stroke-width:4px;}.cls-2{fill:#ff61f6;}</style></defs><title>adobe-xd</title><g id="Layer_2" data-name="Layer 2"><g id="Adobe"><path class="cls-1" d="M62,29.07V73a9,9,0,0,1-9,9H11a9,9,0,0,1-9-9V11a9,9,0,0,1,9-9H34.93a5,5,0,0,1,3.54,1.46L60.54,25.54A5,5,0,0,1,62,29.07Z"/><path class="cls-2" d="M27.32,61l-3.44-6c-1.4-2.28-2.28-3.76-3.12-5.32h-.08c-.76,1.56-1.52,3-2.92,5.36L14.52,61h-4l8.24-13.64L10.84,34h4l3.56,6.32c1,1.76,1.76,3.12,2.48,4.56H21c.76-1.6,1.44-2.84,2.44-4.56L27.16,34h4L23,47.16,31.36,61Z"/><path class="cls-2" d="M51.56,32.6V56c0,1.72,0,3.68.16,5H48.56l-.16-3.36h-.08a7.16,7.16,0,0,1-6.6,3.8c-4.68,0-8.28-4-8.28-9.84,0-6.44,4-10.4,8.68-10.4a6.47,6.47,0,0,1,5.84,3H48V32.6ZM48,49.52A6.23,6.23,0,0,0,47.88,48,5.18,5.18,0,0,0,42.8,44c-3.64,0-5.8,3.2-5.8,7.48,0,3.92,1.92,7.16,5.72,7.16a5.29,5.29,0,0,0,5.16-4.2A6.13,6.13,0,0,0,48,52.88Z"/></g></g></svg>