<svg xmlns="http://www.w3.org/2000/svg" viewBox="0 0 64 84"><defs><style>.cls-1{fill:#300;stroke:#ff9a00;stroke-miterlimit:10;stroke-width:4px;}.cls-2{fill:#ff9a00;}</style></defs><title>ai</title><g id="Layer_2" data-name="Layer 2"><g id="Adobe"><path class="cls-1" d="M60.54,25.54,38.46,3.46A5,5,0,0,0,34.93,2H11a9,9,0,0,0-9,9V73a9,9,0,0,0,9,9H53a9,9,0,0,0,9-9V29.07A5,5,0,0,0,60.54,25.54Z"/><path class="cls-2" d="M22.54,52.52,19.74,61h-3.6L25.3,34h4.2l9.2,27H35L32.1,52.52Zm8.84-2.72L28.74,42c-.6-1.76-1-3.36-1.4-4.92h-.08c-.4,1.6-.84,3.24-1.36,4.88l-2.64,7.8Z"/><path class="cls-2" d="M46.34,36.2a2.18,2.18,0,0,1-4.36,0,2.14,2.14,0,0,1,2.2-2.2A2.09,2.09,0,0,1,46.34,36.2ZM42.42,61V41.64h3.52V61Z"/></g></g></svg>