<svg xmlns="http://www.w3.org/2000/svg" viewBox="0 0 64 84"><defs><style>.cls-1{fill:#001e36;stroke:#31a8ff;stroke-miterlimit:10;stroke-width:4px;}.cls-2{fill:#31a8ff;}</style></defs><title>adobe-photoshop</title><g id="Layer_2" data-name="Layer 2"><g id="Adobe"><path class="cls-1" d="M62,29.07V73a9,9,0,0,1-9,9H11a9,9,0,0,1-9-9V11a9,9,0,0,1,9-9H34.93a5,5,0,0,1,3.54,1.46L60.54,25.54A5,5,0,0,1,62,29.07Z"/><path class="cls-2" d="M16.92,34.36a40.35,40.35,0,0,1,6.68-.52c3.44,0,6,.8,7.56,2.24a7.25,7.25,0,0,1,2.36,5.64,7.94,7.94,0,0,1-2.08,5.76c-1.84,2-4.84,3-8.24,3a12,12,0,0,1-2.8-.24V61H16.92Zm3.48,13a11.66,11.66,0,0,0,2.88.28c4.2,0,6.76-2,6.76-5.76,0-3.56-2.52-5.28-6.36-5.28a14.58,14.58,0,0,0-3.28.28Z"/><path class="cls-2" d="M36.72,57.4a9.22,9.22,0,0,0,4.64,1.4c2.56,0,3.76-1.28,3.76-2.88s-1-2.6-3.6-3.56C38,51.12,36.4,49.2,36.4,46.88c0-3.12,2.52-5.68,6.68-5.68a9.66,9.66,0,0,1,4.76,1.2L47,45a7.53,7.53,0,0,0-4-1.12c-2.08,0-3.24,1.2-3.24,2.64,0,1.6,1.16,2.32,3.68,3.28,3.36,1.28,5.08,3,5.08,5.84,0,3.4-2.64,5.8-7.24,5.8a11,11,0,0,1-5.44-1.32Z"/></g></g></svg>