<svg xmlns="http://www.w3.org/2000/svg" viewBox="0 0 64 84"><defs><style>.cls-1{fill:#180024;stroke:#b464ca;stroke-miterlimit:10;stroke-width:4px;}.cls-2{fill:#b464ca;}</style></defs><title>adobe-premierepro</title><g id="Layer_2" data-name="Layer 2"><g id="Adobe"><path class="cls-1" d="M62,29.07V73a9,9,0,0,1-9,9H11a9,9,0,0,1-9-9V11a9,9,0,0,1,9-9H34.93a5,5,0,0,1,3.54,1.46L60.54,25.54A5,5,0,0,1,62,29.07Z"/><path class="cls-2" d="M18.18,34.36a40.35,40.35,0,0,1,6.68-.52c3.44,0,6,.8,7.56,2.24a7.25,7.25,0,0,1,2.36,5.64,7.94,7.94,0,0,1-2.08,5.76c-1.84,2-4.84,3-8.24,3a12,12,0,0,1-2.8-.24V61H18.18Zm3.48,13a11.66,11.66,0,0,0,2.88.28c4.2,0,6.76-2,6.76-5.76,0-3.56-2.52-5.28-6.36-5.28a14.58,14.58,0,0,0-3.28.28Z"/><path class="cls-2" d="M38.7,47.68c0-2.28,0-4.24-.16-6h3.08l.12,3.8h.16a5.81,5.81,0,0,1,5.36-4.24,3.8,3.8,0,0,1,1,.12v3.32a5.3,5.3,0,0,0-1.2-.12c-2.48,0-4.24,1.88-4.72,4.52a9.9,9.9,0,0,0-.16,1.64V61H38.7Z"/></g></g></svg>