<svg xmlns="http://www.w3.org/2000/svg" viewBox="0 0 64 84"><defs><style>.cls-1{fill:#1b0c29;stroke:#ac52fa;stroke-miterlimit:10;stroke-width:4px;}.cls-2{fill:#ac52fa;}</style></defs><title>adobe-aftereffects</title><g id="Layer_2" data-name="Layer 2"><g id="Adobe"><path class="cls-1" d="M62,29.07V73a9,9,0,0,1-9,9H11a9,9,0,0,1-9-9V11a9,9,0,0,1,9-9H34.93a5,5,0,0,1,3.54,1.46L60.54,25.54A5,5,0,0,1,62,29.07Z"/><path class="cls-2" d="M17.38,52.52,14.58,61H11l9.16-27h4.2l9.2,27H29.82l-2.88-8.48Zm8.84-2.72L23.58,42c-.6-1.76-1-3.36-1.4-4.92H22.1c-.4,1.6-.84,3.24-1.36,4.88L18.1,49.8Z"/><path class="cls-2" d="M38.86,52c.08,4.76,3.12,6.72,6.64,6.72a12.73,12.73,0,0,0,5.36-1l.6,2.52A15.68,15.68,0,0,1,45,61.4c-6,0-9.52-3.92-9.52-9.76S38.94,41.2,44.58,41.2c6.32,0,8,5.56,8,9.12A13.28,13.28,0,0,1,52.46,52Zm10.32-2.52c0-2.24-.92-5.72-4.88-5.72-3.56,0-5.12,3.28-5.4,5.72Z"/></g></g></svg>