<svg xmlns="http://www.w3.org/2000/svg" viewBox="0 0 64 84"><defs><style>.cls-1{fill:#2a0110;stroke:#ff3a94;stroke-miterlimit:10;stroke-width:4px;}.cls-2{fill:#ff3a94;}</style></defs><title>adobe-indesign</title><g id="Layer_2" data-name="Layer 2"><g id="Adobe"><path class="cls-1" d="M62,29.07V73a9,9,0,0,1-9,9H11a9,9,0,0,1-9-9V11a9,9,0,0,1,9-9H34.93a5,5,0,0,1,3.54,1.46L60.54,25.54A5,5,0,0,1,62,29.07Z"/><path class="cls-2" d="M22.46,34V61H19V34Z"/><path class="cls-2" d="M45.14,32.6V56c0,1.72,0,3.68.16,5H42.14L42,57.64H41.9a7.16,7.16,0,0,1-6.6,3.8c-4.68,0-8.28-4-8.28-9.84,0-6.44,4-10.4,8.68-10.4a6.47,6.47,0,0,1,5.84,3h.08V32.6ZM41.62,49.52A6.23,6.23,0,0,0,41.46,48,5.18,5.18,0,0,0,36.38,44c-3.64,0-5.8,3.2-5.8,7.48,0,3.92,1.92,7.16,5.72,7.16a5.29,5.29,0,0,0,5.16-4.2,6.13,6.13,0,0,0,.16-1.52Z"/></g></g></svg>