<svg xmlns="http://www.w3.org/2000/svg" viewBox="0 0 60 80"><defs><style>.cls-1{fill:#424242;}.cls-2{fill:#fff;}</style></defs><title>Font</title><g id="Layer_2" data-name="Layer 2"><g id="Greys"><path class="cls-1" d="M60,27.07V71a9,9,0,0,1-9,9H9a9,9,0,0,1-9-9V9A9,9,0,0,1,9,0H32.93a5,5,0,0,1,3.54,1.46L58.54,23.54A5,5,0,0,1,60,27.07Z"/><path class="cls-2" d="M9.47,31.74c0,4.51,0,4.9.93,4.9s1.13-.59,1.62-2.35L12.7,32,16,31.84l3.29-.15V57.63l-2,.34c-1.77.29-2,.49-2,1.77v1.42H30.07V59.74c0-1.28-.2-1.47-2-1.77l-2-.34V31.69l3.29.15,3.29.15.69,2.31c.49,1.77.88,2.35,1.62,2.35s.93-.39.93-4.9v-4.9H9.47Z"/><path class="cls-2" d="M30.34,42.77c0,3.24.1,3.68.88,3.68a1.9,1.9,0,0,0,1.47-1.23c.49-1,.88-1.23,2.8-1.23H37.7V57.19l-2,.59c-1.67.54-2,.78-2,2v1.37H46V59.79c0-1.23-.29-1.47-2-2l-2-.59V44h2.21c1.91,0,2.31.2,2.8,1.23a1.9,1.9,0,0,0,1.47,1.23c.78,0,.88-.44.88-3.68V39.1H30.34Z"/></g></g></svg>