<svg xmlns="http://www.w3.org/2000/svg" viewBox="0 0 60 80"><defs><style>.cls-1{fill:#4285f4;}.cls-2{fill:#fff;}</style></defs><title>image</title><g id="Layer_2" data-name="Layer 2"><g id="Base"><path class="cls-1" d="M60,27.07V71a9,9,0,0,1-9,9H9a9,9,0,0,1-9-9V9A9,9,0,0,1,9,0H32.93a5,5,0,0,1,3.54,1.46L58.54,23.54A5,5,0,0,1,60,27.07Z"/><polygon class="cls-2" points="7.89 59.83 7.89 53.77 18.24 43.39 23.35 48.59 39.62 32.19 52.9 45.4 52.9 59.83 7.89 59.83"/><circle class="cls-2" cx="14.16" cy="33" r="5.92"/></g></g></svg>