<svg xmlns="http://www.w3.org/2000/svg" viewBox="0 0 60 80"><defs><style>.cls-1{fill:#f7df1e;}</style></defs><title>javascript</title><g id="Layer_2" data-name="Layer 2"><g id="Code"><path class="cls-1" d="M60,27.07V71a9,9,0,0,1-9,9H9a9,9,0,0,1-9-9V9A9,9,0,0,1,9,0H32.93a5,5,0,0,1,3.54,1.46L58.54,23.54A5,5,0,0,1,60,27.07Z"/><path d="M39.17,58.91a8,8,0,0,1-1.63,5.38,5.92,5.92,0,0,1-4.72,1.87,6.71,6.71,0,0,1-2.55-.48V62a3.66,3.66,0,0,0,2.27.77q2.7,0,2.7-4V48.36h3.93Z"/><path d="M42.19,65.18v-3.9a7.48,7.48,0,0,0,2.31,1.33,7.39,7.39,0,0,0,2.51.45,5.56,5.56,0,0,0,1.3-.13,3.06,3.06,0,0,0,.93-.37,1.63,1.63,0,0,0,.56-.56,1.4,1.4,0,0,0,.18-.7,1.52,1.52,0,0,0-.29-.92,3.14,3.14,0,0,0-.8-.74,8.42,8.42,0,0,0-1.2-.66q-.7-.32-1.5-.65a7.66,7.66,0,0,1-3.06-2.09,4.55,4.55,0,0,1-1-3,4.74,4.74,0,0,1,.55-2.35,4.65,4.65,0,0,1,1.49-1.62,6.67,6.67,0,0,1,2.19-.93,11.25,11.25,0,0,1,2.64-.3,15.91,15.91,0,0,1,2.42.16,9.58,9.58,0,0,1,1.95.51v3.65a6,6,0,0,0-1-.54,7.75,7.75,0,0,0-1.07-.38,8.16,8.16,0,0,0-1.09-.23,7.72,7.72,0,0,0-1-.07,5.35,5.35,0,0,0-1.22.13,3.15,3.15,0,0,0-.93.36,1.79,1.79,0,0,0-.59.56,1.32,1.32,0,0,0-.21.73,1.39,1.39,0,0,0,.23.79,2.64,2.64,0,0,0,.66.66,6.93,6.93,0,0,0,1,.61q.61.3,1.38.62a15.3,15.3,0,0,1,1.88.93,6.71,6.71,0,0,1,1.43,1.12,4.36,4.36,0,0,1,.91,1.42,5,5,0,0,1,.32,1.86,5,5,0,0,1-.56,2.46A4.5,4.5,0,0,1,52.06,65a6.56,6.56,0,0,1-2.21.88,12.88,12.88,0,0,1-2.67.27,14.79,14.79,0,0,1-2.74-.24A8.25,8.25,0,0,1,42.19,65.18Z"/></g></g></svg>