<svg xmlns="http://www.w3.org/2000/svg" viewBox="0 0 60 80"><defs><style>.cls-1{fill:#d04423;}.cls-2{fill:#fff;}</style></defs><title>microsoft-powerpoint</title><g id="Layer_2" data-name="Layer 2"><g id="Microsoft"><path class="cls-1" d="M60,27.07V71a9,9,0,0,1-9,9H9a9,9,0,0,1-9-9V9A9,9,0,0,1,9,0H32.93a5,5,0,0,1,3.54,1.46L58.54,23.54A5,5,0,0,1,60,27.07Z"/><path class="cls-2" d="M19.93,59V30.37h9.28a33.67,33.67,0,0,1,6.87.43,7.51,7.51,0,0,1,4.12,2.8,8.89,8.89,0,0,1,1.66,5.58,9.35,9.35,0,0,1-1,4.43,7.85,7.85,0,0,1-2.43,2.82,8.38,8.38,0,0,1-3,1.36,33,33,0,0,1-6,.41H25.71V59Zm5.78-23.79v8.13h3.16a14.94,14.94,0,0,0,4.57-.45,3.8,3.8,0,0,0,1.81-1.41,3.85,3.85,0,0,0,.65-2.23A3.7,3.7,0,0,0,35,36.68a4,4,0,0,0-2.32-1.27,27.84,27.84,0,0,0-4.16-.2Z"/></g></g></svg>