<svg xmlns="http://www.w3.org/2000/svg" viewBox="0 0 60 80"><defs><style>.cls-1{fill:#a266ee;}.cls-2{fill:#fff;}</style></defs><title>music</title><g id="Layer_2" data-name="Layer 2"><g id="Base"><path class="cls-1" d="M60,27.07V71a9,9,0,0,1-9,9H9a9,9,0,0,1-9-9V9A9,9,0,0,1,9,0H32.93a5,5,0,0,1,3.54,1.46L58.54,23.54A5,5,0,0,1,60,27.07Z"/><ellipse class="cls-2" cx="15.63" cy="60" rx="6.06" ry="4.7" transform="translate(-17.59 7.65) rotate(-17.8)"/><ellipse class="cls-2" cx="35.23" cy="56.26" rx="6.06" ry="4.7" transform="translate(-15.51 13.46) rotate(-17.8)"/><polyline class="cls-2" points="21.54 58.79 21.54 36.6 38.16 33.53 38.16 51.74 41 54.4 41 24.84 18.58 28.51 18.58 55.49"/></g></g></svg>