<svg xmlns="http://www.w3.org/2000/svg" viewBox="0 0 60 80"><defs><style>.cls-1{fill:#f15642;}.cls-2{fill:#fff;}</style></defs><title>pdf</title><g id="Layer_2" data-name="Layer 2"><g id="Adobe"><path class="cls-1" d="M60,27.07V71a9,9,0,0,1-9,9H9a9,9,0,0,1-9-9V9A9,9,0,0,1,9,0H32.93a5,5,0,0,1,3.54,1.46L58.54,23.54A5,5,0,0,1,60,27.07Z"/><path class="cls-2" d="M11.85,52.73V59H7.75V40.79h6.42q6.88,0,6.88,5.8a5.57,5.57,0,0,1-2,4.44,7.82,7.82,0,0,1-5.28,1.69Zm0-8.79v5.67h1.61q3.28,0,3.28-2.87t-3.28-2.81Z"/><path class="cls-2" d="M23.72,59V40.79h6.45q9.7,0,9.7,8.87a9,9,0,0,1-2.65,6.79A9.76,9.76,0,0,1,30.17,59Zm4.1-14.87V55.67h2A5.49,5.49,0,0,0,34,54.07a6.07,6.07,0,0,0,1.52-4.35A5.51,5.51,0,0,0,34,45.63a5.74,5.74,0,0,0-4.22-1.49Z"/><path class="cls-2" d="M53.42,44.13H47V48.6h5.9v3.33H47V59h-4.1V40.79H53.42Z"/></g></g></svg>