<svg xmlns="http://www.w3.org/2000/svg" viewBox="0 0 60 80"><defs><style>.cls-1{fill:#8993c1;}.cls-2{fill:#222430;}</style></defs><title>php</title><g id="Layer_2" data-name="Layer 2"><g id="Code"><path class="cls-1" d="M60,27.07V71a9,9,0,0,1-9,9H9a9,9,0,0,1-9-9V9A9,9,0,0,1,9,0H32.93a5,5,0,0,1,3.54,1.46L58.54,23.54A5,5,0,0,1,60,27.07Z"/><path class="cls-2" d="M20.5,53.34A6.84,6.84,0,0,1,20,55.81a5.5,5.5,0,0,1-1.4,2.07,7,7,0,0,1-2.42,1.42,10.28,10.28,0,0,1-3.5.53H10.28L9,65.85H5L8.75,48.36h6a7.74,7.74,0,0,1,2.57.38,5,5,0,0,1,1.79,1,4.17,4.17,0,0,1,1,1.57A5.58,5.58,0,0,1,20.5,53.34Zm-4.17.27A2,2,0,0,0,15.64,52a3,3,0,0,0-2-.6H12.08l-1.16,5.45h1.81a4.49,4.49,0,0,0,1.62-.26,3.14,3.14,0,0,0,1.12-.71,2.83,2.83,0,0,0,.65-1A3.56,3.56,0,0,0,16.33,53.61Z"/><path class="cls-2" d="M35.91,65.85h-4l1.49-7.08H26.25l-1.5,7.08h-4l3.72-17.49h4l-1.5,7h7.2l1.5-7h4Z"/><path class="cls-2" d="M55.33,53.34a6.84,6.84,0,0,1-.45,2.47,5.51,5.51,0,0,1-1.4,2.07,7,7,0,0,1-2.42,1.42,10.29,10.29,0,0,1-3.5.53H45.11l-1.27,6h-4l3.72-17.49h6a7.74,7.74,0,0,1,2.57.38,5,5,0,0,1,1.79,1,4.17,4.17,0,0,1,1,1.57A5.56,5.56,0,0,1,55.33,53.34Zm-4.17.27A2.05,2.05,0,0,0,50.47,52a3,3,0,0,0-2-.6H46.91l-1.16,5.45h1.81a4.5,4.5,0,0,0,1.62-.26,3.14,3.14,0,0,0,1.12-.71,2.82,2.82,0,0,0,.65-1A3.56,3.56,0,0,0,51.16,53.61Z"/></g></g></svg>