<svg xmlns="http://www.w3.org/2000/svg" viewBox="0 0 60 80"><defs><style>.cls-1{fill:#346f9d;}.cls-2{fill:#f4cf41;}.cls-3{fill:#fff;}</style></defs><title>python</title><g id="Layer_2" data-name="Layer 2"><g id="Code"><path class="cls-1" d="M60,27.07V71a9,9,0,0,1-9,9H9a9,9,0,0,1-9-9V9A9,9,0,0,1,9,0H32.93a5,5,0,0,1,3.54,1.46L58.54,23.54A5,5,0,0,1,60,27.07Z"/><path class="cls-2" d="M9,80a9,9,0,0,1-9-9L60,27.07V71a9,9,0,0,1-9,9Z"/><path class="cls-3" d="M8.45,59V30.37h9.28a33.67,33.67,0,0,1,6.88.43,7.51,7.51,0,0,1,4.12,2.8,8.89,8.89,0,0,1,1.66,5.58,9.34,9.34,0,0,1-1,4.43A7.85,7.85,0,0,1,27,46.43a8.37,8.37,0,0,1-3,1.36,33,33,0,0,1-6,.41H14.23V59Zm5.78-23.79v8.13h3.16A14.94,14.94,0,0,0,22,42.89a3.79,3.79,0,0,0,1.81-1.41,3.85,3.85,0,0,0,.65-2.23,3.7,3.7,0,0,0-.92-2.58,4,4,0,0,0-2.32-1.27,27.84,27.84,0,0,0-4.16-.2Z"/><path class="cls-3" d="M32.49,38.26h5.84l5,14.73,4.84-14.73h5.68l-7.32,20-1.31,3.61a14.77,14.77,0,0,1-1.38,2.77,6,6,0,0,1-1.5,1.55,6.6,6.6,0,0,1-2.09.93,10.88,10.88,0,0,1-2.8.33,14.58,14.58,0,0,1-3.11-.33l-.49-4.3a12.16,12.16,0,0,0,2.32.25A3.45,3.45,0,0,0,39,61.92a7.81,7.81,0,0,0,1.41-2.86Z"/></g></g></svg>