<svg xmlns="http://www.w3.org/2000/svg" viewBox="0 0 65.05 80"><defs><style>.cls-1{fill:#bec7d1;}.cls-2,.cls-3{fill:none;stroke:#fff;stroke-miterlimit:10;stroke-width:4px;}.cls-3{stroke-linecap:round;}.cls-4{font-size:24.99px;fill:#424242;font-family:SegoeUI-Bold, Segoe UI;font-weight:700;}</style></defs><title>zip</title><g id="Layer_2" data-name="Layer 2"><g id="Greys"><path class="cls-1" d="M60,27.07V71a9,9,0,0,1-9,9H9a9,9,0,0,1-9-9V9A9,9,0,0,1,9,0H32.93a5,5,0,0,1,3.54,1.46L58.54,23.54A5,5,0,0,1,60,27.07Z"/><line class="cls-2" x1="20" x2="20" y2="50"/><line class="cls-3" x1="20" y1="10" x2="10" y2="10"/><line class="cls-3" x1="20" y1="18" x2="30" y2="18"/><line class="cls-3" x1="20" y1="26" x2="10" y2="26"/><line class="cls-3" x1="20" y1="34" x2="30" y2="34"/><rect class="cls-2" x="15" y="50" width="10" height="20" rx="5" ry="5"/><line class="cls-3" x1="20" y1="42" x2="10" y2="42"/></g><g id="Code"><text class="cls-4" transform="translate(54.29 71.75) rotate(-90)">ZIP</text></g></g></svg>