<svg xmlns="http://www.w3.org/2000/svg" viewBox="0 0 936.39 349.15"><defs><style>.cls-1,.cls-3{fill:none;stroke:#2e3192;stroke-miterlimit:10;stroke-width:2px;}.cls-2{opacity:0.5;}.cls-3{opacity:0.9;}</style></defs><title>Detail</title><g id="Layer_2" data-name="Layer 2"><g id="Layer_1-2" data-name="Layer 1"><path class="cls-1" d="M235.72,1h48.19a19.37,19.37,0,0,1,10.32,2.9l50.19,31.78a19.37,19.37,0,0,0,10.32,2.9H580.69A19.37,19.37,0,0,0,591,35.69L641.2,3.9A19.37,19.37,0,0,1,651.52,1h48.19"/><g class="cls-2"><path class="cls-1" d="M190.35,1,10.77,127.35A23,23,0,0,0,1,146.17v64"/><path class="cls-3" d="M190.35,348.17l-164-115.39A23,23,0,0,1,16.6,214V150"/></g><g class="cls-2"><path class="cls-1" d="M746,1,925.61,127.35a23,23,0,0,1,9.77,18.82v64"/><path class="cls-1" d="M746,348.17,910,232.78a23,23,0,0,0,9.76-18.8V150"/></g><path class="cls-1" d="M700.19,348.15H652a19.37,19.37,0,0,1-10.32-2.9l-50.19-31.78a19.37,19.37,0,0,0-10.32-2.9H355.22a19.37,19.37,0,0,0-10.32,2.9l-50.19,31.78a19.37,19.37,0,0,1-10.32,2.9H236.2"/></g></g></svg>