<svg xmlns="http://www.w3.org/2000/svg" viewBox="0 0 82.82 135.89"><defs><style>.cls-1{fill:#999;}</style></defs><title>empty_bin</title><g id="Layer_2" data-name="Layer 2"><g id="Empty_Bin" data-name="Empty Bin"><path class="cls-1" d="M73.81,42.89H1.8a1.8,1.8,0,0,0-1.79,2L8.6,129a7.7,7.7,0,0,0,7.66,6.92H59.35A7.7,7.7,0,0,0,67,129l8.59-84.1A1.8,1.8,0,0,0,73.81,42.89ZM21.56,122.35A2.5,2.5,0,0,1,18.93,120L15.69,58.07a2.5,2.5,0,0,1,5-.26l3.24,61.92A2.5,2.5,0,0,1,21.56,122.35Zm18.75-2.45a2.5,2.5,0,0,1-5,0v-62a2.5,2.5,0,0,1,5,0Zm16.37.09a2.5,2.5,0,1,1-5-.26L54.93,57.8a2.5,2.5,0,0,1,5,.26Z"/><path class="cls-1" d="M80.51,33.51,65.11,26.33l.21-13.92a3,3,0,0,0-1.75-2.8l-10-4.66L43.56.28a3,3,0,0,0-3.27.46L29.76,9.85,14.35,2.66A4,4,0,0,0,11,9.91L77.13,40.76a4,4,0,1,0,3.38-7.25ZM35.08,12.31l5.56-4.8a3,3,0,0,1,3.27-.45L51,10.39l6.83,3.19a3,3,0,0,1,1.75,2.8l-.11,7.35Z"/></g></g></svg>