<svg xmlns="http://www.w3.org/2000/svg" viewBox="0 0 124 135.2"><defs><style>.cls-1{fill:#999;}.cls-2{fill:#dde3e8;}.cls-3{fill:#ffa000;}.cls-4{fill:#ffca28;}.cls-5{fill:#4285f4;}.cls-6{fill:#fff;}.cls-7{fill:#ff453a;}.cls-8{fill:#a266ee;}.cls-9{fill:#f15642;}</style></defs><title>files</title><g id="Layer_2" data-name="Layer 2"><g id="Layer_1-2" data-name="Layer 1"><path class="cls-1" d="M95.61,66.31l-15,41.28A9,9,0,0,1,69.05,113L29.59,98.61a9,9,0,0,1-5.38-11.54L45.41,28.81a9,9,0,0,1,11.54-5.38l22.49,8.18a5,5,0,0,1,2.82,2.59L95.45,62.49A5,5,0,0,1,95.61,66.31Z"/><path class="cls-2" d="M92,55.27V99.2a9,9,0,0,1-9,9H41a9,9,0,0,1-9-9v-62a9,9,0,0,1,9-9H64.93a5,5,0,0,1,3.54,1.46L90.54,51.74A5,5,0,0,1,92,55.27Z"/><path class="cls-1" d="M65.22,56.69a4.74,4.74,0,0,0-6.62.94c-1.77,2.11-9.38,18.13-9.38,18.13S63.68,65.48,65.44,63.37A4.74,4.74,0,0,0,65.22,56.69Z"/><path class="cls-1" d="M59,80.68A4.74,4.74,0,0,1,58.78,74C60.54,71.88,75,61.61,75,61.61s-7.61,16-9.38,18.13A4.74,4.74,0,0,1,59,80.68Z"/><path class="cls-3" d="M75.2,1.8H67.1L65.3,0H60.8A1.81,1.81,0,0,0,59,1.8V5.4H77V3.6A1.81,1.81,0,0,0,75.2,1.8Z"/><path class="cls-4" d="M75.2,1.8H60.8A1.81,1.81,0,0,0,59,3.6v9a1.81,1.81,0,0,0,1.8,1.8H75.2A1.81,1.81,0,0,0,77,12.6v-9A1.81,1.81,0,0,0,75.2,1.8Z"/><path class="cls-5" d="M124,42.32V55.5a2.71,2.71,0,0,1-2.7,2.7H108.7a2.71,2.71,0,0,1-2.7-2.7V36.9a2.71,2.71,0,0,1,2.7-2.7h7.18a1.5,1.5,0,0,1,1.06.44l6.62,6.62A1.5,1.5,0,0,1,124,42.32Z"/><polygon class="cls-6" points="108.37 52.15 108.37 50.33 111.47 47.22 113 48.78 117.89 43.86 121.87 47.82 121.87 52.15 108.37 52.15"/><circle class="cls-6" cx="110.25" cy="44.1" r="1.78"/><path class="cls-7" d="M34,119.32V132.5a2.71,2.71,0,0,1-2.7,2.7H18.7a2.71,2.71,0,0,1-2.7-2.7V113.9a2.71,2.71,0,0,1,2.7-2.7h7.18a1.5,1.5,0,0,1,1.06.44l6.62,6.62A1.5,1.5,0,0,1,34,119.32Z"/><path class="cls-6" d="M21.74,119.83v8.63a.49.49,0,0,0,.74.41l7-4.31a.49.49,0,0,0,0-.83l-7-4.31A.49.49,0,0,0,21.74,119.83Z"/><path class="cls-8" d="M18,42.32V55.5a2.71,2.71,0,0,1-2.7,2.7H2.7A2.71,2.71,0,0,1,0,55.5V36.9a2.71,2.71,0,0,1,2.7-2.7H9.88a1.5,1.5,0,0,1,1.06.44l6.62,6.62A1.5,1.5,0,0,1,18,42.32Z"/><ellipse class="cls-6" cx="4.69" cy="52.2" rx="1.82" ry="1.41" transform="translate(-15.73 3.93) rotate(-17.8)"/><ellipse class="cls-6" cx="10.57" cy="51.08" rx="1.82" ry="1.41" transform="translate(-15.11 5.68) rotate(-17.8)"/><polyline class="cls-6" points="6.46 51.84 6.46 45.18 11.45 44.26 11.45 49.72 12.3 50.52 12.3 41.65 5.58 42.75 5.58 50.85"/><path class="cls-9" d="M120,107.32V120.5a2.71,2.71,0,0,1-2.7,2.7H104.7a2.71,2.71,0,0,1-2.7-2.7V101.9a2.71,2.71,0,0,1,2.7-2.7h7.18a1.5,1.5,0,0,1,1.06.44l6.62,6.62A1.5,1.5,0,0,1,120,107.32Z"/><path class="cls-6" d="M105.56,115v1.88h-1.23v-5.46h1.93q2.06,0,2.06,1.74a1.67,1.67,0,0,1-.59,1.33,2.35,2.35,0,0,1-1.58.51Zm0-2.64v1.7H106q1,0,1-.86t-1-.84Z"/><path class="cls-6" d="M109.12,116.9v-5.46h1.93q2.91,0,2.91,2.66a2.69,2.69,0,0,1-.79,2,2.93,2.93,0,0,1-2.12.76Zm1.23-4.46v3.46H111a1.65,1.65,0,0,0,1.26-.48,1.82,1.82,0,0,0,.46-1.31,1.65,1.65,0,0,0-.45-1.23,1.72,1.72,0,0,0-1.27-.45Z"/><path class="cls-6" d="M118,112.44H116.1v1.34h1.77v1H116.1v2.12h-1.23v-5.46H118Z"/></g></g></svg>