<svg xmlns="http://www.w3.org/2000/svg" viewBox="0 0 59.2 228.75"><defs><style>.cls-1{fill:#c1272d;stroke:#9b3131;}.cls-1,.cls-10,.cls-11,.cls-12,.cls-2,.cls-3,.cls-4,.cls-5,.cls-6,.cls-7,.cls-8,.cls-9{stroke-miterlimit:10;}.cls-10,.cls-11,.cls-12,.cls-2,.cls-3,.cls-4,.cls-5,.cls-6,.cls-7,.cls-8,.cls-9{fill:none;}.cls-2{stroke:#fff;}.cls-3{stroke:aqua;}.cls-4{stroke:#fcee21;}.cls-5{stroke:#c69c6d;}.cls-6{stroke:#f7931e;}.cls-7{stroke:#0071bc;}.cls-8{stroke:#7ac943;}.cls-9{stroke:#ff7bac;}.cls-10{stroke:#006837;}.cls-11{stroke:#ff0013;}.cls-12{stroke:#662d91;}</style></defs><title>Flow Diagram</title><g id="Layer_2" data-name="Layer 2"><g id="Layer_1-2" data-name="Layer 1"><line class="cls-1" x1="29.59" y1="10.5" x2="29.59" y2="35.81"/><line class="cls-2" x1="29.59" y1="88.16" x2="29.59" y2="103.49"/><line class="cls-2" x1="34.59" y1="83.16" x2="46.92" y2="83.16"/><circle class="cls-3" cx="29.59" cy="5.5" r="5"/><line class="cls-2" x1="24.59" y1="83.16" x2="12.26" y2="83.16"/><line class="cls-1" x1="29.59" y1="78.16" x2="29.59" y2="53.5"/><circle class="cls-4" cx="29.59" cy="83.16" r="5"/><line class="cls-2" x1="38.31" y1="124.54" x2="50.16" y2="136.39"/><line class="cls-2" x1="20.89" y1="124.56" x2="9.03" y2="136.43"/><circle class="cls-5" cx="29.59" cy="115.82" r="12.33"/><circle class="cls-6" cx="29.59" cy="44.66" r="8.84"/><circle class="cls-7" cx="7.34" cy="83.16" r="5"/><circle class="cls-8" cx="51.84" cy="83.16" r="5"/><line class="cls-2" x1="50.16" y1="143.45" x2="35.43" y2="158.11"/><circle class="cls-9" cx="53.7" cy="139.92" r="5" transform="translate(-83.21 78.95) rotate(-45)"/><line class="cls-2" x1="29.58" y1="172.23" x2="29.58" y2="181.13"/><line class="cls-2" x1="9.04" y1="143.5" x2="23.73" y2="158.11"/><circle class="cls-10" cx="5.5" cy="139.97" r="5" transform="translate(-97.36 44.89) rotate(-45)"/><circle class="cls-11" cx="29.59" cy="204.69" r="23.56"/><circle class="cls-12" cx="29.58" cy="163.96" r="8.27" transform="translate(-107.27 68.94) rotate(-45)"/></g></g></svg>