<svg xmlns="http://www.w3.org/2000/svg" viewBox="0 0 85.99 10.08"><defs><style>.cls-1{fill:#e6e6e6;}</style></defs><title>Nanode</title><g id="Layer_2" data-name="Layer 2"><g id="Webpage"><path class="cls-1" d="M5.7,4.7Q6.88,6.19,7.61,7.34h0q-.1-1.9-.1-2.76V.18h0A1.9,1.9,0,0,1,9.57,2V8.58A1.36,1.36,0,0,1,8.17,9.9h0A1.43,1.43,0,0,1,7,9.37L3.9,5.42Q3,4.26,2,2.73h0Q2,4.52,2,5.5V9.9H2A1.9,1.9,0,0,1,0,8.12V1.5A1.36,1.36,0,0,1,1.4.18h0A1.43,1.43,0,0,1,2.52.71Z"/><path class="cls-1" d="M34.54,4.7q1.18,1.49,1.91,2.64h0q-.1-1.9-.1-2.76V.18h0a1.9,1.9,0,0,1,2,1.78V8.58A1.36,1.36,0,0,1,37,9.9h0a1.43,1.43,0,0,1-1.12-.53L32.74,5.42Q31.8,4.26,30.8,2.73h0q.1,1.79.1,2.77V9.9h0a1.9,1.9,0,0,1-2-1.78V1.5A1.36,1.36,0,0,1,30.24.18h0a1.43,1.43,0,0,1,1.12.53Z"/><path class="cls-1" d="M56.53,5a5.63,5.63,0,0,1-.36,2,4.41,4.41,0,0,1-1,1.59,4.71,4.71,0,0,1-1.68,1,7.09,7.09,0,0,1-4.52,0,4.71,4.71,0,0,1-1.68-1,4.41,4.41,0,0,1-1-1.59,5.63,5.63,0,0,1-.36-2,5.63,5.63,0,0,1,.36-2,4.41,4.41,0,0,1,1-1.59,4.71,4.71,0,0,1,1.68-1,7.09,7.09,0,0,1,4.52,0,4.71,4.71,0,0,1,1.68,1,4.41,4.41,0,0,1,1,1.59A5.63,5.63,0,0,1,56.53,5ZM54.47,5a4.47,4.47,0,0,0-.25-1.55,3.09,3.09,0,0,0-.68-1.11,2.73,2.73,0,0,0-1-.66,4,4,0,0,0-2.62,0,2.73,2.73,0,0,0-1,.66,3.09,3.09,0,0,0-.68,1.11A4.47,4.47,0,0,0,47.94,5a4.47,4.47,0,0,0,.25,1.55,3,3,0,0,0,.68,1.1,2.79,2.79,0,0,0,1,.66,4,4,0,0,0,2.62,0,2.79,2.79,0,0,0,1-.66,3,3,0,0,0,.68-1.1A4.47,4.47,0,0,0,54.47,5Z"/><polygon class="cls-1" points="19.31 7.42 15.19 7.42 15.84 5.93 15.19 7.42 15.84 5.93 18.67 5.93 17.27 2.52 18.16 0.18 22.5 9.9 20.39 9.9 19.31 7.42"/><path class="cls-1" d="M63.37,9.06V.88A.88.88,0,0,1,64.25,0h2L67,0l.77.07.73.11a5.73,5.73,0,0,1,.65.15A5.83,5.83,0,0,1,70.74,1a4.44,4.44,0,0,1,1.12,1,4.26,4.26,0,0,1,.69,1.31,5.11,5.11,0,0,1,.23,1.57,5.57,5.57,0,0,1-.2,1.51A4.17,4.17,0,0,1,71,8.74a5.37,5.37,0,0,1-1.44.72A8.32,8.32,0,0,1,68,9.83a15,15,0,0,1-2,.12H64.25A.88.88,0,0,1,63.37,9.06Zm2.83-.64A7,7,0,0,0,68.95,8a2.86,2.86,0,0,0,1.32-1.14,3.69,3.69,0,0,0,.45-1.92,3.82,3.82,0,0,0-.15-1.1,2.88,2.88,0,0,0-.43-.87,2.8,2.8,0,0,0-.67-.66,3.82,3.82,0,0,0-.9-.45,5.14,5.14,0,0,0-1-.24,10,10,0,0,0-1.28-.07h-.47a.42.42,0,0,0-.42.42V8a.42.42,0,0,0,.42.42Z"/><path class="cls-1" d="M81.34,8.42H86a1.52,1.52,0,0,1-1.52,1.52H80.14A1.54,1.54,0,0,1,78.6,8.41V0h5.57a1.52,1.52,0,0,1,1.52,1.52H80.6V4.1H85V5.62H80.6V7.69A.73.73,0,0,0,81.34,8.42Z"/></g></g></svg>