<svg xmlns="http://www.w3.org/2000/svg" viewBox="0 0 424.32 173.46"><defs><style>.cls-1{fill:none;stroke:#fff;stroke-miterlimit:10;}</style></defs><title>PCB</title><g id="Layer_2" data-name="Layer 2"><g id="Layer_1-2" data-name="Layer 1"><circle class="cls-1" cx="23.55" cy="132.27" r="5"/><polyline class="cls-1" points="301.17 150.57 278.78 172.96 143.77 172.96 103.08 132.27 28.55 132.27"/><circle class="cls-1" cx="304.67" cy="147.01" r="5"/><polyline class="cls-1" points="285.8 99.83 251.96 99.83 231.62 120.17 157.64 120.17 146.54 109.07 109 109.09"/><circle class="cls-1" cx="104" cy="109.09" r="5"/><circle class="cls-1" cx="290.8" cy="99.83" r="5"/><polyline class="cls-1" points="213.5 146.02 241.79 146.06 270.46 120.17 330.57 120.17 359.7 146.53 399.55 146.53"/><line class="cls-1" x1="330.57" y1="120.17" x2="399.55" y2="120.17"/><circle class="cls-1" cx="208.5" cy="146.02" r="5"/><circle class="cls-1" cx="404.55" cy="146.53" r="5"/><circle class="cls-1" cx="404.55" cy="120.17" r="5"/><polyline class="cls-1" points="413.82 32.69 342.13 32.69 328.26 47.49 225.06 47.49"/><line class="cls-1" x1="328.26" y1="47.49" x2="387.99" y2="47.49"/><circle class="cls-1" cx="392.99" cy="47.49" r="5"/><circle class="cls-1" cx="418.82" cy="32.69" r="5"/><circle class="cls-1" cx="220.06" cy="47.49" r="5"/><polyline class="cls-1" points="367.18 75.77 229.77 75.78 211.27 94.28 190.38 94.28"/><circle class="cls-1" cx="372.18" cy="75.77" r="5"/><circle class="cls-1" cx="185.38" cy="94.28" r="5"/><circle class="cls-1" cx="5.5" cy="103.15" r="5"/><polyline class="cls-1" points="10.5 103.15 62.84 103.15 80.41 85.58 140.51 85.58 157.62 68.47 196.55 68.47"/><circle class="cls-1" cx="201.55" cy="68.47" r="5"/><polyline class="cls-1" points="76.6 56.57 145.58 56.57 170.55 31.6 238.6 31.6"/><circle class="cls-1" cx="71.6" cy="56.57" r="5"/><circle class="cls-1" cx="243.6" cy="31.6" r="5"/><polyline class="cls-1" points="137.13 23.23 154.86 5.5 300.6 5.5"/><circle class="cls-1" cx="133.59" cy="26.77" r="5"/><circle class="cls-1" cx="305.6" cy="5.5" r="5"/></g></g></svg>