<svg xmlns="http://www.w3.org/2000/svg" viewBox="0 0 36.01 36.01"><defs><style>.cls-1{opacity:0.8;}.cls-2{fill:none;stroke:#2e3192;stroke-miterlimit:10;stroke-width:1.47px;}</style></defs><title>Set</title><g id="Layer_2" data-name="Layer 2"><g id="Layer_1-2" data-name="Layer 1"><g class="cls-1"><path class="cls-2" d="M29,24.35l4,2.29A17.27,17.27,0,0,1,26.64,33l-2.29-4A12.56,12.56,0,0,1,18,30.7v4.57A17.14,17.14,0,0,1,9.37,33l2.28-4A12.63,12.63,0,0,1,7,24.35l-4,2.29A17.18,17.18,0,0,1,.74,18H5.31A12.58,12.58,0,0,1,7,11.66l-4-2.28A17.12,17.12,0,0,1,9.37,3.05l2.28,4A12.56,12.56,0,0,1,18,5.31V.74a17.16,17.16,0,0,1,8.64,2.32L24.35,7A12.72,12.72,0,0,1,29,11.66l4-2.28A17.14,17.14,0,0,1,35.28,18H30.7A12.67,12.67,0,0,1,29,24.35Z"/><circle class="cls-2" cx="18.01" cy="18.01" r="7.31"/></g></g></g></svg>